<svg width="1280" height="720" xmlns="http://www.w3.org/2000/svg" xmlns:xlink="http://www.w3.org/1999/xlink" overflow="hidden"><defs><clipPath id="clip0"><path d="M0 0 1280 0 1280 720 0 720Z" fill-rule="evenodd" clip-rule="evenodd"/></clipPath><clipPath id="clip1"><path d="M2 46 1282 46 1282 688 2 688Z" fill-rule="evenodd" clip-rule="evenodd"/></clipPath><clipPath id="clip2"><path d="M2 46 1282 46 1282 688 2 688Z" fill-rule="evenodd" clip-rule="evenodd"/></clipPath><clipPath id="clip3"><path d="M2 46 1282 46 1282 688 2 688Z" fill-rule="evenodd" clip-rule="evenodd"/></clipPath></defs><g clip-path="url(#clip0)"><rect x="0" y="0" width="1280" height="720" fill="#FFFFFF"/><rect x="533.5" y="339.5" width="277" height="228" stroke="#1F77B4" stroke-width="1.33333" stroke-miterlimit="8" stroke-dasharray="5.33333 4" fill="none"/><text fill="#1F77B4" font-family="DengXian,DengXian_MSFontService,sans-serif" font-weight="400" font-size="24" transform="translate(777.056 366)">①</text><rect x="608.5" y="138.5" width="136" height="195" stroke="#AEC7E8" stroke-width="1.33333" stroke-miterlimit="8" stroke-dasharray="5.33333 4" fill="none"/><text fill="#AEC7E8" font-family="DengXian,DengXian_MSFontService,sans-serif" font-weight="400" font-size="24" transform="translate(714.227 165)">②</text><g clip-path="url(#clip1)"><g clip-path="url(#clip2)"><g clip-path="url(#clip3)"><path d="M911.575 519.132C917.399 514.776 916.857 506.9 911.575 504.963 906.293 503.025 847.491 494.173 841.146 493.298 834.801 492.423 828.581 489.129 826.977 493.298 825.371 497.467 820.288 543.65 819.746 548.881 819.204 554.113 818.683 561.988 819.746 563.051 820.809 564.113 827.029 566.345 833.916 563.051 840.803 559.757 905.75 523.489 911.575 519.132" fill="#1F77B4" fill-opacity="0.3" transform="matrix(1.00017 0 -0 1 -238.075 -127.669)"/><path d="M920.758 440.57C921.82 439.507 920.794 431.188 920.758 426.401 920.721 421.613 921.37 380.457 920.271 376.732 919.171 373.006 907.164 375.669 906.101 376.732 905.038 377.794 906.065 386.113 906.101 390.901 906.138 395.689 905.489 436.845 906.588 440.57 907.687 444.295 919.695 441.633 920.758 440.57" fill="#AEC7E8" fill-opacity="0.3" transform="matrix(1.00017 0 -0 1 -238.075 -127.669)"/><path d="M921.492 344.452C922.555 343.389 921.499 335.133 921.492 330.283 921.485 325.432 922.465 283.569 921.395 279.781 920.325 275.994 908.288 278.719 907.225 279.781 906.163 280.844 907.218 289.101 907.225 293.951 907.233 298.801 906.253 340.664 907.322 344.452 908.393 348.24 920.429 345.515 921.492 344.452" fill="#FF7F0E" fill-opacity="0.3" transform="matrix(1.00017 0 -0 1 -238.075 -127.669)"/><path d="M886.33 675.579C887.393 674.516 890.391 667.751 886.33 661.409 882.269 655.068 837.308 596.308 832.185 591.03 827.061 585.751 819.158 587.699 818.015 591.03 816.872 594.36 817.022 631.047 816.942 635.441 816.861 639.834 812.8 646.6 816.942 649.61 821.083 652.621 866.957 673.631 872.161 675.579 877.365 677.527 885.267 676.642 886.33 675.579" fill="#FFBB78" fill-opacity="0.3" transform="matrix(1.00017 0 -0 1 -238.075 -127.669)"/><path d="M939.527 640.539C940.59 639.476 942.397 631.253 939.527 626.37 936.657 621.486 905.19 579.246 901.257 575.425 897.324 571.604 888.15 574.362 887.087 575.425 886.024 576.488 884.217 584.711 887.087 589.594 889.957 594.478 921.425 636.718 925.358 640.539 929.29 644.36 938.464 641.602 939.527 640.539" fill="#2CA02C" fill-opacity="0.3" transform="matrix(1.00017 0 -0 1 -238.075 -127.669)"/><path d="M572.754 463.553C573.817 462.49 578.093 453.295 572.754 449.383 567.414 445.472 507.964 414.249 501.562 411.4 495.16 408.551 488.455 410.337 487.393 411.4 486.33 412.462 482.053 421.658 487.393 425.569 492.732 429.481 552.182 460.704 558.584 463.553 564.986 466.402 571.691 464.616 572.754 463.553" fill="#98DF8A" fill-opacity="0.3" transform="matrix(1.00017 0 -0 1 -238.075 -127.669)"/><path d="M645.599 377.792C646.661 376.729 650.714 367.262 645.599 363.622 640.483 359.982 583.567 331.836 577.389 329.259 571.21 326.681 564.282 328.196 563.219 329.259 562.156 330.321 558.103 339.788 563.219 343.428 568.335 347.068 625.251 375.214 631.429 377.792 637.608 380.369 644.536 378.854 645.599 377.792" fill="#D62728" fill-opacity="0.3" transform="matrix(1.00017 0 -0 1 -238.075 -127.669)"/><path d="M731.031 465.522C732.094 464.459 733.675 456.911 731.031 451.352 728.387 445.793 699.485 395.895 695.779 391.399 692.072 386.902 686.459 387.132 681.609 391.399 676.76 395.665 634.905 442.959 631.118 448.289 627.331 453.618 624.687 461.166 631.118 462.458 637.549 463.751 709.368 465.292 716.862 465.522 724.355 465.751 729.968 466.584 731.031 465.522" fill="#FF9896" fill-opacity="0.3" transform="matrix(1.00017 0 -0 1 -238.075 -127.669)"/><path d="M987.126 568.974C988.189 567.911 990.106 557.957 987.126 554.805 984.147 551.652 951.438 529.027 947.395 526.937 943.353 524.847 934.289 525.874 933.226 526.937 932.163 528 930.246 537.953 933.226 541.106 936.206 544.259 968.914 566.884 972.957 568.974 976.999 571.064 986.064 570.037 987.126 568.974" fill="#9467BD" fill-opacity="0.3" transform="matrix(1.00017 0 -0 1 -238.075 -127.669)"/><path d="M702.404 530.723C703.479 526.151 703.467 517.616 702.404 516.554 701.341 515.491 690.373 513.044 688.234 516.554 686.096 520.063 674.97 558.775 673.895 563.347 672.819 567.92 672.832 576.454 673.895 577.517 674.957 578.579 685.926 581.026 688.064 577.517 690.202 574.007 701.328 535.295 702.404 530.723" fill="#C5B0D5" fill-opacity="0.3" transform="matrix(1.00017 0 -0 1 -238.075 -127.669)"/><path d="M686.734 630.068C687.645 625.267 687.797 616.961 686.734 615.898 685.672 614.836 674.538 612.161 672.565 615.898 670.591 619.636 661.333 660.934 660.423 665.735 659.512 670.535 659.36 678.842 660.423 679.904 661.486 680.967 672.619 683.642 674.592 679.904 676.566 676.167 685.824 634.868 686.734 630.068" fill="#8C564B" fill-opacity="0.3" transform="matrix(1.00017 0 -0 1 -238.075 -127.669)"/><path d="M633.735 591.964C637.002 588.14 634.798 578.857 633.735 577.794 632.672 576.731 623.896 575.034 619.565 577.794 615.235 580.555 579.267 610.779 575.999 614.602 572.732 618.426 574.936 627.709 575.999 628.772 577.062 629.835 585.838 631.532 590.169 628.772 594.499 626.011 630.467 595.787 633.735 591.964" fill="#C49C94" fill-opacity="0.3" transform="matrix(1.00017 0 -0 1 -238.075 -127.669)"/><path d="M790.575 425.849C791.638 424.786 790.742 417.664 790.575 411.679 790.408 405.694 789.58 350.972 788.351 346.05 787.121 341.128 775.244 344.987 774.181 346.05 773.118 347.113 774.014 354.234 774.181 360.219 774.348 366.204 775.176 420.927 776.406 425.849 777.635 430.771 789.512 426.911 790.575 425.849" fill="#E377C2" fill-opacity="0.3" transform="matrix(1.00017 0 -0 1 -238.075 -127.669)"/><path d="M785.266 300.73C786.328 299.668 785.296 291.921 785.266 286.561 785.235 281.201 785.955 233.56 784.862 229.263 783.769 224.965 771.755 228.2 770.692 229.263 769.63 230.325 770.662 238.072 770.692 243.432 770.723 248.792 770.003 296.433 771.096 300.73 772.189 305.028 784.203 301.793 785.266 300.73" fill="#F7B6D2" fill-opacity="0.3" transform="matrix(1.00017 0 -0 1 -238.075 -127.669)"/><path d="M914.31 286.866 914.407 337.367" stroke="#333333" stroke-width="1.41694" stroke-opacity="0.5" transform="matrix(1.00017 0 -0 1 -238.075 -127.669)"/><path d="M913.673 433.485 913.186 383.816" stroke="#333333" stroke-width="1.41694" stroke-opacity="0.5" transform="matrix(1.00017 0 -0 1 -238.075 -127.669)"/><path d="M914.407 337.367 913.186 383.816" stroke="#333333" stroke-width="5.41101" stroke-opacity="0.5" transform="matrix(1.00017 0 -0 1 -238.075 -127.669)"/><path d="M894.172 582.51 932.442 633.454" stroke="#333333" stroke-width="1.41694" stroke-opacity="0.5" transform="matrix(1.00017 0 -0 1 -238.075 -127.669)"/><path d="M824.026 642.526 879.245 668.494" stroke="#333333" stroke-width="1.41694" stroke-opacity="0.5" transform="matrix(1.00017 0 -0 1 -238.075 -127.669)"/><path d="M879.245 668.494 932.442 633.454" stroke="#333333" stroke-width="7.26816" stroke-opacity="0.5" transform="matrix(1.00017 0 -0 1 -238.075 -127.669)"/><path d="M723.946 458.437 688.694 398.483" stroke="#333333" stroke-width="1.41694" stroke-opacity="0.5" transform="matrix(1.00017 0 -0 1 -238.075 -127.669)"/><path d="M570.304 336.343 638.514 370.707" stroke="#333333" stroke-width="1.41694" stroke-opacity="0.5" transform="matrix(1.00017 0 -0 1 -238.075 -127.669)"/><path d="M638.514 370.707 688.694 398.483" stroke="#333333" stroke-width="5.41101" stroke-opacity="0.5" transform="matrix(1.00017 0 -0 1 -238.075 -127.669)"/><path d="M494.478 418.484 565.669 456.468" stroke="#333333" stroke-width="1.41694" stroke-opacity="0.5" transform="matrix(1.00017 0 -0 1 -238.075 -127.669)"/><path d="M723.946 458.437 638.203 455.373" stroke="#333333" stroke-width="1.41694" stroke-opacity="0.5" transform="matrix(1.00017 0 -0 1 -238.075 -127.669)"/><path d="M638.203 455.373 565.669 456.468" stroke="#333333" stroke-width="7.93099" stroke-opacity="0.5" transform="matrix(1.00017 0 -0 1 -238.075 -127.669)"/><path d="M980.042 561.889 940.311 534.022" stroke="#333333" stroke-width="1.41694" stroke-opacity="0.5" transform="matrix(1.00017 0 -0 1 -238.075 -127.669)"/><path d="M834.061 500.383 904.49 512.047" stroke="#333333" stroke-width="1.41694" stroke-opacity="0.5" transform="matrix(1.00017 0 -0 1 -238.075 -127.669)"/><path d="M904.49 512.047 940.311 534.022" stroke="#333333" stroke-width="5.41101" stroke-opacity="0.5" transform="matrix(1.00017 0 -0 1 -238.075 -127.669)"/><path d="M583.084 621.687 626.65 584.879" stroke="#333333" stroke-width="1.41694" stroke-opacity="0.5" transform="matrix(1.00017 0 -0 1 -238.075 -127.669)"/><path d="M695.319 523.638 680.979 570.432" stroke="#333333" stroke-width="1.41694" stroke-opacity="0.5" transform="matrix(1.00017 0 -0 1 -238.075 -127.669)"/><path d="M680.979 570.432 626.65 584.879" stroke="#333333" stroke-width="5.41101" stroke-opacity="0.5" transform="matrix(1.00017 0 -0 1 -238.075 -127.669)"/><path d="M667.508 672.82 679.649 622.983" stroke="#333333" stroke-width="1.41694" stroke-opacity="0.5" transform="matrix(1.00017 0 -0 1 -238.075 -127.669)"/><path d="M679.649 622.983 680.979 570.432" stroke="#333333" stroke-width="5.41101" stroke-opacity="0.5" transform="matrix(1.00017 0 -0 1 -238.075 -127.669)"/><path d="M783.49 418.764 781.266 353.135" stroke="#333333" stroke-width="1.41694" stroke-opacity="0.5" transform="matrix(1.00017 0 -0 1 -238.075 -127.669)"/><path d="M777.777 236.347 778.181 293.646" stroke="#333333" stroke-width="1.41694" stroke-opacity="0.5" transform="matrix(1.00017 0 -0 1 -238.075 -127.669)"/><path d="M778.181 293.646 781.266 353.135" stroke="#333333" stroke-width="7.26816" stroke-opacity="0.5" transform="matrix(1.00017 0 -0 1 -238.075 -127.669)"/><path d="M824.026 642.526 825.1 598.114" stroke="#333333" stroke-width="1.41694" stroke-opacity="0.5" transform="matrix(1.00017 0 -0 1 -238.075 -127.669)"/><path d="M834.061 500.383 826.831 555.966" stroke="#333333" stroke-width="1.41694" stroke-opacity="0.5" transform="matrix(1.00017 0 -0 1 -238.075 -127.669)"/><path d="M826.831 555.966 825.1 598.114" stroke="#333333" stroke-width="3.93692" stroke-opacity="0.5" transform="matrix(1.00017 0 -0 1 -238.075 -127.669)"/><path d="M864.958 500.383C864.958 517.446 851.125 531.28 834.061 531.28 816.997 531.28 803.164 517.446 803.164 500.383 803.164 483.319 816.997 469.485 834.061 469.485 851.125 469.485 864.958 483.319 864.958 500.383Z" fill="#1F77B4" transform="matrix(1.00017 0 -0 1 -238.075 -127.669)"/><path d="M937.021 433.485C937.021 446.38 926.568 456.833 913.673 456.833 900.778 456.833 890.325 446.38 890.325 433.485 890.325 420.591 900.778 410.137 913.673 410.137 926.568 410.137 937.021 420.591 937.021 433.485Z" fill="#AEC7E8" transform="matrix(1.00017 0 -0 1 -238.075 -127.669)"/><path d="M933.011 286.866C933.011 297.194 924.638 305.567 914.31 305.567 903.982 305.567 895.609 297.194 895.609 286.866 895.609 276.538 903.982 268.165 914.31 268.165 924.638 268.165 933.011 276.538 933.011 286.866Z" fill="#FF7F0E" transform="matrix(1.00017 0 -0 1 -238.075 -127.669)"/><path d="M928.461 337.367C928.461 345.129 922.169 351.421 914.407 351.421 906.646 351.421 900.353 345.129 900.353 337.367 900.353 329.606 906.646 323.313 914.407 323.313 922.169 323.313 928.461 329.606 928.461 337.367Z" fill="#FF7F0E" transform="matrix(1.00017 0 -0 1 -238.075 -127.669)"/><path d="M927.24 383.816C927.24 391.578 920.948 397.87 913.186 397.87 905.424 397.87 899.132 391.578 899.132 383.816 899.132 376.054 905.424 369.762 913.186 369.762 920.948 369.762 927.24 376.054 927.24 383.816Z" fill="#AEC7E8" transform="matrix(1.00017 0 -0 1 -238.075 -127.669)"/><path d="M848.408 642.526C848.408 655.991 837.492 666.907 824.026 666.907 810.561 666.907 799.645 655.991 799.645 642.526 799.645 629.06 810.561 618.144 824.026 618.144 837.492 618.144 848.408 629.06 848.408 642.526Z" fill="#FFBB78" transform="matrix(1.00017 0 -0 1 -238.075 -127.669)"/><path d="M917.52 582.51C917.52 595.404 907.067 605.858 894.172 605.858 881.277 605.858 870.824 595.404 870.824 582.51 870.824 569.615 881.277 559.162 894.172 559.162 907.067 559.162 917.52 569.615 917.52 582.51Z" fill="#2CA02C" transform="matrix(1.00017 0 -0 1 -238.075 -127.669)"/><path d="M949.921 633.454C949.921 643.107 942.095 650.933 932.442 650.933 922.789 650.933 914.964 643.107 914.964 633.454 914.964 623.801 922.789 615.976 932.442 615.976 942.095 615.976 949.921 623.801 949.921 633.454Z" fill="#2CA02C" transform="matrix(1.00017 0 -0 1 -238.075 -127.669)"/><path d="M896.724 668.494C896.724 678.147 888.899 685.973 879.245 685.973 869.592 685.973 861.767 678.147 861.767 668.494 861.767 658.841 869.592 651.016 879.245 651.016 888.899 651.016 896.724 658.841 896.724 668.494Z" fill="#FFBB78" transform="matrix(1.00017 0 -0 1 -238.075 -127.669)"/><path d="M517.826 418.484C517.826 431.379 507.372 441.832 494.478 441.832 481.583 441.832 471.129 431.379 471.129 418.484 471.129 405.59 481.583 395.136 494.478 395.136 507.372 395.136 517.826 405.59 517.826 418.484Z" fill="#98DF8A" transform="matrix(1.00017 0 -0 1 -238.075 -127.669)"/><path d="M589.005 336.343C589.005 346.672 580.632 355.044 570.304 355.044 559.976 355.044 551.603 346.672 551.603 336.343 551.603 326.015 559.976 317.643 570.304 317.643 580.632 317.643 589.005 326.015 589.005 336.343Z" fill="#D62728" transform="matrix(1.00017 0 -0 1 -238.075 -127.669)"/><path d="M747.294 458.437C747.294 471.332 736.841 481.785 723.946 481.785 711.051 481.785 700.598 471.332 700.598 458.437 700.598 445.542 711.051 435.089 723.946 435.089 736.841 435.089 747.294 445.542 747.294 458.437Z" fill="#FF9896" transform="matrix(1.00017 0 -0 1 -238.075 -127.669)"/><path d="M702.748 398.483C702.748 406.245 696.456 412.537 688.694 412.537 680.932 412.537 674.64 406.245 674.64 398.483 674.64 390.722 680.932 384.429 688.694 384.429 696.456 384.429 702.748 390.722 702.748 398.483Z" fill="#FF9896" transform="matrix(1.00017 0 -0 1 -238.075 -127.669)"/><path d="M652.568 370.707C652.568 378.469 646.276 384.761 638.514 384.761 630.752 384.761 624.46 378.469 624.46 370.707 624.46 362.945 630.752 356.653 638.514 356.653 646.276 356.653 652.568 362.945 652.568 370.707Z" fill="#D62728" transform="matrix(1.00017 0 -0 1 -238.075 -127.669)"/><path d="M584.37 456.468C584.37 466.796 575.997 475.169 565.669 475.169 555.341 475.169 546.968 466.796 546.968 456.468 546.968 446.14 555.341 437.767 565.669 437.767 575.997 437.767 584.37 446.14 584.37 456.468Z" fill="#98DF8A" transform="matrix(1.00017 0 -0 1 -238.075 -127.669)"/><path d="M656.904 455.373C656.904 465.702 648.531 474.074 638.203 474.074 627.875 474.074 619.502 465.702 619.502 455.373 619.502 445.045 627.875 436.673 638.203 436.673 648.531 436.673 656.904 445.045 656.904 455.373Z" fill="#FF9896" transform="matrix(1.00017 0 -0 1 -238.075 -127.669)"/><path d="M998.743 561.889C998.743 572.217 990.37 580.59 980.042 580.59 969.713 580.59 961.341 572.217 961.341 561.889 961.341 551.561 969.713 543.188 980.042 543.188 990.37 543.188 998.743 551.561 998.743 561.889Z" fill="#9467BD" transform="matrix(1.00017 0 -0 1 -238.075 -127.669)"/><path d="M954.365 534.022C954.365 541.783 948.072 548.075 940.311 548.075 932.549 548.075 926.257 541.783 926.257 534.022 926.257 526.26 932.549 519.968 940.311 519.968 948.073 519.968 954.365 526.26 954.365 534.022Z" fill="#9467BD" transform="matrix(1.00017 0 -0 1 -238.075 -127.669)"/><path d="M918.544 512.047C918.544 519.809 912.252 526.101 904.49 526.101 896.728 526.101 890.436 519.809 890.436 512.047 890.436 504.286 896.728 497.994 904.49 497.994 912.252 497.994 918.544 504.286 918.544 512.047Z" fill="#1F77B4" transform="matrix(1.00017 0 -0 1 -238.075 -127.669)"/><path d="M716.738 523.638C716.738 535.468 707.149 545.058 695.319 545.058 683.49 545.058 673.9 535.468 673.9 523.638 673.9 511.809 683.49 502.219 695.319 502.219 707.149 502.219 716.738 511.809 716.738 523.638Z" fill="#C5B0D5" transform="matrix(1.00017 0 -0 1 -238.075 -127.669)"/><path d="M686.208 672.82C686.208 683.148 677.836 691.521 667.508 691.521 657.179 691.521 648.807 683.148 648.807 672.82 648.807 662.491 657.179 654.119 667.508 654.119 677.836 654.119 686.208 662.491 686.208 672.82Z" fill="#8C564B" transform="matrix(1.00017 0 -0 1 -238.075 -127.669)"/><path d="M601.785 621.687C601.785 632.015 593.412 640.388 583.084 640.388 572.756 640.388 564.383 632.015 564.383 621.687 564.383 611.359 572.756 602.986 583.084 602.986 593.412 602.986 601.785 611.359 601.785 621.687Z" fill="#C49C94" transform="matrix(1.00017 0 -0 1 -238.075 -127.669)"/><path d="M640.704 584.879C640.704 592.641 634.412 598.933 626.65 598.933 618.888 598.933 612.596 592.641 612.596 584.879 612.596 577.117 618.888 570.825 626.65 570.825 634.412 570.825 640.704 577.117 640.704 584.879Z" fill="#C49C94" transform="matrix(1.00017 0 -0 1 -238.075 -127.669)"/><path d="M699.68 570.432C699.68 580.76 691.308 589.133 680.979 589.133 670.651 589.133 662.278 580.76 662.278 570.432 662.278 560.104 670.651 551.731 680.979 551.731 691.308 551.731 699.68 560.104 699.68 570.432Z" fill="#C5B0D5" transform="matrix(1.00017 0 -0 1 -238.075 -127.669)"/><path d="M693.703 622.983C693.703 630.745 687.411 637.037 679.649 637.037 671.888 637.037 665.596 630.745 665.596 622.983 665.596 615.221 671.888 608.929 679.649 608.929 687.411 608.929 693.703 615.221 693.703 622.983Z" fill="#8C564B" transform="matrix(1.00017 0 -0 1 -238.075 -127.669)"/><path d="M805.616 418.764C805.616 430.984 795.71 440.89 783.49 440.89 771.271 440.89 761.365 430.984 761.365 418.764 761.365 406.544 771.271 396.638 783.49 396.638 795.71 396.638 805.616 406.544 805.616 418.764Z" fill="#E377C2" transform="matrix(1.00017 0 -0 1 -238.075 -127.669)"/><path d="M799.903 236.347C799.903 248.567 789.997 258.473 777.777 258.473 765.557 258.473 755.651 248.567 755.651 236.347 755.651 224.128 765.557 214.222 777.777 214.222 789.997 214.222 799.903 224.128 799.903 236.347Z" fill="#F7B6D2" transform="matrix(1.00017 0 -0 1 -238.075 -127.669)"/><path d="M798.744 353.135C798.744 362.788 790.919 370.613 781.266 370.613 771.613 370.613 763.787 362.788 763.787 353.135 763.787 343.481 771.613 335.656 781.266 335.656 790.919 335.656 798.744 343.481 798.744 353.135Z" fill="#E377C2" transform="matrix(1.00017 0 -0 1 -238.075 -127.669)"/><path d="M795.659 293.646C795.659 303.299 787.834 311.124 778.181 311.124 768.528 311.124 760.702 303.299 760.702 293.646 760.702 283.992 768.528 276.167 778.181 276.167 787.834 276.167 795.659 283.992 795.659 293.646Z" fill="#F7B6D2" transform="matrix(1.00017 0 -0 1 -238.075 -127.669)"/><path d="M836.435 598.114C836.435 604.375 831.36 609.45 825.1 609.45 818.84 609.45 813.764 604.375 813.764 598.114 813.764 591.854 818.84 586.779 825.1 586.779 831.36 586.779 836.435 591.854 836.435 598.114Z" fill="#FFBB78" transform="matrix(1.00017 0 -0 1 -238.075 -127.669)"/><path d="M838.167 555.966C838.167 562.226 833.091 567.302 826.831 567.302 820.57 567.302 815.495 562.226 815.495 555.966 815.495 549.706 820.57 544.63 826.831 544.63 833.091 544.63 838.167 549.706 838.167 555.966Z" fill="#1F77B4" transform="matrix(1.00017 0 -0 1 -238.075 -127.669)"/><text font-family="Arial,Arial_MSFontService,sans-serif" font-weight="400" font-size="18" transform="matrix(1.41718 0 0 1.41694 555.735 373)">context<tspan font-size="13" x="36.6855" y="-47.2849">user</tspan><tspan font-size="13" x="61.6854" y="-47.2849">_</tspan><tspan font-size="13" x="68.6855" y="-47.2849">enrolments</tspan><tspan font-size="11" x="74.1352" y="-151.029">user</tspan><tspan font-size="8" x="82.2038" y="-115.036">id</tspan><tspan font-size="8" x="73.8417" y="-82.5721">userid</tspan><tspan font-size="14" x="-14.582" y="100.216">filter</tspan><tspan font-size="14" x="12.418" y="100.216">_</tspan><tspan font-size="14" x="20.418" y="100.216">active</tspan><tspan font-size="13" x="38.4228" y="57.871">filter</tspan><tspan font-size="13" x="62.4228" y="57.871">_</tspan><tspan font-size="13" x="69.4228" y="57.871">config</tspan><tspan font-size="10" x="87.4319" y="93.864">filter</tspan><tspan font-size="10" x="49.8885" y="118.565">filter</tspan><tspan font-size="13" x="-256.159" y="-57.871">block</tspan><tspan font-size="13" x="-225.159" y="-57.871">_</tspan><tspan font-size="13" x="-218.159" y="-57.871">positions</tspan><tspan font-size="11" x="-170.145" y="-115.742">block</tspan><tspan font-size="13" x="-96.213" y="-29.6413">block</tspan><tspan font-size="13" x="-65.213" y="-29.6413">_</tspan><tspan font-size="13" x="-58.213" y="-29.6413">instances</tspan><tspan font-size="8" x="-92.5922" y="-71.9859">blockname</tspan><tspan font-size="8" x="-119.006" y="-91.7468">name</tspan><tspan font-size="11" x="-197.916" y="-31.0528">blockinstanceid</tspan><tspan font-size="11" x="-113.726" y="-31.7585">id</tspan><tspan font-size="11" x="86.0249" y="43.0504">course</tspan><tspan font-size="11" x="120.025" y="43.0504">_</tspan><tspan font-size="11" x="126.025" y="43.0504">categories</tspan><tspan font-size="8" x="100.485" y="23.2896">id</tspan><tspan font-size="8" x="61.2047" y="7.76319">instanceid</tspan><tspan font-size="12" x="-137.916" y="16.2321">message</tspan><tspan font-size="12" x="-84.9164" y="16.2321">_</tspan><tspan font-size="12" x="-77.9164" y="16.2321">conversations</tspan><tspan font-size="11" x="-170.544" y="121.388">message</tspan><tspan font-size="11" x="-126.544" y="121.388">_</tspan><tspan font-size="11" x="-120.544" y="121.388">conversation</tspan><tspan font-size="11" x="-57.5443" y="121.388">_</tspan><tspan font-size="11" x="-51.5443" y="121.388">members</tspan><tspan font-size="11" x="-173.626" y="85.3951">messages</tspan><tspan font-size="8" x="-142.379" y="59.2825">conversationid</tspan><tspan font-size="11" x="-83.5367" y="49.4021">id</tspan><tspan font-size="8" x="-104.975" y="86.1008">conversationid</tspan><tspan font-size="13" x="-79.1901" y="-57.871">message</tspan><tspan font-size="13" x="-26.1901" y="-57.871">_</tspan><tspan font-size="13" x="-19.1901" y="-57.871">users</tspan><tspan font-size="13" x="12.8099" y="-57.871">_</tspan><tspan font-size="13" x="19.8098" y="-57.871">blocked</tspan><tspan font-size="13" x="-91.2223" y="-186.317">message</tspan><tspan font-size="13" x="-38.2223" y="-186.317">_</tspan><tspan font-size="13" x="-31.2223" y="-186.317">contact</tspan><tspan font-size="13" x="11.7777" y="-186.317">_</tspan><tspan font-size="13" x="18.7777" y="-186.317">requests</tspan><tspan font-size="10" x="-22.76" y="-104.45">userid</tspan><tspan font-size="10" x="-47.9372" y="-146.089">requesteduserid</tspan><tspan font-size="6" x="10.6757" y="68.4572">contextid</tspan><tspan font-size="6" x="21.3973" y="38.8159">id</tspan></text></g></g></g></g></svg>