<svg width="1280" height="720" xmlns="http://www.w3.org/2000/svg" xmlns:xlink="http://www.w3.org/1999/xlink" overflow="hidden"><defs><clipPath id="clip0"><path d="M0 0 1280 0 1280 720 0 720Z" fill-rule="evenodd" clip-rule="evenodd"/></clipPath><clipPath id="clip1"><path d="M0 39 1280 39 1280 681 0 681Z" fill-rule="evenodd" clip-rule="evenodd"/></clipPath><clipPath id="clip2"><path d="M0 39 1280 39 1280 681 0 681Z" fill-rule="evenodd" clip-rule="evenodd"/></clipPath><clipPath id="clip3"><path d="M0 39 1280 39 1280 681 0 681Z" fill-rule="evenodd" clip-rule="evenodd"/></clipPath></defs><g clip-path="url(#clip0)"><rect x="0" y="0" width="1280" height="720" fill="#FFFFFF"/><g clip-path="url(#clip1)"><g clip-path="url(#clip2)"><g clip-path="url(#clip3)"><path d="M642.569 303.35C647.304 301.387 646.449 299.339 642.569 296.265 638.688 293.19 595.239 264.9 590.826 262.357 586.415 259.813 585.129 258.382 583.742 262.357 582.355 266.331 573.192 310.837 572.336 315.342 571.481 319.847 571.805 321.895 572.336 322.427 572.868 322.958 574.154 323.857 579.421 322.427 584.689 320.996 637.833 305.311 642.569 303.35" fill="#1F77B4" fill-opacity="0.3" transform="matrix(1.00017 0 -0 1 92.0471 97.1895)"/><path d="M510.665 342.43C510.88 337.516 511.197 335.877 510.665 335.346 510.134 334.814 504.327 330.962 503.581 335.346 502.835 339.73 500.937 388.884 500.724 393.799 500.509 398.714 500.192 400.352 500.724 400.884 501.255 401.415 507.062 405.268 507.808 400.884 508.554 396.5 510.452 347.346 510.665 342.43" fill="#AEC7E8" fill-opacity="0.3" transform="matrix(1.00017 0 -0 1 92.0471 97.1895)"/><path d="M650.735 92.1523C653.286 89.4906 651.266 85.5989 650.735 85.0676 650.203 84.5362 646.732 82.9372 643.65 85.0676 640.567 87.198 612.181 110.811 609.629 113.473 607.078 116.135 609.098 120.026 609.629 120.558 610.16 121.089 613.631 122.688 616.714 120.558 619.797 118.427 648.183 94.814 650.735 92.1523" fill="#FF7F0E" fill-opacity="0.3" transform="matrix(1.00017 0 -0 1 92.0471 97.1895)"/><path d="M631.862 153.465C634.958 150.951 634.445 147.482 631.862 146.38 629.279 145.278 600.539 139.336 597.425 138.765 594.31 138.194 591.384 136.212 590.34 138.765 589.295 141.319 584.009 169.726 583.496 172.81 582.983 175.895 582.964 179.364 583.496 179.895 584.027 180.426 586.953 181.877 590.58 179.895 594.208 177.913 628.766 155.978 631.862 153.465" fill="#FFBB78" fill-opacity="0.3" transform="matrix(1.00017 0 -0 1 92.0471 97.1895)"/><path d="M426.066 87.2915C426.597 86.7601 429.562 81.8589 426.066 80.2068 422.569 78.5553 383.475 66.3885 379.447 65.2681 375.419 64.1477 372.893 64.7368 372.362 65.2681 371.831 65.7995 368.866 70.7011 372.362 72.3526 375.859 74.0048 414.953 86.1714 418.981 87.2915 423.008 88.4123 425.534 87.8228 426.066 87.2915" fill="#2CA02C" fill-opacity="0.3" transform="matrix(1.00017 0 -0 1 92.0471 97.1895)"/><path d="M485.393 100.963C490.924 99.0216 485.924 94.4095 485.393 93.8781 484.862 93.3468 484.371 92.4683 478.308 93.8781 472.246 95.288 410.092 110.735 404.561 112.676 399.03 114.617 404.029 119.229 404.561 119.761 405.092 120.292 405.583 121.171 411.645 119.761 417.708 118.351 479.862 102.904 485.393 100.963" fill="#98DF8A" fill-opacity="0.3" transform="matrix(1.00017 0 -0 1 92.0471 97.1895)"/><path d="M679.823 417.128C685.865 415.588 683.475 413.396 679.823 410.043 676.172 406.691 635.316 375.249 631.133 372.428 626.95 369.607 626.97 368.598 624.048 372.428 621.126 376.258 594.562 419.132 592.171 423.493 589.781 427.854 591.64 430.046 592.171 430.578 592.702 431.109 592.682 431.587 599.256 430.578 605.83 429.57 673.78 418.668 679.823 417.128" fill="#D62728" fill-opacity="0.3" transform="matrix(1.00017 0 -0 1 92.0471 97.1895)"/><path d="M569.884 463.628C570.416 463.097 574.057 458.151 569.884 456.543 565.713 454.936 518.964 443.269 514.26 442.192 509.557 441.116 507.707 441.661 507.176 442.192 506.644 442.724 503.004 447.67 507.176 449.277 511.348 450.885 558.097 462.552 562.8 463.628 567.503 464.704 569.353 464.159 569.884 463.628" fill="#FF9896" fill-opacity="0.3" transform="matrix(1.00017 0 -0 1 92.0471 97.1895)"/><path d="M183.979 201.445C184.511 200.913 186.944 195.978 183.979 194.36 181.015 192.741 147.95 180.952 144.454 179.865 140.958 178.778 137.901 179.333 137.37 179.865 136.838 180.396 134.405 185.331 137.37 186.949 140.334 188.568 173.399 200.357 176.895 201.445 180.39 202.531 183.448 201.976 183.979 201.445" fill="#9467BD" fill-opacity="0.3" transform="matrix(1.00017 0 -0 1 92.0471 97.1895)"/><path d="M180.493 244.296C181.024 243.764 183.64 237.968 180.493 237.211 177.347 236.455 142.216 234.437 138.538 234.213 134.86 233.988 131.985 233.682 131.453 234.213 130.922 234.744 128.307 240.541 131.453 241.298 134.6 242.054 169.731 244.071 173.408 244.296 177.087 244.521 179.962 244.827 180.493 244.296" fill="#C5B0D5" fill-opacity="0.3" transform="matrix(1.00017 0 -0 1 92.0471 97.1895)"/><path d="M295.646 243.978C300.375 243.261 300.281 239.185 295.646 236.893 291.011 234.601 239.013 215.179 233.847 213.419 228.68 211.658 227.387 211.472 226.762 213.419 226.136 215.365 225.599 236.892 225.504 239.371 225.41 241.848 224.973 245.924 225.504 246.455 226.036 246.987 227.329 246.641 232.589 246.455 237.849 246.269 290.917 244.695 295.646 243.978" fill="#8C564B" fill-opacity="0.3" transform="matrix(1.00017 0 -0 1 92.0471 97.1895)"/><path d="M549.535 349.782C549.845 347.359 550.066 343.228 549.535 342.697 549.004 342.165 543.291 340.806 542.45 342.697 541.609 344.588 538.632 365.495 538.322 367.918 538.012 370.341 537.791 374.471 538.322 375.002 538.853 375.534 544.566 376.894 545.407 375.002 546.248 373.111 549.225 352.205 549.535 349.782" fill="#C49C94" fill-opacity="0.3" transform="matrix(1.00017 0 -0 1 92.0471 97.1895)"/><path d="M270.059 281.104C270.591 280.573 274.514 275.115 270.059 274.02 265.605 272.924 215.648 267.062 210.662 266.498 205.676 265.934 204.108 265.967 203.577 266.498 203.046 267.029 199.122 272.487 203.577 273.583 208.032 274.678 257.988 280.54 262.975 281.104 267.961 281.668 269.528 281.636 270.059 281.104" fill="#E377C2" fill-opacity="0.3" transform="matrix(1.00017 0 -0 1 92.0471 97.1895)"/><path d="M172.367 305.143C174.958 302.774 172.898 298.59 172.367 298.058 171.835 297.527 168.405 296.22 165.282 298.058 162.16 299.895 133.322 320.186 130.731 322.554 128.139 324.923 130.199 329.108 130.731 329.639 131.262 330.17 134.692 331.477 137.815 329.639 140.938 327.802 169.776 307.511 172.367 305.143" fill="#F7B6D2" fill-opacity="0.3" transform="matrix(1.00017 0 -0 1 92.0471 97.1895)"/><path d="M161.983 284.601C165.089 283.346 162.514 278.048 161.983 277.517 161.451 276.985 158.536 276.793 154.898 277.517 151.26 278.241 116.58 285.916 113.473 287.172 110.366 288.427 112.942 293.725 113.473 294.257 114.004 294.788 116.919 294.981 120.558 294.257 124.196 293.532 158.876 285.857 161.983 284.601" fill="#7F7F7F" fill-opacity="0.3" transform="matrix(1.00017 0 -0 1 92.0471 97.1895)"/><path d="M323.278 67.0432C323.809 66.5119 324.909 63.273 323.278 59.9585 321.647 56.644 303.686 25.6325 301.523 22.8493 299.36 20.0661 294.97 22.318 294.439 22.8493 293.907 23.3807 292.807 26.6195 294.439 29.934 296.07 33.2486 314.031 64.2601 316.193 67.0432 318.356 69.8264 322.746 67.5746 323.278 67.0432" fill="#C7C7C7" fill-opacity="0.3" transform="matrix(1.00017 0 -0 1 92.0471 97.1895)"/><path d="M369.178 144.328C369.709 143.797 370.296 140.04 369.178 137.244 368.06 134.448 355.92 109.314 354.27 107.049 352.62 104.784 347.716 106.518 347.185 107.049 346.654 107.581 346.067 111.338 347.185 114.134 348.304 116.93 360.444 142.064 362.093 144.328 363.743 146.593 368.647 144.86 369.178 144.328" fill="#BCBD22" fill-opacity="0.3" transform="matrix(1.00017 0 -0 1 92.0471 97.1895)"/><path d="M352.099 462.083C352.63 461.551 353.605 458.789 352.099 454.998 350.592 451.206 337.481 415.245 332.009 411.531 326.537 407.817 283.632 405.933 279.136 405.479 274.638 405.025 272.582 404.948 272.051 405.479 271.52 406.011 266.579 408.319 272.051 412.564 277.523 416.809 339.011 458.369 345.014 462.083 351.018 465.797 351.568 462.614 352.099 462.083" fill="#DBDB8D" fill-opacity="0.3" transform="matrix(1.00017 0 -0 1 92.0471 97.1895)"/><path d="M455.719 365.05C458.961 358.098 457.986 360.682 455.719 357.965 453.451 355.248 428.281 331.009 425.482 328.824 422.683 326.638 420.329 324.515 418.397 328.824 416.465 333.132 401.121 381.43 399.72 386.27 398.319 391.11 399.294 388.525 399.72 393.355 400.146 398.184 404.444 446.363 405.402 450.661 406.359 454.959 408.713 457.082 412.487 450.661 416.26 444.24 452.477 372.002 455.719 365.05" fill="#17BECF" fill-opacity="0.3" transform="matrix(1.00017 0 -0 1 92.0471 97.1895)"/><path d="M355.106 349.089C356.171 345.861 355.638 342.535 355.106 342.004 354.575 341.473 349.617 339.307 348.022 342.004 346.426 344.7 334.891 374.728 333.827 377.956 332.762 381.184 333.295 384.509 333.827 385.041 334.358 385.572 339.315 387.737 340.911 385.041 342.507 382.344 354.042 352.316 355.106 349.089" fill="#9EDAE5" fill-opacity="0.3" transform="matrix(1.00017 0 -0 1 92.0471 97.1895)"/><path d="M346.798 196.879C347.33 196.348 350.323 193.882 346.798 189.795 343.274 185.707 303.861 145.938 299.805 142.382 295.749 138.826 294.213 140.691 292.72 142.382 291.226 144.073 280.854 162.71 279.892 164.933 278.93 167.155 275.406 169.622 279.892 172.018 284.379 174.414 334.696 195.015 339.713 196.879 344.732 198.744 346.267 197.411 346.798 196.879" fill="#1F77B4" fill-opacity="0.3" transform="matrix(1.00017 0 -0 1 92.0471 97.1895)"/><path d="M262.531 110.556C263.063 110.024 264.73 106.295 262.531 103.471 260.332 100.646 235.946 75.1887 233.216 72.896 230.486 70.6027 226.663 72.3647 226.131 72.896 225.6 73.4274 223.933 77.1561 226.131 79.9808 228.33 82.8047 252.716 108.262 255.446 110.556 258.176 112.848 262 111.087 262.531 110.556" fill="#AEC7E8" fill-opacity="0.3" transform="matrix(1.00017 0 -0 1 92.0471 97.1895)"/><path d="M412.668 156.021C413.975 149.594 413.2 149.468 412.668 148.936 412.137 148.405 410.25 139.046 405.584 148.936 400.918 158.827 354.595 270.387 350.46 280.808 346.326 291.23 349.929 287.362 350.46 287.893 350.992 288.424 354.185 291.888 357.545 287.893 360.905 283.898 391.119 244.518 395.253 234.627 399.387 224.737 411.362 162.448 412.668 156.021" fill="#FF7F0E" fill-opacity="0.3" transform="matrix(1.00017 0 -0 1 92.0471 97.1895)"/><path d="M324.709 315.887C326.765 313.285 325.24 309.333 324.709 308.802 324.177 308.271 320.212 306.731 317.624 308.802 315.037 310.873 292.262 333.812 290.205 336.414 288.149 339.016 289.674 342.967 290.205 343.499 290.737 344.03 294.702 345.57 297.29 343.499 299.878 341.428 322.653 318.489 324.709 315.887" fill="#FFBB78" fill-opacity="0.3" transform="matrix(1.00017 0 -0 1 92.0471 97.1895)"/><path d="M472.516 57.9704C473.048 57.439 474.688 54.3216 472.516 50.8857 470.345 47.4497 446.265 15.0624 443.562 12.1578 440.858 9.2532 437.009 11.6264 436.477 12.1578 435.946 12.6891 434.305 15.8066 436.477 19.2425 438.649 22.6785 462.729 55.0658 465.432 57.9704 468.135 60.875 471.985 58.5017 472.516 57.9704" fill="#2CA02C" fill-opacity="0.3" transform="matrix(1.00017 0 -0 1 92.0471 97.1895)"/><path d="M738.95 197.968C742.159 196.57 739.481 191.415 738.95 190.883 738.419 190.352 735.606 190.016 731.865 190.883 728.124 191.75 692.267 201.043 689.056 202.441 685.846 203.839 688.525 208.994 689.056 209.525 689.588 210.057 692.399 210.393 696.141 209.525 699.883 208.659 735.74 199.366 738.95 197.968" fill="#98DF8A" fill-opacity="0.3" transform="matrix(1.00017 0 -0 1 92.0471 97.1895)"/><path d="M662.92 217.523C667.01 216.268 663.452 210.97 662.92 210.439 662.389 209.907 660.457 209.715 655.836 210.439 651.214 211.163 605.387 218.839 601.296 220.094 597.205 221.351 600.765 226.648 601.296 227.179 601.827 227.711 603.759 227.904 608.381 227.179 613.003 226.455 658.83 218.779 662.92 217.523" fill="#D62728" fill-opacity="0.3" transform="matrix(1.00017 0 -0 1 92.0471 97.1895)"/><path d="M240.362 147.528C240.894 146.996 243.074 142.579 240.362 140.443 237.65 138.307 207.443 120.651 204.198 119.047 200.955 117.442 197.645 118.515 197.114 119.047 196.582 119.578 194.402 123.995 197.114 126.131 199.826 128.267 230.034 145.923 233.278 147.528 236.521 149.133 239.831 148.059 240.362 147.528" fill="#FF9896" fill-opacity="0.3" transform="matrix(1.00017 0 -0 1 92.0471 97.1895)"/><path d="M529.677 198.05C529.787 193.992 530.208 191.497 529.677 190.966 529.145 190.434 523.411 184.03 522.592 190.966 521.772 197.902 519.042 275.986 518.754 283.454 518.466 290.922 518.223 290.007 518.754 290.538 519.285 291.07 525.13 293.948 525.839 290.538 526.547 287.129 527.915 252.02 528.202 245.084 528.49 238.148 529.566 202.11 529.677 198.05" fill="#9467BD" fill-opacity="0.3" transform="matrix(1.00017 0 -0 1 92.0471 97.1895)"/><path d="M601.62 81.1929C602.152 80.6616 602.507 78.6573 601.62 74.1082 600.733 69.5593 591.212 24.5586 589.794 20.5411 588.376 16.5235 586.106 19.1807 582.709 20.5411 579.313 21.9015 548.617 34.9949 544.51 38.68 540.403 42.3651 529.191 66.8197 527.949 69.6757 526.707 72.5319 522.955 75.8964 527.949 76.7607 532.943 77.6244 589.01 80.8607 594.536 81.1929 600.06 81.5252 601.089 81.7243 601.62 81.1929" fill="#C5B0D5" fill-opacity="0.3" transform="matrix(1.00017 0 -0 1 92.0471 97.1895)"/><path d="M565.377 9.98853C567.843 7.8143 568.769 3.6559 565.377 2.90381 561.986 2.15173 524.077 0.18152 520.153-0.0392062 516.231-0.259933 516.239-1.99348 513.069-0.0392062 509.898 1.91507 480.523 23.5322 477.884 26.0178 475.245 28.5034 477.352 32.5711 477.884 33.1025 478.415 33.6338 480.873 33.1932 484.969 33.1025 489.065 33.0118 526.469 33.6271 532.5 31.8936 538.53 30.1601 562.912 12.1628 565.377 9.98853" fill="#8C564B" fill-opacity="0.3" transform="matrix(1.00017 0 -0 1 92.0471 97.1895)"/><path d="M705.076 136.636C708.004 134.886 705.607 130.082 705.076 129.551 704.544 129.02 701.451 128.333 697.991 129.551 694.531 130.77 661.87 144.053 658.941 145.803 656.013 147.553 658.41 152.356 658.941 152.887 659.473 153.419 662.566 154.107 666.026 152.887 669.486 151.669 702.147 138.386 705.076 136.636" fill="#C49C94" fill-opacity="0.3" transform="matrix(1.00017 0 -0 1 92.0471 97.1895)"/><path d="M835.812 304.87C836.124 301.617 836.343 298.317 835.812 297.785 835.281 297.254 829.57 295.063 828.727 297.785 827.884 300.507 824.873 330.824 824.562 334.077 824.25 337.33 824.03 340.63 824.562 341.162 825.093 341.693 830.803 343.884 831.646 341.162 832.489 338.44 835.5 308.123 835.812 304.87" fill="#E377C2" fill-opacity="0.3" transform="matrix(1.00017 0 -0 1 92.0471 97.1895)"/><path d="M804.604 367.476C810.208 365.293 812.022 363.359 804.604 360.391 797.186 357.422 713.643 330.329 705.693 327.891 697.742 325.454 699.139 327.36 698.608 327.891 698.077 328.423 696.789 330.356 698.608 334.976 700.427 339.597 720.508 385.404 722.86 389.493 725.213 393.582 723.817 391.145 729.945 389.493 736.073 387.842 799.007 369.658 804.604 367.476" fill="#F7B6D2" fill-opacity="0.3" transform="matrix(1.00017 0 -0 1 92.0471 97.1895)"/><path d="M636.585 193.714C639.159 192.128 637.116 187.16 636.585 186.629 636.054 186.098 632.605 185.575 629.5 186.629 626.394 187.683 597.749 199.093 595.175 200.677 592.601 202.262 594.643 207.231 595.175 207.762 595.706 208.293 599.154 208.816 602.26 207.762 605.365 206.709 634.01 195.299 636.585 193.714" fill="#7F7F7F" fill-opacity="0.3" transform="matrix(1.00017 0 -0 1 92.0471 97.1895)"/><path d="M705.689 160.883C708.861 158.82 706.221 154.329 705.689 153.798 705.158 153.266 702.307 152.267 698.605 153.798 694.902 155.328 659.497 172.145 656.326 174.207 653.155 176.269 655.794 180.76 656.326 181.291 656.857 181.823 659.709 182.822 663.41 181.291 667.113 179.761 702.518 162.944 705.689 160.883" fill="#C7C7C7" fill-opacity="0.3" transform="matrix(1.00017 0 -0 1 92.0471 97.1895)"/><path d="M736.47 473.786C737.002 473.255 738.213 469.96 736.47 466.701 734.72 463.443 715.457 433.07 713.183 430.343 710.901 427.616 706.627 429.812 706.096 430.343 705.565 430.875 704.35 434.17 706.096 437.428 707.843 440.686 727.104 471.059 729.385 473.786 731.66 476.513 735.939 474.317 736.47 473.786" fill="#BCBD22" fill-opacity="0.3" transform="matrix(1.00017 0 -0 1 92.0471 97.1895)"/><path d="M684.182 262.403C686.969 261.243 684.713 255.85 684.182 255.318 683.65 254.787 680.415 254.69 677.097 255.318 673.778 255.946 642.721 262.533 639.933 263.693 637.146 264.853 639.402 270.246 639.933 270.778 640.465 271.309 643.699 271.406 647.018 270.778 650.337 270.149 681.394 263.562 684.182 262.403" fill="#DBDB8D" fill-opacity="0.3" transform="matrix(1.00017 0 -0 1 92.0471 97.1895)"/><path d="M759.581 300.583C760.112 300.052 762.563 295.204 759.581 293.498 756.605 291.793 723.364 279.021 719.857 277.847 716.343 276.673 713.303 277.316 712.772 277.847 712.24 278.378 709.789 283.226 712.772 284.932 715.747 286.637 748.989 299.409 752.496 300.583 756.01 301.757 759.049 301.115 759.581 300.583" fill="#17BECF" fill-opacity="0.3" transform="matrix(1.00017 0 -0 1 92.0471 97.1895)"/><path d="M768.082 255.136C768.614 254.605 771.469 248.794 768.082 248.051 764.703 247.308 726.863 245.444 722.945 245.233 719.028 245.021 716.392 244.702 715.861 245.233 715.329 245.764 712.474 251.575 715.861 252.318 719.247 253.06 757.087 254.924 760.997 255.136 764.915 255.347 767.551 255.668 768.082 255.136" fill="#9EDAE5" fill-opacity="0.3" transform="matrix(1.00017 0 -0 1 92.0471 97.1895)"/><path d="M672.396 238.793C675.093 237.738 672.927 232.24 672.396 231.708 671.865 231.177 668.54 231.185 665.311 231.708 662.083 232.232 632.047 237.635 629.349 238.69 626.651 239.745 628.818 245.244 629.349 245.775 629.881 246.306 633.205 246.299 636.434 245.775 639.663 245.252 669.699 239.848 672.396 238.793" fill="#1F77B4" fill-opacity="0.3" transform="matrix(1.00017 0 -0 1 92.0471 97.1895)"/><path d="M742.166 226.365C744.936 225.33 742.698 219.812 742.166 219.28 741.635 218.749 738.383 218.777 735.082 219.28 731.773 219.784 700.89 224.963 698.118 225.998 695.346 227.033 697.586 232.551 698.118 233.083 698.649 233.614 701.9 233.587 705.203 233.083 708.507 232.579 739.389 227.4 742.166 226.365" fill="#AEC7E8" fill-opacity="0.3" transform="matrix(1.00017 0 -0 1 92.0471 97.1895)"/><path d="M247.218 374.515C248.642 370.882 247.749 367.962 247.218 367.43 246.686 366.899 243.451 365.609 240.133 367.43 236.814 369.252 205.761 389.366 202.974 391.719 200.186 394.072 201.611 396.992 202.974 398.803 204.336 400.615 219.242 414.595 221.135 415.875 223.029 417.155 226.264 418.977 228.22 415.875 230.176 412.772 245.793 378.149 247.218 374.515" fill="#FF7F0E" fill-opacity="0.3" transform="matrix(1.00017 0 -0 1 92.0471 97.1895)"/><path d="M456.867 67.5168C457.398 66.9855 459.834 63.001 456.867 60.4321 453.9 57.8632 420.805 35.3022 417.307 33.2646 413.808 31.2271 410.753 32.7333 410.222 33.2646 409.691 33.796 407.255 37.7804 410.222 40.3494 413.189 42.9183 446.284 65.4793 449.782 67.5168 453.281 69.5544 456.336 68.0482 456.867 67.5168" fill="#FFBB78" fill-opacity="0.3" transform="matrix(1.00017 0 -0 1 92.0471 97.1895)"/><path d="M534.824 98.6865C535.299 95.5218 535.356 92.1332 534.824 91.6018 534.293 91.0705 529.51 85.8937 527.74 91.6018 525.968 97.31 512.449 161.473 511.21 167.713 509.97 173.952 510.678 174.266 511.21 174.798 511.741 175.329 516.998 177.872 518.294 174.798 519.59 171.723 527.25 139.507 528.49 133.798 529.73 128.09 534.349 101.851 534.824 98.6865" fill="#2CA02C" fill-opacity="0.3" transform="matrix(1.00017 0 -0 1 92.0471 97.1895)"/><path d="M474.904 227.926C476.806 224.317 475.01 228.133 474.904 220.841 474.798 213.55 474.125 137.462 473.488 130.701 472.851 123.941 468.133 125.761 466.403 130.701 464.674 135.642 452.222 186.736 450.426 196.575 448.63 206.413 443.055 256.448 442.457 261.878 441.859 267.307 441.925 268.431 442.457 268.963 442.988 269.494 447.108 272.04 449.541 268.963 451.975 265.884 473.002 231.536 474.904 227.926" fill="#98DF8A" fill-opacity="0.3" transform="matrix(1.00017 0 -0 1 92.0471 97.1895)"/><path d="M398.999 301.43C399.873 298.387 399.53 294.876 398.999 294.345 398.468 293.814 393.32 291.834 391.914 294.345 390.509 296.857 381.132 324.796 380.258 327.839 379.384 330.883 379.727 334.393 380.258 334.924 380.789 335.456 385.937 337.436 387.343 334.924 388.748 332.412 398.125 304.473 398.999 301.43" fill="#D62728" fill-opacity="0.3" transform="matrix(1.00017 0 -0 1 92.0471 97.1895)"/><path d="M408.103 116.218 481.851 97.4205" stroke="#333333" stroke-width="0.708471" stroke-opacity="0.5" transform="matrix(1.00017 0 -0 1 92.0471 97.1895)"/><path d="M375.904 68.8105 422.523 83.7491" stroke="#333333" stroke-width="0.708471" stroke-opacity="0.5" transform="matrix(1.00017 0 -0 1 92.0471 97.1895)"/><path d="M481.851 97.4205 422.523 83.7491" stroke="#333333" stroke-width="5.36759" stroke-opacity="0.5" transform="matrix(1.00017 0 -0 1 92.0471 97.1895)"/><path d="M510.718 445.735 566.342 460.086" stroke="#333333" stroke-width="0.708471" stroke-opacity="0.5" transform="matrix(1.00017 0 -0 1 92.0471 97.1895)"/><path d="M676.281 413.586 595.713 427.035" stroke="#333333" stroke-width="0.708471" stroke-opacity="0.5" transform="matrix(1.00017 0 -0 1 92.0471 97.1895)"/><path d="M595.713 427.035 566.342 460.086" stroke="#333333" stroke-width="4.68207" stroke-opacity="0.5" transform="matrix(1.00017 0 -0 1 92.0471 97.1895)"/><path d="M292.103 240.435 229.047 242.913" stroke="#333333" stroke-width="0.708471" stroke-opacity="0.5" transform="matrix(1.00017 0 -0 1 92.0471 97.1895)"/><path d="M134.996 237.755 176.951 240.753" stroke="#333333" stroke-width="0.708471" stroke-opacity="0.5" transform="matrix(1.00017 0 -0 1 92.0471 97.1895)"/><path d="M176.951 240.753 229.047 242.913" stroke="#333333" stroke-width="4.03208" stroke-opacity="0.5" transform="matrix(1.00017 0 -0 1 92.0471 97.1895)"/><path d="M140.912 183.407 180.437 197.902" stroke="#333333" stroke-width="0.708471" stroke-opacity="0.5" transform="matrix(1.00017 0 -0 1 92.0471 97.1895)"/><path d="M292.103 240.435 230.304 216.961" stroke="#333333" stroke-width="0.708471" stroke-opacity="0.5" transform="matrix(1.00017 0 -0 1 92.0471 97.1895)"/><path d="M230.304 216.961 180.437 197.902" stroke="#333333" stroke-width="4.44992" stroke-opacity="0.5" transform="matrix(1.00017 0 -0 1 92.0471 97.1895)"/><path d="M541.864 371.46 545.993 346.239" stroke="#333333" stroke-width="0.708471" stroke-opacity="0.5" transform="matrix(1.00017 0 -0 1 92.0471 97.1895)"/><path d="M587.284 265.899 575.879 318.884" stroke="#333333" stroke-width="0.708471" stroke-opacity="0.5" transform="matrix(1.00017 0 -0 1 92.0471 97.1895)"/><path d="M575.879 318.884 545.993 346.239" stroke="#333333" stroke-width="4.0345" stroke-opacity="0.5" transform="matrix(1.00017 0 -0 1 92.0471 97.1895)"/><path d="M117.015 290.714 158.44 281.059" stroke="#333333" stroke-width="0.708471" stroke-opacity="0.5" transform="matrix(1.00017 0 -0 1 92.0471 97.1895)"/><path d="M266.517 277.562 207.119 270.04" stroke="#333333" stroke-width="0.708471" stroke-opacity="0.5" transform="matrix(1.00017 0 -0 1 92.0471 97.1895)"/><path d="M207.119 270.04 158.44 281.059" stroke="#333333" stroke-width="4.03208" stroke-opacity="0.5" transform="matrix(1.00017 0 -0 1 92.0471 97.1895)"/><path d="M134.273 326.097 168.824 301.601" stroke="#333333" stroke-width="0.708471" stroke-opacity="0.5" transform="matrix(1.00017 0 -0 1 92.0471 97.1895)"/><path d="M168.824 301.601 207.119 270.04" stroke="#333333" stroke-width="4.03208" stroke-opacity="0.5" transform="matrix(1.00017 0 -0 1 92.0471 97.1895)"/><path d="M297.981 26.3917 319.736 63.5009" stroke="#333333" stroke-width="0.708471" stroke-opacity="0.5" transform="matrix(1.00017 0 -0 1 92.0471 97.1895)"/><path d="M365.636 140.786 350.727 110.592" stroke="#333333" stroke-width="0.708471" stroke-opacity="0.5" transform="matrix(1.00017 0 -0 1 92.0471 97.1895)"/><path d="M350.727 110.592 319.736 63.5009" stroke="#333333" stroke-width="4.44992" stroke-opacity="0.5" transform="matrix(1.00017 0 -0 1 92.0471 97.1895)"/><path d="M676.281 413.586 627.59 375.97" stroke="#333333" stroke-width="0.708471" stroke-opacity="0.5" transform="matrix(1.00017 0 -0 1 92.0471 97.1895)"/><path d="M587.284 265.899 639.026 299.807" stroke="#333333" stroke-width="0.708471" stroke-opacity="0.5" transform="matrix(1.00017 0 -0 1 92.0471 97.1895)"/><path d="M639.026 299.807 627.59 375.97" stroke="#333333" stroke-width="4.56165" stroke-opacity="0.5" transform="matrix(1.00017 0 -0 1 92.0471 97.1895)"/><path d="M504.266 397.341 507.123 338.888" stroke="#333333" stroke-width="0.708471" stroke-opacity="0.5" transform="matrix(1.00017 0 -0 1 92.0471 97.1895)"/><path d="M403.262 389.812 452.176 361.507" stroke="#333333" stroke-width="0.708471" stroke-opacity="0.5" transform="matrix(1.00017 0 -0 1 92.0471 97.1895)"/><path d="M507.123 338.888 452.176 361.507" stroke="#333333" stroke-width="3.65647" stroke-opacity="0.5" transform="matrix(1.00017 0 -0 1 92.0471 97.1895)"/><path d="M229.674 76.4384 258.989 107.013" stroke="#333333" stroke-width="0.708471" stroke-opacity="0.5" transform="matrix(1.00017 0 -0 1 92.0471 97.1895)"/><path d="M343.256 193.337 296.262 145.925" stroke="#333333" stroke-width="0.708471" stroke-opacity="0.5" transform="matrix(1.00017 0 -0 1 92.0471 97.1895)"/><path d="M258.989 107.013 296.262 145.925" stroke="#333333" stroke-width="4.23282" stroke-opacity="0.5" transform="matrix(1.00017 0 -0 1 92.0471 97.1895)"/><path d="M328.466 415.074 348.557 458.54" stroke="#333333" stroke-width="0.708471" stroke-opacity="0.5" transform="matrix(1.00017 0 -0 1 92.0471 97.1895)"/><path d="M403.262 389.812 408.945 447.118" stroke="#333333" stroke-width="0.708471" stroke-opacity="0.5" transform="matrix(1.00017 0 -0 1 92.0471 97.1895)"/><path d="M408.945 447.118 348.557 458.54" stroke="#333333" stroke-width="4.94361" stroke-opacity="0.5" transform="matrix(1.00017 0 -0 1 92.0471 97.1895)"/><path d="M337.369 381.498 351.564 345.546" stroke="#333333" stroke-width="0.708471" stroke-opacity="0.5" transform="matrix(1.00017 0 -0 1 92.0471 97.1895)"/><path d="M403.262 389.812 421.939 332.366" stroke="#333333" stroke-width="0.708471" stroke-opacity="0.5" transform="matrix(1.00017 0 -0 1 92.0471 97.1895)"/><path d="M351.564 345.546 421.939 332.366" stroke="#333333" stroke-width="4.31113" stroke-opacity="0.5" transform="matrix(1.00017 0 -0 1 92.0471 97.1895)"/><path d="M735.408 194.426 692.599 205.984" stroke="#333333" stroke-width="0.708471" stroke-opacity="0.5" transform="matrix(1.00017 0 -0 1 92.0471 97.1895)"/><path d="M604.838 223.637 659.378 213.981" stroke="#333333" stroke-width="0.708471" stroke-opacity="0.5" transform="matrix(1.00017 0 -0 1 92.0471 97.1895)"/><path d="M659.378 213.981 692.599 205.984" stroke="#333333" stroke-width="2.9322" stroke-opacity="0.5" transform="matrix(1.00017 0 -0 1 92.0471 97.1895)"/><path d="M343.256 193.337 283.435 168.475" stroke="#333333" stroke-width="0.708471" stroke-opacity="0.5" transform="matrix(1.00017 0 -0 1 92.0471 97.1895)"/><path d="M200.656 122.589 236.82 143.985" stroke="#333333" stroke-width="0.708471" stroke-opacity="0.5" transform="matrix(1.00017 0 -0 1 92.0471 97.1895)"/><path d="M283.435 168.475 236.82 143.985" stroke="#333333" stroke-width="1.37074" stroke-opacity="0.5" transform="matrix(1.00017 0 -0 1 92.0471 97.1895)"/><path d="M524.66 241.541 522.296 286.996" stroke="#333333" stroke-width="0.708471" stroke-opacity="0.5" transform="matrix(1.00017 0 -0 1 92.0471 97.1895)"/><path d="M507.123 338.888 522.296 286.996" stroke="#333333" stroke-width="1.37074" stroke-opacity="0.5" transform="matrix(1.00017 0 -0 1 92.0471 97.1895)"/><path d="M516.611 3.50315 561.835 6.44617" stroke="#333333" stroke-width="0.708471" stroke-opacity="0.5" transform="matrix(1.00017 0 -0 1 92.0471 97.1895)"/><path d="M582.554 55.0046 586.252 24.0834" stroke="#333333" stroke-width="0.708471" stroke-opacity="0.5" transform="matrix(1.00017 0 -0 1 92.0471 97.1895)"/><path d="M586.252 24.0834 561.835 6.44617" stroke="#333333" stroke-width="1.54416" stroke-opacity="0.5" transform="matrix(1.00017 0 -0 1 92.0471 97.1895)"/><path d="M516.611 3.50315 481.426 29.5601" stroke="#333333" stroke-width="0.708471" stroke-opacity="0.5" transform="matrix(1.00017 0 -0 1 92.0471 97.1895)"/><path d="M481.426 29.5601 481.851 97.4205" stroke="#333333" stroke-width="1.54416" stroke-opacity="0.5" transform="matrix(1.00017 0 -0 1 92.0471 97.1895)"/><path d="M582.554 55.0046 531.492 73.2184" stroke="#333333" stroke-width="0.708471" stroke-opacity="0.5" transform="matrix(1.00017 0 -0 1 92.0471 97.1895)"/><path d="M531.492 73.2184 481.851 97.4205" stroke="#333333" stroke-width="1.12631" stroke-opacity="0.5" transform="matrix(1.00017 0 -0 1 92.0471 97.1895)"/><path d="M516.611 3.50315 528.958 28.3513" stroke="#333333" stroke-width="0.708471" stroke-opacity="0.5" transform="matrix(1.00017 0 -0 1 92.0471 97.1895)"/><path d="M528.958 28.3513 528.958 28.3513" stroke="#333333" stroke-width="1.78858" stroke-opacity="0.5" fill="none" transform="matrix(1.00017 0 -0 1 92.0471 97.1895)"/><path d="M524.66 241.541 526.134 194.508" stroke="#333333" stroke-width="0.708471" stroke-opacity="0.5" transform="matrix(1.00017 0 -0 1 92.0471 97.1895)"/><path d="M421.939 332.366 526.134 194.508" stroke="#333333" stroke-width="1.78858" stroke-opacity="0.5" transform="matrix(1.00017 0 -0 1 92.0471 97.1895)"/><path d="M587.038 176.353 628.32 149.922" stroke="#333333" stroke-width="0.708471" stroke-opacity="0.5" transform="matrix(1.00017 0 -0 1 92.0471 97.1895)"/><path d="M701.533 133.093 662.484 149.345" stroke="#333333" stroke-width="0.708471" stroke-opacity="0.5" transform="matrix(1.00017 0 -0 1 92.0471 97.1895)"/><path d="M662.484 149.345 628.32 149.922" stroke="#333333" stroke-width="1.37074" stroke-opacity="0.5" transform="matrix(1.00017 0 -0 1 92.0471 97.1895)"/><path d="M587.038 176.353 593.883 142.308" stroke="#333333" stroke-width="0.708471" stroke-opacity="0.5" transform="matrix(1.00017 0 -0 1 92.0471 97.1895)"/><path d="M647.192 88.6099 613.171 117.015" stroke="#333333" stroke-width="0.708471" stroke-opacity="0.5" transform="matrix(1.00017 0 -0 1 92.0471 97.1895)"/><path d="M613.171 117.015 593.883 142.308" stroke="#333333" stroke-width="1.37074" stroke-opacity="0.5" transform="matrix(1.00017 0 -0 1 92.0471 97.1895)"/><path d="M595.713 427.035 595.713 427.035" stroke="#333333" stroke-width="4.19878" stroke-opacity="0.5" fill="none" transform="matrix(1.00017 0 -0 1 92.0471 97.1895)"/><path d="M832.27 301.328 828.104 337.619" stroke="#333333" stroke-width="0.708471" stroke-opacity="0.5" transform="matrix(1.00017 0 -0 1 92.0471 97.1895)"/><path d="M752.829 354.953 801.062 363.933" stroke="#333333" stroke-width="0.708471" stroke-opacity="0.5" transform="matrix(1.00017 0 -0 1 92.0471 97.1895)"/><path d="M828.104 337.619 801.062 363.933" stroke="#333333" stroke-width="3.94037" stroke-opacity="0.5" transform="matrix(1.00017 0 -0 1 92.0471 97.1895)"/><path d="M598.718 204.22 633.043 190.171" stroke="#333333" stroke-width="0.708471" stroke-opacity="0.5" transform="matrix(1.00017 0 -0 1 92.0471 97.1895)"/><path d="M702.147 157.34 659.868 177.749" stroke="#333333" stroke-width="0.708471" stroke-opacity="0.5" transform="matrix(1.00017 0 -0 1 92.0471 97.1895)"/><path d="M659.868 177.749 633.043 190.171" stroke="#333333" stroke-width="0.708471" stroke-opacity="0.5" transform="matrix(1.00017 0 -0 1 92.0471 97.1895)"/><path d="M481.851 97.4205 481.851 97.4205" stroke="#333333" stroke-width="3.63806" stroke-opacity="0.5" fill="none" transform="matrix(1.00017 0 -0 1 92.0471 97.1895)"/><path d="M752.829 354.953 726.403 385.951" stroke="#333333" stroke-width="0.708471" stroke-opacity="0.5" transform="matrix(1.00017 0 -0 1 92.0471 97.1895)"/><path d="M732.928 470.244 709.64 433.886" stroke="#333333" stroke-width="0.708471" stroke-opacity="0.5" transform="matrix(1.00017 0 -0 1 92.0471 97.1895)"/><path d="M709.64 433.886 726.403 385.951" stroke="#333333" stroke-width="4.39393" stroke-opacity="0.5" transform="matrix(1.00017 0 -0 1 92.0471 97.1895)"/><path d="M752.829 354.953 702.15 331.434" stroke="#333333" stroke-width="0.708471" stroke-opacity="0.5" transform="matrix(1.00017 0 -0 1 92.0471 97.1895)"/><path d="M639.026 299.807 702.15 331.434" stroke="#333333" stroke-width="4.39393" stroke-opacity="0.5" transform="matrix(1.00017 0 -0 1 92.0471 97.1895)"/><path d="M391.71 231.085 409.126 152.479" stroke="#333333" stroke-width="0.708471" stroke-opacity="0.5" transform="matrix(1.00017 0 -0 1 92.0471 97.1895)"/><path d="M409.126 152.479 481.851 97.4205" stroke="#333333" stroke-width="4.23456" stroke-opacity="0.5" transform="matrix(1.00017 0 -0 1 92.0471 97.1895)"/><path d="M391.71 231.085 354.003 284.351" stroke="#333333" stroke-width="0.708471" stroke-opacity="0.5" transform="matrix(1.00017 0 -0 1 92.0471 97.1895)"/><path d="M293.748 339.956 321.166 312.345" stroke="#333333" stroke-width="0.708471" stroke-opacity="0.5" transform="matrix(1.00017 0 -0 1 92.0471 97.1895)"/><path d="M321.166 312.345 354.003 284.351" stroke="#333333" stroke-width="3.55288" stroke-opacity="0.5" transform="matrix(1.00017 0 -0 1 92.0471 97.1895)"/><path d="M440.02 15.7002 468.974 54.428" stroke="#333333" stroke-width="0.708471" stroke-opacity="0.5" transform="matrix(1.00017 0 -0 1 92.0471 97.1895)"/><path d="M468.974 54.428 481.851 97.4205" stroke="#333333" stroke-width="1.962" stroke-opacity="0.5" transform="matrix(1.00017 0 -0 1 92.0471 97.1895)"/><path d="M756.038 297.041 716.314 281.389" stroke="#333333" stroke-width="0.708471" stroke-opacity="0.5" transform="matrix(1.00017 0 -0 1 92.0471 97.1895)"/><path d="M643.476 267.235 680.639 258.861" stroke="#333333" stroke-width="0.708471" stroke-opacity="0.5" transform="matrix(1.00017 0 -0 1 92.0471 97.1895)"/><path d="M680.639 258.861 716.314 281.389" stroke="#333333" stroke-width="1.54416" stroke-opacity="0.5" transform="matrix(1.00017 0 -0 1 92.0471 97.1895)"/><path d="M764.54 251.594 719.403 248.775" stroke="#333333" stroke-width="0.708471" stroke-opacity="0.5" transform="matrix(1.00017 0 -0 1 92.0471 97.1895)"/><path d="M716.314 281.389 719.403 248.775" stroke="#333333" stroke-width="1.12631" stroke-opacity="0.5" transform="matrix(1.00017 0 -0 1 92.0471 97.1895)"/><path d="M680.639 258.861 719.403 248.775" stroke="#333333" stroke-width="0.708471" stroke-opacity="0.5" transform="matrix(1.00017 0 -0 1 92.0471 97.1895)"/><path d="M575.879 318.884 507.123 338.888" stroke="#333333" stroke-width="0.708471" stroke-opacity="0.5" transform="matrix(1.00017 0 -0 1 92.0471 97.1895)"/><path d="M632.892 242.233 668.854 235.251" stroke="#333333" stroke-width="0.708471" stroke-opacity="0.5" transform="matrix(1.00017 0 -0 1 92.0471 97.1895)"/><path d="M738.624 222.823 701.66 229.54" stroke="#333333" stroke-width="0.708471" stroke-opacity="0.5" transform="matrix(1.00017 0 -0 1 92.0471 97.1895)"/><path d="M668.854 235.251 701.66 229.54" stroke="#333333" stroke-width="0.708471" stroke-opacity="0.5" transform="matrix(1.00017 0 -0 1 92.0471 97.1895)"/><path d="M206.516 395.261 243.675 370.973" stroke="#333333" stroke-width="0.708471" stroke-opacity="0.5" transform="matrix(1.00017 0 -0 1 92.0471 97.1895)"/><path d="M206.516 395.261 224.678 412.332" stroke="#333333" stroke-width="0.708471" stroke-opacity="0.5" transform="matrix(1.00017 0 -0 1 92.0471 97.1895)"/><path d="M224.678 412.332 243.675 370.973" stroke="#333333" stroke-width="1.12631" stroke-opacity="0.5" transform="matrix(1.00017 0 -0 1 92.0471 97.1895)"/><path d="M328.466 415.074 275.593 409.022" stroke="#333333" stroke-width="0.708471" stroke-opacity="0.5" transform="matrix(1.00017 0 -0 1 92.0471 97.1895)"/><path d="M243.675 370.973 275.593 409.022" stroke="#333333" stroke-width="1.12631" stroke-opacity="0.5" transform="matrix(1.00017 0 -0 1 92.0471 97.1895)"/><path d="M582.554 55.0046 548.052 42.2223" stroke="#333333" stroke-width="0.708471" stroke-opacity="0.5" transform="matrix(1.00017 0 -0 1 92.0471 97.1895)"/><path d="M548.052 42.2223 528.958 28.3513" stroke="#333333" stroke-width="1.12631" stroke-opacity="0.5" transform="matrix(1.00017 0 -0 1 92.0471 97.1895)"/><path d="M351.564 345.546 354.003 284.351" stroke="#333333" stroke-width="0.708471" stroke-opacity="0.5" transform="matrix(1.00017 0 -0 1 92.0471 97.1895)"/><path d="M413.764 36.807 453.325 63.9745" stroke="#333333" stroke-width="0.708471" stroke-opacity="0.5" transform="matrix(1.00017 0 -0 1 92.0471 97.1895)"/><path d="M453.325 63.9745 481.851 97.4205" stroke="#333333" stroke-width="0.708471" stroke-opacity="0.5" transform="matrix(1.00017 0 -0 1 92.0471 97.1895)"/><path d="M582.554 55.0046 598.078 77.6506" stroke="#333333" stroke-width="0.708471" stroke-opacity="0.5" transform="matrix(1.00017 0 -0 1 92.0471 97.1895)"/><path d="M526.134 194.508 598.078 77.6506" stroke="#333333" stroke-width="0.708471" stroke-opacity="0.5" transform="matrix(1.00017 0 -0 1 92.0471 97.1895)"/><path d="M383.8 331.382 395.457 297.887" stroke="#333333" stroke-width="0.708471" stroke-opacity="0.5" transform="matrix(1.00017 0 -0 1 92.0471 97.1895)"/><path d="M421.939 332.366 395.457 297.887" stroke="#333333" stroke-width="0.708471" stroke-opacity="0.5" transform="matrix(1.00017 0 -0 1 92.0471 97.1895)"/><path d="M453.968 200.117 445.999 265.42" stroke="#333333" stroke-width="0.708471" stroke-opacity="0.5" transform="matrix(1.00017 0 -0 1 92.0471 97.1895)"/><path d="M395.457 297.887 445.999 265.42" stroke="#333333" stroke-width="0.708471" stroke-opacity="0.5" transform="matrix(1.00017 0 -0 1 92.0471 97.1895)"/><path d="M453.968 200.117 469.945 134.243" stroke="#333333" stroke-width="0.708471" stroke-opacity="0.5" transform="matrix(1.00017 0 -0 1 92.0471 97.1895)"/><path d="M481.851 97.4205 469.945 134.243" stroke="#333333" stroke-width="0.708471" stroke-opacity="0.5" transform="matrix(1.00017 0 -0 1 92.0471 97.1895)"/><path d="M524.948 130.256 514.752 171.255" stroke="#333333" stroke-width="0.708471" stroke-opacity="0.5" transform="matrix(1.00017 0 -0 1 92.0471 97.1895)"/><path d="M453.968 200.117 471.362 224.384" stroke="#333333" stroke-width="0.708471" stroke-opacity="0.5" transform="matrix(1.00017 0 -0 1 92.0471 97.1895)"/><path d="M514.752 171.255 471.362 224.384" stroke="#333333" stroke-width="0.708471" stroke-opacity="0.5" transform="matrix(1.00017 0 -0 1 92.0471 97.1895)"/><path d="M524.948 130.256 531.282 95.1442" stroke="#333333" stroke-width="0.708471" stroke-opacity="0.5" transform="matrix(1.00017 0 -0 1 92.0471 97.1895)"/><path d="M481.851 97.4205 531.282 95.1442" stroke="#333333" stroke-width="0.708471" stroke-opacity="0.5" transform="matrix(1.00017 0 -0 1 92.0471 97.1895)"/><path d="M604.511 265.899C604.511 275.413 596.798 283.126 587.284 283.126 577.77 283.126 570.057 275.413 570.057 265.899 570.057 256.385 577.77 248.672 587.284 248.672 596.798 248.672 604.511 256.385 604.511 265.899Z" fill="#1F77B4" transform="matrix(1.00017 0 -0 1 92.0471 97.1895)"/><path d="M520.148 397.341C520.148 406.113 513.038 413.224 504.266 413.224 495.494 413.224 488.383 406.113 488.383 397.341 488.383 388.57 495.494 381.459 504.266 381.459 513.038 381.459 520.148 388.57 520.148 397.341Z" fill="#AEC7E8" transform="matrix(1.00017 0 -0 1 92.0471 97.1895)"/><path d="M662.119 88.6099C662.119 96.854 655.436 103.537 647.192 103.537 638.948 103.537 632.265 96.854 632.265 88.6099 632.265 80.3659 638.948 73.6827 647.192 73.6827 655.436 73.6827 662.119 80.3659 662.119 88.6099Z" fill="#FF7F0E" transform="matrix(1.00017 0 -0 1 92.0471 97.1895)"/><path d="M601.974 176.353C601.974 184.602 595.287 191.289 587.038 191.289 578.789 191.289 572.102 184.602 572.102 176.353 572.102 168.104 578.789 161.416 587.038 161.416 595.287 161.416 601.974 168.103 601.974 176.353Z" fill="#FFBB78" transform="matrix(1.00017 0 -0 1 92.0471 97.1895)"/><path d="M392.993 68.8105C392.993 78.2481 385.342 85.8988 375.904 85.8988 366.467 85.8988 358.816 78.2481 358.816 68.8105 358.816 59.3729 366.467 51.7222 375.904 51.7222 385.342 51.7222 392.993 59.3729 392.993 68.8105Z" fill="#2CA02C" transform="matrix(1.00017 0 -0 1 92.0471 97.1895)"/><path d="M425.275 116.218C425.275 125.702 417.587 133.39 408.103 133.39 398.619 133.39 390.931 125.702 390.931 116.218 390.931 106.734 398.619 99.0463 408.103 99.0463 417.587 99.0463 425.275 106.734 425.275 116.218Z" fill="#98DF8A" transform="matrix(1.00017 0 -0 1 92.0471 97.1895)"/><path d="M498.193 97.4205C498.193 106.446 490.876 113.763 481.851 113.763 472.825 113.763 465.508 106.446 465.508 97.4205 465.508 88.3946 472.825 81.0776 481.851 81.0776 490.876 81.0776 498.193 88.3946 498.193 97.4205Z" fill="#98DF8A" transform="matrix(1.00017 0 -0 1 92.0471 97.1895)"/><path d="M438.542 83.7491C438.542 92.5961 431.37 99.768 422.523 99.768 413.676 99.768 406.504 92.5961 406.504 83.7491 406.504 74.9021 413.676 67.7302 422.523 67.7302 431.37 67.7302 438.542 74.9021 438.542 83.7491Z" fill="#2CA02C" transform="matrix(1.00017 0 -0 1 92.0471 97.1895)"/><path d="M692.862 413.586C692.862 422.744 685.438 430.167 676.281 430.167 667.123 430.167 659.699 422.744 659.699 413.586 659.699 404.428 667.123 397.004 676.281 397.004 685.438 397.004 692.862 404.428 692.862 413.586Z" fill="#D62728" transform="matrix(1.00017 0 -0 1 92.0471 97.1895)"/><path d="M526.228 445.735C526.228 454.301 519.284 461.245 510.718 461.245 502.152 461.245 495.207 454.301 495.207 445.735 495.207 437.169 502.152 430.224 510.718 430.224 519.284 430.224 526.228 437.169 526.228 445.735Z" fill="#FF9896" transform="matrix(1.00017 0 -0 1 92.0471 97.1895)"/><path d="M580.838 460.086C580.838 468.091 574.348 474.581 566.342 474.581 558.336 474.581 551.846 468.091 551.846 460.086 551.846 452.08 558.336 445.59 566.342 445.59 574.348 445.59 580.838 452.08 580.838 460.086Z" fill="#FF9896" transform="matrix(1.00017 0 -0 1 92.0471 97.1895)"/><path d="M611.067 427.035C611.067 435.515 604.193 442.389 595.713 442.389 587.234 442.389 580.36 435.515 580.36 427.035 580.36 418.556 587.234 411.682 595.713 411.682 604.193 411.682 611.067 418.556 611.067 427.035Z" fill="#D62728" transform="matrix(1.00017 0 -0 1 92.0471 97.1895)"/><path d="M155.821 183.407C155.821 191.641 149.146 198.315 140.912 198.315 132.678 198.315 126.004 191.641 126.004 183.407 126.004 175.173 132.678 168.499 140.912 168.499 149.146 168.499 155.821 175.173 155.821 183.407Z" fill="#9467BD" transform="matrix(1.00017 0 -0 1 92.0471 97.1895)"/><path d="M148.976 237.755C148.976 245.476 142.717 251.735 134.996 251.735 127.275 251.735 121.016 245.476 121.016 237.755 121.016 230.034 127.275 223.775 134.996 223.775 142.717 223.775 148.976 230.034 148.976 237.755Z" fill="#C5B0D5" transform="matrix(1.00017 0 -0 1 92.0471 97.1895)"/><path d="M307.012 240.435C307.012 248.669 300.337 255.344 292.103 255.344 283.87 255.344 277.195 248.669 277.195 240.435 277.195 232.202 283.87 225.527 292.103 225.527 300.337 225.527 307.012 232.202 307.012 240.435Z" fill="#8C564B" transform="matrix(1.00017 0 -0 1 92.0471 97.1895)"/><path d="M242.099 242.913C242.099 250.121 236.255 255.965 229.047 255.965 221.838 255.965 215.995 250.121 215.995 242.913 215.995 235.705 221.838 229.861 229.047 229.861 236.255 229.861 242.099 235.705 242.099 242.913Z" fill="#8C564B" transform="matrix(1.00017 0 -0 1 92.0471 97.1895)"/><path d="M190.002 240.753C190.002 247.962 184.159 253.805 176.951 253.805 169.742 253.805 163.899 247.962 163.899 240.753 163.899 233.545 169.742 227.702 176.951 227.702 184.159 227.702 190.002 233.545 190.002 240.753Z" fill="#C5B0D5" transform="matrix(1.00017 0 -0 1 92.0471 97.1895)"/><path d="M194.417 197.902C194.417 205.623 188.158 211.882 180.437 211.882 172.716 211.882 166.457 205.623 166.457 197.902 166.457 190.181 172.716 183.922 180.437 183.922 188.158 183.922 194.417 190.181 194.417 197.902Z" fill="#9467BD" transform="matrix(1.00017 0 -0 1 92.0471 97.1895)"/><path d="M244.284 216.961C244.284 224.682 238.025 230.941 230.304 230.941 222.583 230.941 216.324 224.682 216.324 216.961 216.324 209.24 222.583 202.981 230.304 202.981 238.025 202.981 244.284 209.24 244.284 216.961Z" fill="#8C564B" transform="matrix(1.00017 0 -0 1 92.0471 97.1895)"/><path d="M556.321 371.46C556.321 379.444 549.849 385.917 541.864 385.917 533.88 385.917 527.408 379.444 527.408 371.46 527.408 363.476 533.88 357.003 541.864 357.003 549.849 357.003 556.321 363.476 556.321 371.46Z" fill="#C49C94" transform="matrix(1.00017 0 -0 1 92.0471 97.1895)"/><path d="M559.05 346.239C559.05 353.45 553.204 359.296 545.993 359.296 538.781 359.296 532.935 353.451 532.935 346.239 532.935 339.028 538.781 333.182 545.993 333.182 553.204 333.182 559.05 339.028 559.05 346.239Z" fill="#C49C94" transform="matrix(1.00017 0 -0 1 92.0471 97.1895)"/><path d="M588.941 318.884C588.941 326.099 583.093 331.947 575.879 331.947 568.665 331.947 562.816 326.099 562.816 318.884 562.816 311.67 568.665 305.822 575.879 305.822 583.093 305.822 588.941 311.67 588.941 318.884Z" fill="#1F77B4" transform="matrix(1.00017 0 -0 1 92.0471 97.1895)"/><path d="M281.04 277.562C281.04 285.583 274.538 292.085 266.517 292.085 258.496 292.085 251.994 285.583 251.994 277.562 251.994 269.541 258.496 263.039 266.517 263.039 274.538 263.039 281.04 269.541 281.04 277.562Z" fill="#E377C2" transform="matrix(1.00017 0 -0 1 92.0471 97.1895)"/><path d="M148.253 326.097C148.253 333.818 141.994 340.077 134.273 340.077 126.552 340.077 120.293 333.818 120.293 326.097 120.293 318.376 126.552 312.117 134.273 312.117 141.994 312.117 148.253 318.376 148.253 326.097Z" fill="#F7B6D2" transform="matrix(1.00017 0 -0 1 92.0471 97.1895)"/><path d="M130.996 290.714C130.996 298.435 124.736 304.694 117.015 304.694 109.294 304.694 103.035 298.435 103.035 290.714 103.035 282.993 109.294 276.734 117.015 276.734 124.736 276.734 130.996 282.993 130.996 290.714Z" fill="#7F7F7F" transform="matrix(1.00017 0 -0 1 92.0471 97.1895)"/><path d="M171.492 281.059C171.492 288.267 165.649 294.111 158.44 294.111 151.232 294.111 145.389 288.267 145.389 281.059 145.389 273.851 151.232 268.007 158.44 268.007 165.649 268.007 171.492 273.851 171.492 281.059Z" fill="#7F7F7F" transform="matrix(1.00017 0 -0 1 92.0471 97.1895)"/><path d="M221.1 270.04C221.1 277.761 214.84 284.02 207.12 284.02 199.398 284.02 193.139 277.761 193.139 270.04 193.139 262.319 199.399 256.06 207.12 256.06 214.841 256.06 221.1 262.319 221.1 270.04Z" fill="#E377C2" transform="matrix(1.00017 0 -0 1 92.0471 97.1895)"/><path d="M181.876 301.601C181.876 308.809 176.033 314.652 168.824 314.652 161.616 314.652 155.773 308.809 155.773 301.601 155.773 294.392 161.616 288.549 168.824 288.549 176.033 288.549 181.876 294.392 181.876 301.601Z" fill="#F7B6D2" transform="matrix(1.00017 0 -0 1 92.0471 97.1895)"/><path d="M312.889 26.3917C312.889 34.6254 306.215 41.3001 297.981 41.3001 289.747 41.3001 283.073 34.6254 283.073 26.3917 283.073 18.158 289.747 11.4833 297.981 11.4833 306.215 11.4833 312.889 18.158 312.889 26.3917Z" fill="#C7C7C7" transform="matrix(1.00017 0 -0 1 92.0471 97.1895)"/><path d="M380.544 140.786C380.544 149.02 373.869 155.694 365.636 155.694 357.402 155.694 350.727 149.02 350.727 140.786 350.727 132.552 357.402 125.878 365.636 125.878 373.869 125.878 380.544 132.552 380.544 140.786Z" fill="#BCBD22" transform="matrix(1.00017 0 -0 1 92.0471 97.1895)"/><path d="M333.716 63.5009C333.716 71.2219 327.457 77.481 319.736 77.481 312.015 77.481 305.756 71.2219 305.756 63.5009 305.756 55.7799 312.015 49.5207 319.736 49.5207 327.457 49.5207 333.716 55.7799 333.716 63.5009Z" fill="#C7C7C7" transform="matrix(1.00017 0 -0 1 92.0471 97.1895)"/><path d="M364.707 110.592C364.707 118.313 358.448 124.572 350.727 124.572 343.006 124.572 336.747 118.313 336.747 110.592 336.747 102.871 343.006 96.6115 350.727 96.6115 358.448 96.6115 364.707 102.871 364.707 110.592Z" fill="#BCBD22" transform="matrix(1.00017 0 -0 1 92.0471 97.1895)"/><path d="M344.531 415.074C344.531 423.945 337.338 431.138 328.466 431.138 319.595 431.138 312.402 423.946 312.402 415.074 312.402 406.202 319.595 399.009 328.466 399.009 337.338 399.009 344.531 406.202 344.531 415.074Z" fill="#DBDB8D" transform="matrix(1.00017 0 -0 1 92.0471 97.1895)"/><path d="M641.819 375.97C641.819 383.828 635.448 390.199 627.59 390.199 619.732 390.199 613.362 383.828 613.362 375.97 613.362 368.112 619.732 361.742 627.59 361.742 635.448 361.742 641.819 368.112 641.819 375.97Z" fill="#D62728" transform="matrix(1.00017 0 -0 1 92.0471 97.1895)"/><path d="M654.01 299.807C654.01 308.082 647.301 314.791 639.026 314.791 630.751 314.791 624.043 308.082 624.043 299.807 624.043 291.532 630.751 284.824 639.026 284.824 647.301 284.824 654.01 291.532 654.01 299.807Z" fill="#1F77B4" transform="matrix(1.00017 0 -0 1 92.0471 97.1895)"/><path d="M419.615 389.812C419.615 398.844 412.293 406.165 403.262 406.165 394.23 406.165 386.909 398.844 386.909 389.812 386.909 380.781 394.23 373.459 403.262 373.459 412.293 373.459 419.615 380.781 419.615 389.812Z" fill="#17BECF" transform="matrix(1.00017 0 -0 1 92.0471 97.1895)"/><path d="M519.38 338.888C519.38 345.657 513.893 351.145 507.123 351.145 500.354 351.145 494.866 345.657 494.866 338.888 494.866 332.119 500.354 326.631 507.123 326.631 513.893 326.631 519.38 332.119 519.38 338.888Z" fill="#AEC7E8" transform="matrix(1.00017 0 -0 1 92.0471 97.1895)"/><path d="M464.393 361.507C464.393 368.255 458.924 373.725 452.176 373.725 445.429 373.725 439.959 368.255 439.959 361.507 439.959 354.76 445.429 349.29 452.176 349.29 458.924 349.29 464.393 354.76 464.393 361.507Z" fill="#17BECF" transform="matrix(1.00017 0 -0 1 92.0471 97.1895)"/><path d="M352.588 381.498C352.588 389.904 345.774 396.718 337.369 396.718 328.964 396.718 322.15 389.904 322.15 381.498 322.15 373.093 328.964 366.279 337.369 366.279 345.774 366.279 352.588 373.093 352.588 381.498Z" fill="#9EDAE5" transform="matrix(1.00017 0 -0 1 92.0471 97.1895)"/><path d="M357.688 193.337C357.688 201.307 351.226 207.769 343.256 207.769 335.285 207.769 328.824 201.307 328.824 193.337 328.824 185.366 335.285 178.905 343.256 178.905 351.226 178.905 357.688 185.366 357.688 193.337Z" fill="#1F77B4" transform="matrix(1.00017 0 -0 1 92.0471 97.1895)"/><path d="M244.102 76.4384C244.102 84.4068 237.642 90.8665 229.674 90.8665 221.705 90.8665 215.246 84.4068 215.246 76.4384 215.246 68.47 221.705 62.0103 229.674 62.0103 237.642 62.0103 244.102 68.47 244.102 76.4384Z" fill="#AEC7E8" transform="matrix(1.00017 0 -0 1 92.0471 97.1895)"/><path d="M272.487 107.013C272.487 114.468 266.443 120.511 258.989 120.511 251.534 120.511 245.491 114.468 245.491 107.013 245.491 99.5586 251.534 93.5154 258.989 93.5154 266.443 93.5154 272.487 99.5586 272.487 107.013Z" fill="#AEC7E8" transform="matrix(1.00017 0 -0 1 92.0471 97.1895)"/><path d="M309.76 145.925C309.76 153.379 303.717 159.422 296.262 159.422 288.808 159.422 282.764 153.379 282.764 145.925 282.764 138.47 288.808 132.427 296.262 132.427 303.717 132.427 309.76 138.47 309.76 145.925Z" fill="#1F77B4" transform="matrix(1.00017 0 -0 1 92.0471 97.1895)"/><path d="M363.634 458.54C363.634 466.867 356.883 473.617 348.557 473.617 340.23 473.617 333.48 466.867 333.48 458.54 333.48 450.214 340.23 443.463 348.557 443.463 356.883 443.463 363.634 450.214 363.634 458.54Z" fill="#DBDB8D" transform="matrix(1.00017 0 -0 1 92.0471 97.1895)"/><path d="M424.022 447.118C424.022 455.445 417.271 462.195 408.945 462.195 400.618 462.195 393.868 455.445 393.868 447.118 393.868 438.792 400.618 432.041 408.945 432.041 417.271 432.041 424.022 438.792 424.022 447.118Z" fill="#17BECF" transform="matrix(1.00017 0 -0 1 92.0471 97.1895)"/><path d="M365.239 345.546C365.239 353.099 359.117 359.221 351.564 359.221 344.011 359.221 337.889 353.099 337.889 345.546 337.889 337.994 344.011 331.871 351.564 331.871 359.117 331.871 365.239 337.994 365.239 345.546Z" fill="#9EDAE5" transform="matrix(1.00017 0 -0 1 92.0471 97.1895)"/><path d="M435.635 332.366C435.635 339.93 429.503 346.061 421.939 346.061 414.376 346.061 408.244 339.93 408.244 332.366 408.244 324.802 414.376 318.671 421.939 318.671 429.503 318.671 435.635 324.802 435.635 332.366Z" fill="#17BECF" transform="matrix(1.00017 0 -0 1 92.0471 97.1895)"/><path d="M406.865 231.085C406.865 239.455 400.08 246.239 391.71 246.239 383.341 246.239 376.556 239.455 376.556 231.085 376.556 222.715 383.341 215.931 391.71 215.931 400.08 215.931 406.865 222.715 406.865 231.085Z" fill="#FF7F0E" transform="matrix(1.00017 0 -0 1 92.0471 97.1895)"/><path d="M307.549 339.956C307.549 347.579 301.37 353.758 293.748 353.758 286.126 353.758 279.947 347.579 279.947 339.956 279.947 332.334 286.126 326.155 293.748 326.155 301.37 326.155 307.549 332.334 307.549 339.956Z" fill="#FFBB78" transform="matrix(1.00017 0 -0 1 92.0471 97.1895)"/><path d="M451.278 15.7002C451.278 21.918 446.237 26.9586 440.02 26.9586 433.802 26.9586 428.761 21.918 428.761 15.7002 428.761 9.48228 433.802 4.44169 440.02 4.44169 446.237 4.44169 451.278 9.48228 451.278 15.7002Z" fill="#2CA02C" transform="matrix(1.00017 0 -0 1 92.0471 97.1895)"/><path d="M746.993 194.426C746.993 200.824 741.806 206.012 735.408 206.012 729.009 206.012 723.822 200.824 723.822 194.426 723.822 188.027 729.009 182.84 735.408 182.84 741.806 182.84 746.993 188.027 746.993 194.426Z" fill="#98DF8A" transform="matrix(1.00017 0 -0 1 92.0471 97.1895)"/><path d="M616.424 223.637C616.424 230.035 611.237 235.223 604.838 235.223 598.44 235.223 593.253 230.035 593.253 223.637 593.253 217.238 598.44 212.051 604.838 212.051 611.237 212.051 616.424 217.238 616.424 223.637Z" fill="#D62728" transform="matrix(1.00017 0 -0 1 92.0471 97.1895)"/><path d="M703.207 205.984C703.207 211.843 698.458 216.592 692.599 216.592 686.74 216.592 681.991 211.843 681.991 205.984 681.991 200.125 686.74 195.376 692.599 195.376 698.458 195.376 703.207 200.125 703.207 205.984Z" fill="#98DF8A" transform="matrix(1.00017 0 -0 1 92.0471 97.1895)"/><path d="M669.986 213.981C669.986 219.84 665.237 224.589 659.378 224.589 653.519 224.589 648.77 219.84 648.77 213.981 648.77 208.122 653.519 203.373 659.378 203.373 665.237 203.373 669.986 208.122 669.986 213.981Z" fill="#D62728" transform="matrix(1.00017 0 -0 1 92.0471 97.1895)"/><path d="M209.535 122.589C209.535 127.493 205.56 131.468 200.656 131.468 195.752 131.468 191.777 127.493 191.777 122.589 191.777 117.685 195.752 113.71 200.656 113.71 205.56 113.71 209.535 117.685 209.535 122.589Z" fill="#FF9896" transform="matrix(1.00017 0 -0 1 92.0471 97.1895)"/><path d="M290.574 168.475C290.574 172.418 287.377 175.614 283.435 175.614 279.492 175.614 276.295 172.418 276.295 168.475 276.295 164.532 279.492 161.336 283.435 161.336 287.377 161.336 290.574 164.532 290.574 168.475Z" fill="#1F77B4" transform="matrix(1.00017 0 -0 1 92.0471 97.1895)"/><path d="M243.959 143.985C243.959 147.928 240.763 151.125 236.82 151.125 232.877 151.125 229.681 147.928 229.681 143.985 229.681 140.043 232.877 136.846 236.82 136.846 240.763 136.846 243.959 140.043 243.959 143.985Z" fill="#FF9896" transform="matrix(1.00017 0 -0 1 92.0471 97.1895)"/><path d="M535.051 241.541C535.051 247.28 530.398 251.932 524.66 251.932 518.921 251.932 514.269 247.28 514.269 241.541 514.269 235.803 518.921 231.151 524.66 231.151 530.398 231.151 535.051 235.803 535.051 241.541Z" fill="#9467BD" transform="matrix(1.00017 0 -0 1 92.0471 97.1895)"/><path d="M529.436 286.996C529.436 290.939 526.239 294.135 522.296 294.135 518.354 294.135 515.157 290.939 515.157 286.996 515.157 283.053 518.354 279.857 522.296 279.857 526.239 279.857 529.436 283.053 529.436 286.996Z" fill="#9467BD" transform="matrix(1.00017 0 -0 1 92.0471 97.1895)"/><path d="M592.093 55.0046C592.093 60.2727 587.822 64.5434 582.554 64.5434 577.286 64.5434 573.015 60.2727 573.015 55.0046 573.015 49.7365 577.286 45.4658 582.554 45.4658 587.822 45.4658 592.093 49.7365 592.093 55.0046Z" fill="#C5B0D5" transform="matrix(1.00017 0 -0 1 92.0471 97.1895)"/><path d="M527.347 3.50315C527.347 9.43242 522.54 14.239 516.611 14.239 510.682 14.239 505.875 9.43242 505.875 3.50315 505.875-2.42612 510.682-7.23274 516.611-7.23274 522.54-7.23274 527.347-2.42612 527.347 3.50315Z" fill="#8C564B" transform="matrix(1.00017 0 -0 1 92.0471 97.1895)"/><path d="M569.359 6.44617C569.359 10.6018 565.99 13.9706 561.835 13.9706 557.679 13.9706 554.31 10.6018 554.31 6.44617 554.31 2.29056 557.679-1.07822 561.835-1.07822 565.99-1.07822 569.359 2.29056 569.359 6.44617Z" fill="#8C564B" transform="matrix(1.00017 0 -0 1 92.0471 97.1895)"/><path d="M593.776 24.0834C593.776 28.239 590.407 31.6078 586.252 31.6078 582.096 31.6078 578.727 28.239 578.727 24.0834 578.727 19.9278 582.096 16.559 586.252 16.559 590.407 16.559 593.776 19.9278 593.776 24.0834Z" fill="#C5B0D5" transform="matrix(1.00017 0 -0 1 92.0471 97.1895)"/><path d="M488.951 29.5601C488.951 33.7157 485.582 37.0845 481.426 37.0845 477.271 37.0845 473.902 33.7157 473.902 29.5601 473.902 25.4045 477.271 22.0357 481.426 22.0357 485.582 22.0357 488.951 25.4045 488.951 29.5601Z" fill="#8C564B" transform="matrix(1.00017 0 -0 1 92.0471 97.1895)"/><path d="M538.088 73.2184C538.088 76.8613 535.135 79.8145 531.492 79.8145 527.849 79.8145 524.896 76.8613 524.896 73.2184 524.896 69.5755 527.849 66.6223 531.492 66.6223 535.135 66.6223 538.088 69.5755 538.088 73.2184Z" fill="#C5B0D5" transform="matrix(1.00017 0 -0 1 92.0471 97.1895)"/><path d="M538.16 28.3513C538.16 33.4335 534.04 37.5535 528.958 37.5535 523.875 37.5535 519.755 33.4335 519.755 28.3513 519.755 23.269 523.875 19.1491 528.958 19.1491 534.04 19.1491 538.16 23.269 538.16 28.3513Z" fill="#8C564B" transform="matrix(1.00017 0 -0 1 92.0471 97.1895)"/><path d="M534.408 194.508C534.408 199.078 530.704 202.782 526.134 202.782 521.565 202.782 517.86 199.078 517.86 194.508 517.86 189.938 521.565 186.234 526.134 186.234 530.704 186.234 534.408 189.938 534.408 194.508Z" fill="#9467BD" transform="matrix(1.00017 0 -0 1 92.0471 97.1895)"/><path d="M709.601 133.093C709.601 137.549 705.989 141.161 701.533 141.161 697.078 141.161 693.466 137.549 693.466 133.093 693.466 128.638 697.078 125.026 701.533 125.026 705.989 125.026 709.601 128.638 709.601 133.093Z" fill="#C49C94" transform="matrix(1.00017 0 -0 1 92.0471 97.1895)"/><path d="M635.459 149.922C635.459 153.865 632.263 157.062 628.32 157.062 624.377 157.062 621.181 153.865 621.181 149.922 621.181 145.98 624.377 142.783 628.32 142.783 632.263 142.783 635.459 145.98 635.459 149.922Z" fill="#FFBB78" transform="matrix(1.00017 0 -0 1 92.0471 97.1895)"/><path d="M669.623 149.345C669.623 153.288 666.427 156.484 662.484 156.484 658.541 156.484 655.345 153.288 655.345 149.345 655.345 145.402 658.541 142.206 662.484 142.206 666.427 142.206 669.623 145.402 669.623 149.345Z" fill="#C49C94" transform="matrix(1.00017 0 -0 1 92.0471 97.1895)"/><path d="M601.022 142.308C601.022 146.251 597.825 149.447 593.883 149.447 589.94 149.447 586.743 146.251 586.743 142.308 586.743 138.365 589.94 135.169 593.883 135.169 597.825 135.169 601.022 138.365 601.022 142.308Z" fill="#FFBB78" transform="matrix(1.00017 0 -0 1 92.0471 97.1895)"/><path d="M620.311 117.015C620.311 120.958 617.114 124.155 613.171 124.155 609.229 124.155 606.032 120.958 606.032 117.015 606.032 113.073 609.229 109.876 613.171 109.876 617.114 109.876 620.311 113.073 620.311 117.015Z" fill="#FF7F0E" transform="matrix(1.00017 0 -0 1 92.0471 97.1895)"/><path d="M847.183 301.328C847.183 309.564 840.506 316.242 832.27 316.242 824.033 316.242 817.356 309.564 817.356 301.328 817.356 293.091 824.033 286.414 832.27 286.414 840.506 286.414 847.183 293.091 847.183 301.328Z" fill="#E377C2" transform="matrix(1.00017 0 -0 1 92.0471 97.1895)"/><path d="M768.522 354.953C768.522 363.62 761.496 370.646 752.829 370.646 744.162 370.646 737.136 363.62 737.136 354.953 737.136 346.286 744.162 339.26 752.829 339.26 761.496 339.26 768.522 346.286 768.522 354.953Z" fill="#F7B6D2" transform="matrix(1.00017 0 -0 1 92.0471 97.1895)"/><path d="M840.952 337.619C840.952 344.715 835.2 350.467 828.104 350.467 821.008 350.467 815.256 344.715 815.256 337.619 815.256 330.523 821.008 324.771 828.104 324.771 835.2 324.771 840.952 330.523 840.952 337.619Z" fill="#E377C2" transform="matrix(1.00017 0 -0 1 92.0471 97.1895)"/><path d="M813.91 363.933C813.91 371.029 808.157 376.781 801.062 376.781 793.966 376.781 788.214 371.029 788.214 363.933 788.214 356.837 793.966 351.085 801.062 351.085 808.157 351.085 813.91 356.837 813.91 363.933Z" fill="#F7B6D2" transform="matrix(1.00017 0 -0 1 92.0471 97.1895)"/><path d="M605.314 204.22C605.314 207.863 602.361 210.816 598.718 210.816 595.075 210.816 592.122 207.863 592.122 204.22 592.122 200.577 595.075 197.624 598.718 197.624 602.361 197.624 605.314 200.577 605.314 204.22Z" fill="#7F7F7F" transform="matrix(1.00017 0 -0 1 92.0471 97.1895)"/><path d="M708.743 157.34C708.743 160.983 705.79 163.936 702.147 163.936 698.504 163.936 695.551 160.983 695.551 157.34 695.551 153.697 698.504 150.744 702.147 150.744 705.79 150.744 708.743 153.697 708.743 157.34Z" fill="#C7C7C7" transform="matrix(1.00017 0 -0 1 92.0471 97.1895)"/><path d="M638.71 190.171C638.71 193.302 636.173 195.839 633.043 195.839 629.912 195.839 627.375 193.302 627.375 190.171 627.375 187.041 629.912 184.504 633.043 184.504 636.173 184.504 638.71 187.041 638.71 190.171Z" fill="#7F7F7F" transform="matrix(1.00017 0 -0 1 92.0471 97.1895)"/><path d="M665.536 177.749C665.536 180.879 662.998 183.417 659.868 183.417 656.738 183.417 654.2 180.879 654.2 177.749 654.2 174.619 656.738 172.081 659.868 172.081 662.998 172.081 665.536 174.619 665.536 177.749Z" fill="#C7C7C7" transform="matrix(1.00017 0 -0 1 92.0471 97.1895)"/><path d="M747.713 470.244C747.713 478.409 741.094 485.029 732.928 485.029 724.762 485.029 718.142 478.41 718.142 470.244 718.142 462.078 724.762 455.458 732.928 455.458 741.094 455.458 747.713 462.078 747.713 470.244Z" fill="#BCBD22" transform="matrix(1.00017 0 -0 1 92.0471 97.1895)"/><path d="M740.259 385.951C740.259 393.603 734.055 399.807 726.403 399.807 718.75 399.807 712.547 393.603 712.547 385.951 712.547 378.299 718.75 372.095 726.403 372.095 734.055 372.095 740.259 378.299 740.259 385.951Z" fill="#F7B6D2" transform="matrix(1.00017 0 -0 1 92.0471 97.1895)"/><path d="M723.496 433.886C723.496 441.538 717.293 447.741 709.64 447.741 701.988 447.741 695.785 441.538 695.785 433.886 695.785 426.233 701.988 420.03 709.64 420.03 717.293 420.03 723.496 426.233 723.496 433.886Z" fill="#BCBD22" transform="matrix(1.00017 0 -0 1 92.0471 97.1895)"/><path d="M716.006 331.434C716.006 339.086 709.803 345.289 702.15 345.289 694.498 345.289 688.295 339.086 688.295 331.434 688.295 323.781 694.498 317.578 702.15 317.578 709.803 317.578 716.006 323.781 716.006 331.434Z" fill="#F7B6D2" transform="matrix(1.00017 0 -0 1 92.0471 97.1895)"/><path d="M422.628 152.479C422.628 159.935 416.583 165.98 409.126 165.98 401.669 165.98 395.624 159.935 395.624 152.479 395.624 145.022 401.669 138.977 409.126 138.977 416.583 138.977 422.628 145.022 422.628 152.479Z" fill="#FF7F0E" transform="matrix(1.00017 0 -0 1 92.0471 97.1895)"/><path d="M366.002 284.351C366.002 290.978 360.63 296.35 354.003 296.35 347.376 296.35 342.004 290.978 342.004 284.351 342.004 277.724 347.376 272.352 354.003 272.352 360.63 272.352 366.002 277.724 366.002 284.351Z" fill="#FF7F0E" transform="matrix(1.00017 0 -0 1 92.0471 97.1895)"/><path d="M333.154 312.345C333.154 318.965 327.787 324.332 321.166 324.332 314.546 324.332 309.179 318.965 309.179 312.345 309.179 305.724 314.546 300.357 321.166 300.357 327.787 300.357 333.154 305.724 333.154 312.345Z" fill="#FFBB78" transform="matrix(1.00017 0 -0 1 92.0471 97.1895)"/><path d="M477.427 54.428C477.427 59.0963 473.642 62.8807 468.974 62.8807 464.306 62.8807 460.521 59.0963 460.521 54.428 460.521 49.7597 464.306 45.9753 468.974 45.9753 473.642 45.9753 477.427 49.7597 477.427 54.428Z" fill="#2CA02C" transform="matrix(1.00017 0 -0 1 92.0471 97.1895)"/><path d="M652.227 267.235C652.227 272.069 648.309 275.987 643.476 275.987 638.642 275.987 634.724 272.069 634.724 267.235 634.724 262.402 638.642 258.484 643.476 258.484 648.309 258.484 652.227 262.402 652.227 267.235Z" fill="#DBDB8D" transform="matrix(1.00017 0 -0 1 92.0471 97.1895)"/><path d="M764.917 297.041C764.917 301.945 760.942 305.92 756.038 305.92 751.134 305.92 747.159 301.945 747.159 297.041 747.159 292.137 751.134 288.162 756.038 288.162 760.942 288.162 764.917 292.137 764.917 297.041Z" fill="#17BECF" transform="matrix(1.00017 0 -0 1 92.0471 97.1895)"/><path d="M724.382 281.389C724.382 285.845 720.77 289.457 716.314 289.457 711.859 289.457 708.247 285.845 708.247 281.389 708.247 276.934 711.859 273.322 716.314 273.322 720.77 273.322 724.382 276.934 724.382 281.389Z" fill="#17BECF" transform="matrix(1.00017 0 -0 1 92.0471 97.1895)"/><path d="M688.462 258.861C688.462 263.181 684.96 266.684 680.639 266.684 676.318 266.684 672.816 263.181 672.816 258.861 672.816 254.54 676.318 251.037 680.639 251.037 684.96 251.037 688.462 254.54 688.462 258.861Z" fill="#DBDB8D" transform="matrix(1.00017 0 -0 1 92.0471 97.1895)"/><path d="M772.363 251.594C772.363 255.914 768.861 259.417 764.54 259.417 760.219 259.417 756.717 255.914 756.717 251.594 756.717 247.273 760.219 243.77 764.54 243.77 768.861 243.77 772.363 247.273 772.363 251.594Z" fill="#9EDAE5" transform="matrix(1.00017 0 -0 1 92.0471 97.1895)"/><path d="M726.542 248.775C726.542 252.718 723.346 255.915 719.403 255.915 715.46 255.915 712.264 252.718 712.264 248.775 712.264 244.833 715.46 241.636 719.403 241.636 723.346 241.636 726.542 244.833 726.542 248.775Z" fill="#9EDAE5" transform="matrix(1.00017 0 -0 1 92.0471 97.1895)"/><path d="M639.488 242.233C639.488 245.876 636.535 248.829 632.892 248.829 629.249 248.829 626.296 245.876 626.296 242.233 626.296 238.59 629.249 235.637 632.892 235.637 636.535 235.637 639.488 238.59 639.488 242.233Z" fill="#1F77B4" transform="matrix(1.00017 0 -0 1 92.0471 97.1895)"/><path d="M745.22 222.823C745.22 226.466 742.267 229.419 738.624 229.419 734.981 229.419 732.028 226.466 732.028 222.823 732.028 219.18 734.981 216.227 738.624 216.227 742.267 216.227 745.22 219.18 745.22 222.823Z" fill="#AEC7E8" transform="matrix(1.00017 0 -0 1 92.0471 97.1895)"/><path d="M674.521 235.251C674.521 238.381 671.984 240.919 668.854 240.919 665.724 240.919 663.186 238.381 663.186 235.251 663.186 232.121 665.724 229.583 668.854 229.583 671.984 229.583 674.521 232.121 674.521 235.251Z" fill="#1F77B4" transform="matrix(1.00017 0 -0 1 92.0471 97.1895)"/><path d="M707.328 229.54C707.328 232.671 704.79 235.208 701.66 235.208 698.53 235.208 695.992 232.671 695.992 229.54 695.992 226.41 698.53 223.873 701.66 223.873 704.79 223.873 707.328 226.41 707.328 229.54Z" fill="#AEC7E8" transform="matrix(1.00017 0 -0 1 92.0471 97.1895)"/><path d="M215.267 395.261C215.267 400.095 211.349 404.013 206.516 404.013 201.682 404.013 197.764 400.095 197.764 395.261 197.764 390.428 201.682 386.51 206.516 386.51 211.349 386.51 215.267 390.428 215.267 395.261Z" fill="#FF7F0E" transform="matrix(1.00017 0 -0 1 92.0471 97.1895)"/><path d="M251.2 370.973C251.2 375.128 247.831 378.497 243.675 378.497 239.52 378.497 236.151 375.128 236.151 370.973 236.151 366.817 239.52 363.448 243.675 363.448 247.831 363.448 251.2 366.817 251.2 370.973Z" fill="#FF7F0E" transform="matrix(1.00017 0 -0 1 92.0471 97.1895)"/><path d="M231.274 412.332C231.274 415.975 228.32 418.929 224.678 418.929 221.035 418.929 218.081 415.975 218.081 412.332 218.081 408.69 221.035 405.736 224.678 405.736 228.32 405.736 231.274 408.69 231.274 412.332Z" fill="#FF7F0E" transform="matrix(1.00017 0 -0 1 92.0471 97.1895)"/><path d="M282.189 409.022C282.189 412.665 279.236 415.618 275.593 415.618 271.95 415.618 268.997 412.665 268.997 409.022 268.997 405.379 271.95 402.426 275.593 402.426 279.236 402.426 282.189 405.379 282.189 409.022Z" fill="#DBDB8D" transform="matrix(1.00017 0 -0 1 92.0471 97.1895)"/><path d="M554.648 42.2223C554.648 45.8653 551.695 48.8184 548.052 48.8184 544.409 48.8184 541.456 45.8653 541.456 42.2223 541.456 38.5794 544.409 35.6263 548.052 35.6263 551.695 35.6263 554.648 38.5794 554.648 42.2223Z" fill="#C5B0D5" transform="matrix(1.00017 0 -0 1 92.0471 97.1895)"/><path d="M420.36 36.807C420.36 40.4499 417.407 43.4031 413.764 43.4031 410.121 43.4031 407.168 40.4499 407.168 36.807 407.168 33.1641 410.121 30.2109 413.764 30.2109 417.407 30.2109 420.36 33.1641 420.36 36.807Z" fill="#FFBB78" transform="matrix(1.00017 0 -0 1 92.0471 97.1895)"/><path d="M458.992 63.9745C458.992 67.1047 456.455 69.6422 453.325 69.6422 450.194 69.6422 447.657 67.1047 447.657 63.9745 447.657 60.8442 450.194 58.3067 453.325 58.3067 456.455 58.3067 458.992 60.8442 458.992 63.9745Z" fill="#FFBB78" transform="matrix(1.00017 0 -0 1 92.0471 97.1895)"/><path d="M603.746 77.6506C603.746 80.7808 601.208 83.3184 598.078 83.3184 594.948 83.3184 592.41 80.7808 592.41 77.6506 592.41 74.5204 594.948 71.9828 598.078 71.9828 601.208 71.9828 603.746 74.5204 603.746 77.6506Z" fill="#C5B0D5" transform="matrix(1.00017 0 -0 1 92.0471 97.1895)"/><path d="M532.087 130.256C532.087 134.199 528.89 137.395 524.948 137.395 521.005 137.395 517.808 134.199 517.808 130.256 517.808 126.313 521.005 123.117 524.948 123.117 528.89 123.117 532.087 126.313 532.087 130.256Z" fill="#2CA02C" transform="matrix(1.00017 0 -0 1 92.0471 97.1895)"/><path d="M461.492 200.117C461.492 204.273 458.124 207.641 453.968 207.641 449.812 207.641 446.444 204.273 446.444 200.117 446.444 195.961 449.812 192.593 453.968 192.593 458.124 192.593 461.492 195.961 461.492 200.117Z" fill="#98DF8A" transform="matrix(1.00017 0 -0 1 92.0471 97.1895)"/><path d="M390.939 331.382C390.939 335.325 387.743 338.521 383.8 338.521 379.857 338.521 376.661 335.325 376.661 331.382 376.661 327.439 379.857 324.243 383.8 324.243 387.743 324.243 390.939 327.439 390.939 331.382Z" fill="#D62728" transform="matrix(1.00017 0 -0 1 92.0471 97.1895)"/><path d="M402.053 297.887C402.053 301.53 399.1 304.484 395.457 304.484 391.814 304.484 388.861 301.53 388.861 297.887 388.861 294.245 391.814 291.291 395.457 291.291 399.1 291.291 402.053 294.245 402.053 297.887Z" fill="#D62728" transform="matrix(1.00017 0 -0 1 92.0471 97.1895)"/><path d="M451.667 265.42C451.667 268.551 449.129 271.088 445.999 271.088 442.869 271.088 440.331 268.551 440.331 265.42 440.331 262.29 442.869 259.753 445.999 259.753 449.129 259.753 451.667 262.29 451.667 265.42Z" fill="#98DF8A" transform="matrix(1.00017 0 -0 1 92.0471 97.1895)"/><path d="M475.613 134.243C475.613 137.374 473.076 139.911 469.945 139.911 466.815 139.911 464.278 137.374 464.278 134.243 464.278 131.113 466.815 128.576 469.945 128.576 473.076 128.576 475.613 131.113 475.613 134.243Z" fill="#98DF8A" transform="matrix(1.00017 0 -0 1 92.0471 97.1895)"/><path d="M520.42 171.255C520.42 174.385 517.882 176.923 514.752 176.923 511.622 176.923 509.084 174.385 509.084 171.255 509.084 168.125 511.622 165.587 514.752 165.587 517.882 165.587 520.42 168.125 520.42 171.255Z" fill="#2CA02C" transform="matrix(1.00017 0 -0 1 92.0471 97.1895)"/><path d="M477.029 224.384C477.029 227.514 474.492 230.051 471.362 230.051 468.231 230.051 465.694 227.514 465.694 224.384 465.694 221.253 468.231 218.716 471.362 218.716 474.492 218.716 477.029 221.253 477.029 224.384Z" fill="#98DF8A" transform="matrix(1.00017 0 -0 1 92.0471 97.1895)"/><path d="M536.95 95.1442C536.95 98.2744 534.412 100.812 531.282 100.812 528.152 100.812 525.614 98.2744 525.614 95.1442 525.614 92.0139 528.152 89.4764 531.282 89.4764 534.412 89.4764 536.95 92.0139 536.95 95.1442Z" fill="#2CA02C" transform="matrix(1.00017 0 -0 1 92.0471 97.1895)"/><text font-family="Arial,Arial_MSFontService,sans-serif" font-weight="400" font-size="18" transform="matrix(0.708589 0 0 0.708471 659.234 363)">context<tspan font-size="17" x="-113.679" y="186.317">course</tspan><tspan font-size="16" x="61.06" y="-249.834">user</tspan><tspan font-size="16" x="91.06" y="-249.834">_</tspan><tspan font-size="16" x="100.06" y="-249.834">info</tspan><tspan font-size="16" x="125.06" y="-249.834">_</tspan><tspan font-size="16" x="134.06" y="-249.834">data</tspan><tspan font-size="16" x="-22.847" y="-125.623">user</tspan><tspan font-size="16" x="7.15301" y="-125.623">_</tspan><tspan font-size="16" x="16.153" y="-125.623">info</tspan><tspan font-size="16" x="41.153" y="-125.623">_</tspan><tspan font-size="16" x="50.153" y="-125.623">field</tspan><tspan x="-336.36" y="-278.063">user</tspan><tspan x="-301.36" y="-278.063">_</tspan><tspan x="-291.36" y="-278.063">enrolments</tspan><tspan x="-241.912" y="-211.723">user</tspan><tspan font-size="17" x="-126.818" y="-237.13">id</tspan><tspan font-size="17" x="-226.558" y="-256.891">userid</tspan><tspan font-size="17" x="113.118" y="208.9">filter</tspan><tspan font-size="17" x="144.118" y="208.9">_</tspan><tspan font-size="17" x="153.118" y="208.9">active</tspan><tspan font-size="16" x="-119.572" y="254.068">filter</tspan><tspan font-size="16" x="-90.572" y="254.068">_</tspan><tspan font-size="16" x="-81.572" y="254.068">config</tspan><tspan font-size="15" x="-14.559" y="273.829">filter</tspan><tspan font-size="16" x="25.898" y="227.25">filter</tspan><tspan font-size="16" x="-656.049" y="-115.742">block</tspan><tspan font-size="16" x="-619.049" y="-115.742">_</tspan><tspan font-size="16" x="-610.049" y="-115.742">positions</tspan><tspan font-size="15" x="-626.9" y="-39.5217">block</tspan><tspan font-size="16" x="-444.144" y="-35.2872">block</tspan><tspan font-size="16" x="-407.144" y="-35.2872">_</tspan><tspan font-size="16" x="-398.144" y="-35.2872">instances</tspan><tspan font-size="14" x="-511.148" y="-32.4643">blockname</tspan><tspan font-size="14" x="-568.181" y="-35.2872">name</tspan><tspan font-size="15" x="-595.76" y="-95.9813">blockinstanceid</tspan><tspan font-size="15" x="-480.873" y="-69.163">id</tspan><tspan font-size="15" x="-96.109" y="149.618">course</tspan><tspan font-size="15" x="-51.109" y="149.618">_</tspan><tspan font-size="15" x="-43.109" y="149.618">categories</tspan><tspan font-size="14" x="-35.282" y="112.919">id</tspan><tspan font-size="14" x="-19.598" y="74.809">instanceid</tspan><tspan font-size="15" x="-504.259" y="16.9379">message</tspan><tspan font-size="15" x="-443.259" y="16.9379">_</tspan><tspan font-size="15" x="-435.259" y="16.9379">conversations</tspan><tspan font-size="15" x="-722.42" y="84.6894">message</tspan><tspan font-size="15" x="-661.42" y="84.6894">_</tspan><tspan font-size="15" x="-653.42" y="84.6894">conversation</tspan><tspan font-size="15" x="-570.42" y="84.6894">_</tspan><tspan font-size="15" x="-562.42" y="84.6894">members</tspan><tspan font-size="15" x="-669.779" y="35.2872">messages</tspan><tspan font-size="14" x="-622.808" y="21.1723">conversationid</tspan><tspan font-size="15" x="-513.598" y="5.64596">id</tspan><tspan font-size="14" x="-608.151" y="50.8136">conversationid</tspan><tspan font-size="16" x="-467.848" y="-337.346">message</tspan><tspan font-size="16" x="-402.848" y="-337.346">_</tspan><tspan font-size="16" x="-393.848" y="-337.346">users</tspan><tspan font-size="16" x="-355.848" y="-337.346">_</tspan><tspan font-size="16" x="-346.848" y="-337.346">blocked</tspan><tspan font-size="16" x="-380.854" y="-176.436">message</tspan><tspan font-size="16" x="-315.854" y="-176.436">_</tspan><tspan font-size="16" x="-306.854" y="-176.436">contact</tspan><tspan font-size="16" x="-256.854" y="-176.436">_</tspan><tspan font-size="16" x="-247.854" y="-176.436">requests</tspan><tspan font-size="15" x="-369.141" y="-285.121">userid</tspan><tspan font-size="15" x="-357.897" y="-218.781">requesteduserid</tspan><tspan font-size="17" x="-366.818" y="210.312">modules</tspan><tspan font-size="15" x="56.392" y="155.264">contextid</tspan><tspan font-size="16" x="95.034" y="47.9906">id</tspan><tspan font-size="17" x="-290.745" y="175.025">course</tspan><tspan font-size="17" x="-240.745" y="175.025">_</tspan><tspan font-size="17" x="-231.745" y="175.025">modules</tspan><tspan font-size="13" x="-89.646" y="103.039">id</tspan><tspan font-size="13" x="-181.703" y="135.503">course</tspan><tspan font-size="16" x="-347.252" y="163.733">assign</tspan><tspan font-size="15" x="-363.943" y="-101.627">files</tspan><tspan font-size="15" x="-337.943" y="-101.627">_</tspan><tspan font-size="15" x="-329.943" y="-101.627">reference</tspan><tspan font-size="15" x="-489.263" y="-266.772">files</tspan><tspan font-size="14" x="-479.885" y="-224.427">referencefileid</tspan><tspan font-size="14" x="-387.774" y="-169.379">id</tspan><tspan font-size="16" x="-314.961" y="272.417">id</tspan><tspan font-size="16" x="-248.724" y="255.48">module</tspan><tspan font-size="14" x="-309.716" y="112.919">id</tspan><tspan font-size="14" x="-231.382" y="94.5698">instance</tspan><tspan font-size="16" x="-314.55" y="-49.4021">assign</tspan><tspan font-size="16" x="-268.55" y="-49.4021">_</tspan><tspan font-size="16" x="-259.55" y="-49.4021">submission</tspan><tspan font-size="14" x="-432.323" y="104.45">assign</tspan><tspan font-size="14" x="-391.323" y="104.45">_</tspan><tspan font-size="14" x="-383.323" y="104.45">grades</tspan><tspan font-size="12" x="-231.362" y="-352.872">assign</tspan><tspan font-size="12" x="-193.362" y="-352.872">_</tspan><tspan font-size="12" x="-186.362" y="-352.872">user</tspan><tspan font-size="12" x="-161.362" y="-352.872">_</tspan><tspan font-size="12" x="-154.362" y="-352.872">flags</tspan><tspan font-size="12" x="187.575" y="-100.216">groups</tspan><tspan font-size="12" x="226.575" y="-100.216">_</tspan><tspan font-size="12" x="233.575" y="-100.216">members</tspan><tspan font-size="12" x="33.778" y="-59.2826">groups</tspan><tspan font-size="11" x="159.151" y="-84.6894">groupid</tspan><tspan font-size="11" x="126.26" y="-73.3975">id</tspan><tspan font-size="9" x="-560.721" y="-201.843">repository</tspan><tspan font-size="9" x="-518.721" y="-201.843">_</tspan><tspan font-size="9" x="-513.721" y="-201.843">instances</tspan><tspan font-size="8" x="-420.38" y="-136.914">repositoryid</tspan><tspan font-size="8" x="-469.176" y="-172.202">id</tspan><tspan font-size="11" x="-73.893" y="-33.8758">forum</tspan><tspan font-size="8" x="-74.729" y="29.6413">course</tspan><tspan font-size="10" x="-20.176" y="-297.824">forum</tspan><tspan font-size="10" x="6.82397" y="-297.824">_</tspan><tspan font-size="10" x="12.824" y="-297.824">discussions</tspan><tspan font-size="11" x="-101.754" y="-369.81">forum</tspan><tspan font-size="11" x="-73.754" y="-369.81">_</tspan><tspan font-size="11" x="-67.754" y="-369.81">posts</tspan><tspan font-size="8" x="-10.421" y="-365.576">id</tspan><tspan font-size="8" x="13.543" y="-341.58">firstpost</tspan><tspan font-size="8" x="-131.417" y="-333.112">userid</tspan><tspan font-size="7" x="-71.25" y="-272.417">usermodified</tspan><tspan font-size="10" x="-77.327" y="-334.523">discussion</tspan><tspan font-size="9" x="-61.312" y="-100.216">id</tspan><tspan font-size="8" x="157.762" y="-187.728">user</tspan><tspan font-size="8" x="172.762" y="-187.728">_</tspan><tspan font-size="8" x="176.762" y="-187.728">info</tspan><tspan font-size="8" x="188.762" y="-187.728">_</tspan><tspan font-size="8" x="192.762" y="-187.728">category</tspan><tspan font-size="8" x="68.922" y="-163.733">categoryid</tspan><tspan font-size="8" x="131.644" y="-163.733">id</tspan><tspan font-size="8" x="34.814" y="-175.025">id</tspan><tspan font-size="8" x="55.04" y="-210.312">fieldid</tspan><tspan font-size="16" x="361.295" y="50.8136">role</tspan><tspan font-size="16" x="204.665" y="125.623">role</tspan><tspan font-size="16" x="230.665" y="125.623">_</tspan><tspan font-size="16" x="239.665" y="125.623">capabilities</tspan><tspan font-size="13" x="363.415" y="101.627">id</tspan><tspan font-size="13" x="314.745" y="138.326">roleid</tspan><tspan font-size="7" x="30.639" y="-87.5124">lti</tspan><tspan font-size="7" x="36.639" y="-87.5124">_</tspan><tspan font-size="7" x="40.639" y="-87.5124">types</tspan><tspan font-size="7" x="165.628" y="-152.441">lti</tspan><tspan font-size="7" x="171.628" y="-152.441">_</tspan><tspan font-size="7" x="175.628" y="-152.441">tool</tspan><tspan font-size="7" x="187.628" y="-152.441">_</tspan><tspan font-size="7" x="191.628" y="-152.441">proxies</tspan><tspan font-size="6" x="79.588" y="-107.273">toolproxyid</tspan><tspan font-size="6" x="128.952" y="-124.211">id</tspan><tspan font-size="15" x="198.075" y="287.944">capabilities</tspan><tspan font-size="15" x="194.865" y="169.379">capability</tspan><tspan font-size="15" x="182.705" y="237.13">name</tspan><tspan font-size="15" x="161.633" y="93.1583">contextid</tspan><tspan font-size="14" x="-242.468" y="-159.498">userid</tspan><tspan font-size="13" x="-334.274" y="26.8183">assignment</tspan><tspan font-size="13" x="-380.622" y="66.34">assignment</tspan><tspan font-size="9" x="-150.993" y="-297.824">userid</tspan><tspan font-size="9" x="81.814" y="1.41149">competency</tspan><tspan font-size="9" x="212.695" y="43.7562">competency</tspan><tspan font-size="9" x="264.695" y="43.7562">_</tspan><tspan font-size="9" x="269.695" y="43.7562">coursecomp</tspan><tspan font-size="8" x="187.125" y="22.5838">competencyid</tspan><tspan font-size="8" x="157.27" y="-9.88043">id</tspan><tspan font-size="8" x="227.695" y="-19.7609">competency</tspan><tspan font-size="8" x="268.695" y="-19.7609">_</tspan><tspan font-size="8" x="272.695" y="-19.7609">usercompcourse</tspan><tspan font-size="8" x="191.485" y="-23.9953">competencyid</tspan><tspan font-size="7" x="57.875" y="-33.8758">customfield</tspan><tspan font-size="7" x="95.875" y="-33.8758">_</tspan><tspan font-size="7" x="99.875" y="-33.8758">category</tspan><tspan font-size="7" x="214.115" y="-60.6941">customfield</tspan><tspan font-size="7" x="252.115" y="-60.6941">_</tspan><tspan font-size="7" x="256.115" y="-60.6941">field</tspan><tspan font-size="6" x="141.635" y="-43.7562">id</tspan><tspan font-size="6" x="176.941" y="-50.8136">categoryid</tspan><tspan font-size="9" x="-520.95" y="182.082">event</tspan><tspan font-size="8" x="-478.5" y="148.206">modulename</tspan><tspan font-size="7" x="-499.315" y="207.489">eventtype</tspan><tspan font-size="7" x="-420.448" y="201.843">name</tspan><tspan font-size="7" x="-29.875" y="-316.174">id</tspan><tspan font-size="7" x="-252.421" y="-323.231">assign</tspan><tspan font-size="7" x="-230.421" y="-323.231">_</tspan><tspan font-size="7" x="-226.421" y="-323.231">user</tspan><tspan font-size="7" x="-212.421" y="-323.231">_</tspan><tspan font-size="7" x="-208.421" y="-323.231">mapping</tspan><tspan font-size="6" x="-168.082" y="-285.121">userid</tspan><tspan font-size="6" x="36.236" y="-265.36">forum</tspan><tspan font-size="8" x="-100.487" y="-191.963">workshop</tspan><tspan font-size="8" x="-67.487" y="-191.963">_</tspan><tspan font-size="8" x="-63.487" y="-191.963">assessments</tspan><tspan font-size="8" x="-199.674" y="-93.1583">workshop</tspan><tspan font-size="8" x="-166.674" y="-93.1583">_</tspan><tspan font-size="8" x="-162.674" y="-93.1583">submissions</tspan><tspan font-size="8" x="-275.215" y="93.1583">workshop</tspan><tspan font-size="7" x="-245.262" y="45.1677">id</tspan><tspan font-size="6" x="-184.922" y="0">workshopid</tspan><tspan font-size="6" x="-147.122" y="-186.317">authorid</tspan><tspan font-size="6" x="-89.878" y="-134.092">submissionid</tspan><tspan font-size="6" x="-137.123" y="-57.8711">id</tspan><tspan font-size="6" x="-63.046" y="-241.365">reviewerid</tspan></text></g></g></g><rect x="470.5" y="68.5001" width="196" height="198" stroke="#98DF8A" stroke-width="1.33333" stroke-miterlimit="8" stroke-dasharray="5.33333 4" fill="none"/><text fill="#98DF8A" font-family="DengXian,DengXian_MSFontService,sans-serif" font-weight="400" font-size="24" transform="translate(639.68 90)"></text><rect x="566.5" y="399.5" width="74" height="116" stroke="#AEC7E8" stroke-width="1.33333" stroke-miterlimit="8" stroke-dasharray="5.33333 4" fill="none"/><text fill="#AEC7E8" font-family="DengXian,DengXian_MSFontService,sans-serif" font-weight="400" font-size="24" transform="translate(612.8 420)"></text></g></svg>