<svg width="1280" height="720" xmlns="http://www.w3.org/2000/svg" xmlns:xlink="http://www.w3.org/1999/xlink" overflow="hidden"><defs><clipPath id="clip0"><path d="M0 0 1280 0 1280 720 0 720Z" fill-rule="evenodd" clip-rule="evenodd"/></clipPath><clipPath id="clip1"><path d="M0 39 1280 39 1280 681 0 681Z" fill-rule="evenodd" clip-rule="evenodd"/></clipPath><clipPath id="clip2"><path d="M0 39 1280 39 1280 681 0 681Z" fill-rule="evenodd" clip-rule="evenodd"/></clipPath><clipPath id="clip3"><path d="M0 39 1280 39 1280 681 0 681Z" fill-rule="evenodd" clip-rule="evenodd"/></clipPath></defs><g clip-path="url(#clip0)"><rect x="0" y="0" width="1280" height="720" fill="#FFFFFF"/><g clip-path="url(#clip1)"><g clip-path="url(#clip2)"><g clip-path="url(#clip3)"><path d="M738.835 555.69C744.138 553.48 743.948 549.466 738.835 545.671 733.723 541.877 676.529 508.142 670.665 505.099 664.8 502.056 661.586 500.596 660.645 505.099 659.705 509.601 658.309 559.876 658.119 565.13 657.93 570.383 657.368 574.397 658.119 575.149 658.871 575.9 662.085 576.608 668.139 575.149 674.192 573.689 733.533 557.901 738.835 555.69" fill="#1F77B4" fill-opacity="0.3" transform="matrix(1.00017 0 -0 1 -0.351958 -122.276)"/><path d="M501.139 557.961C504.796 554.954 501.891 548.693 501.139 547.941 500.388 547.19 495.529 545.687 491.12 547.941 486.712 550.196 446.018 574.998 442.361 578.004 438.704 581.01 441.61 587.272 442.361 588.024 443.113 588.775 447.972 590.278 452.381 588.024 456.789 585.769 497.483 560.967 501.139 557.961" fill="#AEC7E8" fill-opacity="0.3" transform="matrix(1.00017 0 -0 1 -0.351958 -122.276)"/><path d="M868.839 369.202C871.532 365.624 869.59 359.934 868.839 359.182 868.087 358.431 862.264 356.356 858.819 359.182 855.374 362.008 825.597 393.286 822.904 396.864 820.21 400.441 822.152 406.132 822.904 406.883 823.655 407.634 829.478 409.709 832.923 406.883 836.368 404.057 866.145 372.779 868.839 369.202" fill="#FF7F0E" fill-opacity="0.3" transform="matrix(1.00017 0 -0 1 -0.351958 -122.276)"/><path d="M811.119 427.883C815.319 425.316 813.476 420.23 811.119 417.863 808.762 415.497 782.806 397.947 779.698 396.332 776.59 394.717 772.274 392.902 769.679 396.332 767.084 399.762 746.941 437.882 745.097 442.063 743.253 446.245 744.345 451.331 745.097 452.083 745.848 452.834 750.165 453.898 755.116 452.083 760.068 450.268 806.919 430.449 811.119 427.883" fill="#FFBB78" fill-opacity="0.3" transform="matrix(1.00017 0 -0 1 -0.351958 -122.276)"/><path d="M706.625 371.16C707.817 365.355 707.376 361.892 706.625 361.14 705.873 360.389 698.549 356.087 696.605 361.14 694.662 366.193 681.903 422.706 680.71 428.51 679.518 434.315 679.959 437.778 680.71 438.53 681.462 439.281 688.786 443.582 690.73 438.53 692.673 433.477 705.433 376.964 706.625 371.16" fill="#2CA02C" fill-opacity="0.3" transform="matrix(1.00017 0 -0 1 -0.351958 -122.276)"/><path d="M719.029 260.525C719.36 255.283 719.781 251.257 719.029 250.506 718.278 249.754 710.092 246.015 709.01 250.506 707.928 254.996 704.933 305.138 704.602 310.38 704.272 315.622 703.851 319.648 704.602 320.399 705.354 321.151 713.54 324.89 714.622 320.399 715.704 315.909 718.698 265.767 719.029 260.525" fill="#98DF8A" fill-opacity="0.3" transform="matrix(1.00017 0 -0 1 -0.351958 -122.276)"/><path d="M757.646 667.018C762.656 665 763.595 660.519 757.646 656.999 751.697 653.478 685.026 622.848 678.325 620.079 671.625 617.31 669.057 619.328 668.306 620.079 667.555 620.831 667.367 625.312 668.306 630.099 669.245 634.886 679.131 679.87 680.822 683.906 682.512 687.942 685.079 685.173 690.841 683.906 696.603 682.639 752.635 669.036 757.646 667.018" fill="#D62728" fill-opacity="0.3" transform="matrix(1.00017 0 -0 1 -0.351958 -122.276)"/><path d="M793.184 641.862C793.936 641.11 796.608 635.625 793.184 631.842 789.761 628.059 751.71 594.455 747.535 591.423 743.36 588.392 738.267 590.672 737.516 591.423 736.764 592.175 734.092 597.659 737.516 601.442 740.94 605.225 778.99 638.83 783.165 641.862 787.34 644.893 792.433 642.613 793.184 641.862" fill="#FF9896" fill-opacity="0.3" transform="matrix(1.00017 0 -0 1 -0.351958 -122.276)"/><path d="M424.076 404.258C424.827 403.507 428.268 396.697 424.076 394.239 419.883 391.781 373.118 373.188 368.174 371.481 363.23 369.774 358.906 370.729 358.155 371.481 357.403 372.232 353.962 379.042 358.155 381.5 362.347 383.958 409.112 402.551 414.056 404.258 419 405.965 423.324 405.01 424.076 404.258" fill="#9467BD" fill-opacity="0.3" transform="matrix(1.00017 0 -0 1 -0.351958 -122.276)"/><path d="M463.276 348.318C464.028 347.567 466.682 342.114 463.276 338.299 459.87 334.484 422.019 300.515 417.862 297.452 413.704 294.388 408.594 296.7 407.842 297.452 407.091 298.203 404.436 303.656 407.842 307.471 411.248 311.286 449.099 345.255 453.257 348.318 457.415 351.382 462.525 349.07 463.276 348.318" fill="#C5B0D5" fill-opacity="0.3" transform="matrix(1.00017 0 -0 1 -0.351958 -122.276)"/><path d="M551.015 434.471C551.767 433.72 554.924 428.843 551.015 424.452 547.107 420.061 503.56 379.561 498.9 375.921 494.239 372.281 491.458 373.378 488.88 375.921 486.303 378.464 466.361 406.531 464.535 409.825 462.709 413.119 458.8 417.996 464.535 419.844 470.27 421.693 534.51 433.374 540.996 434.471 547.482 435.568 550.264 435.223 551.015 434.471" fill="#8C564B" fill-opacity="0.3" transform="matrix(1.00017 0 -0 1 -0.351958 -122.276)"/><path d="M838.269 611.042C839.02 610.291 841.898 604.337 838.269 601.023 834.64 597.709 794.259 569.418 789.878 566.855 785.497 564.292 780.61 566.104 779.859 566.855 779.107 567.607 776.229 573.56 779.859 576.874 783.488 580.188 823.869 608.48 828.25 611.042 832.63 613.605 837.517 611.794 838.269 611.042" fill="#C49C94" fill-opacity="0.3" transform="matrix(1.00017 0 -0 1 -0.351958 -122.276)"/><path d="M525.103 470.821C528.748 468.281 525.854 461.553 525.103 460.802 524.351 460.05 519.481 459.013 515.083 460.802 510.686 462.59 470.117 482.109 466.471 484.649 462.825 487.189 465.719 493.917 466.471 494.668 467.222 495.42 472.093 496.457 476.49 494.668 480.887 492.88 521.457 473.361 525.103 470.821" fill="#E377C2" fill-opacity="0.3" transform="matrix(1.00017 0 -0 1 -0.351958 -122.276)"/><path d="M417.613 520.077C420.879 517.623 418.365 510.809 417.613 510.058 416.862 509.306 411.611 508.355 407.594 510.058 403.577 511.76 367.318 530.304 364.052 532.758 360.786 535.212 363.3 542.026 364.052 542.777 364.803 543.528 370.054 544.479 374.071 542.777 378.088 541.075 414.348 522.531 417.613 520.077" fill="#F7B6D2" fill-opacity="0.3" transform="matrix(1.00017 0 -0 1 -0.351958 -122.276)"/><path d="M404.581 486.841C405.333 486.089 409.162 478.234 404.581 476.822 400.001 475.409 348.84 468.669 343.508 468.008 338.177 467.347 334.241 467.256 333.489 468.008 332.738 468.759 328.909 476.614 333.489 478.027 338.07 479.439 389.23 486.18 394.562 486.841 399.894 487.502 403.83 487.592 404.581 486.841" fill="#7F7F7F" fill-opacity="0.3" transform="matrix(1.00017 0 -0 1 -0.351958 -122.276)"/><path d="M650.504 359.074C650.614 354.612 651.255 349.806 650.504 349.055 649.753 348.303 641.346 345.344 640.485 349.055 639.624 352.766 639.133 394.075 639.023 398.538 638.913 403 638.272 407.806 639.023 408.557 639.774 409.309 648.181 412.268 649.042 408.557 649.903 404.846 650.394 363.537 650.504 359.074" fill="#C7C7C7" fill-opacity="0.3" transform="matrix(1.00017 0 -0 1 -0.351958 -122.276)"/><path d="M651.338 315.503C652.09 314.752 651.387 310.97 651.338 305.484 651.29 299.998 651.489 247.093 650.689 242.359 649.889 237.625 641.421 241.608 640.67 242.359 639.918 243.11 640.621 246.893 640.67 252.378 640.718 257.864 640.519 310.769 641.319 315.503 642.119 320.238 650.587 316.255 651.338 315.503" fill="#BCBD22" fill-opacity="0.3" transform="matrix(1.00017 0 -0 1 -0.351958 -122.276)"/><path d="M613.401 672.356C614.153 671.605 613.474 666.653 613.401 662.337 613.329 658.021 613.257 618.379 612.433 614.815 611.609 611.251 603.165 614.063 602.414 614.815 601.662 615.566 602.341 620.518 602.414 624.834 602.486 629.15 602.558 668.792 603.382 672.356 604.206 675.92 612.65 673.108 613.401 672.356" fill="#DBDB8D" fill-opacity="0.3" transform="matrix(1.00017 0 -0 1 -0.351958 -122.276)"/><path d="M609.433 559.311C613.358 557.121 609.513 555.348 609.433 549.291 609.353 543.235 609.196 483.863 608.364 478.558 607.533 473.253 603.854 476.085 598.345 478.558 592.836 481.03 539.664 508.301 534.906 511.525 530.148 514.749 533.994 516.522 534.906 521.544 535.819 526.567 545.411 574.221 547.075 578.492 548.739 582.763 552.417 579.931 557.094 578.492 561.771 577.054 605.508 561.501 609.433 559.311" fill="#17BECF" fill-opacity="0.3" transform="matrix(1.00017 0 -0 1 -0.351958 -122.276)"/><path d="M551.197 632.632C551.54 628.79 551.948 623.364 551.197 622.612 550.445 621.861 542.272 619.522 541.177 622.612 540.083 625.703 536.943 659.974 536.599 663.816 536.256 667.658 535.848 673.084 536.599 673.835 537.351 674.587 545.524 676.926 546.619 673.835 547.714 670.745 550.853 636.473 551.197 632.632" fill="#9EDAE5" fill-opacity="0.3" transform="matrix(1.00017 0 -0 1 -0.351958 -122.276)"/><path d="M584.667 330.978C584.736 325.713 585.419 321.711 584.667 320.959 583.916 320.208 578.8 319.998 574.648 320.959 570.496 321.921 532.71 332.065 529.309 333.777 525.909 335.49 525.978 339.493 529.309 343.797 532.64 348.101 569.644 387.61 573.727 391.163 577.81 394.715 582.926 395.677 583.747 391.163 584.567 386.649 584.598 336.244 584.667 330.978" fill="#1F77B4" fill-opacity="0.3" transform="matrix(1.00017 0 -0 1 -0.351958 -122.276)"/><path d="M514.594 294.517C515.346 293.766 516.242 288.146 514.594 284.498 512.946 280.849 495.022 248.767 492.623 245.87 490.223 242.973 483.355 245.118 482.603 245.87 481.852 246.621 480.955 252.241 482.603 255.889 484.251 259.538 502.176 291.62 504.575 294.517 506.974 297.414 513.843 295.269 514.594 294.517" fill="#AEC7E8" fill-opacity="0.3" transform="matrix(1.00017 0 -0 1 -0.351958 -122.276)"/><path d="M901.662 552.971C902.414 552.22 905.96 544.938 901.662 542.952 897.365 540.966 849.406 527.723 844.357 526.488 839.307 525.253 835.089 525.737 834.337 526.488 833.586 527.24 830.039 534.521 834.337 536.507 838.635 538.494 886.594 551.737 891.643 552.971 896.693 554.206 900.911 553.723 901.662 552.971" fill="#FF7F0E" fill-opacity="0.3" transform="matrix(1.00017 0 -0 1 -0.351958 -122.276)"/><path d="M797.25 521.53C798.001 520.779 802.529 513.659 797.25 511.511 791.971 509.363 732.896 494.29 726.865 492.894 720.835 491.497 717.598 492.142 716.846 492.894 716.095 493.645 711.567 500.765 716.846 502.913 722.125 505.061 781.2 520.134 787.23 521.53 793.261 522.927 796.498 522.282 797.25 521.53" fill="#FFBB78" fill-opacity="0.3" transform="matrix(1.00017 0 -0 1 -0.351958 -122.276)"/><path d="M572.423 272.085C573.174 271.334 573.098 266.407 572.423 262.066 571.747 257.724 564.84 217.791 563.413 214.201 561.986 210.612 554.145 213.45 553.393 214.201 552.642 214.953 552.718 219.879 553.393 224.221 554.069 228.562 560.976 268.495 562.403 272.085 563.831 275.675 571.671 272.837 572.423 272.085" fill="#2CA02C" fill-opacity="0.3" transform="matrix(1.00017 0 -0 1 -0.351958 -122.276)"/><path d="M512.647 627.01C515.151 625.643 513.816 619.718 512.647 616.99 511.477 614.263 498.975 592.624 497.054 590.648 495.133 588.673 489.121 588.057 487.034 590.648 484.948 593.239 470.565 621.849 469.23 625.192 467.895 628.534 468.479 634.46 469.23 635.211 469.981 635.962 475.993 635.826 479.249 635.211 482.506 634.596 510.142 628.376 512.647 627.01" fill="#98DF8A" fill-opacity="0.3" transform="matrix(1.00017 0 -0 1 -0.351958 -122.276)"/><path d="M805.971 273.947C809.531 272.322 808.394 266.604 805.971 263.928 803.548 261.251 776.838 240.186 773.663 238.262 770.489 236.337 765.533 235.463 763.644 238.262 761.756 241.06 749.621 272.03 748.484 275.58 747.347 279.131 747.732 284.848 748.484 285.6 749.235 286.351 754.191 286.474 758.503 285.6 762.815 284.726 802.411 275.572 805.971 273.947" fill="#D62728" fill-opacity="0.3" transform="matrix(1.00017 0 -0 1 -0.351958 -122.276)"/><path d="M859.974 302.051C863.18 298.415 860.725 292.783 859.974 292.032 859.222 291.28 854.064 291.786 849.955 292.032 845.845 292.277 812.509 293.746 805.181 295.306 797.852 296.867 756.209 310.778 752.238 312.844 748.268 314.911 748.116 320.788 752.238 322.864 756.361 324.939 802.329 339.189 807.203 340.513 812.077 341.837 813.265 343.398 817.222 340.513 821.18 337.628 856.767 305.687 859.974 302.051" fill="#FF9896" fill-opacity="0.3" transform="matrix(1.00017 0 -0 1 -0.351958 -122.276)"/><path d="M796.105 380.54C796.857 379.788 798.572 372.676 796.105 370.52 793.639 368.365 766.435 353.2 763.216 351.796 759.998 350.392 753.949 351.045 753.197 351.796 752.446 352.548 750.731 359.66 753.197 361.815 755.664 363.971 782.868 379.135 786.086 380.54 789.304 381.944 795.354 381.291 796.105 380.54" fill="#9467BD" fill-opacity="0.3" transform="matrix(1.00017 0 -0 1 -0.351958 -122.276)"/><path d="M809.395 490.994C810.147 490.243 813.075 482.299 809.395 480.975 805.716 479.651 764.768 473.915 760.337 473.343 755.907 472.77 751.07 472.591 750.318 473.343 749.567 474.094 746.639 482.038 750.318 483.362 753.997 484.686 794.945 490.422 799.376 490.994 803.807 491.567 808.644 491.746 809.395 490.994" fill="#C5B0D5" fill-opacity="0.3" transform="matrix(1.00017 0 -0 1 -0.351958 -122.276)"/><path d="M901.823 507.02C902.574 506.268 905.843 498.472 901.823 497.001 897.802 495.529 852.986 488.125 848.214 487.405 843.442 486.685 838.946 486.653 838.195 487.405 837.444 488.156 834.174 495.953 838.195 497.424 842.216 498.895 887.031 506.3 891.803 507.02 896.575 507.74 901.071 507.771 901.823 507.02" fill="#8C564B" fill-opacity="0.3" transform="matrix(1.00017 0 -0 1 -0.351958 -122.276)"/><path d="M714.019 255.515 709.612 315.39" stroke="#333333" stroke-width="1.00193" stroke-opacity="0.5" transform="matrix(1.00017 0 -0 1 -0.351958 -122.276)"/><path d="M685.72 433.52 701.615 366.15" stroke="#333333" stroke-width="1.00193" stroke-opacity="0.5" transform="matrix(1.00017 0 -0 1 -0.351958 -122.276)"/><path d="M709.612 315.39 701.615 366.15" stroke="#333333" stroke-width="6.41289" stroke-opacity="0.5" transform="matrix(1.00017 0 -0 1 -0.351958 -122.276)"/><path d="M742.526 596.433 788.175 636.852" stroke="#333333" stroke-width="1.00193" stroke-opacity="0.5" transform="matrix(1.00017 0 -0 1 -0.351958 -122.276)"/><path d="M685.831 678.896 752.636 662.008" stroke="#333333" stroke-width="1.00193" stroke-opacity="0.5" transform="matrix(1.00017 0 -0 1 -0.351958 -122.276)"/><path d="M752.636 662.008 788.175 636.852" stroke="#333333" stroke-width="6.46697" stroke-opacity="0.5" transform="matrix(1.00017 0 -0 1 -0.351958 -122.276)"/><path d="M546.006 429.462 493.89 380.931" stroke="#333333" stroke-width="1.00193" stroke-opacity="0.5" transform="matrix(1.00017 0 -0 1 -0.351958 -122.276)"/><path d="M412.852 302.461 458.267 343.309" stroke="#333333" stroke-width="1.00193" stroke-opacity="0.5" transform="matrix(1.00017 0 -0 1 -0.351958 -122.276)"/><path d="M458.267 343.309 493.89 380.931" stroke="#333333" stroke-width="5.16833" stroke-opacity="0.5" transform="matrix(1.00017 0 -0 1 -0.351958 -122.276)"/><path d="M363.164 376.491 419.066 399.249" stroke="#333333" stroke-width="1.00193" stroke-opacity="0.5" transform="matrix(1.00017 0 -0 1 -0.351958 -122.276)"/><path d="M546.006 429.462 469.545 414.834" stroke="#333333" stroke-width="1.00193" stroke-opacity="0.5" transform="matrix(1.00017 0 -0 1 -0.351958 -122.276)"/><path d="M469.545 414.834 419.066 399.249" stroke="#333333" stroke-width="5.97422" stroke-opacity="0.5" transform="matrix(1.00017 0 -0 1 -0.351958 -122.276)"/><path d="M833.259 606.033 784.868 571.865" stroke="#333333" stroke-width="1.00193" stroke-opacity="0.5" transform="matrix(1.00017 0 -0 1 -0.351958 -122.276)"/><path d="M665.655 510.108 733.826 550.681" stroke="#333333" stroke-width="1.00193" stroke-opacity="0.5" transform="matrix(1.00017 0 -0 1 -0.351958 -122.276)"/><path d="M733.826 550.681 784.868 571.865" stroke="#333333" stroke-width="5.16833" stroke-opacity="0.5" transform="matrix(1.00017 0 -0 1 -0.351958 -122.276)"/><path d="M338.499 473.017 399.572 481.831" stroke="#333333" stroke-width="1.00193" stroke-opacity="0.5" transform="matrix(1.00017 0 -0 1 -0.351958 -122.276)"/><path d="M520.093 465.811 471.48 489.659" stroke="#333333" stroke-width="1.00193" stroke-opacity="0.5" transform="matrix(1.00017 0 -0 1 -0.351958 -122.276)"/><path d="M471.48 489.659 399.572 481.831" stroke="#333333" stroke-width="5.16833" stroke-opacity="0.5" transform="matrix(1.00017 0 -0 1 -0.351958 -122.276)"/><path d="M369.062 537.767 412.604 515.067" stroke="#333333" stroke-width="1.00193" stroke-opacity="0.5" transform="matrix(1.00017 0 -0 1 -0.351958 -122.276)"/><path d="M412.604 515.067 471.48 489.659" stroke="#333333" stroke-width="5.16833" stroke-opacity="0.5" transform="matrix(1.00017 0 -0 1 -0.351958 -122.276)"/><path d="M644.033 403.547 645.494 354.065" stroke="#333333" stroke-width="1.00193" stroke-opacity="0.5" transform="matrix(1.00017 0 -0 1 -0.351958 -122.276)"/><path d="M645.679 247.369 646.329 310.494" stroke="#333333" stroke-width="1.00193" stroke-opacity="0.5" transform="matrix(1.00017 0 -0 1 -0.351958 -122.276)"/><path d="M646.329 310.494 645.494 354.065" stroke="#333333" stroke-width="5.97422" stroke-opacity="0.5" transform="matrix(1.00017 0 -0 1 -0.351958 -122.276)"/><path d="M685.831 678.896 673.316 625.089" stroke="#333333" stroke-width="1.00193" stroke-opacity="0.5" transform="matrix(1.00017 0 -0 1 -0.351958 -122.276)"/><path d="M665.655 510.108 663.129 570.139" stroke="#333333" stroke-width="1.00193" stroke-opacity="0.5" transform="matrix(1.00017 0 -0 1 -0.351958 -122.276)"/><path d="M663.129 570.139 673.316 625.089" stroke="#333333" stroke-width="5.16833" stroke-opacity="0.5" transform="matrix(1.00017 0 -0 1 -0.351958 -122.276)"/><path d="M447.371 583.014 496.13 552.951" stroke="#333333" stroke-width="1.00193" stroke-opacity="0.5" transform="matrix(1.00017 0 -0 1 -0.351958 -122.276)"/><path d="M603.355 483.567 539.916 516.535" stroke="#333333" stroke-width="1.00193" stroke-opacity="0.5" transform="matrix(1.00017 0 -0 1 -0.351958 -122.276)"/><path d="M496.13 552.951 539.916 516.535" stroke="#333333" stroke-width="5.45864" stroke-opacity="0.5" transform="matrix(1.00017 0 -0 1 -0.351958 -122.276)"/><path d="M487.613 250.88 509.585 289.507" stroke="#333333" stroke-width="1.00193" stroke-opacity="0.5" transform="matrix(1.00017 0 -0 1 -0.351958 -122.276)"/><path d="M578.737 386.153 534.319 338.787" stroke="#333333" stroke-width="1.00193" stroke-opacity="0.5" transform="matrix(1.00017 0 -0 1 -0.351958 -122.276)"/><path d="M509.585 289.507 534.319 338.787" stroke="#333333" stroke-width="6.54859" stroke-opacity="0.5" transform="matrix(1.00017 0 -0 1 -0.351958 -122.276)"/><path d="M608.392 667.347 607.423 619.824" stroke="#333333" stroke-width="1.00193" stroke-opacity="0.5" transform="matrix(1.00017 0 -0 1 -0.351958 -122.276)"/><path d="M603.355 483.567 604.423 554.301" stroke="#333333" stroke-width="1.00193" stroke-opacity="0.5" transform="matrix(1.00017 0 -0 1 -0.351958 -122.276)"/><path d="M604.423 554.301 607.423 619.824" stroke="#333333" stroke-width="6.62485" stroke-opacity="0.5" transform="matrix(1.00017 0 -0 1 -0.351958 -122.276)"/><path d="M541.609 668.826 546.187 627.622" stroke="#333333" stroke-width="1.00193" stroke-opacity="0.5" transform="matrix(1.00017 0 -0 1 -0.351958 -122.276)"/><path d="M603.355 483.567 552.084 573.483" stroke="#333333" stroke-width="1.00193" stroke-opacity="0.5" transform="matrix(1.00017 0 -0 1 -0.351958 -122.276)"/><path d="M546.187 627.622 552.084 573.483" stroke="#333333" stroke-width="5.59586" stroke-opacity="0.5" transform="matrix(1.00017 0 -0 1 -0.351958 -122.276)"/><path d="M896.653 547.962 839.347 531.498" stroke="#333333" stroke-width="1.00193" stroke-opacity="0.5" transform="matrix(1.00017 0 -0 1 -0.351958 -122.276)"/><path d="M721.856 497.903 792.24 516.521" stroke="#333333" stroke-width="1.00193" stroke-opacity="0.5" transform="matrix(1.00017 0 -0 1 -0.351958 -122.276)"/><path d="M792.24 516.521 839.347 531.498" stroke="#333333" stroke-width="4.29598" stroke-opacity="0.5" transform="matrix(1.00017 0 -0 1 -0.351958 -122.276)"/><path d="M578.737 386.153 579.657 325.969" stroke="#333333" stroke-width="1.00193" stroke-opacity="0.5" transform="matrix(1.00017 0 -0 1 -0.351958 -122.276)"/><path d="M558.403 219.211 567.413 267.075" stroke="#333333" stroke-width="1.00193" stroke-opacity="0.5" transform="matrix(1.00017 0 -0 1 -0.351958 -122.276)"/><path d="M579.657 325.969 567.413 267.075" stroke="#333333" stroke-width="2.27924" stroke-opacity="0.5" transform="matrix(1.00017 0 -0 1 -0.351958 -122.276)"/><path d="M474.24 630.201 492.044 595.658" stroke="#333333" stroke-width="1.00193" stroke-opacity="0.5" transform="matrix(1.00017 0 -0 1 -0.351958 -122.276)"/><path d="M496.13 552.951 492.044 595.658" stroke="#333333" stroke-width="1.80782" stroke-opacity="0.5" transform="matrix(1.00017 0 -0 1 -0.351958 -122.276)"/><path d="M812.213 335.503 810.19 300.316" stroke="#333333" stroke-width="1.00193" stroke-opacity="0.5" transform="matrix(1.00017 0 -0 1 -0.351958 -122.276)"/><path d="M768.654 243.271 800.961 268.937" stroke="#333333" stroke-width="1.00193" stroke-opacity="0.5" transform="matrix(1.00017 0 -0 1 -0.351958 -122.276)"/><path d="M800.961 268.937 810.19 300.316" stroke="#333333" stroke-width="2.27924" stroke-opacity="0.5" transform="matrix(1.00017 0 -0 1 -0.351958 -122.276)"/><path d="M812.213 335.503 757.248 317.854" stroke="#333333" stroke-width="1.00193" stroke-opacity="0.5" transform="matrix(1.00017 0 -0 1 -0.351958 -122.276)"/><path d="M757.248 317.854 709.612 315.39" stroke="#333333" stroke-width="1.00193" stroke-opacity="0.5" transform="matrix(1.00017 0 -0 1 -0.351958 -122.276)"/><path d="M768.654 243.271 753.493 280.59" stroke="#333333" stroke-width="1.00193" stroke-opacity="0.5" transform="matrix(1.00017 0 -0 1 -0.351958 -122.276)"/><path d="M753.493 280.59 709.612 315.39" stroke="#333333" stroke-width="1.00193" stroke-opacity="0.5" transform="matrix(1.00017 0 -0 1 -0.351958 -122.276)"/><path d="M812.213 335.503 854.964 297.041" stroke="#333333" stroke-width="1.00193" stroke-opacity="0.5" transform="matrix(1.00017 0 -0 1 -0.351958 -122.276)"/><path d="M854.964 297.041 854.964 297.041" stroke="#333333" stroke-width="2.27924" stroke-opacity="0.5" fill="none" transform="matrix(1.00017 0 -0 1 -0.351958 -122.276)"/><path d="M474.24 630.201 507.637 622" stroke="#333333" stroke-width="1.00193" stroke-opacity="0.5" transform="matrix(1.00017 0 -0 1 -0.351958 -122.276)"/><path d="M552.084 573.483 507.637 622" stroke="#333333" stroke-width="1.80782" stroke-opacity="0.5" transform="matrix(1.00017 0 -0 1 -0.351958 -122.276)"/><path d="M750.107 447.073 774.688 401.342" stroke="#333333" stroke-width="1.00193" stroke-opacity="0.5" transform="matrix(1.00017 0 -0 1 -0.351958 -122.276)"/><path d="M758.207 356.806 791.096 375.53" stroke="#333333" stroke-width="1.00193" stroke-opacity="0.5" transform="matrix(1.00017 0 -0 1 -0.351958 -122.276)"/><path d="M791.096 375.53 774.688 401.342" stroke="#333333" stroke-width="1.00193" stroke-opacity="0.5" transform="matrix(1.00017 0 -0 1 -0.351958 -122.276)"/><path d="M750.107 447.073 806.109 422.873" stroke="#333333" stroke-width="1.00193" stroke-opacity="0.5" transform="matrix(1.00017 0 -0 1 -0.351958 -122.276)"/><path d="M863.829 364.192 827.913 401.873" stroke="#333333" stroke-width="1.00193" stroke-opacity="0.5" transform="matrix(1.00017 0 -0 1 -0.351958 -122.276)"/><path d="M827.913 401.873 806.109 422.873" stroke="#333333" stroke-width="1.00193" stroke-opacity="0.5" transform="matrix(1.00017 0 -0 1 -0.351958 -122.276)"/><path d="M752.636 662.008 752.636 662.008" stroke="#333333" stroke-width="1.00193" stroke-opacity="0.5" fill="none" transform="matrix(1.00017 0 -0 1 -0.351958 -122.276)"/><path d="M755.328 478.352 804.386 485.984" stroke="#333333" stroke-width="1.00193" stroke-opacity="0.5" transform="matrix(1.00017 0 -0 1 -0.351958 -122.276)"/><path d="M896.813 502.01 843.205 492.415" stroke="#333333" stroke-width="1.00193" stroke-opacity="0.5" transform="matrix(1.00017 0 -0 1 -0.351958 -122.276)"/><path d="M804.386 485.984 843.205 492.415" stroke="#333333" stroke-width="1.00193" stroke-opacity="0.5" transform="matrix(1.00017 0 -0 1 -0.351958 -122.276)"/><path d="M684.077 510.108C684.077 520.282 675.829 528.53 665.655 528.53 655.481 528.53 647.234 520.282 647.234 510.108 647.234 499.934 655.481 491.687 665.655 491.687 675.829 491.687 684.077 499.934 684.077 510.108Z" fill="#1F77B4" transform="matrix(1.00017 0 -0 1 -0.351958 -122.276)"/><path d="M464.377 583.014C464.377 592.406 456.763 600.02 447.371 600.02 437.979 600.02 430.365 592.406 430.365 583.014 430.365 573.622 437.979 566.008 447.371 566.008 456.763 566.008 464.377 573.622 464.377 583.014Z" fill="#AEC7E8" transform="matrix(1.00017 0 -0 1 -0.351958 -122.276)"/><path d="M879.907 364.192C879.907 373.072 872.709 380.27 863.829 380.27 854.949 380.27 847.751 373.072 847.751 364.192 847.751 355.312 854.949 348.114 863.829 348.114 872.709 348.114 879.907 355.312 879.907 364.192Z" fill="#FF7F0E" transform="matrix(1.00017 0 -0 1 -0.351958 -122.276)"/><path d="M766.195 447.073C766.195 455.959 758.992 463.162 750.107 463.162 741.221 463.162 734.018 455.959 734.018 447.073 734.018 438.187 741.221 430.984 750.107 430.984 758.992 430.984 766.195 438.187 766.195 447.073Z" fill="#FFBB78" transform="matrix(1.00017 0 -0 1 -0.351958 -122.276)"/><path d="M702.826 433.52C702.826 442.967 695.167 450.626 685.72 450.626 676.273 450.626 668.614 442.967 668.614 433.52 668.614 424.073 676.273 416.414 685.72 416.414 695.167 416.414 702.826 424.073 702.826 433.52Z" fill="#2CA02C" transform="matrix(1.00017 0 -0 1 -0.351958 -122.276)"/><path d="M730.832 255.515C730.832 264.8 723.305 272.327 714.019 272.327 704.734 272.327 697.207 264.8 697.207 255.515 697.207 246.23 704.734 238.703 714.019 238.703 723.305 238.703 730.832 246.23 730.832 255.515Z" fill="#98DF8A" transform="matrix(1.00017 0 -0 1 -0.351958 -122.276)"/><path d="M725.156 315.39C725.156 323.975 718.197 330.934 709.612 330.934 701.027 330.934 694.067 323.975 694.067 315.39 694.067 306.805 701.027 299.845 709.612 299.845 718.197 299.845 725.156 306.805 725.156 315.39Z" fill="#98DF8A" transform="matrix(1.00017 0 -0 1 -0.351958 -122.276)"/><path d="M717.129 366.15C717.129 374.718 710.183 381.664 701.615 381.664 693.047 381.664 686.101 374.718 686.101 366.15 686.101 357.582 693.047 350.636 701.615 350.636 710.183 350.636 717.129 357.582 717.129 366.15Z" fill="#2CA02C" transform="matrix(1.00017 0 -0 1 -0.351958 -122.276)"/><path d="M702.908 678.896C702.908 688.328 695.263 695.973 685.831 695.973 676.4 695.973 668.754 688.328 668.754 678.896 668.754 669.465 676.4 661.819 685.831 661.819 695.263 661.819 702.908 669.465 702.908 678.896Z" fill="#D62728" transform="matrix(1.00017 0 -0 1 -0.351958 -122.276)"/><path d="M759.351 596.433C759.351 605.725 751.818 613.259 742.526 613.259 733.233 613.259 725.7 605.725 725.7 596.433 725.7 587.14 733.233 579.607 742.526 579.607 751.818 579.607 759.351 587.14 759.351 596.433Z" fill="#FF9896" transform="matrix(1.00017 0 -0 1 -0.351958 -122.276)"/><path d="M803.764 636.852C803.764 645.462 796.784 652.441 788.175 652.441 779.565 652.441 772.586 645.462 772.586 636.852 772.586 628.242 779.565 621.263 788.175 621.263 796.784 621.263 803.764 628.242 803.764 636.852Z" fill="#FF9896" transform="matrix(1.00017 0 -0 1 -0.351958 -122.276)"/><path d="M768.254 662.008C768.254 670.634 761.262 677.626 752.636 677.626 744.01 677.626 737.018 670.634 737.018 662.008 737.018 653.383 744.01 646.39 752.636 646.39 761.262 646.39 768.254 653.383 768.254 662.008Z" fill="#D62728" transform="matrix(1.00017 0 -0 1 -0.351958 -122.276)"/><path d="M379.187 376.491C379.187 385.34 372.014 392.514 363.164 392.514 354.315 392.514 347.141 385.34 347.141 376.491 347.141 367.641 354.315 360.467 363.164 360.467 372.014 360.467 379.187 367.641 379.187 376.491Z" fill="#9467BD" transform="matrix(1.00017 0 -0 1 -0.351958 -122.276)"/><path d="M427.758 302.461C427.758 310.694 421.084 317.368 412.852 317.368 404.619 317.368 397.946 310.694 397.946 302.461 397.946 294.229 404.62 287.555 412.852 287.555 421.084 287.555 427.758 294.229 427.758 302.461Z" fill="#C5B0D5" transform="matrix(1.00017 0 -0 1 -0.351958 -122.276)"/><path d="M562.029 429.462C562.029 438.311 554.855 445.485 546.006 445.485 537.156 445.485 529.983 438.311 529.983 429.462 529.983 420.612 537.156 413.439 546.006 413.439 554.855 413.439 562.029 420.612 562.029 429.462Z" fill="#8C564B" transform="matrix(1.00017 0 -0 1 -0.351958 -122.276)"/><path d="M507.679 380.931C507.679 388.546 501.506 394.72 493.89 394.72 486.274 394.72 480.1 388.546 480.1 380.931 480.1 373.315 486.274 367.141 493.89 367.141 501.506 367.141 507.679 373.315 507.679 380.931Z" fill="#8C564B" transform="matrix(1.00017 0 -0 1 -0.351958 -122.276)"/><path d="M472.056 343.309C472.056 350.924 465.882 357.098 458.267 357.098 450.651 357.098 444.477 350.924 444.477 343.309 444.477 335.693 450.651 329.519 458.267 329.519 465.882 329.519 472.056 335.693 472.056 343.309Z" fill="#C5B0D5" transform="matrix(1.00017 0 -0 1 -0.351958 -122.276)"/><path d="M433.972 399.249C433.972 407.481 427.298 414.155 419.066 414.155 410.834 414.155 404.16 407.481 404.16 399.249 404.16 391.016 410.834 384.342 419.066 384.342 427.299 384.342 433.972 391.016 433.972 399.249Z" fill="#9467BD" transform="matrix(1.00017 0 -0 1 -0.351958 -122.276)"/><path d="M484.451 414.834C484.451 423.067 477.777 429.741 469.545 429.741 461.312 429.741 454.638 423.067 454.638 414.834 454.638 406.602 461.312 399.928 469.545 399.928 477.777 399.928 484.451 406.602 484.451 414.834Z" fill="#8C564B" transform="matrix(1.00017 0 -0 1 -0.351958 -122.276)"/><path d="M848.188 606.033C848.188 614.277 841.504 620.961 833.259 620.961 825.014 620.961 818.331 614.277 818.331 606.033 818.331 597.788 825.014 591.104 833.259 591.104 841.504 591.104 848.188 597.788 848.188 606.033Z" fill="#C49C94" transform="matrix(1.00017 0 -0 1 -0.351958 -122.276)"/><path d="M798.658 571.865C798.658 579.48 792.484 585.654 784.868 585.654 777.253 585.654 771.079 579.48 771.079 571.865 771.079 564.249 777.253 558.075 784.868 558.075 792.484 558.075 798.658 564.249 798.658 571.865Z" fill="#C49C94" transform="matrix(1.00017 0 -0 1 -0.351958 -122.276)"/><path d="M747.615 550.681C747.615 558.297 741.441 564.47 733.826 564.47 726.21 564.47 720.036 558.297 720.036 550.681 720.036 543.065 726.21 536.891 733.826 536.891 741.441 536.891 747.615 543.065 747.615 550.681Z" fill="#1F77B4" transform="matrix(1.00017 0 -0 1 -0.351958 -122.276)"/><path d="M535.652 465.811C535.652 474.405 528.686 481.371 520.093 481.371 511.5 481.371 504.533 474.405 504.533 465.811 504.533 457.218 511.5 450.252 520.093 450.252 528.686 450.252 535.652 457.218 535.652 465.811Z" fill="#E377C2" transform="matrix(1.00017 0 -0 1 -0.351958 -122.276)"/><path d="M383.968 537.767C383.968 546 377.294 552.674 369.062 552.674 360.829 552.674 354.155 546 354.155 537.767 354.155 529.535 360.829 522.861 369.062 522.861 377.294 522.861 383.968 529.535 383.968 537.767Z" fill="#F7B6D2" transform="matrix(1.00017 0 -0 1 -0.351958 -122.276)"/><path d="M353.405 473.017C353.405 481.25 346.731 487.923 338.499 487.923 330.266 487.923 323.593 481.25 323.593 473.017 323.593 464.785 330.266 458.111 338.499 458.111 346.731 458.111 353.405 464.785 353.405 473.017Z" fill="#7F7F7F" transform="matrix(1.00017 0 -0 1 -0.351958 -122.276)"/><path d="M413.361 481.831C413.361 489.447 407.187 495.621 399.572 495.621 391.956 495.621 385.782 489.447 385.782 481.831 385.782 474.216 391.956 468.042 399.572 468.042 407.187 468.042 413.361 474.216 413.361 481.831Z" fill="#7F7F7F" transform="matrix(1.00017 0 -0 1 -0.351958 -122.276)"/><path d="M486.387 489.659C486.387 497.891 479.713 504.565 471.48 504.565 463.248 504.565 456.574 497.891 456.574 489.659 456.574 481.426 463.248 474.752 471.48 474.752 479.713 474.752 486.387 481.426 486.387 489.659Z" fill="#E377C2" transform="matrix(1.00017 0 -0 1 -0.351958 -122.276)"/><path d="M426.393 515.067C426.393 522.683 420.219 528.857 412.604 528.857 404.988 528.857 398.814 522.683 398.814 515.067 398.814 507.452 404.988 501.278 412.604 501.278 420.219 501.278 426.393 507.452 426.393 515.067Z" fill="#F7B6D2" transform="matrix(1.00017 0 -0 1 -0.351958 -122.276)"/><path d="M660.056 403.547C660.056 412.397 652.882 419.57 644.033 419.57 635.183 419.57 628.01 412.397 628.01 403.547 628.01 394.698 635.183 387.524 644.033 387.524 652.882 387.524 660.056 394.698 660.056 403.547Z" fill="#C7C7C7" transform="matrix(1.00017 0 -0 1 -0.351958 -122.276)"/><path d="M661.702 247.369C661.702 256.218 654.529 263.392 645.679 263.392 636.83 263.392 629.656 256.218 629.656 247.369 629.656 238.519 636.83 231.346 645.679 231.346 654.529 231.346 661.702 238.519 661.702 247.369Z" fill="#BCBD22" transform="matrix(1.00017 0 -0 1 -0.351958 -122.276)"/><path d="M660.401 354.065C660.401 362.297 653.727 368.971 645.494 368.971 637.262 368.971 630.588 362.297 630.588 354.065 630.588 345.832 637.262 339.158 645.494 339.158 653.727 339.158 660.401 345.832 660.401 354.065Z" fill="#C7C7C7" transform="matrix(1.00017 0 -0 1 -0.351958 -122.276)"/><path d="M661.235 310.494C661.235 318.726 654.561 325.4 646.329 325.4 638.096 325.4 631.422 318.726 631.422 310.494 631.422 302.261 638.096 295.587 646.329 295.587 654.561 295.587 661.235 302.261 661.235 310.494Z" fill="#BCBD22" transform="matrix(1.00017 0 -0 1 -0.351958 -122.276)"/><path d="M625.422 667.347C625.422 676.752 617.797 684.377 608.392 684.377 598.986 684.377 591.362 676.752 591.362 667.347 591.362 657.941 598.986 650.317 608.392 650.317 617.797 650.317 625.422 657.941 625.422 667.347Z" fill="#DBDB8D" transform="matrix(1.00017 0 -0 1 -0.351958 -122.276)"/><path d="M687.105 625.089C687.105 632.705 680.931 638.878 673.316 638.878 665.7 638.878 659.526 632.705 659.526 625.089 659.526 617.473 665.7 611.3 673.316 611.3 680.931 611.3 687.105 617.473 687.105 625.089Z" fill="#D62728" transform="matrix(1.00017 0 -0 1 -0.351958 -122.276)"/><path d="M676.918 570.139C676.918 577.755 670.745 583.929 663.129 583.929 655.513 583.929 649.34 577.755 649.34 570.139 649.34 562.523 655.513 556.35 663.129 556.35 670.745 556.35 676.918 562.523 676.918 570.139Z" fill="#1F77B4" transform="matrix(1.00017 0 -0 1 -0.351958 -122.276)"/><path d="M628.818 483.567C628.818 497.63 617.418 509.031 603.355 509.031 589.292 509.031 577.891 497.63 577.891 483.567 577.891 469.504 589.292 458.104 603.355 458.104 617.418 458.104 628.818 469.504 628.818 483.567Z" fill="#17BECF" transform="matrix(1.00017 0 -0 1 -0.351958 -122.276)"/><path d="M508.889 552.951C508.889 559.998 503.177 565.711 496.13 565.711 489.083 565.711 483.37 559.998 483.37 552.951 483.37 545.904 489.083 540.191 496.13 540.191 503.177 540.191 508.889 545.904 508.889 552.951Z" fill="#AEC7E8" transform="matrix(1.00017 0 -0 1 -0.351958 -122.276)"/><path d="M555.719 516.535C555.719 525.262 548.644 532.337 539.916 532.337 531.188 532.337 524.113 525.262 524.113 516.535 524.113 507.807 531.188 500.732 539.916 500.732 548.644 500.732 555.719 507.807 555.719 516.535Z" fill="#17BECF" transform="matrix(1.00017 0 -0 1 -0.351958 -122.276)"/><path d="M557.563 668.826C557.563 677.637 550.42 684.78 541.609 684.78 532.798 684.78 525.655 677.637 525.655 668.826 525.655 660.014 532.798 652.871 541.609 652.871 550.42 652.871 557.563 660.014 557.563 668.826Z" fill="#9EDAE5" transform="matrix(1.00017 0 -0 1 -0.351958 -122.276)"/><path d="M595.576 386.153C595.576 395.453 588.037 402.993 578.737 402.993 569.437 402.993 561.898 395.453 561.898 386.153 561.898 376.853 569.437 369.314 578.737 369.314 588.037 369.314 595.576 376.853 595.576 386.153Z" fill="#1F77B4" transform="matrix(1.00017 0 -0 1 -0.351958 -122.276)"/><path d="M504.439 250.88C504.439 260.172 496.906 267.705 487.613 267.705 478.32 267.705 470.787 260.172 470.787 250.88 470.787 241.587 478.32 234.054 487.613 234.054 496.906 234.054 504.439 241.587 504.439 250.88Z" fill="#AEC7E8" transform="matrix(1.00017 0 -0 1 -0.351958 -122.276)"/><path d="M525.287 289.507C525.287 298.18 518.257 305.21 509.585 305.21 500.913 305.21 493.883 298.18 493.883 289.507 493.883 280.835 500.913 273.805 509.585 273.805 518.257 273.805 525.287 280.835 525.287 289.507Z" fill="#AEC7E8" transform="matrix(1.00017 0 -0 1 -0.351958 -122.276)"/><path d="M550.021 338.787C550.021 347.459 542.991 354.489 534.319 354.489 525.647 354.489 518.617 347.459 518.617 338.787 518.617 330.115 525.647 323.085 534.319 323.085 542.991 323.085 550.021 330.115 550.021 338.787Z" fill="#1F77B4" transform="matrix(1.00017 0 -0 1 -0.351958 -122.276)"/><path d="M623.231 619.824C623.231 628.555 616.154 635.632 607.423 635.632 598.693 635.632 591.615 628.555 591.615 619.824 591.615 611.094 598.693 604.017 607.423 604.017 616.154 604.017 623.231 611.094 623.231 619.824Z" fill="#DBDB8D" transform="matrix(1.00017 0 -0 1 -0.351958 -122.276)"/><path d="M620.231 554.301C620.231 563.032 613.154 570.109 604.423 570.109 595.693 570.109 588.616 563.032 588.616 554.301 588.616 545.571 595.693 538.493 604.423 538.493 613.154 538.493 620.231 545.571 620.231 554.301Z" fill="#17BECF" transform="matrix(1.00017 0 -0 1 -0.351958 -122.276)"/><path d="M560.569 627.622C560.569 635.565 554.13 642.004 546.187 642.004 538.244 642.004 531.805 635.565 531.805 627.622 531.805 619.679 538.244 613.24 546.187 613.24 554.13 613.24 560.569 619.679 560.569 627.622Z" fill="#9EDAE5" transform="matrix(1.00017 0 -0 1 -0.351958 -122.276)"/><path d="M568.138 573.483C568.138 582.349 560.951 589.537 552.084 589.537 543.218 589.537 536.03 582.349 536.03 573.483 536.03 564.616 543.218 557.429 552.084 557.429 560.951 557.429 568.138 564.616 568.138 573.483Z" fill="#17BECF" transform="matrix(1.00017 0 -0 1 -0.351958 -122.276)"/><path d="M910.397 547.962C910.397 555.552 904.243 561.706 896.653 561.706 889.062 561.706 882.909 555.552 882.909 547.962 882.909 540.371 889.062 534.218 896.653 534.218 904.243 534.218 910.397 540.371 910.397 547.962Z" fill="#FF7F0E" transform="matrix(1.00017 0 -0 1 -0.351958 -122.276)"/><path d="M735.6 497.903C735.6 505.494 729.446 511.647 721.856 511.647 714.265 511.647 708.112 505.494 708.112 497.903 708.112 490.313 714.265 484.159 721.856 484.159 729.446 484.159 735.6 490.313 735.6 497.903Z" fill="#FFBB78" transform="matrix(1.00017 0 -0 1 -0.351958 -122.276)"/><path d="M851.927 531.498C851.927 538.446 846.295 544.078 839.347 544.078 832.399 544.078 826.766 538.446 826.766 531.498 826.766 524.55 832.399 518.917 839.347 518.917 846.295 518.917 851.927 524.55 851.927 531.498Z" fill="#FF7F0E" transform="matrix(1.00017 0 -0 1 -0.351958 -122.276)"/><path d="M804.821 516.521C804.821 523.469 799.188 529.101 792.24 529.101 785.292 529.101 779.66 523.469 779.66 516.521 779.66 509.573 785.292 503.94 792.24 503.94 799.188 503.94 804.821 509.573 804.821 516.521Z" fill="#FFBB78" transform="matrix(1.00017 0 -0 1 -0.351958 -122.276)"/><path d="M569.554 219.211C569.554 225.369 564.562 230.362 558.403 230.362 552.245 230.362 547.253 225.369 547.253 219.211 547.253 213.053 552.245 208.06 558.403 208.06 564.562 208.06 569.554 213.053 569.554 219.211Z" fill="#2CA02C" transform="matrix(1.00017 0 -0 1 -0.351958 -122.276)"/><path d="M589.443 325.969C589.443 331.373 585.062 335.754 579.657 335.754 574.253 335.754 569.872 331.373 569.872 325.969 569.872 320.564 574.253 316.183 579.657 316.183 585.062 316.183 589.443 320.564 589.443 325.969Z" fill="#1F77B4" transform="matrix(1.00017 0 -0 1 -0.351958 -122.276)"/><path d="M577.199 267.075C577.199 272.48 572.818 276.861 567.413 276.861 562.009 276.861 557.628 272.48 557.628 267.075 557.628 261.671 562.009 257.29 567.413 257.29 572.818 257.29 577.199 261.671 577.199 267.075Z" fill="#2CA02C" transform="matrix(1.00017 0 -0 1 -0.351958 -122.276)"/><path d="M485.965 630.201C485.965 636.677 480.715 641.927 474.24 641.927 467.764 641.927 462.514 636.677 462.514 630.201 462.514 623.726 467.764 618.476 474.24 618.476 480.715 618.476 485.965 623.726 485.965 630.201Z" fill="#98DF8A" transform="matrix(1.00017 0 -0 1 -0.351958 -122.276)"/><path d="M501.176 595.658C501.176 600.701 497.088 604.79 492.044 604.79 487 604.79 482.912 600.701 482.912 595.658 482.912 590.614 487 586.526 492.044 586.526 497.088 586.526 501.176 590.614 501.176 595.658Z" fill="#98DF8A" transform="matrix(1.00017 0 -0 1 -0.351958 -122.276)"/><path d="M780.209 243.271C780.209 249.653 775.036 254.827 768.654 254.827 762.272 254.827 757.098 249.653 757.098 243.271 757.098 236.889 762.272 231.715 768.654 231.715 775.036 231.715 780.209 236.889 780.209 243.271Z" fill="#D62728" transform="matrix(1.00017 0 -0 1 -0.351958 -122.276)"/><path d="M825.209 335.503C825.209 342.681 819.39 348.499 812.213 348.499 805.035 348.499 799.217 342.681 799.217 335.503 799.217 328.326 805.035 322.508 812.213 322.508 819.39 322.508 825.209 328.326 825.209 335.503Z" fill="#FF9896" transform="matrix(1.00017 0 -0 1 -0.351958 -122.276)"/><path d="M819.976 300.316C819.976 305.721 815.595 310.102 810.19 310.102 804.786 310.102 800.405 305.721 800.405 300.316 800.405 294.912 804.786 290.531 810.19 290.531 815.595 290.531 819.976 294.912 819.976 300.316Z" fill="#FF9896" transform="matrix(1.00017 0 -0 1 -0.351958 -122.276)"/><path d="M810.747 268.937C810.747 274.342 806.366 278.723 800.961 278.723 795.557 278.723 791.176 274.342 791.176 268.937 791.176 263.533 795.557 259.152 800.961 259.152 806.366 259.152 810.747 263.533 810.747 268.937Z" fill="#D62728" transform="matrix(1.00017 0 -0 1 -0.351958 -122.276)"/><path d="M765.263 317.854C765.263 322.281 761.675 325.869 757.248 325.869 752.821 325.869 749.233 322.281 749.233 317.854 749.233 313.427 752.821 309.839 757.248 309.839 761.675 309.839 765.263 313.427 765.263 317.854Z" fill="#FF9896" transform="matrix(1.00017 0 -0 1 -0.351958 -122.276)"/><path d="M761.509 280.59C761.509 285.017 757.92 288.605 753.493 288.605 749.067 288.605 745.478 285.017 745.478 280.59 745.478 276.163 749.067 272.575 753.493 272.575 757.92 272.575 761.509 276.163 761.509 280.59Z" fill="#D62728" transform="matrix(1.00017 0 -0 1 -0.351958 -122.276)"/><path d="M865.867 297.041C865.867 303.063 860.985 307.944 854.964 307.944 848.943 307.944 844.062 303.063 844.062 297.041 844.062 291.02 848.943 286.139 854.964 286.139 860.985 286.139 865.867 291.02 865.867 297.041Z" fill="#FF9896" transform="matrix(1.00017 0 -0 1 -0.351958 -122.276)"/><path d="M516.769 622C516.769 627.044 512.681 631.132 507.637 631.132 502.593 631.132 498.505 627.044 498.505 622 498.505 616.957 502.593 612.868 507.637 612.868 512.681 612.868 516.769 616.957 516.769 622Z" fill="#98DF8A" transform="matrix(1.00017 0 -0 1 -0.351958 -122.276)"/><path d="M767.339 356.806C767.339 361.849 763.25 365.938 758.207 365.938 753.163 365.938 749.075 361.849 749.075 356.806 749.075 351.762 753.163 347.673 758.207 347.673 763.25 347.673 767.339 351.762 767.339 356.806Z" fill="#9467BD" transform="matrix(1.00017 0 -0 1 -0.351958 -122.276)"/><path d="M782.704 401.342C782.704 405.768 779.115 409.357 774.688 409.357 770.262 409.357 766.673 405.768 766.673 401.342 766.673 396.915 770.262 393.326 774.688 393.326 779.115 393.326 782.704 396.915 782.704 401.342Z" fill="#FFBB78" transform="matrix(1.00017 0 -0 1 -0.351958 -122.276)"/><path d="M799.111 375.53C799.111 379.957 795.522 383.545 791.096 383.545 786.669 383.545 783.08 379.957 783.08 375.53 783.08 371.103 786.669 367.515 791.096 367.515 795.522 367.515 799.111 371.103 799.111 375.53Z" fill="#9467BD" transform="matrix(1.00017 0 -0 1 -0.351958 -122.276)"/><path d="M814.125 422.873C814.125 427.3 810.536 430.889 806.109 430.889 801.682 430.889 798.094 427.3 798.094 422.873 798.094 418.446 801.682 414.858 806.109 414.858 810.536 414.858 814.125 418.446 814.125 422.873Z" fill="#FFBB78" transform="matrix(1.00017 0 -0 1 -0.351958 -122.276)"/><path d="M835.929 401.873C835.929 406.3 832.34 409.889 827.913 409.889 823.486 409.889 819.898 406.3 819.898 401.873 819.898 397.447 823.486 393.858 827.913 393.858 832.34 393.858 835.929 397.447 835.929 401.873Z" fill="#FF7F0E" transform="matrix(1.00017 0 -0 1 -0.351958 -122.276)"/><path d="M765.577 478.352C765.577 484.013 760.988 488.602 755.328 488.602 749.667 488.602 745.079 484.013 745.079 478.352 745.079 472.692 749.667 468.103 755.328 468.103 760.988 468.103 765.577 472.692 765.577 478.352Z" fill="#C5B0D5" transform="matrix(1.00017 0 -0 1 -0.351958 -122.276)"/><path d="M905.945 502.01C905.945 507.054 901.856 511.142 896.813 511.142 891.769 511.142 887.681 507.054 887.681 502.01 887.681 496.967 891.769 492.878 896.813 492.878 901.856 492.878 905.945 496.967 905.945 502.01Z" fill="#8C564B" transform="matrix(1.00017 0 -0 1 -0.351958 -122.276)"/><path d="M812.401 485.984C812.401 490.411 808.813 494 804.386 494 799.959 494 796.37 490.411 796.37 485.984 796.37 481.558 799.959 477.969 804.386 477.969 808.813 477.969 812.401 481.558 812.401 485.984Z" fill="#C5B0D5" transform="matrix(1.00017 0 -0 1 -0.351958 -122.276)"/><path d="M851.22 492.415C851.22 496.841 847.631 500.43 843.205 500.43 838.778 500.43 835.189 496.841 835.189 492.415 835.189 487.988 838.778 484.399 843.205 484.399 847.631 484.399 851.22 487.988 851.22 492.415Z" fill="#8C564B" transform="matrix(1.00017 0 -0 1 -0.351958 -122.276)"/><text font-family="Arial,Arial_MSFontService,sans-serif" font-weight="400" font-size="13" transform="matrix(1.0021 0 0 1.00193 643.869 388)">context<tspan font-size="12" x="-215.364" y="72.8594">course</tspan><tspan font-size="12" x="177.792" y="-145.719">user</tspan><tspan font-size="12" x="202.792" y="-145.719">_</tspan><tspan font-size="12" x="209.792" y="-145.719">info</tspan><tspan font-size="12" x="229.792" y="-145.719">_</tspan><tspan font-size="12" x="236.792" y="-145.719">data</tspan><tspan font-size="12" x="64.7888" y="-62.8786">user</tspan><tspan font-size="12" x="89.7888" y="-62.8786">_</tspan><tspan font-size="12" x="96.7887" y="-62.8786">info</tspan><tspan font-size="12" x="116.789" y="-62.8786">_</tspan><tspan font-size="12" x="123.789" y="-62.8786">field</tspan><tspan font-size="12" x="-5.97362" y="-76.8516">user</tspan><tspan font-size="12" x="19.0264" y="-76.8516">_</tspan><tspan font-size="12" x="26.0264" y="-76.8516">enrolments</tspan><tspan font-size="12" x="57.2711" y="-254.509">user</tspan><tspan font-size="11" x="61.3722" y="-194.624">id</tspan><tspan font-size="11" x="42.3906" y="-143.723">userid</tspan><tspan font-size="12" x="11.1372" y="168.674">filter</tspan><tspan font-size="12" x="34.1372" y="168.674">_</tspan><tspan font-size="12" x="41.1372" y="168.674">active</tspan><tspan font-size="12" x="66.7223" y="85.8343">filter</tspan><tspan font-size="12" x="89.7223" y="85.8343">_</tspan><tspan font-size="12" x="96.7223" y="85.8343">config</tspan><tspan font-size="11" x="133.284" y="126.755">filter</tspan><tspan font-size="11" x="97.8134" y="151.707">filter</tspan><tspan font-size="12" x="-323.908" y="-133.742">block</tspan><tspan font-size="12" x="-294.908" y="-133.742">_</tspan><tspan font-size="12" x="-287.908" y="-133.742">positions</tspan><tspan font-size="11" x="-243.316" y="-207.599">block</tspan><tspan font-size="12" x="-142.919" y="-80.8439">block</tspan><tspan font-size="12" x="-113.919" y="-80.8439">_</tspan><tspan font-size="12" x="-106.919" y="-80.8439">instances</tspan><tspan font-size="10" x="-175.434" y="-128.751">blockname</tspan><tspan font-size="10" x="-198.989" y="-166.678">name</tspan><tspan font-size="11" x="-261.614" y="-110.786">blockinstanceid</tspan><tspan font-size="11" x="-178.233" y="-94.817">id</tspan><tspan font-size="11" x="143.281" y="95.815">course</tspan><tspan font-size="11" x="177.281" y="95.815">_</tspan><tspan font-size="11" x="183.281" y="95.815">categories</tspan><tspan font-size="10" x="135.984" y="61.8805">id</tspan><tspan font-size="10" x="65.5393" y="39.9229">instanceid</tspan><tspan font-size="11" x="-183.282" y="-43.9152">message</tspan><tspan font-size="11" x="-139.282" y="-43.9152">_</tspan><tspan font-size="11" x="-133.282" y="-43.9152">conversations</tspan><tspan font-size="11" x="-356.022" y="26.948">message</tspan><tspan font-size="11" x="-312.022" y="26.948">_</tspan><tspan font-size="11" x="-306.022" y="26.948">conversation</tspan><tspan font-size="11" x="-243.022" y="26.948">_</tspan><tspan font-size="11" x="-237.022" y="26.948">members</tspan><tspan font-size="11" x="-330.026" y="-36.9287">messages</tspan><tspan font-size="10" x="-278.071" y="-27.9461">conversationid</tspan><tspan font-size="11" x="-176.301" y="-20.9595">id</tspan><tspan font-size="10" x="-265.064" y="4.99037">conversationid</tspan><tspan font-size="12" x="-71.0808" y="-106.794">message</tspan><tspan font-size="12" x="-18.0808" y="-106.794">_</tspan><tspan font-size="12" x="-11.0808" y="-106.794">users</tspan><tspan font-size="12" x="20.9192" y="-106.794">_</tspan><tspan font-size="12" x="27.9192" y="-106.794">blocked</tspan><tspan font-size="12" x="-75.9372" y="-262.493">message</tspan><tspan font-size="12" x="-22.9372" y="-262.493">_</tspan><tspan font-size="12" x="-15.9372" y="-262.493">contact</tspan><tspan font-size="12" x="23.0628" y="-262.493">_</tspan><tspan font-size="12" x="30.0628" y="-262.493">requests</tspan><tspan font-size="11" x="-13.6219" y="-155.699">userid</tspan><tspan font-size="11" x="-37.2892" y="-199.615">requesteduserid</tspan><tspan font-size="12" x="-60.153" y="156.698">modules</tspan><tspan font-size="10" x="7.64583" y="114.778">contextid</tspan><tspan font-size="10" x="14.4789" y="59.8844">id</tspan><tspan font-size="18" x="-106.18" y="-26.948">course</tspan><tspan font-size="18" x="-52.1804" y="-26.948">_</tspan><tspan font-size="18" x="-42.1804" y="-26.948">modules</tspan><tspan font-size="9" x="-151.199" y="42.9172">id</tspan><tspan font-size="11" x="-120.997" y="5.98844">course</tspan><tspan font-size="11" x="-118.307" y="158.694">assign</tspan><tspan font-size="12" x="-106.251" y="-123.761">files</tspan><tspan font-size="12" x="-83.2507" y="-123.761">_</tspan><tspan font-size="12" x="-76.2507" y="-123.761">reference</tspan><tspan font-size="12" x="-167.699" y="-258.501">files</tspan><tspan font-size="11" x="-169.27" y="-220.574">referencefileid</tspan><tspan font-size="11" x="-113.583" y="-170.671">id</tspan><tspan font-size="11" x="-40.6197" y="109.788">id</tspan><tspan font-size="11" x="-56.6137" y="43.9152">module</tspan><tspan font-size="10" x="-102.238" y="116.775">id</tspan><tspan font-size="12" x="-115.352" y="62.8786">instance</tspan><tspan font-size="10" x="212.053" y="37.9268">groups</tspan><tspan font-size="10" x="243.053" y="37.9268">_</tspan><tspan font-size="10" x="249.053" y="37.9268">members</tspan><tspan font-size="10" x="62.0923" y="-11.9769">groups</tspan><tspan font-size="9" x="179.857" y="20.9595">groupid</tspan><tspan font-size="9" x="144.341" y="5.98844">id</tspan><tspan font-size="8" x="-120.545" y="-290.439">repository</tspan><tspan font-size="8" x="-86.5453" y="-290.439">_</tspan><tspan font-size="8" x="-82.5452" y="-290.439">instances</tspan><tspan font-size="7" x="-83.3319" y="-183.645">repositoryid</tspan><tspan font-size="7" x="-79.5527" y="-242.532">id</tspan><tspan font-size="9" x="-182.047" y="119.769">forum</tspan><tspan font-size="7" x="-162.777" y="84.8362">course</tspan><tspan font-size="8" x="92.3002" y="-266.486">forum</tspan><tspan font-size="8" x="112.3" y="-266.486">_</tspan><tspan font-size="8" x="116.3" y="-266.486">discussions</tspan><tspan font-size="9" x="141.275" y="-174.663">forum</tspan><tspan font-size="9" x="166.275" y="-174.663">_</tspan><tspan font-size="9" x="171.275" y="-174.663">posts</tspan><tspan font-size="7" x="162.757" y="-209.595">id</tspan><tspan font-size="7" x="143.545" y="-240.536">firstpost</tspan><tspan font-size="6" x="105.416" y="-191.63">userid</tspan><tspan font-size="6" x="93.169" y="-229.557">usermodified</tspan><tspan font-size="8" x="192.444" y="-212.59">discussion</tspan><tspan font-size="7" x="-139.214" y="111.784">id</tspan><tspan font-size="7" x="82.8734" y="-152.705">user</tspan><tspan font-size="7" x="96.8734" y="-152.705">_</tspan><tspan font-size="7" x="100.873" y="-152.705">info</tspan><tspan font-size="7" x="112.873" y="-152.705">_</tspan><tspan font-size="7" x="116.873" y="-152.705">category</tspan><tspan font-size="6" x="117.323" y="-108.79">categoryid</tspan><tspan font-size="6" x="144.699" y="-134.74">id</tspan><tspan font-size="6" x="159.684" y="-86.8324">id</tspan><tspan font-size="6" x="176.445" y="-107.792">fieldid</tspan><tspan font-size="8" x="104.5" y="-31.9383">role</tspan><tspan font-size="7" x="225.212" y="-7.98459">role</tspan><tspan font-size="7" x="237.212" y="-7.98459">_</tspan><tspan font-size="7" x="241.212" y="-7.98459">capabilities</tspan><tspan font-size="6" x="157.963" y="-23.9538">id</tspan><tspan font-size="6" x="192.208" y="-17.9653">roleid</tspan></text></g></g></g><rect x="427.5" y="325.5" width="213" height="254" stroke="#17BECF" stroke-width="1.33333" stroke-miterlimit="8" stroke-dasharray="5.33333 4" fill="none"/><rect x="643.5" y="360.5" width="213" height="219" stroke="#1F77B4" stroke-width="1.33333" stroke-miterlimit="8" stroke-dasharray="5.33333 4" fill="none"/><text fill="#17BECF" font-family="DengXian,DengXian_MSFontService,sans-serif" font-weight="400" font-size="24" transform="translate(436.702 567)"><tspan fill="#1F77B4" x="386.756" y="0"></tspan></text><rect x="666.5" y="98.5001" width="158" height="245" stroke="#2CA02C" stroke-width="1.33333" stroke-miterlimit="8" stroke-dasharray="5.33333 4" fill="none"/><text fill="#2CA02C" font-family="DengXian,DengXian_MSFontService,sans-serif" font-weight="400" font-size="24" transform="translate(798.076 121)"></text></g></svg>