<svg width="1519" height="762" xmlns="http://www.w3.org/2000/svg"><g cursor="grab" opacity="1" transform="translate(70.84860803037668,-15.389175643169324)scale(1.000000000000002)"><g><path class="hull" d="M715.8882112118201,418.6676431317354C719.5993456096963,417.57277154593646,721.7280757668644,411.50185152284365,715.8882112118201,408.6676431317354S644.6132150329403,382.96240630806733,638.023350477896,380.8781979169591S628.773350477896,380.1281979169591,628.023350477896,380.8781979169591S625.8946203207279,387.6991179400519,628.023350477896,390.8781979169591S653.5276890829697,420.836850965481,656.4064192401378,423.2659309423882S661.9452848422616,423.61080252818715,666.4064192401378,423.2659309423882S712.1770768139439,419.7625147175344,715.8882112118201,418.6676431317354" style="fill: rgb(31, 119, 180); fill-opacity: 0.3;"></path><path class="hull" d="M485.9272260149704,487.9375512186623C488.0801575710559,483.95881058032757,486.6772260149704,478.6875512186623,485.9272260149704,477.9375512186623S478.8301575710559,474.70881058032757,475.9272260149704,477.9375512186623S449.374403489916,517.0086857581242,447.2214719338305,520.987426396459S446.4714719338305,530.237426396459,447.2214719338305,530.987426396459S454.318540377745,534.2161670347938,457.2214719338305,530.987426396459S483.7742944588849,491.916291856997,485.9272260149704,487.9375512186623" style="fill: rgb(174, 199, 232); fill-opacity: 0.3;"></path><path class="hull" d="M768.231898687133,293.31022686964116C773.3023725683198,290.0719660758192,768.981898687133,284.06022686964116,768.231898687133,283.31022686964116S764.0523725683198,280.8219660758192,758.231898687133,283.31022686964116S695.6960541524957,313.2487766601118,690.6255802713089,316.48703745393374S689.8755802713089,325.73703745393374,690.6255802713089,326.48703745393374S694.8051063901221,328.9752982477557,700.6255802713089,326.48703745393374S763.1614248059462,296.5484876634631,768.231898687133,293.31022686964116" style="fill: rgb(255, 127, 14); fill-opacity: 0.3;"></path><path class="hull" d="M877.6443530667797,246.11308924803834C881.2574583041916,243.90803063317594,878.3943530667797,236.86308924803834,877.6443530667797,236.11308924803834S872.0074583041916,234.65803063317594,867.6443530667797,236.11308924803834S823.0827218053664,253.30881216467438,819.4696165679545,255.51387077953677S818.7196165679545,264.7638707795368,819.4696165679545,265.5138707795368S825.1065113305426,266.96892939439914,829.4696165679545,265.5138707795368S874.0312478293678,248.31814786290073,877.6443530667797,246.11308924803834" style="fill: rgb(255, 187, 120); fill-opacity: 0.3;"></path><path class="hull" d="M734.856454438802,565.7909800322619C735.606454438802,565.0409800322619,737.035397424199,563.5244149134707,734.856454438802,555.7909800322619S708.7328242855715,469.661949830688,705.8038813001745,462.6785149494793S698.6867150293249,458.3881386341648,695.8038813001745,462.6785149494793S669.4989319739856,514.8431561716911,667.3660982448351,519.8835324870056S663.0543215302877,526.4404739211113,667.3660982448351,529.8835324870056S719.7946777242545,563.0979214663677,724.856454438802,565.7909800322619S734.106454438802,566.5409800322619,734.856454438802,565.7909800322619" style="fill: rgb(44, 160, 44); fill-opacity: 0.3;"></path><path class="hull" d="M785.268508652407,557.9499125211348C786.018508652407,557.1999125211348,785.741224346444,553.5401294797042,785.268508652407,547.9499125211348S780.1883484259502,488.2539033654452,778.9656327319132,483.41368640687574S769.7156327319132,482.66368640687574,768.9656327319132,483.41368640687574S768.4929170378762,487.8234694483063,768.9656327319132,493.41368640687574S774.04579295837,553.1096955625654,775.268508652407,557.9499125211348S784.518508652407,558.6999125211348,785.268508652407,557.9499125211348" style="fill: rgb(152, 223, 138); fill-opacity: 0.3;"></path><path class="hull" d="M437.31526782340865,222.78972281245927C438.06526782340865,222.03972281245927,439.2643093041489,216.67344638975268,437.31526782340865,212.78972281245927S414.02708956094494,174.140465359174,411.32804808020467,171.00674178188058S402.07804808020467,170.25674178188058,401.32804808020467,171.00674178188058S399.3790065994644,177.12301820458717,401.32804808020467,181.00674178188058S424.61622634266837,219.65599923516587,427.31526782340865,222.78972281245927S436.56526782340865,223.53972281245927,437.31526782340865,222.78972281245927" style="fill: rgb(214, 39, 40); fill-opacity: 0.3;"></path><path class="hull" d="M382.89992503603446,289.2875784310953C383.64992503603446,288.5375784310953,386.29839223211354,281.3475342880739,382.89992503603446,279.2875784310953S341.73549628439235,263.131456195026,337.5870290883133,261.8215003380474S328.3370290883133,261.0715003380474,327.5870290883133,261.8215003380474S324.1885618922342,269.76154448106877,327.5870290883133,271.8215003380474S368.7514578399554,287.9776225741167,372.89992503603446,289.2875784310953S382.14992503603446,290.0375784310953,382.89992503603446,289.2875784310953" style="fill: rgb(255, 152, 150); fill-opacity: 0.3;"></path><path class="hull" d="M507.3163315082105,335.55989667685526C508.0663315082105,334.80989667685526,510.1672287231104,330.97165383637576,507.3163315082105,325.55989667685526S472.9052658577785,268.06489170943536,469.3043686428786,263.40313454991485S462.3434971353049,260.62771141106316,459.3043686428786,263.40313454991485S431.0717839029539,296.8833532624188,428.7826554105276,300.4087764012705S423.64262970320135,307.7724423806016,428.7826554105276,310.4087764012705S491.4263058008843,333.6735626561864,497.3163315082105,335.55989667685526S506.5663315082105,336.30989667685526,507.3163315082105,335.55989667685526" style="fill: rgb(148, 103, 189); fill-opacity: 0.3;"></path><path class="hull" d="M831.2686598813581,458.2046128019376C832.0186598813581,457.4546128019376,835.115022621028,450.29138423015775,831.2686598813581,448.2046128019376S784.580186092097,431.7177651872232,779.9838233524272,430.3809937590031S770.7338233524272,429.6309937590031,769.9838233524272,430.3809937590031S766.1374606127573,438.294222330783,769.9838233524272,440.3809937590031S816.6722971416882,456.8678413737175,821.2686598813581,458.2046128019376S830.5186598813581,458.9546128019376,831.2686598813581,458.2046128019376" style="fill: rgb(197, 176, 213); fill-opacity: 0.3;"></path><path class="hull" d="M524.1997473346369,372.2419512039688C527.7870388214582,369.4307925811285,524.9497473346369,362.9919512039688,524.1997473346369,362.2419512039688S518.5370388214582,360.1807925811285,514.1997473346369,362.2419512039688S469.9564856638411,386.9129075523326,466.3691941770198,389.72406617517294S465.6191941770198,398.97406617517294,466.3691941770198,399.72406617517294S472.0319026901985,401.78522479801325,476.3691941770198,399.72406617517294S520.6124558478156,375.05310982680913,524.1997473346369,372.2419512039688" style="fill: rgb(140, 86, 75); fill-opacity: 0.3;"></path><path class="hull" d="M420.3103101322278,399.1438145592482C424.0539659166262,398.0422246764643,421.0603101322278,389.8938145592482,420.3103101322278,389.1438145592482S414.8039659166262,388.7922246764643,410.3103101322278,389.1438145592482S364.13855545798094,392.7300897802501,360.39489967358253,393.83167966303404S359.64489967358253,403.08167966303404,360.39489967358253,403.83167966303404S365.9012438891841,404.18326954581795,370.39489967358253,403.83167966303404S416.5666543478294,400.2454044420321,420.3103101322278,399.1438145592482" style="fill: rgb(196, 156, 148); fill-opacity: 0.3;"></path><path class="hull" d="M430.72297732965234,434.10914545389204C433.8540612897527,431.12978015558167,431.47297732965234,424.85914545389204,430.72297732965234,424.10914545389204S424.6040612897527,421.87978015558167,420.72297732965234,424.10914545389204S382.10627515508116,450.8546507997201,378.9751911949808,453.8340160980305S378.2251911949808,463.0840160980305,378.9751911949808,463.8340160980305S385.0941072348805,466.06338139634084,388.9751911949808,463.8340160980305S427.591893369552,437.0885107522024,430.72297732965234,434.10914545389204" style="fill: rgb(227, 119, 194); fill-opacity: 0.3;"></path><path class="hull" d="M689.9471593418115,229.68939009120143C692.201711424775,225.74696341313037,690.6971593418115,220.43939009120143,689.9471593418115,219.68939009120143S682.951711424775,216.49696341313037,679.9471593418115,219.68939009120143S652.1410169852609,258.31265245407775,649.8864649022973,262.2550791321488S649.1364649022973,271.5050791321488,649.8864649022973,272.2550791321488S656.8819128193338,275.44750581021987,659.8864649022973,272.2550791321488S687.6926072588479,233.6318167692725,689.9471593418115,229.68939009120143" style="fill: rgb(247, 182, 210); fill-opacity: 0.3;"></path><path class="hull" d="M767.7174815744634,142.73834710862417C770.294282267131,139.11941018614164,768.4674815744634,133.48834710862417,767.7174815744634,132.73834710862417S761.044282267131,129.86941018614164,757.7174815744634,132.73834710862417S725.9369396982288,167.37190248590875,723.3601390055611,170.99083940839128S722.6101390055611,180.24083940839128,723.3601390055611,180.99083940839128S730.0333383128934,183.8597763308738,733.3601390055611,180.99083940839128S765.1406808817957,146.3572840311067,767.7174815744634,142.73834710862417" style="fill: rgb(127, 127, 127); fill-opacity: 0.3;"></path><path class="hull" d="M539.6830241294998,531.7581044411569C540.4302832754896,527.1151914337369,540.4330241294998,522.5081044411569,539.6830241294998,521.7581044411569S531.1802832754896,517.8651914337369,529.6830241294998,521.7581044411569S520.4668279956261,569.0206981993376,519.7195688496363,573.6636112067577S518.9695688496363,582.9136112067577,519.7195688496363,583.6636112067577S528.2223097036465,587.5565242141777,529.7195688496363,583.6636112067577S538.93576498351,536.4010174485769,539.6830241294998,531.7581044411569" style="fill: rgb(199, 199, 199); fill-opacity: 0.3;"></path><path class="hull" d="M597.1689959260472,474.0048885696061C600.6270595847969,472.54730870719715,600.2029054819186,468.4040276451939,597.1689959260472,464.0048885696061S560.5007780702999,418.9988399706906,556.7168685144285,415.34970089510284S550.1779390338413,412.69412834890716,546.7168685144285,415.34970089510284S513.2803321083369,447.35176229818285,510.56926158892406,450.75733484437853S508.2823451723896,458.3061884525775,510.56926158892406,460.75733484437853S538.0245640595152,481.73814034325846,541.0614804760496,483.4392867350595S546.8534168172998,484.1468665974685,551.0614804760496,483.4392867350595S593.7109322672974,475.4624684320151,597.1689959260472,474.0048885696061" style="fill: rgb(188, 189, 34); fill-opacity: 0.3;"></path><path class="hull" d="M619.9749531998962,589.6184818062196C620.7249531998962,588.8684818062196,620.5793788621327,584.2826486763621,619.9749531998962,579.6184818062196S613.270370032312,531.343757074462,611.9159443700755,527.4295902043195S602.6659443700755,526.6795902043195,601.9159443700755,527.4295902043195S601.311518707839,532.7654233341771,601.9159443700755,537.4295902043195S608.6205275376597,585.7043149360771,609.9749531998962,589.6184818062196S619.2249531998962,590.3684818062196,619.9749531998962,589.6184818062196" style="fill: rgb(219, 219, 141); fill-opacity: 0.3;"></path><path class="hull" d="M606.8869768551018,230.7802674900192C608.6626183680585,224.51454762615288,607.6369768551018,221.5302674900192,606.8869768551018,220.7802674900192S600.758747037624,220.65287740716556,596.8869768551018,220.7802674900192S558.385144603996,221.60141184521424,555.2633744214738,222.4788019280679S553.9172457519084,226.3404721470552,555.2633744214738,232.4788019280679S571.115628012781,298.9348692272245,573.2117566823465,304.3231990082372S580.6861151693898,309.8389188721036,583.2117566823465,304.3231990082372S605.1113353421451,237.04598735388555,606.8869768551018,230.7802674900192" style="fill: rgb(23, 190, 207); fill-opacity: 0.3;"></path><path class="hull" d="M553.7430342384262,172.46466910956295C554.4930342384262,171.71466910956295,554.3062339429304,166.93742803076267,553.7430342384262,162.46466910956295S547.5469045495412,116.55064241476641,546.233704845037,112.8278834935667S536.983704845037,112.0778834935667,536.233704845037,112.8278834935667S535.6705051405328,118.35512457236699,536.233704845037,122.8278834935667S542.429834533922,168.74191018836322,543.7430342384262,172.46466910956295S552.9930342384262,173.21466910956295,553.7430342384262,172.46466910956295" style="fill: rgb(158, 218, 229); fill-opacity: 0.3;"></path><path class="hull" d="M765.3036414962705,358.83771170603694C769.7237587803099,357.75183060212015,766.0536414962705,349.58771170603694,765.3036414962705,348.83771170603694S760.4737587803099,348.50183060212015,755.3036414962705,348.83771170603694S700.7888616597851,352.23024532101067,696.3687443757457,353.31612642492746S695.6187443757457,362.56612642492746,696.3687443757457,363.31612642492746S701.1986270917063,363.65200752884425,706.3687443757457,363.31612642492746S760.8835242122311,359.92359280995373,765.3036414962705,358.83771170603694" style="fill: rgb(31, 119, 180); fill-opacity: 0.3;"></path><path class="hull" d="M853.6199920965544,357.163811614656C857.6741945479114,356.17103200354023,854.3699920965544,347.913811614656,853.6199920965544,347.163811614656S848.4241945479114,346.92103200354023,843.6199920965544,347.163811614656S793.6181618631518,349.40809348508384,789.5639594117948,350.40087309619963S788.8139594117948,359.65087309619963,789.5639594117948,360.40087309619963S794.7597569604378,360.6436527073154,799.5639594117948,360.40087309619963S849.5657896451974,358.1565912257718,853.6199920965544,357.163811614656" style="fill: rgb(174, 199, 232); fill-opacity: 0.3;"></path><path class="hull" d="M642.9901135208491,121.5415962253604C644.2128966940181,117.13574521005303,643.7401135208491,112.2915962253604,642.9901135208491,111.5415962253604S634.9628966940181,107.88574521005303,632.9901135208491,111.5415962253604S617.9091210517646,155.88042541415112,616.6863378785956,160.28627642945847S615.9363378785956,169.53627642945847,616.6863378785956,170.28627642945847S624.7135547054266,173.94212744476582,626.6863378785956,170.28627642945847S641.7673303476802,125.94744724066776,642.9901135208491,121.5415962253604" style="fill: rgb(255, 127, 14); fill-opacity: 0.3;"></path></g><g><line class="link" x1="872.6443530667797" y1="241.11308924803834" x2="824.4696165679545" y2="260.5138707795368" style="stroke: rgb(51, 51, 51); stroke-opacity: 0.5; stroke-width: 1;"></line><line class="link" x1="695.6255802713089" y1="321.48703745393374" x2="763.231898687133" y2="288.31022686964116" style="stroke: rgb(51, 51, 51); stroke-opacity: 0.5; stroke-width: 1;"></line><line class="link" x1="824.4696165679545" y1="260.5138707795368" x2="763.231898687133" y2="288.31022686964116" style="stroke: rgb(51, 51, 51); stroke-opacity: 0.5; stroke-width: 4.87151;"></line><line class="link" x1="773.9656327319132" y1="488.41368640687574" x2="780.268508652407" y2="552.9499125211348" style="stroke: rgb(51, 51, 51); stroke-opacity: 0.5; stroke-width: 1;"></line><line class="link" x1="672.3660982448351" y1="524.8835324870056" x2="729.856454438802" y2="560.7909800322619" style="stroke: rgb(51, 51, 51); stroke-opacity: 0.5; stroke-width: 1;"></line><line class="link" x1="729.856454438802" y1="560.7909800322619" x2="780.268508652407" y2="552.9499125211348" style="stroke: rgb(51, 51, 51); stroke-opacity: 0.5; stroke-width: 5.3627;"></line><line class="link" x1="502.3163315082105" y1="330.55989667685526" x2="433.7826554105276" y2="305.4087764012705" style="stroke: rgb(51, 51, 51); stroke-opacity: 0.5; stroke-width: 1;"></line><line class="link" x1="332.5870290883133" y1="266.8215003380474" x2="377.89992503603446" y2="284.2875784310953" style="stroke: rgb(51, 51, 51); stroke-opacity: 0.5; stroke-width: 1;"></line><line class="link" x1="377.89992503603446" y1="284.2875784310953" x2="433.7826554105276" y2="305.4087764012705" style="stroke: rgb(51, 51, 51); stroke-opacity: 0.5; stroke-width: 3.70446;"></line><line class="link" x1="406.32804808020467" y1="176.00674178188058" x2="432.31526782340865" y2="217.78972281245927" style="stroke: rgb(51, 51, 51); stroke-opacity: 0.5; stroke-width: 1;"></line><line class="link" x1="502.3163315082105" y1="330.55989667685526" x2="464.3043686428786" y2="268.40313454991485" style="stroke: rgb(51, 51, 51); stroke-opacity: 0.5; stroke-width: 1;"></line><line class="link" x1="464.3043686428786" y1="268.40313454991485" x2="432.31526782340865" y2="217.78972281245927" style="stroke: rgb(51, 51, 51); stroke-opacity: 0.5; stroke-width: 4.75069;"></line><line class="link" x1="826.2686598813581" y1="453.2046128019376" x2="774.9838233524272" y2="435.3809937590031" style="stroke: rgb(51, 51, 51); stroke-opacity: 0.5; stroke-width: 1;"></line><line class="link" x1="633.023350477896" y1="385.8781979169591" x2="710.8882112118201" y2="413.6676431317354" style="stroke: rgb(51, 51, 51); stroke-opacity: 0.5; stroke-width: 1;"></line><line class="link" x1="710.8882112118201" y1="413.6676431317354" x2="774.9838233524272" y2="435.3809937590031" style="stroke: rgb(51, 51, 51); stroke-opacity: 0.5; stroke-width: 3.70446;"></line><line class="link" x1="383.9751911949808" y1="458.8340160980305" x2="425.72297732965234" y2="429.10914545389204" style="stroke: rgb(51, 51, 51); stroke-opacity: 0.5; stroke-width: 1;"></line><line class="link" x1="519.1997473346369" y1="367.2419512039688" x2="471.3691941770198" y2="394.72406617517294" style="stroke: rgb(51, 51, 51); stroke-opacity: 0.5; stroke-width: 1;"></line><line class="link" x1="471.3691941770198" y1="394.72406617517294" x2="425.72297732965234" y2="429.10914545389204" style="stroke: rgb(51, 51, 51); stroke-opacity: 0.5; stroke-width: 3.70446;"></line><line class="link" x1="365.39489967358253" y1="398.83167966303404" x2="415.3103101322278" y2="394.1438145592482" style="stroke: rgb(51, 51, 51); stroke-opacity: 0.5; stroke-width: 1;"></line><line class="link" x1="415.3103101322278" y1="394.1438145592482" x2="471.3691941770198" y2="394.72406617517294" style="stroke: rgb(51, 51, 51); stroke-opacity: 0.5; stroke-width: 3.70446;"></line><line class="link" x1="654.8864649022973" y1="267.2550791321488" x2="684.9471593418115" y2="224.68939009120143" style="stroke: rgb(51, 51, 51); stroke-opacity: 0.5; stroke-width: 1;"></line><line class="link" x1="762.7174815744634" y1="137.73834710862417" x2="728.3601390055611" y2="175.99083940839128" style="stroke: rgb(51, 51, 51); stroke-opacity: 0.5; stroke-width: 1;"></line><line class="link" x1="728.3601390055611" y1="175.99083940839128" x2="684.9471593418115" y2="224.68939009120143" style="stroke: rgb(51, 51, 51); stroke-opacity: 0.5; stroke-width: 4.75069;"></line><line class="link" x1="672.3660982448351" y1="524.8835324870056" x2="700.8038813001745" y2="467.6785149494793" style="stroke: rgb(51, 51, 51); stroke-opacity: 0.5; stroke-width: 1;"></line><line class="link" x1="633.023350477896" y1="385.8781979169591" x2="661.4064192401378" y2="418.2659309423882" style="stroke: rgb(51, 51, 51); stroke-opacity: 0.5; stroke-width: 1;"></line><line class="link" x1="661.4064192401378" y1="418.2659309423882" x2="700.8038813001745" y2="467.6785149494793" style="stroke: rgb(51, 51, 51); stroke-opacity: 0.5; stroke-width: 3.70446;"></line><line class="link" x1="452.2214719338305" y1="525.987426396459" x2="480.9272260149704" y2="482.9375512186623" style="stroke: rgb(51, 51, 51); stroke-opacity: 0.5; stroke-width: 1;"></line><line class="link" x1="551.7168685144285" y1="420.34970089510284" x2="515.5692615889241" y2="455.75733484437853" style="stroke: rgb(51, 51, 51); stroke-opacity: 0.5; stroke-width: 1;"></line><line class="link" x1="480.9272260149704" y1="482.9375512186623" x2="515.5692615889241" y2="455.75733484437853" style="stroke: rgb(51, 51, 51); stroke-opacity: 0.5; stroke-width: 2.65823;"></line><line class="link" x1="541.233704845037" y1="117.8278834935667" x2="548.7430342384262" y2="167.46466910956295" style="stroke: rgb(51, 51, 51); stroke-opacity: 0.5; stroke-width: 1;"></line><line class="link" x1="578.2117566823465" y1="299.3231990082372" x2="560.2633744214738" y2="227.4788019280679" style="stroke: rgb(51, 51, 51); stroke-opacity: 0.5; stroke-width: 1;"></line><line class="link" x1="548.7430342384262" y1="167.46466910956295" x2="560.2633744214738" y2="227.4788019280679" style="stroke: rgb(51, 51, 51); stroke-opacity: 0.5; stroke-width: 6.13373;"></line><line class="link" x1="524.7195688496363" y1="578.6636112067577" x2="534.6830241294998" y2="526.7581044411569" style="stroke: rgb(51, 51, 51); stroke-opacity: 0.5; stroke-width: 1;"></line><line class="link" x1="551.7168685144285" y1="420.34970089510284" x2="546.0614804760496" y2="478.4392867350595" style="stroke: rgb(51, 51, 51); stroke-opacity: 0.5; stroke-width: 1;"></line><line class="link" x1="546.0614804760496" y1="478.4392867350595" x2="534.6830241294998" y2="526.7581044411569" style="stroke: rgb(51, 51, 51); stroke-opacity: 0.5; stroke-width: 5.73268;"></line><line class="link" x1="614.9749531998962" y1="584.6184818062196" x2="606.9159443700755" y2="532.4295902043195" style="stroke: rgb(51, 51, 51); stroke-opacity: 0.5; stroke-width: 1;"></line><line class="link" x1="551.7168685144285" y1="420.34970089510284" x2="592.1689959260472" y2="469.0048885696061" style="stroke: rgb(51, 51, 51); stroke-opacity: 0.5; stroke-width: 1;"></line><line class="link" x1="606.9159443700755" y1="532.4295902043195" x2="592.1689959260472" y2="469.0048885696061" style="stroke: rgb(51, 51, 51); stroke-opacity: 0.5; stroke-width: 4.4755;"></line><line class="link" x1="701.3687443757457" y1="358.31612642492746" x2="760.3036414962705" y2="353.83771170603694" style="stroke: rgb(51, 51, 51); stroke-opacity: 0.5; stroke-width: 1;"></line><line class="link" x1="848.6199920965544" y1="352.163811614656" x2="794.5639594117948" y2="355.40087309619963" style="stroke: rgb(51, 51, 51); stroke-opacity: 0.5; stroke-width: 1;"></line><line class="link" x1="794.5639594117948" y1="355.40087309619963" x2="760.3036414962705" y2="353.83771170603694" style="stroke: rgb(51, 51, 51); stroke-opacity: 0.5; stroke-width: 2.04623;"></line><line class="link" x1="578.2117566823465" y1="299.3231990082372" x2="601.8869768551018" y2="225.7802674900192" style="stroke: rgb(51, 51, 51); stroke-opacity: 0.5; stroke-width: 1;"></line><line class="link" x1="637.9901135208491" y1="116.5415962253604" x2="621.6863378785956" y2="165.28627642945847" style="stroke: rgb(51, 51, 51); stroke-opacity: 0.5; stroke-width: 1;"></line><line class="link" x1="601.8869768551018" y1="225.7802674900192" x2="621.6863378785956" y2="165.28627642945847" style="stroke: rgb(51, 51, 51); stroke-opacity: 0.5; stroke-width: 2.04623;"></line></g><g><circle class="node leaf fixed" r="22.322195449570685" cx="633.023350477896" cy="385.8781979169591" style="fill: rgb(31, 119, 180);"></circle><circle class="node leaf" r="19.204197289002522" cx="452.2214719338305" cy="525.987426396459" style="fill: rgb(174, 199, 232);"></circle><circle class="node leaf fixed" r="18.672799136798446" cx="695.6255802713089" cy="321.48703745393374" style="fill: rgb(255, 127, 14);"></circle><circle class="node leaf" r="17.693069409558607" cx="872.6443530667797" cy="241.11308924803834" style="fill: rgb(255, 187, 120);"></circle><circle class="node leaf" r="14.784779307448334" cx="824.4696165679545" cy="260.5138707795368" style="fill: rgb(255, 187, 120);"></circle><circle class="node leaf fixed" r="14.784779307448334" cx="763.231898687133" cy="288.31022686964116" style="fill: rgb(255, 127, 14);"></circle><circle class="node leaf fixed" r="19.285655345439185" cx="672.3660982448351" cy="524.8835324870056" style="fill: rgb(44, 160, 44);"></circle><circle class="node leaf fixed" r="18.766953286646416" cx="773.9656327319132" cy="488.41368640687574" style="fill: rgb(152, 223, 138);"></circle><circle class="node leaf" r="15.964347958396168" cx="780.268508652407" cy="552.9499125211348" style="fill: rgb(152, 223, 138);"></circle><circle class="node leaf" r="15.964347958396168" cx="729.856454438802" cy="560.7909800322619" style="fill: rgb(44, 160, 44);"></circle><circle class="node leaf" r="17.007118073946316" cx="406.32804808020467" cy="176.00674178188058" style="fill: rgb(214, 39, 40);"></circle><circle class="node leaf" r="14.494646026572202" cx="332.5870290883133" cy="266.8215003380474" style="fill: rgb(255, 152, 150);"></circle><circle class="node leaf fixed" r="17.007118073946316" cx="502.3163315082105" cy="330.55989667685526" style="fill: rgb(148, 103, 189);"></circle><circle class="node leaf" r="11.982173979198084" cx="433.7826554105276" cy="305.4087764012705" style="fill: rgb(148, 103, 189);"></circle><circle class="node leaf" r="11.982173979198084" cx="377.89992503603446" cy="284.2875784310953" style="fill: rgb(255, 152, 150);"></circle><circle class="node leaf" r="14.494646026572202" cx="432.31526782340865" cy="217.78972281245927" style="fill: rgb(214, 39, 40);"></circle><circle class="node leaf" r="14.494646026572202" cx="464.3043686428786" cy="268.40313454991485" style="fill: rgb(148, 103, 189);"></circle><circle class="node leaf" r="14.494646026572202" cx="826.2686598813581" cy="453.2046128019376" style="fill: rgb(197, 176, 213);"></circle><circle class="node leaf" r="11.982173979198084" cx="774.9838233524272" cy="435.3809937590031" style="fill: rgb(197, 176, 213);"></circle><circle class="node leaf" r="11.982173979198084" cx="710.8882112118201" cy="413.6676431317354" style="fill: rgb(31, 119, 180);"></circle><circle class="node leaf fixed" r="15.964347958396168" cx="519.1997473346369" cy="367.2419512039688" style="fill: rgb(140, 86, 75);"></circle><circle class="node leaf" r="14.494646026572202" cx="365.39489967358253" cy="398.83167966303404" style="fill: rgb(196, 156, 148);"></circle><circle class="node leaf" r="14.494646026572202" cx="383.9751911949808" cy="458.8340160980305" style="fill: rgb(227, 119, 194);"></circle><circle class="node leaf" r="11.982173979198084" cx="425.72297732965234" cy="429.10914545389204" style="fill: rgb(227, 119, 194);"></circle><circle class="node leaf fixed" r="14.494646026572202" cx="471.3691941770198" cy="394.72406617517294" style="fill: rgb(140, 86, 75);"></circle><circle class="node leaf" r="11.982173979198084" cx="415.3103101322278" cy="394.1438145592482" style="fill: rgb(196, 156, 148);"></circle><circle class="node leaf fixed" r="17.007118073946316" cx="654.8864649022973" cy="267.2550791321488" style="fill: rgb(247, 182, 210);"></circle><circle class="node leaf" r="17.007118073946316" cx="762.7174815744634" cy="137.73834710862417" style="fill: rgb(127, 127, 127);"></circle><circle class="node leaf fixed" r="14.494646026572202" cx="684.9471593418115" cy="224.68939009120143" style="fill: rgb(247, 182, 210);"></circle><circle class="node leaf" r="14.494646026572202" cx="728.3601390055611" cy="175.99083940839128" style="fill: rgb(127, 127, 127);"></circle><circle class="node leaf" r="19.594329490081634" cx="524.7195688496363" cy="578.6636112067577" style="fill: rgb(199, 199, 199);"></circle><circle class="node leaf fixed" r="11.982173979198084" cx="700.8038813001745" cy="467.6785149494793" style="fill: rgb(44, 160, 44);"></circle><circle class="node leaf" r="11.982173979198084" cx="661.4064192401378" cy="418.2659309423882" style="fill: rgb(31, 119, 180);"></circle><circle class="node leaf fixed" r="20.44727974705101" cx="551.7168685144285" cy="420.34970089510284" style="fill: rgb(188, 189, 34);"></circle><circle class="node leaf fixed" r="9.469701931823968" cx="480.9272260149704" cy="482.9375512186623" style="fill: rgb(174, 199, 232);"></circle><circle class="node leaf" r="9.469701931823968" cx="515.5692615889241" cy="455.75733484437853" style="fill: rgb(188, 189, 34);"></circle><circle class="node leaf fixed" r="17.297251354822453" cx="614.9749531998962" cy="584.6184818062196" style="fill: rgb(219, 219, 141);"></circle><circle class="node leaf fixed" r="20.44727974705101" cx="578.2117566823465" cy="299.3231990082372" style="fill: rgb(23, 190, 207);"></circle><circle class="node leaf" r="20.328425460989337" cx="541.233704845037" cy="117.8278834935667" style="fill: rgb(158, 218, 229);"></circle><circle class="node leaf" r="17.81595341361522" cx="548.7430342384262" cy="167.46466910956295" style="fill: rgb(158, 218, 229);"></circle><circle class="node leaf" r="17.81595341361522" cx="560.2633744214738" cy="227.4788019280679" style="fill: rgb(23, 190, 207);"></circle><circle class="node leaf fixed" r="16.85285092178411" cx="534.6830241294998" cy="526.7581044411569" style="fill: rgb(199, 199, 199);"></circle><circle class="node leaf" r="16.85285092178411" cx="546.0614804760496" cy="478.4392867350595" style="fill: rgb(188, 189, 34);"></circle><circle class="node leaf" r="13.833779434417135" cx="606.9159443700755" cy="532.4295902043195" style="fill: rgb(219, 219, 141);"></circle><circle class="node leaf fixed" r="13.833779434417135" cx="592.1689959260472" cy="469.0048885696061" style="fill: rgb(188, 189, 34);"></circle><circle class="node leaf fixed" r="10.512472047374118" cx="701.3687443757457" cy="358.31612642492746" style="fill: rgb(31, 119, 180);"></circle><circle class="node leaf fixed" r="10.512472047374118" cx="848.6199920965544" cy="352.163811614656" style="fill: rgb(174, 199, 232);"></circle><circle class="node leaf" r="8" cx="760.3036414962705" cy="353.83771170603694" style="fill: rgb(31, 119, 180);"></circle><circle class="node leaf fixed" r="8" cx="794.5639594117948" cy="355.40087309619963" style="fill: rgb(174, 199, 232);"></circle><circle class="node leaf" r="11.321307387043017" cx="637.9901135208491" cy="116.5415962253604" style="fill: rgb(255, 127, 14);"></circle><circle class="node leaf" r="8" cx="601.8869768551018" cy="225.7802674900192" style="fill: rgb(23, 190, 207);"></circle><circle class="node leaf" r="8" cx="621.6863378785956" cy="165.28627642945847" style="fill: rgb(255, 127, 14);"></circle><text class="node" font-size="18" text-anchor="middle" x="633.023350477896" y="385.8781979169591">context</text><text class="node" font-size="15.387552902865915" text-anchor="middle" x="452.2214719338305" y="525.987426396459">course</text><text class="node" font-size="14.942315449648499" text-anchor="middle" x="695.6255802713089" y="321.48703745393374">user_enrolments</text><text class="node" font-size="14.12143873641872" text-anchor="middle" x="872.6443530667797" y="241.11308924803834">user</text><text class="node" font-size="11.684697711049639" text-anchor="middle" x="824.4696165679545" y="260.5138707795368">id</text><text class="node" font-size="11.684697711049639" text-anchor="middle" x="763.231898687133" y="288.31022686964116">userid</text><text class="node" font-size="15.45580338029319" text-anchor="middle" x="672.3660982448351" y="524.8835324870056">filter_active</text><text class="node" font-size="15.021203480617906" text-anchor="middle" x="773.9656327319132" y="488.41368640687574">filter_config</text><text class="node" font-size="12.673011539136539" text-anchor="middle" x="780.268508652407" y="552.9499125211348">filter</text><text class="node" font-size="12.673011539136539" text-anchor="middle" x="729.856454438802" y="560.7909800322619">filter</text><text class="node" font-size="13.546707295535178" text-anchor="middle" x="406.32804808020467" y="176.00674178188058">block_positions</text><text class="node" font-size="11.441606532551724" text-anchor="middle" x="332.5870290883133" y="266.8215003380474">block</text><text class="node" font-size="13.546707295535178" text-anchor="middle" x="502.3163315082105" y="330.55989667685526">block_instances</text><text class="node" font-size="9.33650576956827" text-anchor="middle" x="433.7826554105276" y="305.4087764012705">blockname</text><text class="node" font-size="9.33650576956827" text-anchor="middle" x="377.89992503603446" y="284.2875784310953">name</text><text class="node" font-size="11.441606532551724" text-anchor="middle" x="432.31526782340865" y="217.78972281245927">blockinstanceid</text><text class="node" font-size="11.441606532551724" text-anchor="middle" x="464.3043686428786" y="268.40313454991485">id</text><text class="node" font-size="11.441606532551724" text-anchor="middle" x="826.2686598813581" y="453.2046128019376">course_categories</text><text class="node" font-size="9.33650576956827" text-anchor="middle" x="774.9838233524272" y="435.3809937590031">id</text><text class="node" font-size="9.33650576956827" text-anchor="middle" x="710.8882112118201" y="413.6676431317354">instanceid</text><text class="node" font-size="12.673011539136539" text-anchor="middle" x="519.1997473346369" y="367.2419512039688">message_conversations</text><text class="node" font-size="11.441606532551724" text-anchor="middle" x="365.39489967358253" y="398.83167966303404">message_conversation_members</text><text class="node" font-size="11.441606532551724" text-anchor="middle" x="383.9751911949808" y="458.8340160980305">messages</text><text class="node" font-size="9.33650576956827" text-anchor="middle" x="425.72297732965234" y="429.10914545389204">conversationid</text><text class="node" font-size="11.441606532551724" text-anchor="middle" x="471.3691941770198" y="394.72406617517294">id</text><text class="node" font-size="9.33650576956827" text-anchor="middle" x="415.3103101322278" y="394.1438145592482">conversationid</text><text class="node" font-size="13.546707295535178" text-anchor="middle" x="654.8864649022973" y="267.2550791321488">message_users_blocked</text><text class="node" font-size="13.546707295535178" text-anchor="middle" x="762.7174815744634" y="137.73834710862417">message_contact_requests</text><text class="node" font-size="11.441606532551724" text-anchor="middle" x="684.9471593418115" y="224.68939009120143">userid</text><text class="node" font-size="11.441606532551724" text-anchor="middle" x="728.3601390055611" y="175.99083940839128">requesteduserid</text><text class="node" font-size="15.714429213794181" text-anchor="middle" x="524.7195688496363" y="578.6636112067577">modules</text><text class="node" font-size="9.33650576956827" text-anchor="middle" x="700.8038813001745" y="467.6785149494793">contextid</text><text class="node" font-size="9.33650576956827" text-anchor="middle" x="661.4064192401378" y="418.2659309423882">id</text><text class="node" font-size="16.429082432965227" text-anchor="middle" x="551.7168685144285" y="420.34970089510284">course_modules</text><text class="node" font-size="7.231405006584816" text-anchor="middle" x="480.9272260149704" y="482.9375512186623">id</text><text class="node" font-size="7.231405006584816" text-anchor="middle" x="515.5692615889241" y="455.75733484437853">course</text><text class="node" font-size="13.789798474033091" text-anchor="middle" x="614.9749531998962" y="584.6184818062196">assign</text><text class="node" font-size="16.429082432965227" text-anchor="middle" x="578.2117566823465" y="299.3231990082372">files_reference</text><text class="node" font-size="16.329499136691826" text-anchor="middle" x="541.233704845037" y="117.8278834935667">files</text><text class="node" font-size="14.224398373708375" text-anchor="middle" x="548.7430342384262" y="167.46466910956295">referencefileid</text><text class="node" font-size="14.224398373708375" text-anchor="middle" x="560.2633744214738" y="227.4788019280679">id</text><text class="node" font-size="13.417452962115089" text-anchor="middle" x="534.6830241294998" y="526.7581044411569">id</text><text class="node" font-size="13.417452962115089" text-anchor="middle" x="546.0614804760496" y="478.4392867350595">module</text><text class="node" font-size="10.887892604140106" text-anchor="middle" x="606.9159443700755" y="532.4295902043195">id</text><text class="node" font-size="10.887892604140106" text-anchor="middle" x="592.1689959260472" y="469.0048885696061">instance</text><text class="node" font-size="8.105100762983454" text-anchor="middle" x="701.3687443757457" y="358.31612642492746">groups_members</text><text class="node" font-size="8.105100762983454" text-anchor="middle" x="848.6199920965544" y="352.163811614656">groups</text><text class="node" font-size="6" text-anchor="middle" x="760.3036414962705" y="353.83771170603694">groupid</text><text class="node" font-size="6" text-anchor="middle" x="794.5639594117948" y="355.40087309619963">id</text><text class="node" font-size="8.782791841156651" text-anchor="middle" x="637.9901135208491" y="116.5415962253604">repository_instances</text><text class="node" font-size="6" text-anchor="middle" x="601.8869768551018" y="225.7802674900192">repositoryid</text><text class="node" font-size="6" text-anchor="middle" x="621.6863378785956" y="165.28627642945847">id</text></g></g></svg>