<svg width="1280" height="720" xmlns="http://www.w3.org/2000/svg" xmlns:xlink="http://www.w3.org/1999/xlink" overflow="hidden"><defs><clipPath id="clip0"><path d="M0 0 1280 0 1280 720 0 720Z" fill-rule="evenodd" clip-rule="evenodd"/></clipPath><clipPath id="clip1"><path d="M0 39 1280 39 1280 681 0 681Z" fill-rule="evenodd" clip-rule="evenodd"/></clipPath><clipPath id="clip2"><path d="M0 39 1280 39 1280 681 0 681Z" fill-rule="evenodd" clip-rule="evenodd"/></clipPath><clipPath id="clip3"><path d="M0 39 1280 39 1280 681 0 681Z" fill-rule="evenodd" clip-rule="evenodd"/></clipPath></defs><g clip-path="url(#clip0)"><rect x="0" y="0" width="1280" height="720" fill="#FFFFFF"/><g clip-path="url(#clip1)"><g clip-path="url(#clip2)"><g clip-path="url(#clip3)"><path d="M737.599 374.179C741.42 367.665 744.55 363.248 737.599 362.264 730.648 361.279 652.762 361.144 644.918 361.053 637.073 360.962 633.896 360.159 633.003 361.053 632.109 361.946 629.872 366.363 633.003 372.968 636.133 379.572 670.715 443.401 674.738 449.111 678.762 454.822 681.939 454.731 686.653 449.111 691.368 443.492 733.778 380.693 737.599 374.179" fill="#1F77B4" fill-opacity="0.3" transform="matrix(1.00017 0 -0 1 -128.403 -26.1006)"/><path d="M585.099 419.191C587.513 414.342 585.992 408.169 585.099 407.276 584.205 406.382 576.492 403.32 573.184 407.276 569.876 411.231 543.405 455.167 540.99 460.016 538.576 464.865 540.097 471.038 540.99 471.931 541.884 472.825 549.597 475.887 552.905 471.931 556.214 467.976 582.684 424.04 585.099 419.191" fill="#AEC7E8" fill-opacity="0.3" transform="matrix(1.00017 0 -0 1 -128.403 -26.1006)"/><path d="M540.031 370.47C543.501 366.838 540.925 359.449 540.031 358.555 539.138 357.661 532.479 355.817 528.116 358.555 523.753 361.293 485.326 391.43 481.856 395.061 478.387 398.693 480.963 406.083 481.856 406.976 482.75 407.87 489.408 409.714 493.771 406.976 498.135 404.238 536.562 374.102 540.031 370.47" fill="#FF7F0E" fill-opacity="0.3" transform="matrix(1.00017 0 -0 1 -128.403 -26.1006)"/><path d="M957.811 404.06C958.704 403.167 962.625 393.235 957.811 392.145 952.996 391.055 899.33 389.722 893.622 389.526 887.914 389.329 882.601 388.632 881.707 389.526 880.813 390.42 876.893 400.351 881.707 401.441 886.521 402.531 940.188 403.864 945.896 404.06 951.603 404.257 956.917 404.954 957.811 404.06" fill="#FFBB78" fill-opacity="0.3" transform="matrix(1.00017 0 -0 1 -128.403 -26.1006)"/><path d="M925.843 459.709C930.536 455.732 932.693 450.953 925.843 447.794 918.992 444.636 842.246 419.862 834.502 417.597 826.758 415.333 823.48 416.704 822.587 417.597 821.693 418.491 820.429 423.27 822.587 429.512 824.744 435.755 848.298 495.48 851.349 500.829 854.4 506.178 857.677 503.913 863.264 500.829 868.851 497.745 921.149 463.687 925.843 459.709" fill="#2CA02C" fill-opacity="0.3" transform="matrix(1.00017 0 -0 1 -128.403 -26.1006)"/><path d="M970.734 506.32C976.004 502.213 971.628 495.299 970.734 494.405 969.84 493.512 964.982 491.191 958.819 494.405 952.656 497.619 893.827 533.151 888.557 537.259 883.288 541.366 887.664 548.28 888.557 549.174 889.451 550.067 894.309 552.388 900.472 549.174 906.636 545.96 965.464 510.428 970.734 506.32" fill="#98DF8A" fill-opacity="0.3" transform="matrix(1.00017 0 -0 1 -128.403 -26.1006)"/><path d="M-491.096-4.20056C-487.011-7.71058-490.203-15.222-491.096-16.1156-491.99-17.0092-498.033-18.732-503.011-16.1156-507.99-13.4992-553.394 15.2597-557.479 18.7697-561.564 22.2797-558.373 29.7911-557.479 30.6847-556.586 31.5783-550.543 33.3011-545.564 30.6847-540.586 28.0683-495.181-0.690533-491.096-4.20056" fill="#D62728" fill-opacity="0.3" transform="matrix(1.00017 0 -0 1 -128.403 -26.1006)"/><path d="M-562.313-74.9092C-559.118-79.2639-561.419-85.9306-562.313-86.8242-563.206-87.7178-570.139-90.2853-574.228-86.8242-578.316-83.3631-613.632-45.0314-616.827-40.6767-620.022-36.322-617.72-29.6553-616.827-28.7617-615.933-27.8681-609-25.3006-604.912-28.7617-600.823-32.2227-565.508-70.5545-562.313-74.9092" fill="#FF9896" fill-opacity="0.3" transform="matrix(1.00017 0 -0 1 -128.403 -26.1006)"/><path d="M-609.69 66.2688C-604.069 63.2191-606.916 58.1038-609.69 54.3538-612.465 50.6038-643.02 19.1254-646.688 16.2691-650.357 13.4127-654.863 11.2566-658.603 16.2691-662.344 21.2816-693.71 77.1966-696.556 83.1027-699.403 89.0089-697.45 94.1241-696.556 95.0178-695.663 95.9114-691.156 97.1739-684.641 95.0178-678.126 92.8616-615.312 69.3186-609.69 66.2688" fill="#9467BD" fill-opacity="0.3" transform="matrix(1.00017 0 -0 1 -128.403 -26.1006)"/><path d="M622.746 441.365C624.64 435.011 623.64 430.344 622.746 429.45 621.853 428.557 613.619 423.99 610.831 429.45 608.044 434.911 587.477 495.903 585.583 502.257 583.689 508.612 584.689 513.279 585.583 514.172 586.477 515.066 594.711 519.633 597.498 514.172 600.285 508.712 620.853 447.719 622.746 441.365" fill="#C5B0D5" fill-opacity="0.3" transform="matrix(1.00017 0 -0 1 -128.403 -26.1006)"/><path d="M-33.3145 692.577C-28.6928 691.553-29.0054 686.259-33.3145 680.662-37.6235 675.065-85.5655 622.654-90.7682 617.95-95.9708 613.247-101.477 613.117-102.683 617.95-103.889 622.783-106.539 676.666-106.852 682.392-107.164 688.119-107.745 693.414-106.852 694.307-105.958 695.201-100.452 694.437-94.9368 694.307-89.4215 694.178-37.9361 693.6-33.3145 692.577" fill="#8C564B" fill-opacity="0.3" transform="matrix(1.00017 0 -0 1 -128.403 -26.1006)"/><path d="M27.0165 549.321C35.7181 548.236 31.8647 544.504 27.0165 537.406 22.1683 530.308-31.8842 460.89-37.6261 454.686-43.3679 448.482-44.794 448.291-49.5411 454.686-54.2882 461.081-97.0667 532.665-100.92 539.953-104.774 547.242-101.814 550.975-100.92 551.868-100.027 552.762-98.6004 552.06-89.0051 551.868-79.4099 551.677 18.3149 550.406 27.0165 549.321" fill="#C49C94" fill-opacity="0.3" transform="matrix(1.00017 0 -0 1 -128.403 -26.1006)"/><path d="M36.9548 272.097C37.8484 271.203 38.4926 264.279 36.9548 260.182 35.417 256.084 18.882 220.668 16.4506 217.464 14.0191 214.261 5.42917 216.571 4.53555 217.464 3.64192 218.358 2.99773 225.282 4.53555 229.379 6.07336 233.477 22.6083 268.893 25.0397 272.097 27.4712 275.3 36.0611 272.99 36.9548 272.097" fill="#E377C2" fill-opacity="0.3" transform="matrix(1.00017 0 -0 1 -128.403 -26.1006)"/><path d="M960.858 172.354C960.865 166.245 961.751 161.332 960.858 160.439 959.964 159.545 949.843 155.223 948.943 160.439 948.042 165.654 948.858 223.868 948.851 229.977 948.844 236.086 947.958 240.998 948.851 241.892 949.745 242.786 959.866 247.107 960.766 241.892 961.667 236.677 960.851 178.463 960.858 172.354" fill="#F7B6D2" fill-opacity="0.3" transform="matrix(1.00017 0 -0 1 -128.403 -26.1006)"/><path d="M596.198 331.535C603.472 330.567 597.092 320.514 596.198 319.62 595.305 318.727 592.451 319.546 584.283 319.62 576.115 319.695 494.568 319.648 487.294 320.616 480.02 321.585 486.4 331.638 487.294 332.531 488.187 333.425 491.041 332.606 499.209 332.531 507.377 332.457 588.924 332.504 596.198 331.535" fill="#7F7F7F" fill-opacity="0.3" transform="matrix(1.00017 0 -0 1 -128.403 -26.1006)"/><path d="M810.72 241.95C816.19 237.532 817.732 230.939 810.72 230.035 803.707 229.131 725.125 229.902 717.219 229.891 709.313 229.88 710.329 226.349 705.304 229.891 700.279 233.433 654.353 272.683 650.222 277.119 646.091 281.555 649.329 288.141 650.222 289.034 651.116 289.928 655.571 289.041 662.137 289.034 668.704 289.027 726.634 292.469 737.778 288.937 748.921 285.406 805.249 246.368 810.72 241.95" fill="#C7C7C7" fill-opacity="0.3" transform="matrix(1.00017 0 -0 1 -128.403 -26.1006)"/><path d="M65.5552 202.574C66.4488 201.681 66.2851 193.538 65.5552 190.659 64.8254 187.781 59.8455 171.301 55.8239 164.194 51.8023 157.088 16.1187 101.025 11.9333 95.9028 7.74789 90.781 0.911914 95.0092 0.0182871 95.9028-0.87534 96.7965-4.00336 99.8175 0.0182871 107.818 4.03993 115.818 48.7249 195.467 53.6402 202.574 58.5555 209.681 64.6616 203.468 65.5552 202.574" fill="#BCBD22" fill-opacity="0.3" transform="matrix(1.00017 0 -0 1 -128.403 -26.1006)"/><path d="M-62.0024 318.861C-61.6312 312.231-61.1088 307.839-62.0024 306.946-62.8961 306.052-72.6526 301.21-73.9175 306.946-75.1823 312.681-78.496 376.792-78.8673 383.421-79.2385 390.05-79.7609 394.442-78.8673 395.336-77.9736 396.229-68.2171 401.071-66.9522 395.336-65.6874 389.6-62.3737 325.49-62.0024 318.861" fill="#DBDB8D" fill-opacity="0.3" transform="matrix(1.00017 0 -0 1 -128.403 -26.1006)"/><path d="M-61.371 119.424C-61.0831 108.8-60.4774 108.402-61.371 107.509-62.2646 106.615-72.1045 97.779-73.286 107.509-74.4676 117.238-76.8372 226.615-77.1251 237.238-77.413 247.862-78.0187 248.26-77.1251 249.154-76.2315 250.047-66.3916 258.883-65.2101 249.154-64.0285 239.424-61.6589 130.047-61.371 119.424" fill="#17BECF" fill-opacity="0.3" transform="matrix(1.00017 0 -0 1 -128.403 -26.1006)"/><path d="M-307.2 701.16C-306.307 700.267-307.05 695.748-307.2 689.245-307.351 682.742-308.166 620.064-309.211 614.455-310.255 608.845-320.232 613.561-321.126 614.455-322.02 615.348-321.277 619.867-321.126 626.37-320.975 632.872-320.16 695.551-319.115 701.16-318.071 706.77-308.094 702.054-307.2 701.16" fill="#9EDAE5" fill-opacity="0.3" transform="matrix(1.00017 0 -0 1 -128.403 -26.1006)"/><path d="M-295.145 563.485C-294.251 562.592-293.889 559.204-295.145 551.57-296.402 543.936-309.747 468.438-311.897 461.698-314.047 454.957-322.919 460.804-323.812 461.698-324.706 462.592-325.069 465.979-323.812 473.613-322.556 481.247-309.21 556.745-307.06 563.485-304.91 570.226-296.039 564.379-295.145 563.485" fill="#1F77B4" fill-opacity="0.3" transform="matrix(1.00017 0 -0 1 -128.403 -26.1006)"/><path d="M539.851 435.24C543.043 433.007 540.745 424.219 539.851 423.325 538.957 422.431 532.022 421.985 527.936 423.325 523.85 424.665 488.565 438.955 485.372 441.189 482.18 443.422 484.479 452.21 485.372 453.104 486.266 453.997 493.201 454.443 497.287 453.104 501.373 451.764 536.659 437.473 539.851 435.24" fill="#AEC7E8" fill-opacity="0.3" transform="matrix(1.00017 0 -0 1 -128.403 -26.1006)"/><path d="M-574.75-387.361C-565.944-389.769-573.857-398.382-574.75-399.276-575.644-400.169-576.965-400.79-586.665-399.276-596.365-397.761-695.277-381.491-704.083-379.083-712.889-376.674-704.977-368.061-704.083-367.168-703.189-366.274-701.868-365.653-692.168-367.168-682.468-368.682-583.557-384.953-574.75-387.361" fill="#FF7F0E" fill-opacity="0.3" transform="matrix(1.00017 0 -0 1 -128.403 -26.1006)"/><path d="M-432.934-413.685C-428.097-415.489-432.04-424.706-432.934-425.6-433.827-426.493-439.118-426.51-444.849-425.6-450.579-424.69-504.503-415.267-509.34-413.463-514.177-411.659-510.233-402.442-509.34-401.548-508.446-400.655-503.155-400.638-497.425-401.548-491.694-402.458-437.77-411.881-432.934-413.685" fill="#FFBB78" fill-opacity="0.3" transform="matrix(1.00017 0 -0 1 -128.403 -26.1006)"/><path d="M-637.608 477.138C-633.659 473.957-633.635 469.369-637.608 465.223-641.582 461.078-685.726 425.114-690.593 421.862-695.461 418.61-701.615 420.968-702.508 421.862-703.402 422.756-702.533 427.344-702.508 433.777-702.484 440.21-703.101 502.097-702.183 507.636-701.265 513.176-695.111 509.924-690.268 507.636-685.425 505.349-641.558 480.319-637.608 477.138" fill="#2CA02C" fill-opacity="0.3" transform="matrix(1.00017 0 -0 1 -128.403 -26.1006)"/><path d="M-667.783 635.279C-666.889 634.385-666.718 628.744-667.783 623.364-668.847 617.984-680.015 568.037-681.973 563.551-683.931 559.065-692.994 562.658-693.888 563.551-694.781 564.445-694.952 570.087-693.888 575.466-692.824 580.846-681.656 630.793-679.698 635.279-677.74 639.765-668.676 636.173-667.783 635.279" fill="#98DF8A" fill-opacity="0.3" transform="matrix(1.00017 0 -0 1 -128.403 -26.1006)"/><path d="M-571.411 582.116C-570.517 581.222-569.423 575.131-571.411 570.201-573.398 565.27-595.027 520.411-597.908 516.374-600.789 512.337-608.93 515.48-609.823 516.374-610.717 517.267-611.81 523.358-609.823 528.289-607.836 533.219-586.206 578.079-583.326 582.116-580.445 586.153-572.304 583.009-571.411 582.116" fill="#D62728" fill-opacity="0.3" transform="matrix(1.00017 0 -0 1 -128.403 -26.1006)"/><path d="M-289.027 257.031C-288.133 256.137-284.061 246.884-289.027 245.116-293.993 243.348-349.378 234.334-355.237 233.46-361.096 232.586-366.258 232.566-367.152 233.46-368.046 234.353-372.118 243.607-367.152 245.375-362.186 247.143-306.801 256.157-300.942 257.031-295.083 257.905-289.921 257.924-289.027 257.031" fill="#FF9896" fill-opacity="0.3" transform="matrix(1.00017 0 -0 1 -128.403 -26.1006)"/><path d="M-283.905 98.7395C-283.7 92.0427-283.011 87.7181-283.905 86.8245-284.798 85.9309-294.721 81.0213-295.82 86.8245-296.918 92.6277-298.347 157.503-298.552 164.2-298.757 170.897-299.445 175.222-298.552 176.115-297.658 177.009-287.735 181.918-286.637 176.115-285.538 170.312-284.11 105.436-283.905 98.7395" fill="#9467BD" fill-opacity="0.3" transform="matrix(1.00017 0 -0 1 -128.403 -26.1006)"/><path d="M-290.755 324.294C-290.571 318.027-289.861 313.272-290.755 312.379-291.648 311.485-301.593 307.006-302.67 312.379-303.746 317.752-304.929 377.754-305.113 384.02-305.296 390.287-306.006 395.042-305.113 395.935-304.219 396.829-294.274 401.309-293.198 395.935-292.121 390.562-290.938 330.561-290.755 324.294" fill="#C5B0D5" fill-opacity="0.3" transform="matrix(1.00017 0 -0 1 -128.403 -26.1006)"/><path d="M-476.805 704.451C-475.912 703.558-476.657 699.043-476.805 692.536-476.953 686.03-477.738 623.309-478.78 617.696-479.822 612.083-489.801 616.802-490.695 617.696-491.589 618.589-490.843 623.104-490.695 629.611-490.547 636.117-489.762 698.838-488.72 704.451-487.679 710.064-477.699 705.345-476.805 704.451" fill="#8C564B" fill-opacity="0.3" transform="matrix(1.00017 0 -0 1 -128.403 -26.1006)"/><path d="M-479.56 558.348C-478.667 557.455-479.487 553.975-479.56 546.433-479.633 538.892-479.566 464.441-480.533 457.793-481.499 451.145-491.554 456.9-492.448 457.793-493.341 458.687-492.521 462.167-492.448 469.708-492.375 477.25-492.442 551.7-491.475 558.348-490.509 564.996-480.454 559.242-479.56 558.348" fill="#C49C94" fill-opacity="0.3" transform="matrix(1.00017 0 -0 1 -128.403 -26.1006)"/><path d="M960.617 288.433C960.645 282.885 961.511 277.412 960.617 276.518 959.724 275.625 957.469 276.501 948.702 276.518 939.935 276.535 851.596 275.835 843.722 276.746 835.849 277.657 843.673 283.275 843.722 288.661 843.771 294.048 836.526 343.929 844.372 348.567 852.217 353.205 939.64 350.354 948.33 350.499 957.021 350.644 959.324 355.154 960.245 350.499 961.167 345.844 960.589 293.982 960.617 288.433" fill="#E377C2" fill-opacity="0.3" transform="matrix(1.00017 0 -0 1 -128.403 -26.1006)"/><path d="M-183.748 695.886C-182.854 694.992-183.554 690.064-183.748 683.971-183.943 677.877-185.253 619.842-186.341 614.643-187.429 609.443-197.363 613.749-198.256 614.643-199.15 615.536-198.451 620.465-198.256 626.558-198.062 632.651-196.751 690.686-195.663 695.886-194.575 701.085-184.642 696.779-183.748 695.886" fill="#F7B6D2" fill-opacity="0.3" transform="matrix(1.00017 0 -0 1 -128.403 -26.1006)"/><path d="M-184.893 472.678C-184.885 465.199-184 461.657-184.893 460.763-185.787 459.87-195.907 454.177-196.808 460.763-197.71 467.349-196.908 541.097-196.916 548.577-196.924 556.056-197.809 559.598-196.916 560.492-196.022 561.385-185.902 567.078-185.001 560.492-184.099 553.906-184.901 480.158-184.893 472.678" fill="#7F7F7F" fill-opacity="0.3" transform="matrix(1.00017 0 -0 1 -128.403 -26.1006)"/><path d="M94.6275 691.058C99.7734 689.959 99.9707 685.112 94.6275 679.143 89.2842 673.174 29.6211 616.546 23.3842 611.47 17.1473 606.395 12.3628 610.577 11.4692 611.47 10.5756 612.364 11.2719 617.211 11.4692 623.385 11.6665 629.56 13.0089 688.521 14.0998 693.802 15.1907 699.084 19.9753 694.008 26.0148 693.802 32.0544 693.596 89.4815 692.158 94.6275 691.058" fill="#C7C7C7" fill-opacity="0.3" transform="matrix(1.00017 0 -0 1 -128.403 -26.1006)"/><path d="M756.91 479.963C757.803 479.069 757.477 472.121 756.91 468.047 756.343 463.974 750.81 428.835 749.349 425.655 747.888 422.476 738.328 424.762 737.434 425.655 736.54 426.549 736.867 433.497 737.434 437.57 738.001 441.643 743.534 476.783 744.995 479.963 746.455 483.142 756.016 480.856 756.91 479.963" fill="#BCBD22" fill-opacity="0.3" transform="matrix(1.00017 0 -0 1 -128.403 -26.1006)"/><path d="M-109.026 231.505C-105.04 228.366-108.132 220.484-109.026 219.59-109.919 218.697-116.061 217.345-120.941 219.59-125.821 221.836-170.103 246.391-174.089 249.53-178.076 252.669-174.983 260.551-174.089 261.445-173.196 262.338-167.054 263.69-162.174 261.445-157.295 259.199-113.012 234.644-109.026 231.505" fill="#DBDB8D" fill-opacity="0.3" transform="matrix(1.00017 0 -0 1 -128.403 -26.1006)"/><path d="M-165.917 314.134C-165.903 306.901-165.023 303.113-165.917 302.219-166.811 301.326-176.924 295.88-177.832 302.219-178.74 308.559-178.006 379.51-178.021 386.743-178.035 393.975-178.914 397.764-178.021 398.658-177.127 399.551-167.013 404.997-166.106 398.658-165.198 392.318-165.931 321.367-165.917 314.134" fill="#17BECF" fill-opacity="0.3" transform="matrix(1.00017 0 -0 1 -128.403 -26.1006)"/><path d="M-140.84 184.479C-139.947 183.585-139.675 179.297-140.84 172.564-142.006 165.83-154.323 100.539-156.382 94.6986-158.441 88.8587-167.404 93.805-168.297 94.6986-169.191 95.5922-169.463 99.8801-168.297 106.614-167.132 113.347-154.815 178.639-152.755 184.479-150.696 190.319-141.734 185.372-140.84 184.479" fill="#9EDAE5" fill-opacity="0.3" transform="matrix(1.00017 0 -0 1 -128.403 -26.1006)"/><path d="M-481.042 106.587C-481.03 99.0305-480.149 95.5651-481.042 94.6715-481.936 93.7779-492.051 88.0091-492.957 94.6715-493.863 101.334-493.11 175.947-493.122 183.503-493.135 191.06-494.016 194.525-493.122 195.419-492.229 196.312-482.113 202.081-481.207 195.419-480.301 188.756-481.055 114.143-481.042 106.587" fill="#1F77B4" fill-opacity="0.3" transform="matrix(1.00017 0 -0 1 -128.403 -26.1006)"/><path d="M-476.574 285.79C-476.208 276.228-475.681 274.768-476.574 273.875-477.468 272.981-487.23 265.206-488.489 273.875-489.749 282.543-493.005 379.894-493.371 389.456-493.737 399.018-494.264 400.477-493.371 401.371-492.477 402.265-482.715 410.04-481.456 401.371-480.196 392.702-476.94 295.352-476.574 285.79" fill="#AEC7E8" fill-opacity="0.3" transform="matrix(1.00017 0 -0 1 -128.403 -26.1006)"/><path d="M95.7674 626.001C96.661 625.107 96.068 620.374 95.7674 614.086 95.4668 607.797 92.9532 547.553 91.7589 542.158 90.5646 536.763 80.7375 541.264 79.8439 542.158 78.9502 543.052 79.5432 547.785 79.8439 554.073 80.1445 560.361 82.6581 620.606 83.8524 626.001 85.0466 631.395 94.8738 626.894 95.7674 626.001" fill="#FF7F0E" fill-opacity="0.3" transform="matrix(1.00017 0 -0 1 -128.403 -26.1006)"/><path d="M542.838 300.281C543.732 299.387 546.313 291.438 542.838 288.366 539.363 285.293 500.872 261.493 496.503 259.314 492.134 257.135 485.481 258.421 484.588 259.314 483.694 260.208 481.113 268.157 484.588 271.229 488.063 274.302 526.555 298.102 530.923 300.281 535.292 302.46 541.945 301.174 542.838 300.281" fill="#FFBB78" fill-opacity="0.3" transform="matrix(1.00017 0 -0 1 -128.403 -26.1006)"/><path d="M635.793 228.469C637.38 223.565 636.687 217.448 635.793 216.554 634.9 215.66 626.359 212.544 623.878 216.554 621.398 220.564 604.304 265.12 602.717 270.024 601.13 274.928 601.823 281.046 602.717 281.939 603.611 282.833 612.151 285.949 614.632 281.939 617.113 277.929 634.206 233.373 635.793 228.469" fill="#2CA02C" fill-opacity="0.3" transform="matrix(1.00017 0 -0 1 -128.403 -26.1006)"/><path d="M558.935 237.231C563.324 236.24 563.325 229.498 558.935 225.316 554.544 221.134 505.676 184.759 500.391 181.471 495.107 178.183 489.37 180.577 488.476 181.471 487.583 182.365 488.475 189.106 488.476 193.386 488.478 197.666 487.598 235.15 488.493 238.537 489.388 241.923 495.125 238.635 500.408 238.537 505.692 238.439 554.545 238.223 558.935 237.231" fill="#98DF8A" fill-opacity="0.3" transform="matrix(1.00017 0 -0 1 -128.403 -26.1006)"/><path d="M604.303 194.219C605.197 193.325 607.906 183.224 604.303 182.304 600.7 181.383 560.76 181.974 556.264 181.948 551.767 181.921 545.242 181.054 544.349 181.948 543.455 182.841 540.746 192.942 544.349 193.863 547.952 194.783 587.891 194.192 592.388 194.219 596.884 194.245 603.409 195.112 604.303 194.219" fill="#D62728" fill-opacity="0.3" transform="matrix(1.00017 0 -0 1 -128.403 -26.1006)"/><path d="M894.515 543.216 964.776 500.363" stroke="#333333" stroke-width="1.1915" stroke-opacity="0.5" transform="matrix(1.00017 0 -0 1 -128.403 -26.1006)"/><path d="M857.307 494.872 919.885 453.752" stroke="#333333" stroke-width="1.1915" stroke-opacity="0.5" transform="matrix(1.00017 0 -0 1 -128.403 -26.1006)"/><path d="M919.885 453.752 964.776 500.363" stroke="#333333" stroke-width="8.59127" stroke-opacity="0.5" transform="matrix(1.00017 0 -0 1 -128.403 -26.1006)"/><path d="M-690.599 89.0602-652.646 22.2266" stroke="#333333" stroke-width="1.1915" stroke-opacity="0.5" transform="matrix(1.00017 0 -0 1 -128.403 -26.1006)"/><path d="M-568.27-80.8667-610.869-34.7192" stroke="#333333" stroke-width="1.1915" stroke-opacity="0.5" transform="matrix(1.00017 0 -0 1 -128.403 -26.1006)"/><path d="M-610.869-34.7192-652.646 22.2266" stroke="#333333" stroke-width="6.87931" stroke-opacity="0.5" transform="matrix(1.00017 0 -0 1 -128.403 -26.1006)"/><path d="M-497.054-10.1581-551.522 24.7272" stroke="#333333" stroke-width="1.1915" stroke-opacity="0.5" transform="matrix(1.00017 0 -0 1 -128.403 -26.1006)"/><path d="M-690.599 89.0602-615.648 60.3113" stroke="#333333" stroke-width="1.1915" stroke-opacity="0.5" transform="matrix(1.00017 0 -0 1 -128.403 -26.1006)"/><path d="M-615.648 60.3113-551.522 24.7272" stroke="#333333" stroke-width="7.62412" stroke-opacity="0.5" transform="matrix(1.00017 0 -0 1 -128.403 -26.1006)"/><path d="M591.541 508.215 616.789 435.408" stroke="#333333" stroke-width="1.1915" stroke-opacity="0.5" transform="matrix(1.00017 0 -0 1 -128.403 -26.1006)"/><path d="M680.696 443.154 638.96 367.01" stroke="#333333" stroke-width="1.1915" stroke-opacity="0.5" transform="matrix(1.00017 0 -0 1 -128.403 -26.1006)"/><path d="M638.96 367.01 616.789 435.408" stroke="#333333" stroke-width="6.9674" stroke-opacity="0.5" transform="matrix(1.00017 0 -0 1 -128.403 -26.1006)"/><path d="M-100.894 688.35-96.7257 623.908" stroke="#333333" stroke-width="1.1915" stroke-opacity="0.5" transform="matrix(1.00017 0 -0 1 -128.403 -26.1006)"/><path d="M-100.894 688.35-39.272 686.619" stroke="#333333" stroke-width="1.1915" stroke-opacity="0.5" transform="matrix(1.00017 0 -0 1 -128.403 -26.1006)"/><path d="M-39.272 686.619-96.7257 623.908" stroke="#333333" stroke-width="3.28244" stroke-opacity="0.5" transform="matrix(1.00017 0 -0 1 -128.403 -26.1006)"/><path d="M-43.5836 460.644-94.9626 545.911" stroke="#333333" stroke-width="1.1915" stroke-opacity="0.5" transform="matrix(1.00017 0 -0 1 -128.403 -26.1006)"/><path d="M-96.7257 623.908-94.9626 545.911" stroke="#333333" stroke-width="3.28244" stroke-opacity="0.5" transform="matrix(1.00017 0 -0 1 -128.403 -26.1006)"/><path d="M857.307 494.872 828.544 423.555" stroke="#333333" stroke-width="1.1915" stroke-opacity="0.5" transform="matrix(1.00017 0 -0 1 -128.403 -26.1006)"/><path d="M680.696 443.154 731.641 368.221" stroke="#333333" stroke-width="1.1915" stroke-opacity="0.5" transform="matrix(1.00017 0 -0 1 -128.403 -26.1006)"/><path d="M731.641 368.221 828.544 423.555" stroke="#333333" stroke-width="7.65078" stroke-opacity="0.5" transform="matrix(1.00017 0 -0 1 -128.403 -26.1006)"/><path d="M546.948 465.974 579.141 413.233" stroke="#333333" stroke-width="1.1915" stroke-opacity="0.5" transform="matrix(1.00017 0 -0 1 -128.403 -26.1006)"/><path d="M638.96 367.01 579.141 413.233" stroke="#333333" stroke-width="2.68112" stroke-opacity="0.5" transform="matrix(1.00017 0 -0 1 -128.403 -26.1006)"/><path d="M711.262 235.848 656.18 283.077" stroke="#333333" stroke-width="1.1915" stroke-opacity="0.5" transform="matrix(1.00017 0 -0 1 -128.403 -26.1006)"/><path d="M493.251 326.574 590.241 325.578" stroke="#333333" stroke-width="1.1915" stroke-opacity="0.5" transform="matrix(1.00017 0 -0 1 -128.403 -26.1006)"/><path d="M656.18 283.077 590.241 325.578" stroke="#333333" stroke-width="4.83017" stroke-opacity="0.5" transform="matrix(1.00017 0 -0 1 -128.403 -26.1006)"/><path d="M711.262 235.848 804.762 235.993" stroke="#333333" stroke-width="1.1915" stroke-opacity="0.5" transform="matrix(1.00017 0 -0 1 -128.403 -26.1006)"/><path d="M954.9 166.396 954.809 235.935" stroke="#333333" stroke-width="1.1915" stroke-opacity="0.5" transform="matrix(1.00017 0 -0 1 -128.403 -26.1006)"/><path d="M954.809 235.935 804.762 235.993" stroke="#333333" stroke-width="4.83017" stroke-opacity="0.5" transform="matrix(1.00017 0 -0 1 -128.403 -26.1006)"/><path d="M10.4931 223.422 30.9973 266.139" stroke="#333333" stroke-width="1.1915" stroke-opacity="0.5" transform="matrix(1.00017 0 -0 1 -128.403 -26.1006)"/><path d="M5.9758 101.86 49.8664 170.152" stroke="#333333" stroke-width="1.1915" stroke-opacity="0.5" transform="matrix(1.00017 0 -0 1 -128.403 -26.1006)"/><path d="M30.9973 266.139 49.8664 170.152" stroke="#333333" stroke-width="3.1168" stroke-opacity="0.5" transform="matrix(1.00017 0 -0 1 -128.403 -26.1006)"/><path d="M-72.9097 389.378-67.96 312.903" stroke="#333333" stroke-width="1.1915" stroke-opacity="0.5" transform="matrix(1.00017 0 -0 1 -128.403 -26.1006)"/><path d="M-67.3285 113.466-71.1676 243.196" stroke="#333333" stroke-width="1.1915" stroke-opacity="0.5" transform="matrix(1.00017 0 -0 1 -128.403 -26.1006)"/><path d="M-67.96 312.903-71.1676 243.196" stroke="#333333" stroke-width="2.68112" stroke-opacity="0.5" transform="matrix(1.00017 0 -0 1 -128.403 -26.1006)"/><path d="M-317.855 467.655-301.103 557.528" stroke="#333333" stroke-width="1.1915" stroke-opacity="0.5" transform="matrix(1.00017 0 -0 1 -128.403 -26.1006)"/><path d="M-313.158 695.203-315.168 620.412" stroke="#333333" stroke-width="1.1915" stroke-opacity="0.5" transform="matrix(1.00017 0 -0 1 -128.403 -26.1006)"/><path d="M-301.103 557.528-315.168 620.412" stroke="#333333" stroke-width="8.75204" stroke-opacity="0.5" transform="matrix(1.00017 0 -0 1 -128.403 -26.1006)"/><path d="M-696.551 427.82-643.566 471.181" stroke="#333333" stroke-width="1.1915" stroke-opacity="0.5" transform="matrix(1.00017 0 -0 1 -128.403 -26.1006)"/><path d="M-577.368 576.158-603.866 522.331" stroke="#333333" stroke-width="1.1915" stroke-opacity="0.5" transform="matrix(1.00017 0 -0 1 -128.403 -26.1006)"/><path d="M-603.866 522.331-643.566 471.181" stroke="#333333" stroke-width="4.02724" stroke-opacity="0.5" transform="matrix(1.00017 0 -0 1 -128.403 -26.1006)"/><path d="M-696.551 427.82-696.225 501.679" stroke="#333333" stroke-width="1.1915" stroke-opacity="0.5" transform="matrix(1.00017 0 -0 1 -128.403 -26.1006)"/><path d="M-673.74 629.322-687.93 569.509" stroke="#333333" stroke-width="1.1915" stroke-opacity="0.5" transform="matrix(1.00017 0 -0 1 -128.403 -26.1006)"/><path d="M-687.93 569.509-696.225 501.679" stroke="#333333" stroke-width="2.372" stroke-opacity="0.5" transform="matrix(1.00017 0 -0 1 -128.403 -26.1006)"/><path d="M919.885 453.752 919.885 453.752" stroke="#333333" stroke-width="1.93631" stroke-opacity="0.5" fill="none" transform="matrix(1.00017 0 -0 1 -128.403 -26.1006)"/><path d="M-299.155 389.978-296.712 318.336" stroke="#333333" stroke-width="1.1915" stroke-opacity="0.5" transform="matrix(1.00017 0 -0 1 -128.403 -26.1006)"/><path d="M-361.195 239.417-294.984 251.073" stroke="#333333" stroke-width="1.1915" stroke-opacity="0.5" transform="matrix(1.00017 0 -0 1 -128.403 -26.1006)"/><path d="M-294.984 251.073-296.712 318.336" stroke="#333333" stroke-width="6.86845" stroke-opacity="0.5" transform="matrix(1.00017 0 -0 1 -128.403 -26.1006)"/><path d="M-289.862 92.782-292.594 170.158" stroke="#333333" stroke-width="1.1915" stroke-opacity="0.5" transform="matrix(1.00017 0 -0 1 -128.403 -26.1006)"/><path d="M-292.594 170.158-294.984 251.073" stroke="#333333" stroke-width="6.86845" stroke-opacity="0.5" transform="matrix(1.00017 0 -0 1 -128.403 -26.1006)"/><path d="M-482.763 698.494-484.737 623.653" stroke="#333333" stroke-width="1.1915" stroke-opacity="0.5" transform="matrix(1.00017 0 -0 1 -128.403 -26.1006)"/><path d="M-486.49 463.751-485.518 552.391" stroke="#333333" stroke-width="1.1915" stroke-opacity="0.5" transform="matrix(1.00017 0 -0 1 -128.403 -26.1006)"/><path d="M-485.518 552.391-484.737 623.653" stroke="#333333" stroke-width="7.61326" stroke-opacity="0.5" transform="matrix(1.00017 0 -0 1 -128.403 -26.1006)"/><path d="M850.329 342.609 954.66 282.476" stroke="#333333" stroke-width="1.1915" stroke-opacity="0.5" transform="matrix(1.00017 0 -0 1 -128.403 -26.1006)"/><path d="M954.809 235.935 954.66 282.476" stroke="#333333" stroke-width="6.87931" stroke-opacity="0.5" transform="matrix(1.00017 0 -0 1 -128.403 -26.1006)"/><path d="M-698.126-373.125-580.708-393.318" stroke="#333333" stroke-width="1.1915" stroke-opacity="0.5" transform="matrix(1.00017 0 -0 1 -128.403 -26.1006)"/><path d="M-438.891-419.642-503.382-407.506" stroke="#333333" stroke-width="1.1915" stroke-opacity="0.5" transform="matrix(1.00017 0 -0 1 -128.403 -26.1006)"/><path d="M-503.382-407.506-580.708-393.318" stroke="#333333" stroke-width="2.92089" stroke-opacity="0.5" transform="matrix(1.00017 0 -0 1 -128.403 -26.1006)"/><path d="M-189.706 689.928-192.299 620.6" stroke="#333333" stroke-width="1.1915" stroke-opacity="0.5" transform="matrix(1.00017 0 -0 1 -128.403 -26.1006)"/><path d="M-190.851 466.721-190.958 554.534" stroke="#333333" stroke-width="1.1915" stroke-opacity="0.5" transform="matrix(1.00017 0 -0 1 -128.403 -26.1006)"/><path d="M-190.958 554.534-192.299 620.6" stroke="#333333" stroke-width="7.01602" stroke-opacity="0.5" transform="matrix(1.00017 0 -0 1 -128.403 -26.1006)"/><path d="M750.952 474.005 743.392 431.613" stroke="#333333" stroke-width="1.1915" stroke-opacity="0.5" transform="matrix(1.00017 0 -0 1 -128.403 -26.1006)"/><path d="M743.392 431.613 731.641 368.221" stroke="#333333" stroke-width="2.372" stroke-opacity="0.5" transform="matrix(1.00017 0 -0 1 -128.403 -26.1006)"/><path d="M711.262 235.848 731.82 282.98" stroke="#333333" stroke-width="1.1915" stroke-opacity="0.5" transform="matrix(1.00017 0 -0 1 -128.403 -26.1006)"/><path d="M731.641 368.221 731.82 282.98" stroke="#333333" stroke-width="1.93631" stroke-opacity="0.5" transform="matrix(1.00017 0 -0 1 -128.403 -26.1006)"/><path d="M850.329 342.609 849.68 282.704" stroke="#333333" stroke-width="1.1915" stroke-opacity="0.5" transform="matrix(1.00017 0 -0 1 -128.403 -26.1006)"/><path d="M731.641 368.221 849.68 282.704" stroke="#333333" stroke-width="3.7681" stroke-opacity="0.5" transform="matrix(1.00017 0 -0 1 -128.403 -26.1006)"/><path d="M850.329 342.609 954.288 344.542" stroke="#333333" stroke-width="1.1915" stroke-opacity="0.5" transform="matrix(1.00017 0 -0 1 -128.403 -26.1006)"/><path d="M887.664 395.483 951.853 398.103" stroke="#333333" stroke-width="1.1915" stroke-opacity="0.5" transform="matrix(1.00017 0 -0 1 -128.403 -26.1006)"/><path d="M951.853 398.103 954.288 344.542" stroke="#333333" stroke-width="3.94762" stroke-opacity="0.5" transform="matrix(1.00017 0 -0 1 -128.403 -26.1006)"/><path d="M5.9758 101.86 59.5977 196.617" stroke="#333333" stroke-width="1.1915" stroke-opacity="0.5" transform="matrix(1.00017 0 -0 1 -128.403 -26.1006)"/><path d="M638.96 367.01 590.241 325.578" stroke="#333333" stroke-width="1.1915" stroke-opacity="0.5" transform="matrix(1.00017 0 -0 1 -128.403 -26.1006)"/><path d="M-172.063 392.7-171.875 308.177" stroke="#333333" stroke-width="1.1915" stroke-opacity="0.5" transform="matrix(1.00017 0 -0 1 -128.403 -26.1006)"/><path d="M-114.983 225.548-168.132 255.487" stroke="#333333" stroke-width="1.1915" stroke-opacity="0.5" transform="matrix(1.00017 0 -0 1 -128.403 -26.1006)"/><path d="M-168.132 255.487-171.875 308.177" stroke="#333333" stroke-width="2.372" stroke-opacity="0.5" transform="matrix(1.00017 0 -0 1 -128.403 -26.1006)"/><path d="M-162.34 100.656-146.798 178.521" stroke="#333333" stroke-width="1.1915" stroke-opacity="0.5" transform="matrix(1.00017 0 -0 1 -128.403 -26.1006)"/><path d="M-168.132 255.487-146.798 178.521" stroke="#333333" stroke-width="2.372" stroke-opacity="0.5" transform="matrix(1.00017 0 -0 1 -128.403 -26.1006)"/><path d="M-487.413 395.414-482.532 279.832" stroke="#333333" stroke-width="1.1915" stroke-opacity="0.5" transform="matrix(1.00017 0 -0 1 -128.403 -26.1006)"/><path d="M-487 100.629-487.165 189.461" stroke="#333333" stroke-width="1.1915" stroke-opacity="0.5" transform="matrix(1.00017 0 -0 1 -128.403 -26.1006)"/><path d="M-487.165 189.461-482.532 279.832" stroke="#333333" stroke-width="2.372" stroke-opacity="0.5" transform="matrix(1.00017 0 -0 1 -128.403 -26.1006)"/><path d="M487.814 401.019 534.074 364.512" stroke="#333333" stroke-width="1.1915" stroke-opacity="0.5" transform="matrix(1.00017 0 -0 1 -128.403 -26.1006)"/><path d="M534.074 364.512 590.241 325.578" stroke="#333333" stroke-width="1.1915" stroke-opacity="0.5" transform="matrix(1.00017 0 -0 1 -128.403 -26.1006)"/><path d="M490.545 265.272 536.881 294.323" stroke="#333333" stroke-width="1.1915" stroke-opacity="0.5" transform="matrix(1.00017 0 -0 1 -128.403 -26.1006)"/><path d="M536.881 294.323 590.241 325.578" stroke="#333333" stroke-width="2.372" stroke-opacity="0.5" transform="matrix(1.00017 0 -0 1 -128.403 -26.1006)"/><path d="M629.836 222.512 608.675 275.982" stroke="#333333" stroke-width="1.1915" stroke-opacity="0.5" transform="matrix(1.00017 0 -0 1 -128.403 -26.1006)"/><path d="M608.675 275.982 590.241 325.578" stroke="#333333" stroke-width="1.93631" stroke-opacity="0.5" transform="matrix(1.00017 0 -0 1 -128.403 -26.1006)"/><path d="M20.0573 687.845 17.4267 617.428" stroke="#333333" stroke-width="1.1915" stroke-opacity="0.5" transform="matrix(1.00017 0 -0 1 -128.403 -26.1006)"/><path d="M-43.5836 460.644 21.059 543.363" stroke="#333333" stroke-width="1.1915" stroke-opacity="0.5" transform="matrix(1.00017 0 -0 1 -128.403 -26.1006)"/><path d="M17.4267 617.428 21.059 543.363" stroke="#333333" stroke-width="5.20774" stroke-opacity="0.5" transform="matrix(1.00017 0 -0 1 -128.403 -26.1006)"/><path d="M85.8014 548.116 89.8099 620.043" stroke="#333333" stroke-width="1.1915" stroke-opacity="0.5" transform="matrix(1.00017 0 -0 1 -128.403 -26.1006)"/><path d="M20.0573 687.845 88.6699 685.101" stroke="#333333" stroke-width="1.1915" stroke-opacity="0.5" transform="matrix(1.00017 0 -0 1 -128.403 -26.1006)"/><path d="M89.8099 620.043 88.6699 685.101" stroke="#333333" stroke-width="4.46293" stroke-opacity="0.5" transform="matrix(1.00017 0 -0 1 -128.403 -26.1006)"/><path d="M491.33 447.146 533.893 429.282" stroke="#333333" stroke-width="1.1915" stroke-opacity="0.5" transform="matrix(1.00017 0 -0 1 -128.403 -26.1006)"/><path d="M579.141 413.233 533.893 429.282" stroke="#333333" stroke-width="1.1915" stroke-opacity="0.5" transform="matrix(1.00017 0 -0 1 -128.403 -26.1006)"/><path d="M494.451 232.579 552.977 231.274" stroke="#333333" stroke-width="1.1915" stroke-opacity="0.5" transform="matrix(1.00017 0 -0 1 -128.403 -26.1006)"/><path d="M552.977 231.274 590.241 325.578" stroke="#333333" stroke-width="1.93631" stroke-opacity="0.5" transform="matrix(1.00017 0 -0 1 -128.403 -26.1006)"/><path d="M598.345 188.261 550.306 187.905" stroke="#333333" stroke-width="1.1915" stroke-opacity="0.5" transform="matrix(1.00017 0 -0 1 -128.403 -26.1006)"/><path d="M494.451 232.579 494.434 187.429" stroke="#333333" stroke-width="1.1915" stroke-opacity="0.5" transform="matrix(1.00017 0 -0 1 -128.403 -26.1006)"/><path d="M550.306 187.905 494.434 187.429" stroke="#333333" stroke-width="1.93631" stroke-opacity="0.5" transform="matrix(1.00017 0 -0 1 -128.403 -26.1006)"/><path d="M701.559 443.154C701.559 454.676 692.218 464.017 680.696 464.017 669.174 464.017 659.833 454.676 659.833 443.154 659.833 431.632 669.174 422.291 680.696 422.291 692.218 422.291 701.559 431.632 701.559 443.154Z" fill="#1F77B4" transform="matrix(1.00017 0 -0 1 -128.403 -26.1006)"/><path d="M565.953 465.974C565.953 476.47 557.444 484.979 546.948 484.979 536.452 484.979 527.943 476.47 527.943 465.974 527.943 455.477 536.452 446.968 546.948 446.968 557.444 446.968 565.953 455.477 565.953 465.974Z" fill="#AEC7E8" transform="matrix(1.00017 0 -0 1 -128.403 -26.1006)"/><path d="M508.864 401.019C508.864 412.644 499.44 422.069 487.814 422.069 476.188 422.069 466.764 412.644 466.764 401.019 466.764 389.393 476.188 379.969 487.814 379.969 499.44 379.969 508.864 389.393 508.864 401.019Z" fill="#FF7F0E" transform="matrix(1.00017 0 -0 1 -128.403 -26.1006)"/><path d="M903.593 395.483C903.593 404.281 896.462 411.412 887.664 411.412 878.867 411.412 871.736 404.281 871.736 395.483 871.736 386.686 878.867 379.555 887.664 379.555 896.462 379.555 903.593 386.686 903.593 395.483Z" fill="#FFBB78" transform="matrix(1.00017 0 -0 1 -128.403 -26.1006)"/><path d="M880.827 494.872C880.827 507.862 870.297 518.392 857.307 518.392 844.317 518.392 833.786 507.862 833.786 494.872 833.786 481.882 844.317 471.352 857.307 471.352 870.297 471.352 880.827 481.882 880.827 494.872Z" fill="#2CA02C" transform="matrix(1.00017 0 -0 1 -128.403 -26.1006)"/><path d="M917.688 543.216C917.688 556.014 907.313 566.389 894.515 566.389 881.717 566.389 871.342 556.014 871.342 543.216 871.342 530.418 881.717 520.044 894.515 520.044 907.313 520.044 917.688 530.418 917.688 543.216Z" fill="#98DF8A" transform="matrix(1.00017 0 -0 1 -128.403 -26.1006)"/><path d="M986.698 500.363C986.698 512.47 976.883 522.285 964.776 522.285 952.669 522.285 942.854 512.47 942.854 500.363 942.854 488.256 952.669 478.441 964.776 478.441 976.883 478.441 986.698 488.256 986.698 500.363Z" fill="#98DF8A" transform="matrix(1.00017 0 -0 1 -128.403 -26.1006)"/><path d="M941.815 453.752C941.815 465.863 931.996 475.681 919.885 475.681 907.774 475.681 897.956 465.863 897.956 453.752 897.956 441.641 907.774 431.823 919.885 431.823 931.996 431.823 941.815 441.641 941.815 453.752Z" fill="#2CA02C" transform="matrix(1.00017 0 -0 1 -128.403 -26.1006)"/><path d="M-475.504-10.1581C-475.504 1.7435-485.152 11.3916-497.054 11.3916-508.955 11.3916-518.604 1.7435-518.604-10.1581-518.604-22.0596-508.955-31.7078-497.054-31.7078-485.152-31.7078-475.504-22.0596-475.504-10.1581Z" fill="#D62728" transform="matrix(1.00017 0 -0 1 -128.403 -26.1006)"/><path d="M-547.963-80.8667C-547.963-69.6514-557.055-60.5596-568.27-60.5596-579.485-60.5596-588.577-69.6514-588.577-80.8667-588.577-92.082-579.485-101.174-568.27-101.174-557.055-101.174-547.963-92.082-547.963-80.8667Z" fill="#FF9896" transform="matrix(1.00017 0 -0 1 -128.403 -26.1006)"/><path d="M-669.047 89.0602C-669.047 100.963-678.696 110.612-690.599 110.612-702.502 110.612-712.151 100.963-712.151 89.0602-712.151 77.1574-702.502 67.5083-690.599 67.5083-678.696 67.5083-669.047 77.1574-669.047 89.0602Z" fill="#9467BD" transform="matrix(1.00017 0 -0 1 -128.403 -26.1006)"/><path d="M-633.59 22.2266C-633.59 32.7507-642.122 41.2821-652.646 41.2821-663.17 41.2821-671.701 32.7507-671.701 22.2266-671.701 11.7025-663.17 3.17107-652.646 3.17107-642.122 3.17107-633.59 11.7025-633.59 22.2266Z" fill="#9467BD" transform="matrix(1.00017 0 -0 1 -128.403 -26.1006)"/><path d="M-591.814-34.7192C-591.814-24.1951-600.345-15.6637-610.869-15.6637-621.393-15.6637-629.925-24.1951-629.925-34.7192-629.925-45.2433-621.393-53.7747-610.869-53.7747-600.345-53.7747-591.814-45.2433-591.814-34.7192Z" fill="#FF9896" transform="matrix(1.00017 0 -0 1 -128.403 -26.1006)"/><path d="M-531.219 24.7272C-531.219 35.94-540.309 45.0298-551.522 45.0298-562.735 45.0298-571.824 35.94-571.824 24.7272-571.824 13.5144-562.735 4.4246-551.522 4.4246-540.309 4.4246-531.219 13.5144-531.219 24.7272Z" fill="#D62728" transform="matrix(1.00017 0 -0 1 -128.403 -26.1006)"/><path d="M-595.345 60.3113C-595.345 71.5241-604.435 80.6139-615.648 80.6139-626.861 80.6139-635.951 71.5242-635.951 60.3113-635.951 49.0985-626.861 40.0087-615.648 40.0087-604.435 40.0087-595.345 49.0985-595.345 60.3113Z" fill="#9467BD" transform="matrix(1.00017 0 -0 1 -128.403 -26.1006)"/><path d="M611.999 508.215C611.999 519.514 602.839 528.673 591.541 528.673 580.242 528.673 571.082 519.514 571.082 508.215 571.082 496.916 580.242 487.757 591.541 487.757 602.839 487.757 611.999 496.916 611.999 508.215Z" fill="#C5B0D5" transform="matrix(1.00017 0 -0 1 -128.403 -26.1006)"/><path d="M635.992 435.408C635.992 446.013 627.395 454.611 616.789 454.611 606.183 454.611 597.586 446.013 597.586 435.408 597.586 424.802 606.183 416.205 616.789 416.205 627.394 416.205 635.992 424.802 635.992 435.408Z" fill="#C5B0D5" transform="matrix(1.00017 0 -0 1 -128.403 -26.1006)"/><path d="M656.405 367.01C656.405 376.645 648.595 384.455 638.96 384.455 629.326 384.455 621.515 376.645 621.515 367.01 621.515 357.376 629.326 349.565 638.96 349.565 648.595 349.565 656.405 357.376 656.405 367.01Z" fill="#1F77B4" transform="matrix(1.00017 0 -0 1 -128.403 -26.1006)"/><path d="M-84.9656 688.35C-84.9656 697.147-92.0971 704.279-100.894 704.279-109.691 704.279-116.823 697.147-116.823 688.35-116.823 679.553-109.691 672.421-100.894 672.421-92.0971 672.421-84.9656 679.553-84.9656 688.35Z" fill="#8C564B" transform="matrix(1.00017 0 -0 1 -128.403 -26.1006)"/><path d="M-25.1101 460.644C-25.1101 470.846-33.3809 479.117-43.5836 479.117-53.7862 479.117-62.0571 470.846-62.0571 460.644-62.0571 450.441-53.7862 442.17-43.5836 442.17-33.3809 442.17-25.1101 450.441-25.1101 460.644Z" fill="#C49C94" transform="matrix(1.00017 0 -0 1 -128.403 -26.1006)"/><path d="M-82.4456 623.908C-82.4456 631.794-88.839 638.188-96.7257 638.188-104.612 638.188-111.006 631.794-111.006 623.908-111.006 616.021-104.612 609.628-96.7257 609.628-88.839 609.628-82.4456 616.021-82.4456 623.908Z" fill="#8C564B" transform="matrix(1.00017 0 -0 1 -128.403 -26.1006)"/><path d="M-26.239 686.619C-26.239 693.817-32.074 699.652-39.272 699.652-46.4699 699.652-52.305 693.817-52.305 686.619-52.305 679.421-46.4699 673.586-39.272 673.586-32.074 673.586-26.239 679.421-26.239 686.619Z" fill="#8C564B" transform="matrix(1.00017 0 -0 1 -128.403 -26.1006)"/><path d="M-81.9296 545.911C-81.9296 553.109-87.7647 558.944-94.9626 558.944-102.161 558.944-107.996 553.109-107.996 545.911-107.996 538.713-102.161 532.878-94.9626 532.878-87.7647 532.878-81.9296 538.713-81.9296 545.911Z" fill="#C49C94" transform="matrix(1.00017 0 -0 1 -128.403 -26.1006)"/><path d="M31.5669 223.422C31.5669 235.061 22.1318 244.496 10.4931 244.496-1.14568 244.496-10.5807 235.061-10.5807 223.422-10.5807 211.783-1.14568 202.348 10.4931 202.348 22.1318 202.348 31.5669 211.783 31.5669 223.422Z" fill="#E377C2" transform="matrix(1.00017 0 -0 1 -128.403 -26.1006)"/><path d="M848.891 423.555C848.891 434.792 839.782 443.902 828.544 443.902 817.307 443.902 808.197 434.792 808.197 423.555 808.197 412.317 817.307 403.208 828.544 403.208 839.782 403.208 848.891 412.317 848.891 423.555Z" fill="#2CA02C" transform="matrix(1.00017 0 -0 1 -128.403 -26.1006)"/><path d="M749.359 368.221C749.359 378.007 741.426 385.939 731.641 385.939 721.856 385.939 713.923 378.007 713.923 368.221 713.923 358.436 721.856 350.504 731.641 350.504 741.426 350.504 749.359 358.436 749.359 368.221Z" fill="#1F77B4" transform="matrix(1.00017 0 -0 1 -128.403 -26.1006)"/><path d="M591.569 413.233C591.569 420.097 586.005 425.661 579.141 425.661 572.278 425.661 566.714 420.097 566.714 413.233 566.714 406.37 572.278 400.806 579.141 400.806 586.005 400.806 591.569 406.37 591.569 413.233Z" fill="#AEC7E8" transform="matrix(1.00017 0 -0 1 -128.403 -26.1006)"/><path d="M985.809 166.396C985.809 183.466 971.97 197.304 954.9 197.304 937.83 197.304 923.992 183.466 923.992 166.396 923.992 149.326 937.83 135.488 954.9 135.488 971.97 135.488 985.809 149.326 985.809 166.396Z" fill="#F7B6D2" transform="matrix(1.00017 0 -0 1 -128.403 -26.1006)"/><path d="M514.762 326.574C514.762 338.454 505.131 348.085 493.251 348.085 481.371 348.085 471.74 338.454 471.74 326.574 471.74 314.694 481.371 305.063 493.251 305.063 505.131 305.063 514.762 314.694 514.762 326.574Z" fill="#7F7F7F" transform="matrix(1.00017 0 -0 1 -128.403 -26.1006)"/><path d="M726.511 235.848C726.511 244.271 719.684 251.098 711.262 251.098 702.839 251.098 696.012 244.271 696.012 235.848 696.012 227.426 702.839 220.599 711.262 220.599 719.684 220.599 726.511 227.426 726.511 235.848Z" fill="#C7C7C7" transform="matrix(1.00017 0 -0 1 -128.403 -26.1006)"/><path d="M671.804 283.077C671.804 291.706 664.809 298.701 656.18 298.701 647.551 298.701 640.555 291.706 640.555 283.077 640.555 274.448 647.551 267.452 656.18 267.452 664.809 267.452 671.804 274.448 671.804 283.077Z" fill="#C7C7C7" transform="matrix(1.00017 0 -0 1 -128.403 -26.1006)"/><path d="M605.951 325.578C605.951 334.254 598.917 341.288 590.241 341.288 581.564 341.288 574.53 334.254 574.53 325.578 574.53 316.901 581.564 309.867 590.241 309.867 598.917 309.867 605.951 316.901 605.951 325.578Z" fill="#7F7F7F" transform="matrix(1.00017 0 -0 1 -128.403 -26.1006)"/><path d="M820.387 235.993C820.387 244.622 813.391 251.617 804.762 251.617 796.133 251.617 789.138 244.622 789.138 235.993 789.138 227.363 796.133 220.368 804.762 220.368 813.391 220.368 820.387 227.363 820.387 235.993Z" fill="#C7C7C7" transform="matrix(1.00017 0 -0 1 -128.403 -26.1006)"/><path d="M973.9 235.935C973.9 246.478 965.353 255.026 954.809 255.026 944.265 255.026 935.718 246.478 935.718 235.935 935.718 225.391 944.265 216.843 954.809 216.843 965.353 216.843 973.9 225.391 973.9 235.935Z" fill="#F7B6D2" transform="matrix(1.00017 0 -0 1 -128.403 -26.1006)"/><path d="M26.7068 101.86C26.7068 113.31 17.4252 122.591 5.9758 122.591-5.47361 122.591-14.7552 113.31-14.7552 101.86-14.7552 90.4109-5.47361 81.1294 5.9758 81.1294 17.4252 81.1294 26.7068 90.4109 26.7068 101.86Z" fill="#BCBD22" transform="matrix(1.00017 0 -0 1 -128.403 -26.1006)"/><path d="M43.7529 266.139C43.7529 273.184 38.042 278.895 30.9972 278.895 23.9525 278.895 18.2416 273.184 18.2416 266.139 18.2416 259.094 23.9525 253.383 30.9972 253.383 38.042 253.383 43.7529 259.094 43.7529 266.139Z" fill="#E377C2" transform="matrix(1.00017 0 -0 1 -128.403 -26.1006)"/><path d="M62.6221 170.152C62.6221 177.197 56.9112 182.907 49.8664 182.907 42.8216 182.907 37.1107 177.197 37.1107 170.152 37.1107 163.107 42.8216 157.396 49.8664 157.396 56.9111 157.396 62.6221 163.107 62.6221 170.152Z" fill="#BCBD22" transform="matrix(1.00017 0 -0 1 -128.403 -26.1006)"/><path d="M-59.6365 389.378C-59.6365 396.709-65.5791 402.652-72.9097 402.652-80.2404 402.652-86.183 396.709-86.183 389.378-86.183 382.048-80.2404 376.105-72.9097 376.105-65.5791 376.105-59.6365 382.048-59.6365 389.378Z" fill="#DBDB8D" transform="matrix(1.00017 0 -0 1 -128.403 -26.1006)"/><path d="M-54.0553 113.466C-54.0553 120.797-59.9979 126.739-67.3285 126.739-74.6591 126.739-80.6018 120.797-80.6018 113.466-80.6018 106.136-74.6591 100.193-67.3285 100.193-59.9979 100.193-54.0552 106.136-54.0553 113.466Z" fill="#17BECF" transform="matrix(1.00017 0 -0 1 -128.403 -26.1006)"/><path d="M-55.9338 312.903C-55.9338 319.545-61.3181 324.929-67.96 324.929-74.6018 324.929-79.9861 319.545-79.9861 312.903-79.9861 306.261-74.6018 300.877-67.96 300.877-61.3181 300.877-55.9338 306.261-55.9338 312.903Z" fill="#DBDB8D" transform="matrix(1.00017 0 -0 1 -128.403 -26.1006)"/><path d="M-59.1414 243.196C-59.1414 249.838-64.5257 255.222-71.1676 255.222-77.8095 255.222-83.1938 249.838-83.1938 243.196-83.1938 236.554-77.8095 231.17-71.1676 231.17-64.5257 231.17-59.1414 236.554-59.1414 243.196Z" fill="#17BECF" transform="matrix(1.00017 0 -0 1 -128.403 -26.1006)"/><path d="M-289.72 695.203C-289.72 708.147-300.213 718.641-313.158 718.641-326.103 718.641-336.596 708.147-336.596 695.203-336.596 682.258-326.102 671.764-313.158 671.764-300.213 671.764-289.72 682.258-289.72 695.203Z" fill="#9EDAE5" transform="matrix(1.00017 0 -0 1 -128.403 -26.1006)"/><path d="M-294.409 467.655C-294.409 480.604-304.906 491.102-317.855 491.102-330.804 491.102-341.301 480.604-341.301 467.655-341.301 454.706-330.804 444.209-317.855 444.209-304.906 444.209-294.409 454.706-294.409 467.655Z" fill="#1F77B4" transform="matrix(1.00017 0 -0 1 -128.403 -26.1006)"/><path d="M-278.911 557.528C-278.911 569.784-288.847 579.719-301.103 579.719-313.358 579.719-323.294 569.784-323.294 557.528-323.294 545.272-313.358 535.337-301.103 535.337-288.847 535.337-278.911 545.272-278.911 557.528Z" fill="#1F77B4" transform="matrix(1.00017 0 -0 1 -128.403 -26.1006)"/><path d="M-292.977 620.412C-292.977 632.668-302.913 642.603-315.168 642.603-327.424 642.603-337.36 632.668-337.36 620.412-337.36 608.156-327.424 598.221-315.168 598.221-302.913 598.221-292.977 608.156-292.977 620.412Z" fill="#9EDAE5" transform="matrix(1.00017 0 -0 1 -128.403 -26.1006)"/><path d="M503.356 447.146C503.356 453.788 497.972 459.172 491.33 459.172 484.688 459.172 479.304 453.788 479.304 447.146 479.304 440.504 484.688 435.12 491.33 435.12 497.972 435.12 503.356 440.504 503.356 447.146Z" fill="#AEC7E8" transform="matrix(1.00017 0 -0 1 -128.403 -26.1006)"/><path d="M-684.123-373.125C-684.123-365.391-690.392-359.122-698.126-359.122-705.859-359.122-712.128-365.391-712.128-373.125-712.128-380.859-705.859-387.128-698.126-387.128-690.392-387.128-684.123-380.859-684.123-373.125Z" fill="#FF7F0E" transform="matrix(1.00017 0 -0 1 -128.403 -26.1006)"/><path d="M-424.888-419.642C-424.888-411.909-431.158-405.639-438.891-405.639-446.625-405.639-452.894-411.909-452.894-419.642-452.894-427.376-446.625-433.645-438.891-433.645-431.158-433.645-424.888-427.376-424.888-419.642Z" fill="#FFBB78" transform="matrix(1.00017 0 -0 1 -128.403 -26.1006)"/><path d="M-673.516 427.82C-673.516 440.541-683.829 450.854-696.551 450.854-709.272 450.854-719.585 440.541-719.585 427.82-719.585 415.098-709.272 404.785-696.551 404.785-683.829 404.785-673.516 415.098-673.516 427.82Z" fill="#2CA02C" transform="matrix(1.00017 0 -0 1 -128.403 -26.1006)"/><path d="M-652.018 629.322C-652.018 641.318-661.743 651.044-673.74 651.044-685.737 651.044-695.462 641.318-695.462 629.322-695.462 617.325-685.737 607.6-673.74 607.6-661.743 607.6-652.018 617.325-652.018 629.322Z" fill="#98DF8A" transform="matrix(1.00017 0 -0 1 -128.403 -26.1006)"/><path d="M-561.841 576.158C-561.841 584.734-568.793 591.685-577.368 591.685-585.943 591.685-592.895 584.734-592.895 576.158-592.895 567.583-585.944 560.631-577.368 560.631-568.793 560.631-561.841 567.583-561.841 576.158Z" fill="#D62728" transform="matrix(1.00017 0 -0 1 -128.403 -26.1006)"/><path d="M-629.286 471.181C-629.286 479.067-635.679 485.461-643.566 485.461-651.453 485.461-657.846 479.067-657.846 471.181-657.846 463.294-651.453 456.901-643.566 456.901-635.679 456.901-629.286 463.294-629.286 471.181Z" fill="#2CA02C" transform="matrix(1.00017 0 -0 1 -128.403 -26.1006)"/><path d="M-589.586 522.331C-589.586 530.218-595.979 536.611-603.866 536.611-611.752 536.611-618.146 530.218-618.146 522.331-618.146 514.444-611.752 508.051-603.866 508.051-595.979 508.051-589.586 514.444-589.586 522.331Z" fill="#D62728" transform="matrix(1.00017 0 -0 1 -128.403 -26.1006)"/><path d="M-684.717 501.679C-684.717 508.035-689.869 513.187-696.225 513.187-702.581 513.187-707.734 508.035-707.734 501.679-707.734 495.323-702.581 490.17-696.225 490.17-689.869 490.17-684.717 495.323-684.717 501.679Z" fill="#2CA02C" transform="matrix(1.00017 0 -0 1 -128.403 -26.1006)"/><path d="M-676.422 569.509C-676.422 575.865-681.574 581.018-687.93 581.018-694.286 581.018-699.439 575.865-699.439 569.509-699.439 563.153-694.286 558-687.93 558-681.574 558-676.422 563.153-676.422 569.509Z" fill="#98DF8A" transform="matrix(1.00017 0 -0 1 -128.403 -26.1006)"/><path d="M-340.178 239.417C-340.178 251.025-349.587 260.434-361.195 260.434-372.802 260.434-382.212 251.025-382.212 239.417-382.212 227.81-372.802 218.4-361.195 218.4-349.587 218.4-340.178 227.81-340.178 239.417Z" fill="#FF9896" transform="matrix(1.00017 0 -0 1 -128.403 -26.1006)"/><path d="M-269.578 92.782C-269.578 103.985-278.659 113.066-289.862 113.066-301.065 113.066-310.147 103.985-310.147 92.782-310.147 81.5792-301.065 72.4976-289.862 72.4976-278.659 72.4976-269.578 81.5792-269.578 92.782Z" fill="#9467BD" transform="matrix(1.00017 0 -0 1 -128.403 -26.1006)"/><path d="M-278.871 389.978C-278.871 401.181-287.952 410.262-299.155 410.262-310.358 410.262-319.44 401.181-319.44 389.978-319.44 378.775-310.358 369.693-299.155 369.693-287.952 369.693-278.871 378.775-278.871 389.978Z" fill="#C5B0D5" transform="matrix(1.00017 0 -0 1 -128.403 -26.1006)"/><path d="M-277.675 318.336C-277.675 328.85-286.198 337.374-296.712 337.374-307.226 337.374-315.749 328.85-315.749 318.336-315.749 307.822-307.226 299.299-296.712 299.299-286.198 299.299-277.675 307.822-277.675 318.336Z" fill="#C5B0D5" transform="matrix(1.00017 0 -0 1 -128.403 -26.1006)"/><path d="M-274.7 251.073C-274.7 262.276-283.782 271.358-294.984 271.358-306.187 271.358-315.269 262.276-315.269 251.073-315.269 239.871-306.187 230.789-294.984 230.789-283.782 230.789-274.7 239.871-274.7 251.073Z" fill="#FF9896" transform="matrix(1.00017 0 -0 1 -128.403 -26.1006)"/><path d="M-273.557 170.158C-273.557 180.672-282.08 189.195-292.594 189.195-303.108 189.195-311.632 180.672-311.632 170.158-311.632 159.644-303.108 151.12-292.594 151.12-282.08 151.12-273.557 159.644-273.557 170.158Z" fill="#9467BD" transform="matrix(1.00017 0 -0 1 -128.403 -26.1006)"/><path d="M-461.231 698.494C-461.231 710.385-470.871 720.025-482.763 720.025-494.654 720.025-504.294 710.385-504.294 698.494-504.294 686.602-494.654 676.962-482.763 676.962-470.871 676.962-461.231 686.602-461.231 698.494Z" fill="#8C564B" transform="matrix(1.00017 0 -0 1 -128.403 -26.1006)"/><path d="M-464.959 463.751C-464.959 475.642-474.599 485.282-486.49 485.282-498.382 485.282-508.022 475.642-508.022 463.751-508.022 451.859-498.382 442.219-486.49 442.219-474.599 442.219-464.959 451.859-464.959 463.751Z" fill="#C49C94" transform="matrix(1.00017 0 -0 1 -128.403 -26.1006)"/><path d="M-464.453 623.653C-464.453 634.856-473.535 643.938-484.737 643.938-495.94 643.938-505.022 634.856-505.022 623.653-505.022 612.45-495.94 603.369-484.737 603.369-473.535 603.369-464.453 612.45-464.453 623.653Z" fill="#8C564B" transform="matrix(1.00017 0 -0 1 -128.403 -26.1006)"/><path d="M-465.233 552.391C-465.233 563.594-474.315 572.675-485.518 572.675-496.721 572.675-505.802 563.594-505.802 552.391-505.802 541.188-496.721 532.106-485.518 532.106-474.315 532.106-465.233 541.188-465.233 552.391Z" fill="#C49C94" transform="matrix(1.00017 0 -0 1 -128.403 -26.1006)"/><path d="M870.82 342.609C870.82 353.926 861.646 363.1 850.329 363.1 839.012 363.1 829.838 353.926 829.838 342.609 829.838 331.292 839.012 322.118 850.329 322.118 861.646 322.118 870.82 331.292 870.82 342.609Z" fill="#E377C2" transform="matrix(1.00017 0 -0 1 -128.403 -26.1006)"/><path d="M973.715 282.476C973.715 293 965.184 301.531 954.66 301.531 944.136 301.531 935.604 293 935.604 282.476 935.604 271.952 944.136 263.42 954.66 263.42 965.184 263.42 973.715 271.952 973.715 282.476Z" fill="#E377C2" transform="matrix(1.00017 0 -0 1 -128.403 -26.1006)"/><path d="M-568.28-393.318C-568.28-386.455-573.844-380.891-580.708-380.891-587.571-380.891-593.135-386.455-593.135-393.318-593.135-400.182-587.571-405.746-580.708-405.746-573.844-405.746-568.28-400.182-568.28-393.318Z" fill="#FF7F0E" transform="matrix(1.00017 0 -0 1 -128.403 -26.1006)"/><path d="M-490.955-407.506C-490.955-400.642-496.519-395.078-503.382-395.078-510.246-395.078-515.81-400.642-515.81-407.506-515.81-414.369-510.246-419.933-503.382-419.933-496.519-419.933-490.955-414.369-490.955-407.506Z" fill="#FFBB78" transform="matrix(1.00017 0 -0 1 -128.403 -26.1006)"/><path d="M-169.174 689.928C-169.174 701.267-178.366 710.46-189.706 710.46-201.045 710.46-210.237 701.267-210.237 689.928-210.237 678.589-201.045 669.397-189.706 669.397-178.366 669.397-169.174 678.589-169.174 689.928Z" fill="#F7B6D2" transform="matrix(1.00017 0 -0 1 -128.403 -26.1006)"/><path d="M-170.319 466.721C-170.319 478.06-179.511 487.252-190.851 487.252-202.19 487.252-211.382 478.06-211.382 466.721-211.382 455.382-202.19 446.189-190.851 446.189-179.511 446.189-170.319 455.382-170.319 466.721Z" fill="#7F7F7F" transform="matrix(1.00017 0 -0 1 -128.403 -26.1006)"/><path d="M-173.014 620.6C-173.014 631.251-181.648 639.885-192.299 639.885-202.949 639.885-211.583 631.251-211.583 620.6-211.583 609.95-202.949 601.316-192.299 601.316-181.648 601.316-173.014 609.95-173.014 620.6Z" fill="#F7B6D2" transform="matrix(1.00017 0 -0 1 -128.403 -26.1006)"/><path d="M-171.674 554.534C-171.674 565.185-180.308 573.819-190.958 573.819-201.609 573.819-210.243 565.185-210.243 554.534-210.243 543.884-201.609 535.25-190.958 535.25-180.308 535.25-171.674 543.884-171.674 554.534Z" fill="#7F7F7F" transform="matrix(1.00017 0 -0 1 -128.403 -26.1006)"/><path d="M38.6043 687.845C38.6043 698.088 30.3005 706.392 20.0573 706.392 9.81413 706.392 1.51038 698.088 1.51038 687.845 1.51038 677.602 9.81413 669.298 20.0573 669.298 30.3005 669.298 38.6043 677.602 38.6043 687.845Z" fill="#C7C7C7" transform="matrix(1.00017 0 -0 1 -128.403 -26.1006)"/><path d="M765.472 474.005C765.472 482.024 758.971 488.525 750.952 488.525 742.933 488.525 736.432 482.024 736.432 474.005 736.432 465.986 742.933 459.485 750.952 459.485 758.971 459.485 765.472 465.986 765.472 474.005Z" fill="#BCBD22" transform="matrix(1.00017 0 -0 1 -128.403 -26.1006)"/><path d="M754.9 431.613C754.9 437.969 749.748 443.121 743.392 443.121 737.036 443.121 731.883 437.969 731.883 431.613 731.883 425.257 737.036 420.104 743.392 420.104 749.748 420.104 754.9 425.257 754.9 431.613Z" fill="#BCBD22" transform="matrix(1.00017 0 -0 1 -128.403 -26.1006)"/><path d="M742.599 282.98C742.599 288.933 737.773 293.759 731.82 293.759 725.867 293.759 721.041 288.933 721.041 282.98 721.041 277.027 725.867 272.201 731.82 272.201 737.773 272.201 742.599 277.027 742.599 282.98Z" fill="#C7C7C7" transform="matrix(1.00017 0 -0 1 -128.403 -26.1006)"/><path d="M863.526 282.704C863.526 290.351 857.327 296.55 849.68 296.55 842.033 296.55 835.833 290.351 835.833 282.704 835.833 275.057 842.033 268.857 849.68 268.857 857.327 268.857 863.526 275.057 863.526 282.704Z" fill="#E377C2" transform="matrix(1.00017 0 -0 1 -128.403 -26.1006)"/><path d="M968.435 344.542C968.435 352.355 962.101 358.689 954.288 358.689 946.475 358.689 940.141 352.355 940.141 344.542 940.141 336.729 946.475 330.395 954.288 330.395 962.101 330.395 968.435 336.729 968.435 344.542Z" fill="#E377C2" transform="matrix(1.00017 0 -0 1 -128.403 -26.1006)"/><path d="M966 398.103C966 405.916 959.666 412.249 951.853 412.249 944.04 412.249 937.706 405.916 937.706 398.103 937.706 390.29 944.04 383.956 951.853 383.956 959.666 383.956 966 390.29 966 398.103Z" fill="#FFBB78" transform="matrix(1.00017 0 -0 1 -128.403 -26.1006)"/><path d="M74.33 196.617C74.33 204.753 67.7341 211.349 59.5977 211.349 51.4613 211.349 44.8654 204.753 44.8654 196.617 44.8654 188.48 51.4613 181.884 59.5977 181.884 67.7341 181.884 74.33 188.48 74.33 196.617Z" fill="#BCBD22" transform="matrix(1.00017 0 -0 1 -128.403 -26.1006)"/><path d="M-99.81 225.548C-99.81 233.928-106.603 240.721-114.983 240.721-123.363 240.721-130.157 233.928-130.157 225.548-130.157 217.168-123.363 210.374-114.983 210.374-106.603 210.374-99.81 217.168-99.81 225.548Z" fill="#DBDB8D" transform="matrix(1.00017 0 -0 1 -128.403 -26.1006)"/><path d="M-159.307 392.7C-159.307 399.745-165.018 405.456-172.063 405.456-179.108 405.456-184.819 399.745-184.819 392.7-184.819 385.655-179.108 379.944-172.063 379.944-165.018 379.944-159.307 385.655-159.307 392.7Z" fill="#17BECF" transform="matrix(1.00017 0 -0 1 -128.403 -26.1006)"/><path d="M-160.366 308.177C-160.366 314.533-165.518 319.685-171.875 319.685-178.231 319.685-183.383 314.533-183.383 308.177-183.383 301.821-178.231 296.668-171.875 296.668-165.518 296.668-160.366 301.821-160.366 308.177Z" fill="#17BECF" transform="matrix(1.00017 0 -0 1 -128.403 -26.1006)"/><path d="M-155.376 255.487C-155.376 262.532-161.087 268.243-168.132 268.243-175.177 268.243-180.888 262.532-180.888 255.487-180.888 248.442-175.177 242.732-168.132 242.732-161.087 242.732-155.376 248.442-155.376 255.487Z" fill="#DBDB8D" transform="matrix(1.00017 0 -0 1 -128.403 -26.1006)"/><path d="M-149.584 100.656C-149.584 107.701-155.295 113.412-162.34 113.412-169.384 113.412-175.095 107.701-175.095 100.656-175.095 93.6114-169.384 87.9005-162.34 87.9005-155.295 87.9005-149.584 93.6114-149.584 100.656Z" fill="#9EDAE5" transform="matrix(1.00017 0 -0 1 -128.403 -26.1006)"/><path d="M-135.289 178.521C-135.289 184.877-140.442 190.03-146.798 190.03-153.154 190.03-158.306 184.877-158.306 178.521-158.306 172.165-153.154 167.013-146.798 167.013-140.442 167.013-135.289 172.165-135.289 178.521Z" fill="#9EDAE5" transform="matrix(1.00017 0 -0 1 -128.403 -26.1006)"/><path d="M-472.997 100.629C-472.997 108.363-479.266 114.632-487 114.632-494.733 114.632-501.003 108.363-501.003 100.629-501.003 92.8955-494.733 86.6263-487 86.6263-479.266 86.6263-472.997 92.8955-472.997 100.629Z" fill="#1F77B4" transform="matrix(1.00017 0 -0 1 -128.403 -26.1006)"/><path d="M-474.657 395.414C-474.657 402.458-480.368 408.169-487.413 408.169-494.458 408.169-500.169 402.458-500.169 395.414-500.169 388.369-494.458 382.658-487.413 382.658-480.368 382.658-474.657 388.369-474.657 395.414Z" fill="#AEC7E8" transform="matrix(1.00017 0 -0 1 -128.403 -26.1006)"/><path d="M-471.023 279.832C-471.023 286.188-476.176 291.341-482.532 291.341-488.888 291.341-494.04 286.188-494.04 279.832-494.04 273.476-488.888 268.324-482.532 268.324-476.176 268.324-471.023 273.476-471.023 279.832Z" fill="#AEC7E8" transform="matrix(1.00017 0 -0 1 -128.403 -26.1006)"/><path d="M-475.656 189.461C-475.656 195.817-480.809 200.97-487.165 200.97-493.521 200.97-498.674 195.817-498.674 189.461-498.674 183.105-493.521 177.952-487.165 177.952-480.809 177.952-475.656 183.105-475.656 189.461Z" fill="#1F77B4" transform="matrix(1.00017 0 -0 1 -128.403 -26.1006)"/><path d="M543.606 364.512C543.606 369.777 539.338 374.044 534.074 374.044 528.809 374.044 524.542 369.777 524.542 364.512 524.542 359.248 528.809 354.98 534.074 354.98 539.338 354.98 543.606 359.248 543.606 364.512Z" fill="#FF7F0E" transform="matrix(1.00017 0 -0 1 -128.403 -26.1006)"/><path d="M104.848 548.116C104.848 558.635 96.3204 567.162 85.8014 567.162 75.2823 567.162 66.7549 558.635 66.7549 548.116 66.7549 537.596 75.2823 529.069 85.8014 529.069 96.3204 529.069 104.848 537.596 104.848 548.116Z" fill="#FF7F0E" transform="matrix(1.00017 0 -0 1 -128.403 -26.1006)"/><path d="M504.03 265.272C504.03 272.719 497.993 278.757 490.545 278.757 483.098 278.757 477.06 272.719 477.06 265.272 477.06 257.824 483.098 251.787 490.545 251.787 497.993 251.787 504.03 257.824 504.03 265.272Z" fill="#FFBB78" transform="matrix(1.00017 0 -0 1 -128.403 -26.1006)"/><path d="M548.389 294.323C548.389 300.679 543.237 305.832 536.881 305.832 530.525 305.832 525.372 300.679 525.372 294.323 525.372 287.967 530.525 282.815 536.881 282.815 543.237 282.815 548.389 287.967 548.389 294.323Z" fill="#FFBB78" transform="matrix(1.00017 0 -0 1 -128.403 -26.1006)"/><path d="M643.109 222.512C643.109 229.842 637.166 235.785 629.836 235.785 622.505 235.785 616.562 229.842 616.562 222.512 616.562 215.181 622.505 209.238 629.836 209.238 637.166 209.238 643.109 215.181 643.109 222.512Z" fill="#2CA02C" transform="matrix(1.00017 0 -0 1 -128.403 -26.1006)"/><path d="M619.454 275.982C619.454 281.935 614.628 286.761 608.675 286.761 602.721 286.761 597.895 281.935 597.895 275.982 597.895 270.029 602.721 265.203 608.675 265.203 614.628 265.203 619.454 270.029 619.454 275.982Z" fill="#2CA02C" transform="matrix(1.00017 0 -0 1 -128.403 -26.1006)"/><path d="M33.6834 617.428C33.6834 626.406 26.405 633.685 17.4267 633.685 8.44838 633.685 1.17002 626.406 1.17002 617.428 1.17002 608.45 8.44838 601.171 17.4267 601.171 26.405 601.171 33.6834 608.45 33.6834 617.428Z" fill="#C7C7C7" transform="matrix(1.00017 0 -0 1 -128.403 -26.1006)"/><path d="M37.3157 543.363C37.3157 552.342 30.0373 559.62 21.059 559.62 12.0807 559.62 4.80228 552.342 4.80228 543.363 4.80228 534.385 12.0807 527.107 21.059 527.107 30.0373 527.107 37.3157 534.385 37.3157 543.363Z" fill="#C49C94" transform="matrix(1.00017 0 -0 1 -128.403 -26.1006)"/><path d="M104.82 620.043C104.82 628.333 98.0995 635.053 89.8099 635.053 81.5203 635.053 74.8003 628.333 74.8003 620.043 74.8003 611.754 81.5203 605.034 89.8099 605.034 98.0995 605.034 104.82 611.754 104.82 620.043Z" fill="#FF7F0E" transform="matrix(1.00017 0 -0 1 -128.403 -26.1006)"/><path d="M103.68 685.101C103.68 693.39 96.9595 700.11 88.6699 700.11 80.3804 700.11 73.6603 693.39 73.6603 685.101 73.6603 676.811 80.3804 670.091 88.6699 670.091 96.9595 670.091 103.68 676.811 103.68 685.101Z" fill="#C7C7C7" transform="matrix(1.00017 0 -0 1 -128.403 -26.1006)"/><path d="M543.425 429.282C543.425 434.547 539.158 438.814 533.893 438.814 528.629 438.814 524.361 434.547 524.361 429.282 524.361 424.018 528.629 419.75 533.893 419.75 539.158 419.75 543.425 424.018 543.425 429.282Z" fill="#AEC7E8" transform="matrix(1.00017 0 -0 1 -128.403 -26.1006)"/><path d="M507.207 232.579C507.207 239.624 501.496 245.335 494.451 245.335 487.406 245.335 481.695 239.624 481.695 232.579 481.695 225.534 487.406 219.823 494.451 219.823 501.496 219.823 507.207 225.534 507.207 232.579Z" fill="#98DF8A" transform="matrix(1.00017 0 -0 1 -128.403 -26.1006)"/><path d="M610.372 188.261C610.372 194.903 604.987 200.287 598.345 200.287 591.704 200.287 586.319 194.903 586.319 188.261 586.319 181.619 591.704 176.235 598.345 176.235 604.987 176.235 610.372 181.619 610.372 188.261Z" fill="#D62728" transform="matrix(1.00017 0 -0 1 -128.403 -26.1006)"/><path d="M563.756 231.274C563.756 237.227 558.93 242.053 552.977 242.053 547.024 242.053 542.198 237.227 542.198 231.274 542.198 225.32 547.024 220.494 552.977 220.494 558.93 220.494 563.756 225.32 563.756 231.274Z" fill="#98DF8A" transform="matrix(1.00017 0 -0 1 -128.403 -26.1006)"/><path d="M561.085 187.905C561.085 193.858 556.259 198.684 550.306 198.684 544.353 198.684 539.527 193.858 539.527 187.905 539.527 181.952 544.353 177.126 550.306 177.126 556.259 177.126 561.085 181.952 561.085 187.905Z" fill="#D62728" transform="matrix(1.00017 0 -0 1 -128.403 -26.1006)"/><path d="M505.213 187.429C505.213 193.382 500.387 198.208 494.434 198.208 488.481 198.208 483.655 193.382 483.655 187.429 483.655 181.475 488.481 176.649 494.434 176.649 500.387 176.649 505.213 181.475 505.213 187.429Z" fill="#98DF8A" transform="matrix(1.00017 0 -0 1 -128.403 -26.1006)"/><text font-family="Arial,Arial_MSFontService,sans-serif" font-weight="400" transform="matrix(1.1917 0 0 1.1915 529.764 417)">context<tspan font-size="11" x="-110.252" y="19.3034">course</tspan><tspan x="-168.881" y="-35.2496">sessions</tspan><tspan font-size="10" x="165.704" y="-40.2853">capabilities</tspan><tspan font-size="14" x="131.225" y="43.6424">filter</tspan><tspan font-size="14" x="158.225" y="43.6424">_</tspan><tspan font-size="14" x="166.225" y="43.6424">active</tspan><tspan font-size="14" x="161.953" y="83.9276">filter</tspan><tspan font-size="14" x="188.953" y="83.9276">_</tspan><tspan font-size="14" x="196.953" y="83.9276">config</tspan><tspan font-size="13" x="245.422" y="47.8387">filter</tspan><tspan font-size="13" x="207.746" y="9.23204">filter</tspan><tspan font-size="13" x="-1014.46" y="-380.192">block</tspan><tspan font-size="13" x="-983.457" y="-380.192">_</tspan><tspan font-size="13" x="-976.457" y="-380.192">positions</tspan><tspan x="-1043.73" y="-439.781">block</tspan><tspan font-size="13" x="-1178.9" y="-297.104">block</tspan><tspan font-size="13" x="-1147.9" y="-297.104">_</tspan><tspan font-size="13" x="-1140.9" y="-297.104">instances</tspan><tspan font-size="11" x="-1125.54" y="-353.335">blockname</tspan><tspan font-size="11" x="-1077.98" y="-401.174">name</tspan><tspan x="-1058.17" y="-350.817">blockinstanceid</tspan><tspan x="-1073.99" y="-321.443">id</tspan><tspan x="-107.326" y="54.553">course</tspan><tspan x="-69.326" y="54.553">_</tspan><tspan x="-62.326" y="54.553">categories</tspan><tspan font-size="11" x="-38.6357" y="-6.71421">id</tspan><tspan font-size="10" x="-40.0279" y="-63.785">instanceid</tspan><tspan font-size="10" x="-649.97" y="205.623">event</tspan><tspan font-size="11" x="-608.871" y="15.107">modules</tspan><tspan font-size="9" x="-659.972" y="151.909">modulename</tspan><tspan font-size="8" x="-601.252" y="204.783">eventtype</tspan><tspan font-size="8" x="-641.492" y="86.4455">name</tspan><tspan x="-557.485" y="-184.641">enrol</tspan><tspan x="119.086" y="-16.7855">contextid</tspan><tspan font-size="11" x="57.7571" y="-62.9457">id</tspan><tspan font-size="8" x="-69.2325" y="-25.1783">id</tspan><tspan font-size="18" x="234.133" y="-232.48">role</tspan><tspan font-size="13" x="-150.818" y="-98.1953">user</tspan><tspan font-size="9" x="8.15301" y="-173.73">role</tspan><tspan font-size="9" x="23.153" y="-173.73">_</tspan><tspan font-size="9" x="28.153" y="-173.73">assignments</tspan><tspan font-size="9" x="-14.0758" y="-134.284">userid</tspan><tspan font-size="9" x="-60.417" y="-99.0346">id</tspan><tspan font-size="9" x="112.126" y="-173.73">roleid</tspan><tspan font-size="11" x="245.056" y="-173.73">id</tspan><tspan x="-594.777" y="-286.193">user</tspan>_enrolments<tspan font-size="8" x="-529.277" y="-148.552">id</tspan><tspan font-size="8" x="-521.94" y="-229.122">enrolid</tspan><tspan font-size="8" x="-649.483" y="-45.3209">customfield</tspan><tspan font-size="8" x="-610.483" y="-45.3209">_</tspan><tspan font-size="8" x="-606.483" y="-45.3209">category</tspan><tspan font-size="8" x="-637.299" y="-276.961">customfield</tspan><tspan font-size="8" x="-598.299" y="-276.961">_</tspan><tspan font-size="8" x="-594.299" y="-276.961">field</tspan><tspan font-size="7" x="-612.329" y="-109.106">id</tspan><tspan font-size="7" x="-629.021" y="-167.855">categoryid</tspan><tspan font-size="14" x="-862.118" y="211.498">files</tspan><tspan font-size="14" x="-837.118" y="211.498">_</tspan><tspan font-size="14" x="-829.118" y="211.498">reference</tspan><tspan font-size="14" x="-831.56" y="20.9819">files</tspan><tspan font-size="13" x="-844.5" y="95.6775">referencefileid</tspan><tspan font-size="13" x="-821.805" y="148.552">id</tspan><tspan font-size="7" x="-166.931" y="3.35711">user</tspan><tspan font-size="7" x="-152.93" y="3.35711">_</tspan><tspan font-size="7" x="-148.931" y="3.35711">lastaccess</tspan><tspan font-size="9" x="-1174.21" y="-684.849">groups</tspan><tspan font-size="9" x="-1146.21" y="-684.849">_</tspan><tspan font-size="9" x="-1141.21" y="-684.849">members</tspan><tspan font-size="9" x="-934.643" y="-724.295">groups</tspan><tspan font-size="14" x="-1183.39" y="-12.5891">user</tspan><tspan font-size="14" x="-1155.39" y="-12.5891">_</tspan><tspan font-size="14" x="-1147.39" y="-12.5891">info</tspan><tspan font-size="14" x="-1124.39" y="-12.5891">_</tspan><tspan font-size="14" x="-1116.39" y="-12.5891">field</tspan><tspan font-size="13" x="-1159.75" y="156.105">user</tspan><tspan font-size="13" x="-1134.75" y="156.105">_</tspan><tspan font-size="13" x="-1127.75" y="156.105">info</tspan><tspan font-size="13" x="-1107.75" y="156.105">_</tspan><tspan font-size="13" x="-1100.75" y="156.105">data</tspan><tspan font-size="9" x="-1077.36" y="111.624">user</tspan><tspan font-size="9" x="-1059.36" y="111.624">_</tspan><tspan font-size="9" x="-1054.36" y="111.624">info</tspan><tspan font-size="9" x="-1038.36" y="111.624">_</tspan><tspan font-size="9" x="-1033.36" y="111.624">category</tspan><tspan font-size="9" x="-1114.42" y="23.4997">categoryid</tspan><tspan font-size="9" x="-1062.6" y="66.3028">id</tspan><tspan font-size="7" x="-1139.62" y="49.5173">id</tspan><tspan font-size="7" x="-1139.66" y="105.749">fieldid</tspan><tspan x="-923.934" y="-171.212">message</tspan>_conversations<tspan x="-891.066" y="-293.747">message</tspan><tspan x="-838.066" y="-293.747">_</tspan>conversation<tspan x="-761.066" y="-293.747">_</tspan><tspan x="-754.066" y="-293.747">members</tspan><tspan x="-833.366" y="-44.4816">messages</tspan><tspan font-size="11" x="-836.815" y="-104.91">conversationid</tspan><tspan x="-804.865" y="-161.141">id</tspan><tspan font-size="11" x="-833.359" y="-229.122">conversationid</tspan><tspan font-size="13" x="-1029.46" y="214.015">message</tspan><tspan font-size="13" x="-976.463" y="214.015">_</tspan><tspan font-size="13" x="-969.463" y="214.015">users</tspan><tspan font-size="13" x="-937.463" y="214.015">_</tspan><tspan font-size="13" x="-930.463" y="214.015">blocked</tspan><tspan font-size="13" x="-1040.59" y="17.6248">message</tspan><tspan font-size="13" x="-987.592" y="17.6248">_</tspan><tspan font-size="13" x="-980.592" y="17.6248">contact</tspan><tspan font-size="13" x="-937.592" y="17.6248">_</tspan><tspan font-size="13" x="-930.592" y="17.6248">requests</tspan><tspan x="-976.621" y="151.909">userid</tspan><tspan x="-1005.28" y="91.4811">requesteduserid</tspan><tspan x="115.869" y="-83.9276">role</tspan><tspan x="136.869" y="-83.9276">_</tspan><tspan x="143.869" y="-83.9276">capabilities</tspan><tspan font-size="11" x="235.931" y="-135.123">roleid</tspan><tspan font-size="8" x="-1052.17" y="-701.635">groupid</tspan><tspan font-size="8" x="-977.769" y="-714.224">id</tspan><tspan x="-734.007" y="207.301">lti</tspan>_types<tspan x="-753.968" y="20.1426">lti</tspan>_tool_proxies<tspan font-size="11" x="-740.184" y="148.552">toolproxyid</tspan><tspan font-size="11" x="-716.559" y="93.1597">id</tspan><tspan font-size="11" x="-575.458" y="205.623">course</tspan><tspan font-size="11" x="-541.458" y="205.623">_</tspan><tspan font-size="11" x="-535.458" y="205.623">modules</tspan><tspan font-size="9" x="33.9644" y="26.0176">analytics</tspan><tspan font-size="9" x="71.9643" y="26.0176">_</tspan><tspan font-size="9" x="76.9643" y="26.0176">predictions</tspan><tspan font-size="7" x="56.6189" y="-9.23204">contextid</tspan><tspan font-size="7" x="46.9073" y="-134.284">contextid</tspan><tspan font-size="8" x="145.824" y="-134.284">contextid</tspan><tspan font-size="9" x="228.619" y="-83.0883">capability</tspan><tspan font-size="9" x="235.076" y="-37.7674">name</tspan><tspan font-size="9" x="-514.773" y="-206.462">userid</tspan><tspan font-size="9" x="-674.795" y="-182.962">competency</tspan><tspan font-size="8" x="-736.2" y="-41.9638">competency</tspan><tspan font-size="8" x="-695.2" y="-41.9638">_</tspan><tspan font-size="8" x="-691.2" y="-41.9638">usercomp</tspan><tspan font-size="7" x="-719.542" y="-113.302">competencyid</tspan><tspan font-size="8" x="-696.401" y="-157.784">id</tspan><tspan font-size="8" x="-735.04" y="-287.032">competency</tspan><tspan font-size="8" x="-694.04" y="-287.032">_</tspan><tspan font-size="8" x="-690.04" y="-287.032">usercompplan</tspan><tspan font-size="7" x="-698.496" y="-222.408">competencyid</tspan><tspan font-size="9" x="-998.019" y="-287.032">external</tspan><tspan font-size="9" x="-965.019" y="-287.032">_</tspan><tspan font-size="9" x="-960.019" y="-287.032">services</tspan><tspan font-size="8" x="-987.866" y="-40.2853">external</tspan><tspan font-size="8" x="-960.866" y="-40.2853">_</tspan><tspan font-size="8" x="-956.866" y="-40.2853">tokens</tspan><tspan font-size="7" x="-985.269" y="-136.802">externalserviceid</tspan><tspan font-size="7" x="-964.158" y="-213.176">id</tspan><tspan font-size="6" x="-111.557" y="-66.3028">userid</tspan><tspan font-size="11" x="-496.281" y="88.124">assign</tspan><tspan font-size="8" x="-154.589" y="-149.391">task</tspan><tspan font-size="8" x="-140.589" y="-149.391">_</tspan><tspan font-size="8" x="-136.589" y="-149.391">log</tspan><tspan font-size="7" x="-111.701" y="-125.052">userid</tspan><tspan font-size="8" x="-41.6858" y="-185.48">comments</tspan><tspan font-size="7" x="-51.4459" y="-140.159">userid</tspan><tspan font-size="10" x="-555.666" y="146.034">module</tspan><tspan font-size="10" x="-539.118" y="83.9276">id</tspan><tspan font-size="9" x="-480.417" y="148.552">id</tspan><tspan font-size="9" x="-495.373" y="203.105">instance</tspan><tspan font-size="6" x="-114.708" y="-11.7499">courseid</tspan><tspan font-size="8" x="-164.311" y="-177.087">tool</tspan><tspan font-size="8" x="-152.311" y="-177.087">_</tspan><tspan font-size="8" x="-148.311" y="-177.087">cohortroles</tspan><tspan font-size="7" x="-60.1149" y="-214.015">cohort</tspan><tspan font-size="7" x="-98.1914" y="-177.927">userid</tspan><tspan font-size="7" x="-93.4329" y="-214.015">id</tspan><tspan font-size="7" x="-150.325" y="-214.855">cohortid</tspan></text></g></g></g><rect x="697.5" y="104.5" width="162" height="240" stroke="#F7B6D2" stroke-width="1.33333" stroke-miterlimit="8" stroke-dasharray="5.33333 4" fill="none"/><text fill="#F7B6D2" font-family="DengXian,DengXian_MSFontService,sans-serif" font-weight="400" font-size="24" transform="translate(713.179 140)"></text></g></svg>