<svg width="1280" height="720" xmlns="http://www.w3.org/2000/svg" xmlns:xlink="http://www.w3.org/1999/xlink" overflow="hidden"><defs><clipPath id="clip0"><path d="M0 0 1280 0 1280 720 0 720Z" fill-rule="evenodd" clip-rule="evenodd"/></clipPath><clipPath id="clip1"><path d="M0 39 1280 39 1280 681 0 681Z" fill-rule="evenodd" clip-rule="evenodd"/></clipPath><clipPath id="clip2"><path d="M0 39 1280 39 1280 681 0 681Z" fill-rule="evenodd" clip-rule="evenodd"/></clipPath><clipPath id="clip3"><path d="M0 39 1280 39 1280 681 0 681Z" fill-rule="evenodd" clip-rule="evenodd"/></clipPath></defs><g clip-path="url(#clip0)"><rect x="0" y="0" width="1280" height="720" fill="#FFFFFF"/><g clip-path="url(#clip1)"><g clip-path="url(#clip2)"><g clip-path="url(#clip3)"><path d="M812.164 283.572C816.005 278.501 812.796 275.779 812.164 275.147 811.532 274.515 812.364 275.141 803.739 275.147 795.113 275.153 705.155 274.584 697.162 275.222 689.168 275.859 693.01 278.582 697.162 283.647 701.313 288.713 747.733 338.328 752.516 342.761 757.3 347.195 756.468 347.201 760.942 342.761 765.415 338.322 808.322 288.643 812.164 283.572" fill="#1F77B4" fill-opacity="0.3" transform="matrix(1.00017 0 -0 1 -28.0834 94.7697)"/><path d="M637.45 283.004C637.53 277.869 638.082 275.211 637.45 274.579 636.818 273.947 629.737 270.076 629.025 274.579 628.312 279.082 628.033 329.483 627.953 334.618 627.872 339.752 627.321 342.411 627.953 343.043 628.584 343.675 635.665 347.546 636.378 343.043 637.09 338.54 637.37 288.139 637.45 283.004" fill="#AEC7E8" fill-opacity="0.3" transform="matrix(1.00017 0 -0 1 -28.0834 94.7697)"/><path d="M-867.458 223.374C-863.791 222.114-866.826 215.581-867.458 214.949-868.09 214.317-871.585 214.321-875.884 214.949-880.182 215.577-921.11 222.064-924.777 223.324-928.444 224.584-925.408 231.117-924.777 231.749-924.145 232.381-920.65 232.377-916.351 231.749-912.052 231.121-871.125 224.634-867.458 223.374" fill="#FF7F0E" fill-opacity="0.3" transform="matrix(1.00017 0 -0 1 -28.0834 94.7697)"/><path d="M-976.718 235.911C-976.086 235.279-976.332 230.452-976.718 227.486-977.104 224.519-980.844 198.689-981.862 196.354-982.879 194.019-984.224 194.039-990.287 196.354-996.349 198.669-1057.26 224.272-1062.69 227.219-1068.12 230.166-1068.51 234.992-1062.69 235.644-1056.88 236.296-991.591 235.891-985.143 235.911-978.695 235.931-977.35 236.543-976.718 235.911" fill="#FFBB78" fill-opacity="0.3" transform="matrix(1.00017 0 -0 1 -28.0834 94.7697)"/><path d="M374.825 102.106C375.457 101.474 377.879 97.1832 374.825 93.6806 371.771 90.178 337.795 58.2755 334.11 55.4049 330.424 52.5342 326.316 54.773 325.685 55.4049 325.053 56.0368 322.631 60.3275 325.685 63.8301 328.738 67.3326 362.714 99.2351 366.4 102.106 370.085 104.976 374.193 102.738 374.825 102.106" fill="#2CA02C" fill-opacity="0.3" transform="matrix(1.00017 0 -0 1 -28.0834 94.7697)"/><path d="M413.466 139.757C414.098 139.125 420.635 132.036 413.466 131.332 406.297 130.629 325.675 130.45 317.874 130.379 310.072 130.307 310.08 129.747 309.448 130.379 308.816 131.011 302.279 138.1 309.448 138.804 316.618 139.507 397.239 139.686 405.041 139.757 412.842 139.829 412.834 140.389 413.466 139.757" fill="#98DF8A" fill-opacity="0.3" transform="matrix(1.00017 0 -0 1 -28.0834 94.7697)"/><path d="M922.421 385.426C928.471 384.709 925.718 382.493 922.421 377.001 919.125 371.509 882.398 317.059 878.469 312.199 874.541 307.339 873.429 307.253 870.044 312.199 866.659 317.145 836.088 372.565 833.334 378.142 830.581 383.72 832.702 385.935 833.334 386.567 833.966 387.199 835.078 386.653 841.76 386.567 848.441 386.482 916.372 386.144 922.421 385.426" fill="#D62728" fill-opacity="0.3" transform="matrix(1.00017 0 -0 1 -28.0834 94.7697)"/><path d="M924.63 450.89C930.72 450.13 925.262 443.097 924.63 442.465 923.998 441.833 922.927 442.337 916.204 442.465 909.482 442.593 841.084 443.415 834.994 444.175 828.903 444.935 834.362 451.968 834.994 452.6 835.626 453.232 836.696 452.728 843.419 452.6 850.142 452.472 918.539 451.65 924.63 450.89" fill="#FF9896" fill-opacity="0.3" transform="matrix(1.00017 0 -0 1 -28.0834 94.7697)"/><path d="M-795.246 381.88C-794.614 381.248-791.529 374.833-795.246 373.455-798.964 372.077-840.466 364.252-844.816 363.506-849.165 362.76-852.609 362.874-853.241 363.506-853.873 364.138-856.959 370.553-853.241 371.931-849.523 373.309-808.021 381.134-803.672 381.88-799.322 382.626-795.878 382.512-795.246 381.88" fill="#9467BD" fill-opacity="0.3" transform="matrix(1.00017 0 -0 1 -28.0834 94.7697)"/><path d="M-816.661 441.868C-816.029 441.236-813.243 435.723-816.661 433.442-820.079 431.162-858.18 413.107-862.23 411.458-866.28 409.809-870.023 410.826-870.655 411.458-871.287 412.09-874.073 417.602-870.655 419.883-867.237 422.164-829.136 440.219-825.086 441.868-821.037 443.516-817.293 442.5-816.661 441.868" fill="#C5B0D5" fill-opacity="0.3" transform="matrix(1.00017 0 -0 1 -28.0834 94.7697)"/><path d="M-908.09 361.81C-907.281 359.031-901.892 354.877-908.09 353.385-914.288 351.894-983.903 342.781-990.733 341.921-997.563 341.061-998.526 341.289-999.158 341.921-999.79 342.553-1004.55 346.707-999.158 350.346-993.769 353.986-933.323 387.441-927.302 390.449-921.281 393.457-920.318 392.597-918.877 390.449-917.436 388.301-908.899 364.59-908.09 361.81" fill="#8C564B" fill-opacity="0.3" transform="matrix(1.00017 0 -0 1 -28.0834 94.7697)"/><path d="M711.159 432.383C711.791 431.751 711.297 428.468 711.159 423.957 711.021 419.446 710.087 376.115 709.317 372.235 708.546 368.356 701.523 371.604 700.891 372.235 700.259 372.867 700.753 376.15 700.891 380.661 701.03 385.172 701.964 428.503 702.734 432.383 703.504 436.262 710.527 433.014 711.159 432.383" fill="#C49C94" fill-opacity="0.3" transform="matrix(1.00017 0 -0 1 -28.0834 94.7697)"/><path d="M-347.88 512.882C-347.248 512.25-339.692 510.154-347.88 504.457-356.067 498.76-448.224 441.987-457.044 436.922-465.863 431.857-464.837 436.29-465.469 436.922-466.101 437.554-473.656 439.65-465.469 445.347-457.281 451.044-365.124 507.817-356.305 512.882-347.486 517.947-348.511 513.514-347.88 512.882" fill="#E377C2" fill-opacity="0.3" transform="matrix(1.00017 0 -0 1 -28.0834 94.7697)"/><path d="M-248.016 544.898C-247.384 544.266-244.509 538.323-248.016 536.473-251.522 534.623-290.631 521.449-294.77 520.231-298.908 519.013-302.563 519.599-303.195 520.231-303.827 520.863-306.701 526.806-303.195 528.656-299.688 530.506-260.579 543.68-256.441 544.898-252.303 546.116-248.648 545.53-248.016 544.898" fill="#F7B6D2" fill-opacity="0.3" transform="matrix(1.00017 0 -0 1 -28.0834 94.7697)"/><path d="M-272.578 582.688C-271.946 582.056-269.766 577.226-272.578 574.263-275.391 571.3-306.631 545.511-310.075 543.18-313.519 540.849-317.868 542.548-318.5 543.18-319.132 543.812-321.313 548.642-318.5 551.605-315.688 554.568-284.448 580.357-281.003 582.688-277.559 585.02-273.21 583.32-272.578 582.688" fill="#7F7F7F" fill-opacity="0.3" transform="matrix(1.00017 0 -0 1 -28.0834 94.7697)"/><path d="M-491.597 114.578C-488.678 112.24-490.965 106.785-491.597 106.153-492.229 105.521-496.472 104.446-500.023 106.153-503.574 107.86-536.025 126.574-538.944 128.913-541.863 131.252-539.576 136.706-538.944 137.338-538.312 137.97-534.07 139.045-530.519 137.338-526.968 135.631-494.516 116.917-491.597 114.578" fill="#C7C7C7" fill-opacity="0.3" transform="matrix(1.00017 0 -0 1 -28.0834 94.7697)"/><path d="M-579.044 160.681C-573.083 157.685-578.412 152.888-579.044 152.256-579.675 151.624-580.876 149.892-587.469 152.256-594.061 154.62-660.983 180.781-666.943 183.777-672.904 186.773-667.575 191.57-666.943 192.202-666.311 192.834-665.11 194.566-658.518 192.202-651.925 189.838-585.004 163.677-579.044 160.681" fill="#BCBD22" fill-opacity="0.3" transform="matrix(1.00017 0 -0 1 -28.0834 94.7697)"/><path d="M562.171 517.47C562.803 516.838 562.64 513.75 562.171 509.045 561.701 504.339 563.338 459.138 555.914 454.73 548.491 450.322 470.773 450.602 463.186 450.267 455.6 449.933 455.393 449.635 454.761 450.267 454.129 450.899 447.337 453.652 454.761 458.693 462.185 463.733 545.69 513.062 553.745 517.47 561.801 521.878 561.539 518.102 562.171 517.47" fill="#DBDB8D" fill-opacity="0.3" transform="matrix(1.00017 0 -0 1 -28.0834 94.7697)"/><path d="M591.327 327.267C593.852 320.168 591.959 319.473 591.327 318.842 590.695 318.21 588.415 318.612 582.902 318.842 577.388 319.071 522.694 321.042 517.812 321.904 512.93 322.765 515.456 323.46 517.812 330.329 520.168 337.198 546.241 407.255 549.229 413.492 552.218 419.729 554.497 419.959 557.655 413.492 560.812 407.025 588.801 334.366 591.327 327.267" fill="#17BECF" fill-opacity="0.3" transform="matrix(1.00017 0 -0 1 -28.0834 94.7697)"/><path d="M455.911 386.578C456.543 385.947 455.955 383.09 455.911 378.153 455.867 373.217 456.002 325.064 455.326 320.759 454.65 316.454 447.533 320.127 446.901 320.759 446.269 321.391 446.857 324.248 446.901 329.184 446.945 334.121 446.81 382.274 447.486 386.578 448.161 390.883 455.279 387.21 455.911 386.578" fill="#9EDAE5" fill-opacity="0.3" transform="matrix(1.00017 0 -0 1 -28.0834 94.7697)"/><path d="M-416.838 292.637C-416.206 292.005-416.515 290.392-416.838 284.212-417.161 278.031-420.189 215.778-421.144 210.229-422.099 204.68-425.248 207.389-429.57 210.229-433.891 213.069-475.076 244.625-478.765 248.097-482.455 251.569-482.778 253.182-478.765 256.522-474.753 259.863-429.908 289.928-425.263 292.637-420.619 295.345-417.47 293.269-416.838 292.637" fill="#1F77B4" fill-opacity="0.3" transform="matrix(1.00017 0 -0 1 -28.0834 94.7697)"/><path d="M-333.922 345.469C-333.29 344.837-331.054 339.433-333.922 337.044-336.789 334.655-368.656 315.37-372.156 313.613-375.655 311.855-379.949 312.981-380.581 313.613-381.213 314.245-383.448 319.649-380.581 322.038-377.713 324.427-345.846 343.712-342.347 345.469-338.847 347.227-334.554 346.101-333.922 345.469" fill="#AEC7E8" fill-opacity="0.3" transform="matrix(1.00017 0 -0 1 -28.0834 94.7697)"/><path d="M384.195 328.548C384.827 327.916 389.587 328.627 384.195 320.123 378.804 311.619 318.329 223.033 312.305 215.161 306.282 207.289 304.61 207.426 303.88 215.161 303.15 222.896 302.67 309.932 302.572 318.3 302.474 326.667 297.082 325.956 302.572 326.725 308.062 327.494 369.648 328.412 375.77 328.548 381.892 328.685 383.564 329.18 384.195 328.548" fill="#FF7F0E" fill-opacity="0.3" transform="matrix(1.00017 0 -0 1 -28.0834 94.7697)"/><path d="M383.164 379.088C383.283 374.817 383.796 371.295 383.164 370.663 382.532 370.031 375.49 367.024 374.739 370.663 373.988 374.303 373.271 414.918 373.152 419.189 373.033 423.46 372.52 426.982 373.152 427.614 373.784 428.246 380.826 431.254 381.577 427.614 382.328 423.975 383.045 383.36 383.164 379.088" fill="#FFBB78" fill-opacity="0.3" transform="matrix(1.00017 0 -0 1 -28.0834 94.7697)"/><path d="M414.15 84.2538C414.782 83.6219 414.177 79.0044 414.15 75.8286 414.123 72.6529 414.451 44.454 413.792 41.9101 413.133 39.3663 405.999 41.2783 405.367 41.9101 404.735 42.542 405.34 47.1596 405.367 50.3353 405.394 53.5111 405.066 81.7099 405.725 84.2538 406.384 86.7977 413.518 84.8857 414.15 84.2538" fill="#2CA02C" fill-opacity="0.3" transform="matrix(1.00017 0 -0 1 -28.0834 94.7697)"/><path d="M-659.904 282.093C-659.273 281.461-656.401 274.832-659.904 273.668-663.408 272.503-702.48 267.099-706.615 266.567-710.75 266.034-714.408 265.935-715.04 266.567-715.672 267.198-718.543 273.827-715.04 274.992-711.537 276.156-672.465 281.56-668.33 282.093-664.194 282.626-660.536 282.725-659.904 282.093" fill="#98DF8A" fill-opacity="0.3" transform="matrix(1.00017 0 -0 1 -28.0834 94.7697)"/><path d="M-765.906 269.398C-765.274 268.766-758.148 261.951-765.906 260.973-773.664 259.995-860.956 256.704-869.345 256.358-877.735 256.012-877.139 255.726-877.771 256.358-878.402 256.99-885.529 263.805-877.771 264.783-870.013 265.761-782.721 269.052-774.331 269.398-765.941 269.744-766.538 270.03-765.906 269.398" fill="#D62728" fill-opacity="0.3" transform="matrix(1.00017 0 -0 1 -28.0834 94.7697)"/><path d="M-349.551 149.071C-347.163 145.95-348.919 141.278-349.551 140.646-350.182 140.014-354.956 138.157-357.976 140.646-360.995 143.135-387.423 170.714-389.81 173.836-392.198 176.957-390.442 181.629-389.81 182.261-389.178 182.893-384.405 184.75-381.385 182.261-378.366 179.771-351.938 152.192-349.551 149.071" fill="#FF9896" fill-opacity="0.3" transform="matrix(1.00017 0 -0 1 -28.0834 94.7697)"/><path d="M637.573 217.964C641.94 214.34 638.205 210.171 637.573 209.539 636.941 208.907 638.119 209.502 629.148 209.539 620.178 209.577 526.306 209.369 517.967 210.038 509.628 210.708 513.996 214.877 517.967 218.464 521.938 222.051 566.316 254.91 570.919 257.865 575.522 260.82 574.345 260.857 579.344 257.865 584.343 254.872 633.206 221.589 637.573 217.964" fill="#9467BD" fill-opacity="0.3" transform="matrix(1.00017 0 -0 1 -28.0834 94.7697)"/><path d="M559.368 156.708C560 156.076 559.43 151.919 559.368 148.283 559.305 144.647 558.672 113.779 558.534 108.223 558.396 102.668 558.235 76.7553 557.528 74.2038 556.82 71.6523 552.629 73.513 549.102 74.2038 545.575 74.8946 514.402 80.7943 510.502 83.4142 506.602 86.0342 498.102 106.576 497.097 109.137 496.091 111.698 493.058 113.994 497.097 117.562 501.135 121.13 546.272 153.772 550.943 156.708 555.613 159.644 558.736 157.34 559.368 156.708" fill="#C5B0D5" fill-opacity="0.3" transform="matrix(1.00017 0 -0 1 -28.0834 94.7697)"/><path d="M555.98 48.4684C558.788 46.5414 558.862 41.6531 555.98 40.0432 553.097 38.4334 521.064 27.9817 517.55 27.0037 514.035 26.0257 513.186 25.6051 509.124 27.0037 505.063 28.4023 466.83 43.6209 463.4 45.6514 459.971 47.6819 459.898 52.5702 463.4 54.0766 466.903 55.583 505.969 64.8619 510.104 65.7364 514.239 66.6109 515.088 67.0315 518.529 65.7364 521.97 64.4413 553.171 50.3954 555.98 48.4684" fill="#8C564B" fill-opacity="0.3" transform="matrix(1.00017 0 -0 1 -28.0834 94.7697)"/><path d="M-878.633 161.765C-875.166 159.727-878.001 153.972-878.633 153.34-879.265 152.708-882.959 151.934-887.058 153.34-891.158 154.746-929.824 170.052-933.291 172.09-936.758 174.128-933.923 179.883-933.291 180.515-932.659 181.147-928.965 181.921-924.866 180.515-920.766 179.109-882.101 163.803-878.633 161.765" fill="#C49C94" fill-opacity="0.3" transform="matrix(1.00017 0 -0 1 -28.0834 94.7697)"/><path d="M808.976 29.9705C809.146 26.5272 809.608 22.1772 808.976 21.5453 808.344 20.9134 801.353 18.7339 800.551 21.5453 799.75 24.3568 798.461 55.5878 798.292 59.0311 798.122 62.4744 797.66 66.8244 798.292 67.4563 798.923 68.0882 805.915 70.2677 806.717 67.4563 807.518 64.6449 808.807 33.4138 808.976 29.9705" fill="#E377C2" fill-opacity="0.3" transform="matrix(1.00017 0 -0 1 -28.0834 94.7697)"/><path d="M810.481 220.35C811.113 219.718 810.776 220.811 810.481 211.925 810.187 203.039 807.481 110.13 806.555 101.876 805.628 93.6225 805.073 98.4741 798.13 101.876 791.186 105.278 720.285 143.204 713.973 147.238 707.662 151.272 707.367 150.179 713.973 155.663 720.58 161.146 794.818 215.499 802.056 220.35 809.294 225.202 809.849 220.982 810.481 220.35" fill="#F7B6D2" fill-opacity="0.3" transform="matrix(1.00017 0 -0 1 -28.0834 94.7697)"/><path d="M-250.203 308.858C-250.185 304.399-249.572 301.064-250.203 300.433-250.835 299.801-257.978 296.606-258.629 300.433-259.279 304.259-258.855 346.993-258.873 351.452-258.892 355.91-259.505 359.245-258.873 359.877-258.241 360.509-251.098 363.703-250.448 359.877-249.798 356.05-250.222 313.316-250.203 308.858" fill="#7F7F7F" fill-opacity="0.3" transform="matrix(1.00017 0 -0 1 -28.0834 94.7697)"/><path d="M-249.087 434.339C-248.455 433.707-248.975 429.143-249.087 425.914-249.198 422.684-249.831 393.88-250.574 391.282-251.318 388.685-258.367 390.65-258.999 391.282-259.631 391.914-259.111 396.478-258.999 399.708-258.888 402.937-258.255 431.741-257.512 434.339-256.769 436.936-249.719 434.971-249.087 434.339" fill="#C7C7C7" fill-opacity="0.3" transform="matrix(1.00017 0 -0 1 -28.0834 94.7697)"/><path d="M721.563 98.9487C722.195 98.3168 721.724 95.2851 721.563 90.5235 721.401 85.7618 720.202 39.5899 719.409 35.4602 718.616 31.3305 711.616 34.8283 710.984 35.4602 710.352 36.0921 710.822 39.1238 710.984 43.8854 711.145 48.647 712.344 94.8189 713.138 98.9487 713.931 103.078 720.931 99.5805 721.563 98.9487" fill="#BCBD22" fill-opacity="0.3" transform="matrix(1.00017 0 -0 1 -28.0834 94.7697)"/><path d="M-341.266 255.766C-340.634 255.134-338.078 249.774-341.266 247.341-344.453 244.908-379.944 225.129-383.763 223.328-387.582 221.527-391.556 222.696-392.188 223.328-392.82 223.96-395.375 229.32-392.188 231.753-389.001 234.186-353.51 253.965-349.691 255.766-345.872 257.567-341.898 256.398-341.266 255.766" fill="#DBDB8D" fill-opacity="0.3" transform="matrix(1.00017 0 -0 1 -28.0834 94.7697)"/><path d="M-276.97 166.092C-274.059 163.751-276.338 158.298-276.97 157.666-277.602 157.034-281.853 155.957-285.396 157.666-288.939 159.375-321.3 178.111-324.211 180.452-327.122 182.792-324.843 188.245-324.211 188.877-323.579 189.509-319.329 190.586-315.785 188.877-312.242 187.168-279.881 168.432-276.97 166.092" fill="#17BECF" fill-opacity="0.3" transform="matrix(1.00017 0 -0 1 -28.0834 94.7697)"/><path d="M-255.433 238.329C-251.941 237.421-254.801 230.535-255.433 229.903-256.065 229.272-259.735 229.628-263.858 229.903-267.981 230.179-306.919 232.668-310.41 233.575-313.902 234.483-311.042 241.369-310.41 242.001-309.778 242.632-306.108 242.276-301.985 242.001-297.862 241.725-258.924 239.236-255.433 238.329" fill="#9EDAE5" fill-opacity="0.3" transform="matrix(1.00017 0 -0 1 -28.0834 94.7697)"/><path d="M-246.15 106.403C-246.105 102.084-245.519 98.6099-246.15 97.9781-246.782 97.3462-253.898 94.291-254.576 97.9781-255.253 101.665-255.139 142.82-255.185 147.139-255.23 151.458-255.816 154.932-255.185 155.564-254.553 156.196-247.437 159.251-246.759 155.564-246.082 151.877-246.196 110.722-246.15 106.403" fill="#1F77B4" fill-opacity="0.3" transform="matrix(1.00017 0 -0 1 -28.0834 94.7697)"/><path d="M-246.606 201.147C-246.605 195.973-245.974 193.354-246.606 192.722-247.237 192.09-254.399 188.18-255.031 192.722-255.663 197.264-255.034 248.109-255.034 253.283-255.034 258.457-255.666 261.076-255.034 261.708-254.402 262.34-247.241 266.25-246.609 261.708-245.977 257.166-246.606 206.321-246.606 201.147" fill="#AEC7E8" fill-opacity="0.3" transform="matrix(1.00017 0 -0 1 -28.0834 94.7697)"/><path d="M663.822 465.424C667.983 460.718 664.454 457.63 663.822 456.999 663.191 456.367 660.039 456.988 655.397 456.999 650.756 457.009 606.098 453.069 601.937 457.143 597.776 461.217 600.072 506.62 599.921 511.315 599.769 516.01 599.289 519.109 599.921 519.74 600.552 520.372 603.553 523.814 608.346 519.74 613.138 515.667 659.662 470.129 663.822 465.424" fill="#FF7F0E" fill-opacity="0.3" transform="matrix(1.00017 0 -0 1 -28.0834 94.7697)"/><path d="M451.364 94.2428C452.448 92.26 451.996 86.4495 451.364 85.8176 450.732 85.1857 444.654 84.4667 442.938 85.8176 441.223 87.1686 429.571 101.848 428.487 103.83 427.403 105.813 427.855 111.624 428.487 112.256 429.119 112.887 435.196 113.607 436.912 112.256 438.628 110.905 450.28 96.2257 451.364 94.2428" fill="#FFBB78" fill-opacity="0.3" transform="matrix(1.00017 0 -0 1 -28.0834 94.7697)"/><path d="M518.026 167.482C520.083 165.164 521.087 161.078 518.026 159.056 514.964 157.035 480.899 141.918 477.206 140.528 473.512 139.138 469.412 139.896 468.781 140.528 468.149 141.16 467.777 145.246 468.781 148.953 469.784 152.661 480.529 186.886 482.165 189.962 483.801 193.038 487.901 191.648 490.59 189.962 493.28 188.276 515.968 169.8 518.026 167.482" fill="#2CA02C" fill-opacity="0.3" transform="matrix(1.00017 0 -0 1 -28.0834 94.7697)"/><path d="M458.291 205.452C461.53 200.663 461.572 198.833 458.291 197.027 455.01 195.222 418.455 182.555 414.542 181.382 410.629 180.208 406.749 180.75 406.117 181.382 405.485 182.014 406.075 183.845 406.117 189.807 406.159 195.77 406.002 255.55 406.676 260.881 407.35 266.212 411.23 265.038 415.101 260.881 418.972 256.724 455.052 210.241 458.291 205.452" fill="#98DF8A" fill-opacity="0.3" transform="matrix(1.00017 0 -0 1 -28.0834 94.7697)"/><path d="M498.634 256.37C500.985 252.922 499.266 248.576 498.634 247.944 498.002 247.313 493.192 245.129 490.209 247.944 487.226 250.76 461.212 282.042 458.861 285.489 456.51 288.937 458.229 293.283 458.861 293.914 459.493 294.546 464.303 296.73 467.286 293.914 470.269 291.099 496.283 259.817 498.634 256.37" fill="#D62728" fill-opacity="0.3" transform="matrix(1.00017 0 -0 1 -28.0834 94.7697)"/><path d="M313.661 134.591 409.253 135.545" stroke="#333333" stroke-width="0.84252" stroke-opacity="0.5" transform="matrix(1.00017 0 -0 1 -28.0834 94.7697)"/><path d="M329.897 59.6175 370.612 97.8932" stroke="#333333" stroke-width="0.84252" stroke-opacity="0.5" transform="matrix(1.00017 0 -0 1 -28.0834 94.7697)"/><path d="M409.253 135.545 370.612 97.8932" stroke="#333333" stroke-width="6.38317" stroke-opacity="0.5" transform="matrix(1.00017 0 -0 1 -28.0834 94.7697)"/><path d="M839.206 448.388 920.417 446.677" stroke="#333333" stroke-width="0.84252" stroke-opacity="0.5" transform="matrix(1.00017 0 -0 1 -28.0834 94.7697)"/><path d="M837.547 382.355 918.209 381.214" stroke="#333333" stroke-width="0.84252" stroke-opacity="0.5" transform="matrix(1.00017 0 -0 1 -28.0834 94.7697)"/><path d="M918.209 381.214 920.417 446.677" stroke="#333333" stroke-width="5.56795" stroke-opacity="0.5" transform="matrix(1.00017 0 -0 1 -28.0834 94.7697)"/><path d="M-994.945 346.134-923.089 386.236" stroke="#333333" stroke-width="0.84252" stroke-opacity="0.5" transform="matrix(1.00017 0 -0 1 -28.0834 94.7697)"/><path d="M-820.874 437.655-866.443 415.67" stroke="#333333" stroke-width="0.84252" stroke-opacity="0.5" transform="matrix(1.00017 0 -0 1 -28.0834 94.7697)"/><path d="M-866.443 415.67-923.089 386.236" stroke="#333333" stroke-width="4.79498" stroke-opacity="0.5" transform="matrix(1.00017 0 -0 1 -28.0834 94.7697)"/><path d="M-799.459 377.668-849.028 367.719" stroke="#333333" stroke-width="0.84252" stroke-opacity="0.5" transform="matrix(1.00017 0 -0 1 -28.0834 94.7697)"/><path d="M-994.945 346.134-912.302 357.598" stroke="#333333" stroke-width="0.84252" stroke-opacity="0.5" transform="matrix(1.00017 0 -0 1 -28.0834 94.7697)"/><path d="M-912.302 357.598-849.028 367.719" stroke="#333333" stroke-width="5.29188" stroke-opacity="0.5" transform="matrix(1.00017 0 -0 1 -28.0834 94.7697)"/><path d="M706.946 428.17 705.104 376.448" stroke="#333333" stroke-width="0.84252" stroke-opacity="0.5" transform="matrix(1.00017 0 -0 1 -28.0834 94.7697)"/><path d="M756.729 338.549 701.374 279.435" stroke="#333333" stroke-width="0.84252" stroke-opacity="0.5" transform="matrix(1.00017 0 -0 1 -28.0834 94.7697)"/><path d="M701.374 279.435 705.104 376.448" stroke="#333333" stroke-width="4.79786" stroke-opacity="0.5" transform="matrix(1.00017 0 -0 1 -28.0834 94.7697)"/><path d="M-276.791 578.476-314.288 547.392" stroke="#333333" stroke-width="0.84252" stroke-opacity="0.5" transform="matrix(1.00017 0 -0 1 -28.0834 94.7697)"/><path d="M-461.256 441.134-352.092 508.67" stroke="#333333" stroke-width="0.84252" stroke-opacity="0.5" transform="matrix(1.00017 0 -0 1 -28.0834 94.7697)"/><path d="M-352.092 508.67-314.288 547.392" stroke="#333333" stroke-width="4.79498" stroke-opacity="0.5" transform="matrix(1.00017 0 -0 1 -28.0834 94.7697)"/><path d="M-252.228 540.686-298.982 524.444" stroke="#333333" stroke-width="0.84252" stroke-opacity="0.5" transform="matrix(1.00017 0 -0 1 -28.0834 94.7697)"/><path d="M-298.982 524.444-352.092 508.67" stroke="#333333" stroke-width="4.79498" stroke-opacity="0.5" transform="matrix(1.00017 0 -0 1 -28.0834 94.7697)"/><path d="M-495.81 110.366-534.732 133.125" stroke="#333333" stroke-width="0.84252" stroke-opacity="0.5" transform="matrix(1.00017 0 -0 1 -28.0834 94.7697)"/><path d="M-662.73 187.989-583.256 156.469" stroke="#333333" stroke-width="0.84252" stroke-opacity="0.5" transform="matrix(1.00017 0 -0 1 -28.0834 94.7697)"/><path d="M-583.256 156.469-534.732 133.125" stroke="#333333" stroke-width="5.29188" stroke-opacity="0.5" transform="matrix(1.00017 0 -0 1 -28.0834 94.7697)"/><path d="M837.547 382.355 874.257 316.411" stroke="#333333" stroke-width="0.84252" stroke-opacity="0.5" transform="matrix(1.00017 0 -0 1 -28.0834 94.7697)"/><path d="M756.729 338.549 807.951 279.36" stroke="#333333" stroke-width="0.84252" stroke-opacity="0.5" transform="matrix(1.00017 0 -0 1 -28.0834 94.7697)"/><path d="M807.951 279.36 874.257 316.411" stroke="#333333" stroke-width="5.42475" stroke-opacity="0.5" transform="matrix(1.00017 0 -0 1 -28.0834 94.7697)"/><path d="M632.165 338.83 633.237 278.791" stroke="#333333" stroke-width="0.84252" stroke-opacity="0.5" transform="matrix(1.00017 0 -0 1 -28.0834 94.7697)"/><path d="M552.471 360.514 587.114 323.054" stroke="#333333" stroke-width="0.84252" stroke-opacity="0.5" transform="matrix(1.00017 0 -0 1 -28.0834 94.7697)"/><path d="M633.237 278.791 587.114 323.054" stroke="#333333" stroke-width="4.3483" stroke-opacity="0.5" transform="matrix(1.00017 0 -0 1 -28.0834 94.7697)"/><path d="M-338.134 341.257-376.368 317.825" stroke="#333333" stroke-width="0.84252" stroke-opacity="0.5" transform="matrix(1.00017 0 -0 1 -28.0834 94.7697)"/><path d="M-474.553 252.31-421.051 288.424" stroke="#333333" stroke-width="0.84252" stroke-opacity="0.5" transform="matrix(1.00017 0 -0 1 -28.0834 94.7697)"/><path d="M-376.368 317.825-421.051 288.424" stroke="#333333" stroke-width="5.0337" stroke-opacity="0.5" transform="matrix(1.00017 0 -0 1 -28.0834 94.7697)"/><path d="M458.974 454.48 551.702 458.942" stroke="#333333" stroke-width="0.84252" stroke-opacity="0.5" transform="matrix(1.00017 0 -0 1 -28.0834 94.7697)"/><path d="M552.471 360.514 553.442 409.28" stroke="#333333" stroke-width="0.84252" stroke-opacity="0.5" transform="matrix(1.00017 0 -0 1 -28.0834 94.7697)"/><path d="M553.442 409.28 551.702 458.942" stroke="#333333" stroke-width="5.87898" stroke-opacity="0.5" transform="matrix(1.00017 0 -0 1 -28.0834 94.7697)"/><path d="M451.698 382.366 451.113 324.972" stroke="#333333" stroke-width="0.84252" stroke-opacity="0.5" transform="matrix(1.00017 0 -0 1 -28.0834 94.7697)"/><path d="M552.471 360.514 522.024 326.116" stroke="#333333" stroke-width="0.84252" stroke-opacity="0.5" transform="matrix(1.00017 0 -0 1 -28.0834 94.7697)"/><path d="M451.113 324.972 522.024 326.116" stroke="#333333" stroke-width="5.12683" stroke-opacity="0.5" transform="matrix(1.00017 0 -0 1 -28.0834 94.7697)"/><path d="M-664.117 277.88-710.828 270.779" stroke="#333333" stroke-width="0.84252" stroke-opacity="0.5" transform="matrix(1.00017 0 -0 1 -28.0834 94.7697)"/><path d="M-873.558 260.571-770.118 265.185" stroke="#333333" stroke-width="0.84252" stroke-opacity="0.5" transform="matrix(1.00017 0 -0 1 -28.0834 94.7697)"/><path d="M-770.118 265.185-710.828 270.779" stroke="#333333" stroke-width="3.487" stroke-opacity="0.5" transform="matrix(1.00017 0 -0 1 -28.0834 94.7697)"/><path d="M-474.553 252.31-425.357 214.441" stroke="#333333" stroke-width="0.84252" stroke-opacity="0.5" transform="matrix(1.00017 0 -0 1 -28.0834 94.7697)"/><path d="M-353.763 144.859-385.598 178.048" stroke="#333333" stroke-width="0.84252" stroke-opacity="0.5" transform="matrix(1.00017 0 -0 1 -28.0834 94.7697)"/><path d="M-425.357 214.441-385.598 178.048" stroke="#333333" stroke-width="1.63009" stroke-opacity="0.5" transform="matrix(1.00017 0 -0 1 -28.0834 94.7697)"/><path d="M575.132 253.652 633.361 213.752" stroke="#333333" stroke-width="0.84252" stroke-opacity="0.5" transform="matrix(1.00017 0 -0 1 -28.0834 94.7697)"/><path d="M633.237 278.791 633.361 213.752" stroke="#333333" stroke-width="1.63009" stroke-opacity="0.5" transform="matrix(1.00017 0 -0 1 -28.0834 94.7697)"/><path d="M513.337 31.2163 551.767 44.2558" stroke="#333333" stroke-width="0.84252" stroke-opacity="0.5" transform="matrix(1.00017 0 -0 1 -28.0834 94.7697)"/><path d="M554.321 112.436 553.315 78.4164" stroke="#333333" stroke-width="0.84252" stroke-opacity="0.5" transform="matrix(1.00017 0 -0 1 -28.0834 94.7697)"/><path d="M553.315 78.4164 551.767 44.2558" stroke="#333333" stroke-width="1.83632" stroke-opacity="0.5" transform="matrix(1.00017 0 -0 1 -28.0834 94.7697)"/><path d="M513.337 31.2163 467.613 49.864" stroke="#333333" stroke-width="0.84252" stroke-opacity="0.5" transform="matrix(1.00017 0 -0 1 -28.0834 94.7697)"/><path d="M467.613 49.864 409.253 135.545" stroke="#333333" stroke-width="1.83632" stroke-opacity="0.5" transform="matrix(1.00017 0 -0 1 -28.0834 94.7697)"/><path d="M554.321 112.436 501.309 113.349" stroke="#333333" stroke-width="0.84252" stroke-opacity="0.5" transform="matrix(1.00017 0 -0 1 -28.0834 94.7697)"/><path d="M501.309 113.349 409.253 135.545" stroke="#333333" stroke-width="1.33942" stroke-opacity="0.5" transform="matrix(1.00017 0 -0 1 -28.0834 94.7697)"/><path d="M513.337 31.2163 514.317 61.5238" stroke="#333333" stroke-width="0.84252" stroke-opacity="0.5" transform="matrix(1.00017 0 -0 1 -28.0834 94.7697)"/><path d="M514.317 61.5238 514.317 61.5238" stroke="#333333" stroke-width="2.12699" stroke-opacity="0.5" fill="none" transform="matrix(1.00017 0 -0 1 -28.0834 94.7697)"/><path d="M575.132 253.652 522.18 214.251" stroke="#333333" stroke-width="0.84252" stroke-opacity="0.5" transform="matrix(1.00017 0 -0 1 -28.0834 94.7697)"/><path d="M522.024 326.116 522.18 214.251" stroke="#333333" stroke-width="2.12699" stroke-opacity="0.5" transform="matrix(1.00017 0 -0 1 -28.0834 94.7697)"/><path d="M-1058.48 231.431-986.074 200.567" stroke="#333333" stroke-width="0.84252" stroke-opacity="0.5" transform="matrix(1.00017 0 -0 1 -28.0834 94.7697)"/><path d="M-882.846 157.553-929.078 176.302" stroke="#333333" stroke-width="0.84252" stroke-opacity="0.5" transform="matrix(1.00017 0 -0 1 -28.0834 94.7697)"/><path d="M-929.078 176.302-986.074 200.567" stroke="#333333" stroke-width="1.63009" stroke-opacity="0.5" transform="matrix(1.00017 0 -0 1 -28.0834 94.7697)"/><path d="M-1058.48 231.431-980.93 231.698" stroke="#333333" stroke-width="0.84252" stroke-opacity="0.5" transform="matrix(1.00017 0 -0 1 -28.0834 94.7697)"/><path d="M-871.671 219.162-920.564 227.536" stroke="#333333" stroke-width="0.84252" stroke-opacity="0.5" transform="matrix(1.00017 0 -0 1 -28.0834 94.7697)"/><path d="M-920.564 227.536-980.93 231.698" stroke="#333333" stroke-width="1.63009" stroke-opacity="0.5" transform="matrix(1.00017 0 -0 1 -28.0834 94.7697)"/><path d="M918.209 381.214 918.209 381.214" stroke="#333333" stroke-width="4.99322" stroke-opacity="0.5" fill="none" transform="matrix(1.00017 0 -0 1 -28.0834 94.7697)"/><path d="M804.764 25.7579 802.504 63.2437" stroke="#333333" stroke-width="0.84252" stroke-opacity="0.5" transform="matrix(1.00017 0 -0 1 -28.0834 94.7697)"/><path d="M802.614 152.764 802.342 106.089" stroke="#333333" stroke-width="0.84252" stroke-opacity="0.5" transform="matrix(1.00017 0 -0 1 -28.0834 94.7697)"/><path d="M802.504 63.2437 802.342 106.089" stroke="#333333" stroke-width="4.68592" stroke-opacity="0.5" transform="matrix(1.00017 0 -0 1 -28.0834 94.7697)"/><path d="M-254.416 304.645-254.661 355.664" stroke="#333333" stroke-width="0.84252" stroke-opacity="0.5" transform="matrix(1.00017 0 -0 1 -28.0834 94.7697)"/><path d="M-253.299 430.126-254.787 395.495" stroke="#333333" stroke-width="0.84252" stroke-opacity="0.5" transform="matrix(1.00017 0 -0 1 -28.0834 94.7697)"/><path d="M-254.787 395.495-254.661 355.664" stroke="#333333" stroke-width="0.84252" stroke-opacity="0.5" transform="matrix(1.00017 0 -0 1 -28.0834 94.7697)"/><path d="M409.253 135.545 409.253 135.545" stroke="#333333" stroke-width="4.32641" stroke-opacity="0.5" fill="none" transform="matrix(1.00017 0 -0 1 -28.0834 94.7697)"/><path d="M802.614 152.764 718.186 151.45" stroke="#333333" stroke-width="0.84252" stroke-opacity="0.5" transform="matrix(1.00017 0 -0 1 -28.0834 94.7697)"/><path d="M715.196 39.6728 717.35 94.7361" stroke="#333333" stroke-width="0.84252" stroke-opacity="0.5" transform="matrix(1.00017 0 -0 1 -28.0834 94.7697)"/><path d="M717.35 94.7361 718.186 151.45" stroke="#333333" stroke-width="5.22529" stroke-opacity="0.5" transform="matrix(1.00017 0 -0 1 -28.0834 94.7697)"/><path d="M802.614 152.764 806.269 216.138" stroke="#333333" stroke-width="0.84252" stroke-opacity="0.5" transform="matrix(1.00017 0 -0 1 -28.0834 94.7697)"/><path d="M807.951 279.36 806.269 216.138" stroke="#333333" stroke-width="5.22529" stroke-opacity="0.5" transform="matrix(1.00017 0 -0 1 -28.0834 94.7697)"/><path d="M306.785 322.512 308.093 219.374" stroke="#333333" stroke-width="0.84252" stroke-opacity="0.5" transform="matrix(1.00017 0 -0 1 -28.0834 94.7697)"/><path d="M308.093 219.374 409.253 135.545" stroke="#333333" stroke-width="5.03577" stroke-opacity="0.5" transform="matrix(1.00017 0 -0 1 -28.0834 94.7697)"/><path d="M306.785 322.512 379.983 324.336" stroke="#333333" stroke-width="0.84252" stroke-opacity="0.5" transform="matrix(1.00017 0 -0 1 -28.0834 94.7697)"/><path d="M377.365 423.401 378.951 374.876" stroke="#333333" stroke-width="0.84252" stroke-opacity="0.5" transform="matrix(1.00017 0 -0 1 -28.0834 94.7697)"/><path d="M378.951 374.876 379.983 324.336" stroke="#333333" stroke-width="4.22511" stroke-opacity="0.5" transform="matrix(1.00017 0 -0 1 -28.0834 94.7697)"/><path d="M409.58 46.1227 409.938 80.0412" stroke="#333333" stroke-width="0.84252" stroke-opacity="0.5" transform="matrix(1.00017 0 -0 1 -28.0834 94.7697)"/><path d="M409.938 80.0412 409.253 135.545" stroke="#333333" stroke-width="2.33322" stroke-opacity="0.5" transform="matrix(1.00017 0 -0 1 -28.0834 94.7697)"/><path d="M-281.183 161.879-319.998 184.664" stroke="#333333" stroke-width="0.84252" stroke-opacity="0.5" transform="matrix(1.00017 0 -0 1 -28.0834 94.7697)"/><path d="M-345.478 251.553-387.975 227.54" stroke="#333333" stroke-width="0.84252" stroke-opacity="0.5" transform="matrix(1.00017 0 -0 1 -28.0834 94.7697)"/><path d="M-387.975 227.54-319.998 184.664" stroke="#333333" stroke-width="1.83632" stroke-opacity="0.5" transform="matrix(1.00017 0 -0 1 -28.0834 94.7697)"/><path d="M-259.645 234.116-306.198 237.788" stroke="#333333" stroke-width="0.84252" stroke-opacity="0.5" transform="matrix(1.00017 0 -0 1 -28.0834 94.7697)"/><path d="M-319.998 184.664-306.198 237.788" stroke="#333333" stroke-width="1.33942" stroke-opacity="0.5" transform="matrix(1.00017 0 -0 1 -28.0834 94.7697)"/><path d="M-387.975 227.54-306.198 237.788" stroke="#333333" stroke-width="0.84252" stroke-opacity="0.5" transform="matrix(1.00017 0 -0 1 -28.0834 94.7697)"/><path d="M701.374 279.435 633.237 278.791" stroke="#333333" stroke-width="0.84252" stroke-opacity="0.5" transform="matrix(1.00017 0 -0 1 -28.0834 94.7697)"/><path d="M-250.363 102.191-250.972 151.351" stroke="#333333" stroke-width="0.84252" stroke-opacity="0.5" transform="matrix(1.00017 0 -0 1 -28.0834 94.7697)"/><path d="M-250.821 257.496-250.818 196.934" stroke="#333333" stroke-width="0.84252" stroke-opacity="0.5" transform="matrix(1.00017 0 -0 1 -28.0834 94.7697)"/><path d="M-250.972 151.351-250.818 196.934" stroke="#333333" stroke-width="0.84252" stroke-opacity="0.5" transform="matrix(1.00017 0 -0 1 -28.0834 94.7697)"/><path d="M604.133 515.528 606.149 461.356" stroke="#333333" stroke-width="0.84252" stroke-opacity="0.5" transform="matrix(1.00017 0 -0 1 -28.0834 94.7697)"/><path d="M604.133 515.528 659.61 461.211" stroke="#333333" stroke-width="0.84252" stroke-opacity="0.5" transform="matrix(1.00017 0 -0 1 -28.0834 94.7697)"/><path d="M659.61 461.211 606.149 461.356" stroke="#333333" stroke-width="1.33942" stroke-opacity="0.5" transform="matrix(1.00017 0 -0 1 -28.0834 94.7697)"/><path d="M458.974 454.48 557.958 513.258" stroke="#333333" stroke-width="0.84252" stroke-opacity="0.5" transform="matrix(1.00017 0 -0 1 -28.0834 94.7697)"/><path d="M606.149 461.356 557.958 513.258" stroke="#333333" stroke-width="1.33942" stroke-opacity="0.5" transform="matrix(1.00017 0 -0 1 -28.0834 94.7697)"/><path d="M554.321 112.436 514.715 87.6268" stroke="#333333" stroke-width="0.84252" stroke-opacity="0.5" transform="matrix(1.00017 0 -0 1 -28.0834 94.7697)"/><path d="M514.715 87.6268 514.317 61.5238" stroke="#333333" stroke-width="1.33942" stroke-opacity="0.5" transform="matrix(1.00017 0 -0 1 -28.0834 94.7697)"/><path d="M451.113 324.972 379.983 324.336" stroke="#333333" stroke-width="0.84252" stroke-opacity="0.5" transform="matrix(1.00017 0 -0 1 -28.0834 94.7697)"/><path d="M447.151 90.0302 432.699 108.043" stroke="#333333" stroke-width="0.84252" stroke-opacity="0.5" transform="matrix(1.00017 0 -0 1 -28.0834 94.7697)"/><path d="M432.699 108.043 409.253 135.545" stroke="#333333" stroke-width="0.84252" stroke-opacity="0.5" transform="matrix(1.00017 0 -0 1 -28.0834 94.7697)"/><path d="M554.321 112.436 555.155 152.496" stroke="#333333" stroke-width="0.84252" stroke-opacity="0.5" transform="matrix(1.00017 0 -0 1 -28.0834 94.7697)"/><path d="M522.18 214.251 555.155 152.496" stroke="#333333" stroke-width="0.84252" stroke-opacity="0.5" transform="matrix(1.00017 0 -0 1 -28.0834 94.7697)"/><path d="M494.422 252.157 463.074 289.702" stroke="#333333" stroke-width="0.84252" stroke-opacity="0.5" transform="matrix(1.00017 0 -0 1 -28.0834 94.7697)"/><path d="M522.024 326.116 463.074 289.702" stroke="#333333" stroke-width="0.84252" stroke-opacity="0.5" transform="matrix(1.00017 0 -0 1 -28.0834 94.7697)"/><path d="M410.982 221.308 410.888 256.668" stroke="#333333" stroke-width="0.84252" stroke-opacity="0.5" transform="matrix(1.00017 0 -0 1 -28.0834 94.7697)"/><path d="M463.074 289.702 410.888 256.668" stroke="#333333" stroke-width="0.84252" stroke-opacity="0.5" transform="matrix(1.00017 0 -0 1 -28.0834 94.7697)"/><path d="M410.982 221.308 410.329 185.594" stroke="#333333" stroke-width="0.84252" stroke-opacity="0.5" transform="matrix(1.00017 0 -0 1 -28.0834 94.7697)"/><path d="M409.253 135.545 410.329 185.594" stroke="#333333" stroke-width="0.84252" stroke-opacity="0.5" transform="matrix(1.00017 0 -0 1 -28.0834 94.7697)"/><path d="M513.813 163.269 486.378 185.75" stroke="#333333" stroke-width="0.84252" stroke-opacity="0.5" transform="matrix(1.00017 0 -0 1 -28.0834 94.7697)"/><path d="M410.982 221.308 454.078 201.24" stroke="#333333" stroke-width="0.84252" stroke-opacity="0.5" transform="matrix(1.00017 0 -0 1 -28.0834 94.7697)"/><path d="M486.378 185.75 454.078 201.24" stroke="#333333" stroke-width="0.84252" stroke-opacity="0.5" transform="matrix(1.00017 0 -0 1 -28.0834 94.7697)"/><path d="M513.813 163.269 472.993 144.741" stroke="#333333" stroke-width="0.84252" stroke-opacity="0.5" transform="matrix(1.00017 0 -0 1 -28.0834 94.7697)"/><path d="M409.253 135.545 472.993 144.741" stroke="#333333" stroke-width="0.84252" stroke-opacity="0.5" transform="matrix(1.00017 0 -0 1 -28.0834 94.7697)"/><path d="M777.215 338.549C777.215 349.863 768.043 359.035 756.729 359.035 745.415 359.035 736.243 349.863 736.243 338.549 736.243 327.235 745.415 318.063 756.729 318.063 768.043 318.063 777.215 327.235 777.215 338.549Z" fill="#1F77B4" transform="matrix(1.00017 0 -0 1 -28.0834 94.7697)"/><path d="M651.053 338.83C651.053 349.262 642.596 357.718 632.165 357.718 621.734 357.718 613.277 349.262 613.277 338.83 613.277 328.399 621.734 319.943 632.165 319.943 642.596 319.943 651.053 328.399 651.053 338.83Z" fill="#AEC7E8" transform="matrix(1.00017 0 -0 1 -28.0834 94.7697)"/><path d="M-853.919 219.162C-853.919 228.966-861.867 236.913-871.671 236.913-881.475 236.913-889.422 228.966-889.422 219.162-889.422 209.358-881.475 201.41-871.671 201.41-861.867 201.41-853.919 209.358-853.919 219.162Z" fill="#FF7F0E" transform="matrix(1.00017 0 -0 1 -28.0834 94.7697)"/><path d="M-1040.72 231.431C-1040.72 241.241-1048.67 249.194-1058.48 249.194-1068.29 249.194-1076.24 241.241-1076.24 231.431-1076.24 221.621-1068.29 213.669-1058.48 213.669-1048.67 213.669-1040.72 221.621-1040.72 231.431Z" fill="#FFBB78" transform="matrix(1.00017 0 -0 1 -28.0834 94.7697)"/><path d="M350.219 59.6175C350.219 70.8407 341.12 79.939 329.897 79.939 318.674 79.939 309.576 70.8407 309.576 59.6175 309.576 48.3942 318.674 39.2959 329.897 39.2959 341.12 39.2959 350.219 48.3942 350.219 59.6175Z" fill="#2CA02C" transform="matrix(1.00017 0 -0 1 -28.0834 94.7697)"/><path d="M334.082 134.591C334.082 145.87 324.939 155.012 313.661 155.012 302.383 155.012 293.24 145.87 293.24 134.591 293.24 123.313 302.383 114.17 313.661 114.17 324.939 114.17 334.082 123.313 334.082 134.591Z" fill="#98DF8A" transform="matrix(1.00017 0 -0 1 -28.0834 94.7697)"/><path d="M428.688 135.545C428.688 146.278 419.987 154.98 409.253 154.98 398.52 154.98 389.818 146.278 389.818 135.545 389.818 124.811 398.52 116.11 409.253 116.11 419.987 116.11 428.688 124.811 428.688 135.545Z" fill="#98DF8A" transform="matrix(1.00017 0 -0 1 -28.0834 94.7697)"/><path d="M389.662 97.8932C389.662 108.414 381.133 116.943 370.612 116.943 360.091 116.943 351.563 108.414 351.563 97.8932 351.563 87.3723 360.091 78.8434 370.612 78.8434 381.133 78.8434 389.662 87.3723 389.662 97.8932Z" fill="#2CA02C" transform="matrix(1.00017 0 -0 1 -28.0834 94.7697)"/><path d="M857.266 382.355C857.266 393.245 848.437 402.074 837.547 402.074 826.656 402.074 817.828 393.245 817.828 382.355 817.828 371.464 826.656 362.636 837.547 362.636 848.437 362.636 857.266 371.464 857.266 382.355Z" fill="#D62728" transform="matrix(1.00017 0 -0 1 -28.0834 94.7697)"/><path d="M857.651 448.388C857.651 458.575 849.393 466.833 839.206 466.833 829.019 466.833 820.761 458.575 820.761 448.388 820.761 438.201 829.019 429.942 839.206 429.942 849.393 429.942 857.651 438.201 857.651 448.388Z" fill="#FF9896" transform="matrix(1.00017 0 -0 1 -28.0834 94.7697)"/><path d="M937.656 446.677C937.656 456.198 929.938 463.916 920.417 463.916 910.896 463.916 903.178 456.198 903.178 446.677 903.178 437.157 910.896 429.439 920.417 429.439 929.938 429.439 937.656 437.157 937.656 446.677Z" fill="#FF9896" transform="matrix(1.00017 0 -0 1 -28.0834 94.7697)"/><path d="M936.467 381.214C936.467 391.298 928.293 399.472 918.209 399.472 908.125 399.472 899.95 391.298 899.95 381.214 899.95 371.13 908.125 362.955 918.209 362.955 928.293 362.955 936.467 371.13 936.467 381.214Z" fill="#D62728" transform="matrix(1.00017 0 -0 1 -28.0834 94.7697)"/><path d="M-781.73 377.668C-781.73 387.459-789.667 395.397-799.459 395.397-809.251 395.397-817.188 387.459-817.188 377.668-817.188 367.876-809.251 359.938-799.459 359.938-789.667 359.938-781.73 367.876-781.73 377.668Z" fill="#9467BD" transform="matrix(1.00017 0 -0 1 -28.0834 94.7697)"/><path d="M-804.248 437.655C-804.248 446.837-811.692 454.28-820.874 454.28-830.056 454.28-837.499 446.837-837.499 437.655-837.499 428.473-830.056 421.03-820.874 421.03-811.692 421.03-804.248 428.473-804.248 437.655Z" fill="#C5B0D5" transform="matrix(1.00017 0 -0 1 -28.0834 94.7697)"/><path d="M-977.216 346.134C-977.216 355.925-985.154 363.863-994.945 363.863-1004.74 363.863-1012.67 355.925-1012.67 346.134-1012.67 336.342-1004.74 328.405-994.945 328.405-985.154 328.405-977.216 336.342-977.216 346.134Z" fill="#8C564B" transform="matrix(1.00017 0 -0 1 -28.0834 94.7697)"/><path d="M-907.568 386.236C-907.568 394.809-914.517 401.758-923.089 401.758-931.661 401.758-938.611 394.809-938.611 386.236-938.611 377.664-931.661 370.715-923.089 370.715-914.517 370.715-907.568 377.664-907.568 386.236Z" fill="#8C564B" transform="matrix(1.00017 0 -0 1 -28.0834 94.7697)"/><path d="M-850.921 415.67C-850.921 424.243-857.87 431.192-866.443 431.192-875.015 431.192-881.964 424.243-881.964 415.67-881.964 407.098-875.015 400.149-866.443 400.149-857.87 400.149-850.921 407.098-850.921 415.67Z" fill="#C5B0D5" transform="matrix(1.00017 0 -0 1 -28.0834 94.7697)"/><path d="M-832.403 367.719C-832.403 376.901-839.846 384.344-849.028 384.344-858.21 384.344-865.654 376.901-865.654 367.719-865.654 358.537-858.21 351.093-849.028 351.093-839.846 351.093-832.403 358.537-832.403 367.719Z" fill="#9467BD" transform="matrix(1.00017 0 -0 1 -28.0834 94.7697)"/><path d="M-895.677 357.598C-895.677 366.78-903.12 374.223-912.302 374.223-921.484 374.223-928.928 366.78-928.928 357.598-928.928 348.416-921.484 340.973-912.302 340.973-903.12 340.973-895.677 348.416-895.677 357.598Z" fill="#8C564B" transform="matrix(1.00017 0 -0 1 -28.0834 94.7697)"/><path d="M724.138 428.17C724.138 437.665 716.441 445.362 706.946 445.362 697.451 445.362 689.754 437.665 689.754 428.17 689.754 418.675 697.451 410.978 706.946 410.978 716.441 410.978 724.138 418.675 724.138 428.17Z" fill="#C49C94" transform="matrix(1.00017 0 -0 1 -28.0834 94.7697)"/><path d="M720.632 376.448C720.632 385.024 713.68 391.976 705.104 391.976 696.528 391.976 689.576 385.024 689.576 376.448 689.576 367.872 696.528 360.92 705.104 360.92 713.68 360.92 720.632 367.872 720.632 376.448Z" fill="#C49C94" transform="matrix(1.00017 0 -0 1 -28.0834 94.7697)"/><path d="M716.908 279.435C716.908 288.014 709.953 294.969 701.374 294.969 692.795 294.969 685.84 288.014 685.84 279.435 685.84 270.855 692.795 263.9 701.374 263.9 709.953 263.9 716.908 270.855 716.908 279.435Z" fill="#1F77B4" transform="matrix(1.00017 0 -0 1 -28.0834 94.7697)"/><path d="M-443.985 441.134C-443.985 450.673-451.718 458.405-461.256 458.405-470.795 458.405-478.527 450.673-478.527 441.134-478.527 431.596-470.795 423.863-461.256 423.863-451.718 423.863-443.985 431.596-443.985 441.134Z" fill="#E377C2" transform="matrix(1.00017 0 -0 1 -28.0834 94.7697)"/><path d="M-235.603 540.686C-235.603 549.867-243.047 557.311-252.228 557.311-261.41 557.311-268.854 549.867-268.854 540.686-268.854 531.504-261.41 524.06-252.228 524.06-243.047 524.06-235.603 531.504-235.603 540.686Z" fill="#F7B6D2" transform="matrix(1.00017 0 -0 1 -28.0834 94.7697)"/><path d="M-260.166 578.476C-260.166 587.658-267.609 595.101-276.791 595.101-285.973 595.101-293.416 587.658-293.416 578.476-293.416 569.294-285.973 561.85-276.791 561.85-267.609 561.85-260.166 569.294-260.166 578.476Z" fill="#7F7F7F" transform="matrix(1.00017 0 -0 1 -28.0834 94.7697)"/><path d="M-298.766 547.392C-298.766 555.965-305.716 562.914-314.288 562.914-322.86 562.914-329.809 555.965-329.809 547.392-329.809 538.82-322.86 531.871-314.288 531.871-305.716 531.871-298.766 538.82-298.766 547.392Z" fill="#7F7F7F" transform="matrix(1.00017 0 -0 1 -28.0834 94.7697)"/><path d="M-335.467 508.67C-335.467 517.852-342.91 525.295-352.092 525.295-361.274 525.295-368.717 517.852-368.717 508.67-368.717 499.488-361.274 492.044-352.092 492.044-342.91 492.044-335.467 499.488-335.467 508.67Z" fill="#E377C2" transform="matrix(1.00017 0 -0 1 -28.0834 94.7697)"/><path d="M-283.461 524.444C-283.461 533.016-290.41 539.965-298.982 539.965-307.554 539.965-314.504 533.016-314.504 524.444-314.504 515.872-307.554 508.922-298.982 508.922-290.41 508.922-283.461 515.872-283.461 524.444Z" fill="#F7B6D2" transform="matrix(1.00017 0 -0 1 -28.0834 94.7697)"/><path d="M-478.081 110.366C-478.081 120.157-486.018 128.095-495.81 128.095-505.602 128.095-513.539 120.157-513.539 110.366-513.539 100.574-505.602 92.6366-495.81 92.6366-486.018 92.6366-478.081 100.574-478.081 110.366Z" fill="#C7C7C7" transform="matrix(1.00017 0 -0 1 -28.0834 94.7697)"/><path d="M-645.001 187.989C-645.001 197.781-652.939 205.719-662.731 205.719-672.522 205.719-680.46 197.781-680.46 187.989-680.46 178.198-672.522 170.26-662.731 170.26-652.939 170.26-645.001 178.198-645.001 187.989Z" fill="#BCBD22" transform="matrix(1.00017 0 -0 1 -28.0834 94.7697)"/><path d="M-518.106 133.125C-518.106 142.307-525.55 149.751-534.732 149.751-543.913 149.751-551.357 142.307-551.357 133.125-551.357 123.943-543.913 116.5-534.732 116.5-525.55 116.5-518.106 123.943-518.106 133.125Z" fill="#C7C7C7" transform="matrix(1.00017 0 -0 1 -28.0834 94.7697)"/><path d="M-566.631 156.469C-566.631 165.651-574.074 173.094-583.256 173.094-592.438 173.094-599.881 165.651-599.881 156.469-599.881 147.287-592.438 139.843-583.256 139.843-574.074 139.843-566.631 147.287-566.631 156.469Z" fill="#BCBD22" transform="matrix(1.00017 0 -0 1 -28.0834 94.7697)"/><path d="M478.077 454.48C478.077 465.031 469.524 473.583 458.974 473.583 448.423 473.583 439.87 465.031 439.87 454.48 439.87 443.929 448.423 435.376 458.974 435.376 469.524 435.376 478.077 443.929 478.077 454.48Z" fill="#DBDB8D" transform="matrix(1.00017 0 -0 1 -28.0834 94.7697)"/><path d="M891.177 316.411C891.177 325.756 883.602 333.332 874.257 333.332 864.912 333.332 857.336 325.756 857.336 316.411 857.336 307.066 864.912 299.491 874.257 299.491 883.602 299.491 891.177 307.066 891.177 316.411Z" fill="#D62728" transform="matrix(1.00017 0 -0 1 -28.0834 94.7697)"/><path d="M825.769 279.36C825.769 289.2 817.792 297.178 807.951 297.178 798.11 297.178 790.133 289.2 790.133 279.36 790.133 269.519 798.11 261.541 807.951 261.541 817.792 261.541 825.769 269.519 825.769 279.36Z" fill="#1F77B4" transform="matrix(1.00017 0 -0 1 -28.0834 94.7697)"/><path d="M571.919 360.514C571.919 371.255 563.212 379.961 552.471 379.961 541.731 379.961 533.024 371.255 533.024 360.514 533.024 349.774 541.731 341.067 552.471 341.067 563.212 341.067 571.919 349.774 571.919 360.514Z" fill="#17BECF" transform="matrix(1.00017 0 -0 1 -28.0834 94.7697)"/><path d="M647.814 278.791C647.814 286.842 641.288 293.368 633.237 293.368 625.187 293.368 618.661 286.842 618.661 278.791 618.661 270.741 625.187 264.215 633.237 264.215 641.288 264.215 647.814 270.741 647.814 278.791Z" fill="#AEC7E8" transform="matrix(1.00017 0 -0 1 -28.0834 94.7697)"/><path d="M601.643 323.054C601.643 331.078 595.138 337.583 587.114 337.583 579.09 337.583 572.585 331.078 572.585 323.054 572.585 315.03 579.09 308.525 587.114 308.525 595.138 308.525 601.643 315.03 601.643 323.054Z" fill="#17BECF" transform="matrix(1.00017 0 -0 1 -28.0834 94.7697)"/><path d="M469.797 382.366C469.797 392.361 461.694 400.465 451.698 400.465 441.702 400.465 433.599 392.361 433.599 382.366 433.599 372.37 441.703 364.267 451.698 364.267 461.694 364.267 469.797 372.37 469.797 382.366Z" fill="#9EDAE5" transform="matrix(1.00017 0 -0 1 -28.0834 94.7697)"/><path d="M-457.39 252.31C-457.39 261.788-465.074 269.472-474.553 269.472-484.032 269.472-491.716 261.788-491.716 252.31-491.716 242.831-484.032 235.147-474.553 235.147-465.074 235.147-457.39 242.831-457.39 252.31Z" fill="#1F77B4" transform="matrix(1.00017 0 -0 1 -28.0834 94.7697)"/><path d="M-320.976 341.257C-320.976 350.733-328.658 358.415-338.134 358.415-347.61 358.415-355.292 350.733-355.292 341.257-355.292 331.78-347.61 324.099-338.134 324.099-328.658 324.099-320.976 331.78-320.976 341.257Z" fill="#AEC7E8" transform="matrix(1.00017 0 -0 1 -28.0834 94.7697)"/><path d="M-360.317 317.825C-360.317 326.691-367.503 333.877-376.368 333.877-385.233 333.877-392.42 326.691-392.42 317.825-392.42 308.96-385.233 301.774-376.368 301.774-367.503 301.774-360.317 308.96-360.317 317.825Z" fill="#AEC7E8" transform="matrix(1.00017 0 -0 1 -28.0834 94.7697)"/><path d="M-404.999 288.424C-404.999 297.289-412.186 304.476-421.051 304.476-429.916 304.476-437.102 297.289-437.102 288.424-437.102 279.559-429.916 272.373-421.051 272.373-412.186 272.373-404.999 279.559-404.999 288.424Z" fill="#1F77B4" transform="matrix(1.00017 0 -0 1 -28.0834 94.7697)"/><path d="M569.631 458.942C569.631 468.845 561.604 476.872 551.702 476.872 541.799 476.872 533.772 468.845 533.772 458.942 533.772 449.04 541.8 441.013 551.702 441.013 561.604 441.013 569.631 449.04 569.631 458.942Z" fill="#DBDB8D" transform="matrix(1.00017 0 -0 1 -28.0834 94.7697)"/><path d="M571.372 409.28C571.372 419.182 563.344 427.209 553.442 427.209 543.54 427.209 535.512 419.182 535.512 409.28 535.512 399.377 543.54 391.35 553.442 391.35 563.344 391.35 571.372 399.377 571.372 409.28Z" fill="#17BECF" transform="matrix(1.00017 0 -0 1 -28.0834 94.7697)"/><path d="M467.376 324.972C467.376 333.953 460.095 341.234 451.113 341.234 442.132 341.234 434.851 333.953 434.851 324.972 434.851 315.99 442.132 308.709 451.113 308.709 460.095 308.709 467.376 315.99 467.376 324.972Z" fill="#9EDAE5" transform="matrix(1.00017 0 -0 1 -28.0834 94.7697)"/><path d="M538.311 326.116C538.311 335.111 531.019 342.403 522.024 342.403 513.03 342.403 505.738 335.111 505.738 326.116 505.738 317.122 513.03 309.83 522.024 309.83 531.019 309.83 538.311 317.122 538.311 326.116Z" fill="#17BECF" transform="matrix(1.00017 0 -0 1 -28.0834 94.7697)"/><path d="M324.806 322.512C324.806 332.466 316.738 340.534 306.785 340.534 296.831 340.534 288.763 332.465 288.763 322.512 288.763 312.559 296.831 304.491 306.785 304.491 316.738 304.491 324.806 312.559 324.806 322.512Z" fill="#FF7F0E" transform="matrix(1.00017 0 -0 1 -28.0834 94.7697)"/><path d="M393.777 423.401C393.777 432.466 386.429 439.814 377.365 439.814 368.3 439.814 360.952 432.466 360.952 423.401 360.952 414.337 368.3 406.989 377.365 406.989 386.429 406.989 393.777 414.337 393.777 423.401Z" fill="#FFBB78" transform="matrix(1.00017 0 -0 1 -28.0834 94.7697)"/><path d="M422.968 46.1227C422.968 53.5171 416.974 59.5114 409.58 59.5114 402.185 59.5114 396.191 53.5171 396.191 46.1227 396.191 38.7284 402.185 32.7341 409.58 32.7341 416.974 32.7341 422.968 38.7284 422.968 46.1227Z" fill="#2CA02C" transform="matrix(1.00017 0 -0 1 -28.0834 94.7697)"/><path d="M-650.339 277.88C-650.339 285.49-656.508 291.658-664.117 291.658-671.726 291.658-677.895 285.49-677.895 277.88-677.895 270.271-671.726 264.102-664.117 264.102-656.508 264.102-650.339 270.271-650.339 277.88Z" fill="#98DF8A" transform="matrix(1.00017 0 -0 1 -28.0834 94.7697)"/><path d="M-859.78 260.571C-859.78 268.18-865.949 274.349-873.558 274.349-881.167 274.349-887.336 268.18-887.336 260.571-887.336 252.961-881.167 246.793-873.558 246.793-865.949 246.793-859.78 252.961-859.78 260.571Z" fill="#D62728" transform="matrix(1.00017 0 -0 1 -28.0834 94.7697)"/><path d="M-698.212 270.779C-698.212 277.746-703.86 283.395-710.827 283.395-717.795 283.395-723.443 277.746-723.443 270.779-723.443 263.812-717.795 258.164-710.827 258.164-703.86 258.164-698.212 263.812-698.212 270.779Z" fill="#98DF8A" transform="matrix(1.00017 0 -0 1 -28.0834 94.7697)"/><path d="M-757.503 265.185C-757.503 272.153-763.151 277.801-770.118 277.801-777.086 277.801-782.734 272.153-782.734 265.185-782.734 258.218-777.086 252.57-770.118 252.57-763.151 252.57-757.503 258.218-757.503 265.185Z" fill="#D62728" transform="matrix(1.00017 0 -0 1 -28.0834 94.7697)"/><path d="M-343.204 144.859C-343.204 150.69-347.931 155.418-353.763 155.418-359.595 155.418-364.322 150.69-364.322 144.859-364.322 139.027-359.595 134.299-353.763 134.299-347.931 134.299-343.204 139.027-343.204 144.859Z" fill="#FF9896" transform="matrix(1.00017 0 -0 1 -28.0834 94.7697)"/><path d="M-416.867 214.441C-416.867 219.13-420.668 222.931-425.357 222.931-430.046 222.931-433.847 219.13-433.847 214.441-433.847 209.753-430.046 205.952-425.357 205.952-420.668 205.952-416.867 209.753-416.867 214.441Z" fill="#1F77B4" transform="matrix(1.00017 0 -0 1 -28.0834 94.7697)"/><path d="M-377.108 178.048C-377.108 182.737-380.909 186.538-385.598 186.538-390.287 186.538-394.088 182.737-394.088 178.048-394.088 173.359-390.287 169.558-385.598 169.558-380.909 169.558-377.108 173.359-377.108 178.048Z" fill="#FF9896" transform="matrix(1.00017 0 -0 1 -28.0834 94.7697)"/><path d="M587.488 253.652C587.488 260.477 581.956 266.009 575.132 266.009 568.307 266.009 562.775 260.477 562.775 253.652 562.775 246.828 568.307 241.296 575.132 241.296 581.956 241.296 587.488 246.828 587.488 253.652Z" fill="#9467BD" transform="matrix(1.00017 0 -0 1 -28.0834 94.7697)"/><path d="M641.851 213.752C641.851 218.441 638.049 222.242 633.361 222.242 628.672 222.242 624.871 218.441 624.871 213.752 624.871 209.063 628.672 205.262 633.361 205.262 638.049 205.262 641.851 209.063 641.851 213.752Z" fill="#9467BD" transform="matrix(1.00017 0 -0 1 -28.0834 94.7697)"/><path d="M565.665 112.436C565.665 118.701 560.586 123.78 554.321 123.78 548.056 123.78 542.978 118.701 542.978 112.436 542.978 106.171 548.056 101.092 554.321 101.092 560.586 101.092 565.665 106.171 565.665 112.436Z" fill="#C5B0D5" transform="matrix(1.00017 0 -0 1 -28.0834 94.7697)"/><path d="M526.104 31.2163C526.104 38.2674 520.388 43.9835 513.337 43.9835 506.286 43.9835 500.57 38.2674 500.57 31.2163 500.57 24.1652 506.286 18.4491 513.337 18.4491 520.388 18.4491 526.104 24.1652 526.104 31.2163Z" fill="#8C564B" transform="matrix(1.00017 0 -0 1 -28.0834 94.7697)"/><path d="M560.715 44.2558C560.715 49.1977 556.709 53.2039 551.767 53.2039 546.825 53.2039 542.819 49.1977 542.819 44.2558 542.819 39.3139 546.825 35.3077 551.767 35.3077 556.709 35.3077 560.715 39.3139 560.715 44.2558Z" fill="#8C564B" transform="matrix(1.00017 0 -0 1 -28.0834 94.7697)"/><path d="M562.263 78.4164C562.263 83.3583 558.257 87.3645 553.315 87.3645 548.373 87.3645 544.367 83.3583 544.367 78.4164 544.367 73.4745 548.373 69.4683 553.315 69.4683 558.257 69.4683 562.263 73.4745 562.263 78.4164Z" fill="#C5B0D5" transform="matrix(1.00017 0 -0 1 -28.0834 94.7697)"/><path d="M476.561 49.864C476.561 54.8059 472.555 58.8121 467.613 58.8121 462.671 58.8121 458.665 54.8059 458.665 49.864 458.665 44.9221 462.671 40.9159 467.613 40.9159 472.555 40.9159 476.561 44.9221 476.561 49.864Z" fill="#8C564B" transform="matrix(1.00017 0 -0 1 -28.0834 94.7697)"/><path d="M509.153 113.349C509.153 117.681 505.641 121.193 501.309 121.193 496.977 121.193 493.465 117.681 493.465 113.349 493.465 109.017 496.977 105.505 501.309 105.505 505.641 105.505 509.153 109.017 509.153 113.349Z" fill="#C5B0D5" transform="matrix(1.00017 0 -0 1 -28.0834 94.7697)"/><path d="M525.26 61.5238C525.26 67.5676 520.36 72.4671 514.317 72.4671 508.273 72.4671 503.373 67.5676 503.373 61.5238 503.373 55.4799 508.273 50.5804 514.317 50.5804 520.36 50.5804 525.26 55.4799 525.26 61.5238Z" fill="#8C564B" transform="matrix(1.00017 0 -0 1 -28.0834 94.7697)"/><path d="M532.019 214.251C532.019 219.685 527.614 224.09 522.18 224.09 516.745 224.09 512.34 219.685 512.34 214.251 512.34 208.817 516.745 204.412 522.18 204.412 527.614 204.412 532.019 208.817 532.019 214.251Z" fill="#9467BD" transform="matrix(1.00017 0 -0 1 -28.0834 94.7697)"/><path d="M-873.252 157.553C-873.252 162.851-877.547 167.146-882.846 167.146-888.144 167.146-892.44 162.851-892.44 157.553-892.44 152.254-888.144 147.959-882.846 147.959-877.547 147.959-873.252 152.254-873.252 157.553Z" fill="#C49C94" transform="matrix(1.00017 0 -0 1 -28.0834 94.7697)"/><path d="M-977.584 200.567C-977.584 205.256-981.385 209.057-986.074 209.057-990.763 209.057-994.564 205.256-994.564 200.567-994.564 195.878-990.763 192.077-986.074 192.077-981.385 192.077-977.584 195.878-977.584 200.567Z" fill="#FFBB78" transform="matrix(1.00017 0 -0 1 -28.0834 94.7697)"/><path d="M-920.588 176.302C-920.588 180.991-924.39 184.792-929.078 184.792-933.767 184.792-937.568 180.991-937.568 176.302-937.568 171.614-933.767 167.813-929.078 167.813-924.389 167.813-920.588 171.614-920.588 176.302Z" fill="#C49C94" transform="matrix(1.00017 0 -0 1 -28.0834 94.7697)"/><path d="M-972.44 231.698C-972.44 236.387-976.242 240.188-980.93 240.188-985.619 240.188-989.42 236.387-989.42 231.698-989.42 227.009-985.619 223.208-980.93 223.208-976.242 223.208-972.44 227.009-972.44 231.698Z" fill="#FFBB78" transform="matrix(1.00017 0 -0 1 -28.0834 94.7697)"/><path d="M-912.074 227.536C-912.074 232.225-915.875 236.026-920.564 236.026-925.253 236.026-929.054 232.225-929.054 227.536-929.054 222.848-925.253 219.047-920.564 219.047-915.875 219.047-912.074 222.848-912.074 227.536Z" fill="#FF7F0E" transform="matrix(1.00017 0 -0 1 -28.0834 94.7697)"/><path d="M822.499 25.7579C822.499 35.5531 814.559 43.4936 804.764 43.4936 794.969 43.4936 787.028 35.5531 787.028 25.7579 787.028 15.9628 794.969 8.02226 804.764 8.02226 814.559 8.02226 822.499 15.9628 822.499 25.7579Z" fill="#E377C2" transform="matrix(1.00017 0 -0 1 -28.0834 94.7697)"/><path d="M821.276 152.764C821.276 163.071 812.921 171.427 802.614 171.427 792.307 171.427 783.952 163.071 783.952 152.764 783.952 142.457 792.307 134.102 802.614 134.102 812.921 134.102 821.276 142.457 821.276 152.764Z" fill="#F7B6D2" transform="matrix(1.00017 0 -0 1 -28.0834 94.7697)"/><path d="M817.783 63.2437C817.783 71.6821 810.943 78.5227 802.504 78.5227 794.066 78.5227 787.225 71.6821 787.225 63.2437 787.225 54.8053 794.066 47.9647 802.504 47.9647 810.943 47.9647 817.783 54.8053 817.783 63.2437Z" fill="#E377C2" transform="matrix(1.00017 0 -0 1 -28.0834 94.7697)"/><path d="M817.621 106.089C817.621 114.527 810.781 121.368 802.342 121.368 793.904 121.368 787.063 114.527 787.063 106.089 787.063 97.6504 793.904 90.8098 802.342 90.8098 810.781 90.8098 817.621 97.6504 817.621 106.089Z" fill="#F7B6D2" transform="matrix(1.00017 0 -0 1 -28.0834 94.7697)"/><path d="M-246.572 304.645C-246.572 308.977-250.084 312.489-254.416 312.489-258.748 312.489-262.26 308.977-262.26 304.645-262.26 300.313-258.748 296.801-254.416 296.801-250.084 296.801-246.572 300.313-246.572 304.645Z" fill="#7F7F7F" transform="matrix(1.00017 0 -0 1 -28.0834 94.7697)"/><path d="M-245.455 430.126C-245.455 434.458-248.967 437.97-253.299 437.97-257.632 437.97-261.144 434.458-261.144 430.126-261.144 425.794-257.632 422.282-253.299 422.282-248.967 422.282-245.455 425.794-245.455 430.126Z" fill="#C7C7C7" transform="matrix(1.00017 0 -0 1 -28.0834 94.7697)"/><path d="M-247.921 355.664C-247.921 359.387-250.938 362.404-254.661 362.404-258.383 362.404-261.401 359.387-261.401 355.664-261.401 351.942-258.383 348.924-254.661 348.924-250.938 348.924-247.921 351.942-247.921 355.664Z" fill="#7F7F7F" transform="matrix(1.00017 0 -0 1 -28.0834 94.7697)"/><path d="M-248.047 395.495C-248.047 399.217-251.064 402.235-254.787 402.235-258.509 402.235-261.527 399.217-261.527 395.495-261.527 391.772-258.509 388.755-254.787 388.755-251.064 388.755-248.047 391.772-248.047 395.495Z" fill="#C7C7C7" transform="matrix(1.00017 0 -0 1 -28.0834 94.7697)"/><path d="M732.779 39.6728C732.779 49.3837 724.907 57.2559 715.196 57.2559 705.485 57.2559 697.613 49.3837 697.613 39.6728 697.613 29.9619 705.485 22.0897 715.196 22.0897 724.907 22.0897 732.779 29.9619 732.779 39.6728Z" fill="#BCBD22" transform="matrix(1.00017 0 -0 1 -28.0834 94.7697)"/><path d="M734.663 151.45C734.663 160.55 727.286 167.928 718.186 167.928 709.086 167.928 701.709 160.55 701.709 151.45 701.709 142.35 709.086 134.973 718.186 134.973 727.286 134.973 734.663 142.35 734.663 151.45Z" fill="#F7B6D2" transform="matrix(1.00017 0 -0 1 -28.0834 94.7697)"/><path d="M733.828 94.7361C733.828 103.836 726.451 111.213 717.35 111.213 708.25 111.213 700.873 103.836 700.873 94.7361 700.873 85.6359 708.25 78.2587 717.35 78.2587 726.451 78.2587 733.828 85.6359 733.828 94.7361Z" fill="#BCBD22" transform="matrix(1.00017 0 -0 1 -28.0834 94.7697)"/><path d="M822.746 216.138C822.746 225.238 815.369 232.615 806.269 232.615 797.169 232.615 789.791 225.238 789.791 216.138 789.791 207.037 797.169 199.66 806.269 199.66 815.369 199.66 822.746 207.037 822.746 216.138Z" fill="#F7B6D2" transform="matrix(1.00017 0 -0 1 -28.0834 94.7697)"/><path d="M324.149 219.374C324.149 228.241 316.96 235.43 308.093 235.43 299.225 235.43 292.036 228.241 292.036 219.374 292.036 210.506 299.225 203.317 308.093 203.317 316.96 203.317 324.149 210.506 324.149 219.374Z" fill="#FF7F0E" transform="matrix(1.00017 0 -0 1 -28.0834 94.7697)"/><path d="M394.252 324.336C394.252 332.217 387.864 338.605 379.983 338.605 372.102 338.605 365.713 332.217 365.713 324.336 365.713 316.455 372.102 310.066 379.983 310.066 387.864 310.066 394.252 316.455 394.252 324.336Z" fill="#FF7F0E" transform="matrix(1.00017 0 -0 1 -28.0834 94.7697)"/><path d="M393.207 374.876C393.207 382.749 386.824 389.131 378.951 389.131 371.078 389.131 364.696 382.749 364.696 374.876 364.696 367.003 371.078 360.621 378.951 360.621 386.824 360.621 393.207 367.003 393.207 374.876Z" fill="#FFBB78" transform="matrix(1.00017 0 -0 1 -28.0834 94.7697)"/><path d="M419.99 80.0412C419.99 85.5928 415.489 90.0933 409.938 90.0933 404.386 90.0933 399.886 85.5928 399.886 80.0412 399.886 74.4896 404.386 69.9892 409.938 69.9892 415.489 69.9892 419.99 74.4896 419.99 80.0412Z" fill="#2CA02C" transform="matrix(1.00017 0 -0 1 -28.0834 94.7697)"/><path d="M-335.071 251.553C-335.071 257.301-339.73 261.961-345.478 261.961-351.226 261.961-355.886 257.301-355.886 251.553-355.886 245.806-351.226 241.146-345.478 241.146-339.73 241.146-335.071 245.806-335.071 251.553Z" fill="#DBDB8D" transform="matrix(1.00017 0 -0 1 -28.0834 94.7697)"/><path d="M-270.624 161.879C-270.624 167.711-275.351 172.438-281.183 172.438-287.015 172.438-291.742 167.711-291.742 161.879-291.742 156.047-287.015 151.32-281.183 151.32-275.351 151.32-270.624 156.047-270.624 161.879Z" fill="#17BECF" transform="matrix(1.00017 0 -0 1 -28.0834 94.7697)"/><path d="M-310.404 184.664C-310.404 189.963-314.7 194.258-319.998 194.258-325.297 194.258-329.592 189.963-329.592 184.664-329.592 179.366-325.297 175.07-319.998 175.07-314.7 175.07-310.404 179.366-310.404 184.664Z" fill="#17BECF" transform="matrix(1.00017 0 -0 1 -28.0834 94.7697)"/><path d="M-378.672 227.54C-378.672 232.679-382.837 236.844-387.975 236.844-393.113 236.844-397.279 232.679-397.279 227.54-397.279 222.402-393.113 218.237-387.975 218.237-382.837 218.237-378.672 222.402-378.672 227.54Z" fill="#DBDB8D" transform="matrix(1.00017 0 -0 1 -28.0834 94.7697)"/><path d="M-250.342 234.116C-250.342 239.254-254.507 243.42-259.645 243.42-264.784 243.42-268.949 239.254-268.949 234.116-268.949 228.978-264.784 224.813-259.645 224.813-254.507 224.813-250.342 228.978-250.342 234.116Z" fill="#9EDAE5" transform="matrix(1.00017 0 -0 1 -28.0834 94.7697)"/><path d="M-297.708 237.788C-297.708 242.477-301.509 246.278-306.198 246.278-310.887 246.278-314.688 242.477-314.688 237.788-314.688 233.099-310.887 229.298-306.198 229.298-301.509 229.298-297.708 233.099-297.708 237.788Z" fill="#9EDAE5" transform="matrix(1.00017 0 -0 1 -28.0834 94.7697)"/><path d="M-242.519 102.191C-242.519 106.523-246.031 110.035-250.363 110.035-254.695 110.035-258.207 106.523-258.207 102.191-258.207 97.8585-254.695 94.3465-250.363 94.3465-246.031 94.3465-242.519 97.8585-242.519 102.191Z" fill="#1F77B4" transform="matrix(1.00017 0 -0 1 -28.0834 94.7697)"/><path d="M-242.977 257.496C-242.977 261.828-246.489 265.34-250.821 265.34-255.153 265.34-258.665 261.828-258.665 257.496-258.665 253.163-255.153 249.651-250.821 249.651-246.489 249.651-242.977 253.163-242.977 257.496Z" fill="#AEC7E8" transform="matrix(1.00017 0 -0 1 -28.0834 94.7697)"/><path d="M-244.232 151.351C-244.232 155.074-247.249 158.092-250.972 158.092-254.694 158.092-257.712 155.074-257.712 151.351-257.712 147.629-254.694 144.611-250.972 144.611-247.249 144.611-244.232 147.629-244.232 151.351Z" fill="#1F77B4" transform="matrix(1.00017 0 -0 1 -28.0834 94.7697)"/><path d="M-244.078 196.934C-244.078 200.657-247.096 203.674-250.818 203.674-254.541 203.674-257.558 200.657-257.558 196.934-257.558 193.212-254.541 190.194-250.818 190.194-247.096 190.194-244.078 193.212-244.078 196.934Z" fill="#AEC7E8" transform="matrix(1.00017 0 -0 1 -28.0834 94.7697)"/><path d="M614.541 515.528C614.541 521.276 609.881 525.935 604.133 525.935 598.385 525.935 593.726 521.276 593.726 515.528 593.726 509.78 598.385 505.12 604.133 505.12 609.881 505.12 614.541 509.78 614.541 515.528Z" fill="#FF7F0E" transform="matrix(1.00017 0 -0 1 -28.0834 94.7697)"/><path d="M615.097 461.356C615.097 466.298 611.091 470.304 606.149 470.304 601.208 470.304 597.201 466.298 597.201 461.356 597.201 456.414 601.208 452.408 606.149 452.408 611.091 452.408 615.097 456.414 615.097 461.356Z" fill="#FF7F0E" transform="matrix(1.00017 0 -0 1 -28.0834 94.7697)"/><path d="M667.454 461.211C667.454 465.543 663.942 469.055 659.61 469.055 655.278 469.055 651.766 465.543 651.766 461.211 651.766 456.879 655.278 453.367 659.61 453.367 663.942 453.367 667.454 456.879 667.454 461.211Z" fill="#FF7F0E" transform="matrix(1.00017 0 -0 1 -28.0834 94.7697)"/><path d="M565.802 513.258C565.802 517.59 562.29 521.102 557.958 521.102 553.626 521.102 550.114 517.59 550.114 513.258 550.114 508.925 553.626 505.413 557.958 505.413 562.29 505.413 565.802 508.925 565.802 513.258Z" fill="#DBDB8D" transform="matrix(1.00017 0 -0 1 -28.0834 94.7697)"/><path d="M522.559 87.6268C522.559 91.959 519.047 95.471 514.715 95.471 510.382 95.471 506.87 91.959 506.87 87.6268 506.87 83.2946 510.382 79.7827 514.715 79.7827 519.047 79.7827 522.559 83.2946 522.559 87.6268Z" fill="#C5B0D5" transform="matrix(1.00017 0 -0 1 -28.0834 94.7697)"/><path d="M454.995 90.0302C454.995 94.3624 451.483 97.8744 447.151 97.8744 442.819 97.8744 439.307 94.3624 439.307 90.0302 439.307 85.698 442.819 82.1861 447.151 82.1861 451.483 82.1861 454.995 85.698 454.995 90.0302Z" fill="#FFBB78" transform="matrix(1.00017 0 -0 1 -28.0834 94.7697)"/><path d="M439.439 108.043C439.439 111.765 436.422 114.783 432.699 114.783 428.977 114.783 425.959 111.765 425.959 108.043 425.959 104.321 428.977 101.303 432.699 101.303 436.422 101.303 439.439 104.321 439.439 108.043Z" fill="#FFBB78" transform="matrix(1.00017 0 -0 1 -28.0834 94.7697)"/><path d="M561.895 152.496C561.895 156.218 558.878 159.236 555.155 159.236 551.433 159.236 548.415 156.218 548.415 152.496 548.415 148.773 551.433 145.755 555.155 145.755 558.878 145.755 561.895 148.773 561.895 152.496Z" fill="#C5B0D5" transform="matrix(1.00017 0 -0 1 -28.0834 94.7697)"/><path d="M522.303 163.269C522.303 167.958 518.502 171.759 513.813 171.759 509.124 171.759 505.323 167.958 505.323 163.269 505.323 158.58 509.124 154.779 513.813 154.779 518.502 154.779 522.303 158.58 522.303 163.269Z" fill="#2CA02C" transform="matrix(1.00017 0 -0 1 -28.0834 94.7697)"/><path d="M419.93 221.308C419.93 226.25 415.924 230.256 410.982 230.256 406.04 230.256 402.034 226.25 402.034 221.308 402.034 216.366 406.04 212.36 410.982 212.36 415.924 212.36 419.93 216.366 419.93 221.308Z" fill="#98DF8A" transform="matrix(1.00017 0 -0 1 -28.0834 94.7697)"/><path d="M502.911 252.157C502.911 256.846 499.11 260.647 494.422 260.647 489.733 260.647 485.932 256.846 485.932 252.157 485.932 247.468 489.733 243.667 494.422 243.667 499.11 243.667 502.911 247.468 502.911 252.157Z" fill="#D62728" transform="matrix(1.00017 0 -0 1 -28.0834 94.7697)"/><path d="M470.918 289.702C470.918 294.034 467.406 297.546 463.074 297.546 458.742 297.546 455.23 294.034 455.23 289.702 455.23 285.37 458.742 281.858 463.074 281.858 467.406 281.858 470.918 285.37 470.918 289.702Z" fill="#D62728" transform="matrix(1.00017 0 -0 1 -28.0834 94.7697)"/><path d="M417.629 256.668C417.629 260.391 414.611 263.409 410.888 263.409 407.166 263.409 404.148 260.391 404.148 256.668 404.148 252.946 407.166 249.928 410.888 249.928 414.611 249.928 417.629 252.946 417.629 256.668Z" fill="#98DF8A" transform="matrix(1.00017 0 -0 1 -28.0834 94.7697)"/><path d="M417.069 185.594C417.069 189.317 414.052 192.335 410.329 192.335 406.607 192.335 403.589 189.317 403.589 185.594 403.589 181.872 406.607 178.854 410.329 178.854 414.052 178.854 417.069 181.872 417.069 185.594Z" fill="#98DF8A" transform="matrix(1.00017 0 -0 1 -28.0834 94.7697)"/><path d="M493.118 185.75C493.118 189.472 490.1 192.49 486.378 192.49 482.655 192.49 479.638 189.472 479.638 185.75 479.638 182.027 482.655 179.009 486.378 179.009 490.1 179.009 493.118 182.027 493.118 185.75Z" fill="#2CA02C" transform="matrix(1.00017 0 -0 1 -28.0834 94.7697)"/><path d="M460.818 201.24C460.818 204.962 457.801 207.98 454.078 207.98 450.356 207.98 447.338 204.962 447.338 201.24 447.338 197.517 450.356 194.5 454.078 194.5 457.801 194.5 460.818 197.517 460.818 201.24Z" fill="#98DF8A" transform="matrix(1.00017 0 -0 1 -28.0834 94.7697)"/><path d="M479.733 144.741C479.733 148.463 476.716 151.481 472.993 151.481 469.271 151.481 466.253 148.463 466.253 144.741 466.253 141.018 469.271 138 472.993 138 476.716 138 479.733 141.018 479.733 144.741Z" fill="#2CA02C" transform="matrix(1.00017 0 -0 1 -28.0834 94.7697)"/><text font-family="Arial,Arial_MSFontService,sans-serif" font-weight="400" font-size="18" transform="matrix(0.84266 0 0 0.84252 704.755 433)">context<tspan font-size="17" x="-144.347" y="1.18692">course</tspan><tspan font-size="16" x="-1956.27" y="-141.243">user</tspan><tspan font-size="16" x="-1926.27" y="-141.243">_</tspan><tspan font-size="16" x="-1917.27" y="-141.243">info</tspan><tspan font-size="16" x="-1892.27" y="-141.243">_</tspan><tspan font-size="16" x="-1883.27" y="-141.243">data</tspan><tspan font-size="16" x="-2177" y="-127">user</tspan><tspan font-size="16" x="-2147" y="-127">_</tspan><tspan font-size="16" x="-2138" y="-127">info</tspan><tspan font-size="16" x="-2113" y="-127">_</tspan><tspan font-size="16" x="-2104" y="-127">field</tspan><tspan x="-544.613" y="-331.15">user</tspan>_enrolments<tspan x="-514.884" y="-242.131">user</tspan><tspan font-size="17" x="-390.424" y="-240.944">id</tspan><tspan font-size="17" x="-452.288" y="-284.86">userid</tspan><tspan font-size="17" x="83.4242" y="52.2243">filter</tspan><tspan font-size="17" x="114.424" y="52.2243">_</tspan><tspan font-size="17" x="123.424" y="52.2243">active</tspan><tspan font-size="16" x="86.3937" y="130.561">filter</tspan><tspan font-size="16" x="115.394" y="130.561">_</tspan><tspan font-size="16" x="124.394" y="130.561">config</tspan><tspan font-size="15" x="209.284" y="128.187">filter</tspan><tspan font-size="16" x="205.663" y="51.0374">filter</tspan><tspan font-size="16" x="-1873.06" y="46.2897">block</tspan><tspan font-size="16" x="-1836.06" y="46.2897">_</tspan><tspan font-size="16" x="-1827.06" y="46.2897">positions</tspan><tspan font-size="15" x="-1860.98" y="117.505">block</tspan><tspan font-size="16" x="-2106.59" y="9.49533">block</tspan><tspan font-size="16" x="-2069.59" y="9.49533">_</tspan><tspan font-size="16" x="-2060.59" y="9.49533">instances</tspan><tspan font-size="14" x="-1999.3" y="56.972">blockname</tspan><tspan font-size="14" x="-1915.57" y="91.3925">name</tspan><tspan font-size="15" x="-1927.4" y="34.4206">blockinstanceid</tspan><tspan font-size="15" x="-1958" y="22.5514">id</tspan><tspan font-size="15" x="-91.0877" y="106.822">course</tspan><tspan font-size="15" x="-46.0877" y="106.822">_</tspan><tspan font-size="15" x="-38.0877" y="106.822">categories</tspan><tspan font-size="14" x="-38.2745" y="45.1028">id</tspan><tspan font-size="14" x="-69.2013" y="-70.028">instanceid</tspan><tspan font-size="15" x="-1497.15" y="122.252">message</tspan><tspan font-size="15" x="-1436.15" y="122.252">_</tspan><tspan font-size="15" x="-1428.15" y="122.252">conversations</tspan><tspan font-size="15" x="-1280.55" y="239.757">message</tspan><tspan font-size="15" x="-1219.55" y="239.757">_</tspan><tspan font-size="15" x="-1211.55" y="239.757">conversation</tspan><tspan font-size="15" x="-1128.55" y="239.757">_</tspan><tspan font-size="15" x="-1120.55" y="239.757">members</tspan><tspan font-size="15" x="-1232.7" y="284.86">messages</tspan><tspan font-size="14" x="-1288.71" y="248.065">conversationid</tspan><tspan font-size="15" x="-1293.08" y="201.776">id</tspan><tspan font-size="14" x="-1270.54" y="220.766">conversationid</tspan><tspan font-size="16" x="-1546.16" y="-270.617">message</tspan><tspan font-size="16" x="-1481.16" y="-270.617">_</tspan><tspan font-size="16" x="-1472.16" y="-270.617">users</tspan><tspan font-size="16" x="-1434.16" y="-270.617">_</tspan><tspan font-size="16" x="-1425.16" y="-270.617">blocked</tspan><tspan font-size="16" x="-1752.78" y="-178.037">message</tspan><tspan font-size="16" x="-1687.78" y="-178.037">_</tspan><tspan font-size="16" x="-1678.78" y="-178.037">contact</tspan><tspan font-size="16" x="-1628.78" y="-178.037">_</tspan><tspan font-size="16" x="-1619.78" y="-178.037">requests</tspan><tspan font-size="15" x="-1524.35" y="-243.318">userid</tspan><tspan font-size="15" x="-1614.45" y="-216.019">requesteduserid</tspan><tspan font-size="17" x="-354.911" y="137.682">modules</tspan><tspan font-size="15" x="138.996" y="-26.1121">contextid</tspan><tspan font-size="16" x="82.7965" y="-70.028">id</tspan><tspan font-size="17" x="-273.436" y="26.1121">course</tspan><tspan font-size="17" x="-223.437" y="26.1121">_</tspan><tspan font-size="17" x="-214.436" y="26.1121">modules</tspan><tspan font-size="13" x="-123.074" y="-70.028">id</tspan><tspan font-size="13" x="-192.318" y="-17.8037">course</tspan><tspan font-size="16" x="-356.546" y="52.2243">assign</tspan><tspan font-size="15" x="-1480.93" y="-102.075">files</tspan><tspan font-size="15" x="-1454.93" y="-102.075">_</tspan><tspan font-size="15" x="-1446.93" y="-102.075">reference</tspan><tspan font-size="15" x="-1284.01" y="3.56075">files</tspan><tspan font-size="14" x="-1361.39" y="-23.7383">referencefileid</tspan><tspan font-size="14" x="-1374.93" y="-59.3458">id</tspan><tspan font-size="16" x="-221.35" y="143.617">id</tspan><tspan font-size="16" x="-238.284" y="84.271">module</tspan><tspan font-size="14" x="-339.74" y="-15.4299">id</tspan><tspan font-size="14" x="-276.574" y="-14.243">instance</tspan><tspan font-size="16" x="-572.546" y="-18.9907">assign</tspan><tspan font-size="16" x="-526.546" y="-18.9907">_</tspan><tspan font-size="16" x="-517.546" y="-18.9907">submission</tspan><tspan font-size="14" x="-468.273" y="100.888">assign</tspan><tspan font-size="14" x="-427.273" y="100.888">_</tspan><tspan font-size="14" x="-419.273" y="100.888">grades</tspan><tspan font-size="12" x="-435.537" y="-346.579">assign</tspan><tspan font-size="12" x="-397.537" y="-346.579">_</tspan><tspan font-size="12" x="-390.537" y="-346.579">user</tspan><tspan font-size="12" x="-365.537" y="-346.579">_</tspan><tspan font-size="12" x="-358.537" y="-346.579">flags</tspan><tspan font-size="12" x="-1707.92" y="-71.215">groups</tspan><tspan font-size="12" x="-1668.92" y="-71.215">_</tspan><tspan font-size="12" x="-1661.92" y="-71.215">members</tspan><tspan font-size="12" x="-1926.01" y="-92.5794">groups</tspan><tspan font-size="11" x="-1731.37" y="-79.5234">groupid</tspan><tspan font-size="11" x="-1787.74" y="-86.6449">id</tspan><tspan font-size="9" x="-1333.06" y="-229.075">repository</tspan><tspan font-size="9" x="-1291.06" y="-229.075">_</tspan><tspan font-size="9" x="-1286.06" y="-229.075">instances</tspan><tspan font-size="8" x="-1394.54" y="-147.178">repositoryid</tspan><tspan font-size="8" x="-1330.35" y="-189.907">id</tspan><tspan font-size="11" x="-201.041" y="-100.888">forum</tspan><tspan font-size="8" x="-129.428" y="-147.178">course</tspan><tspan font-size="10" x="-253.741" y="-268.243">forum</tspan><tspan font-size="10" x="-226.741" y="-268.243">_</tspan><tspan font-size="10" x="-220.741" y="-268.243">discussions</tspan><tspan font-size="11" x="-290.886" y="-364.383">forum</tspan><tspan font-size="11" x="-262.886" y="-364.383">_</tspan><tspan font-size="11" x="-256.886" y="-364.383">posts</tspan><tspan font-size="8" x="-217.773" y="-348.953">id</tspan><tspan font-size="8" x="-226.435" y="-308.598">firstpost</tspan><tspan font-size="8" x="-325.156" y="-341.832">userid</tspan><tspan font-size="7" x="-295.662" y="-267.056">usermodified</tspan><tspan font-size="10" x="-282.723" y="-328.776">discussion</tspan><tspan font-size="9" x="-253.39" y="-147.178">id</tspan><tspan font-size="8" x="-1949.54" y="-214.832">user</tspan><tspan font-size="8" x="-1934.54" y="-214.832">_</tspan><tspan font-size="8" x="-1930.54" y="-214.832">info</tspan><tspan font-size="8" x="-1918.54" y="-214.832">_</tspan><tspan font-size="8" x="-1914.54" y="-214.832">category</tspan><tspan font-size="8" x="-2057.56" y="-163.794">categoryid</tspan><tspan font-size="8" x="-1975.41" y="-192.28">id</tspan><tspan font-size="8" x="-2036.96" y="-127">id</tspan><tspan font-size="8" x="-1972.31" y="-131.748">fieldid</tspan><tspan font-size="16" x="72.5133" y="-370.318">role</tspan><tspan font-size="16" x="25.4614" y="-219.579">role</tspan><tspan font-size="16" x="51.4614" y="-219.579">_</tspan><tspan font-size="16" x="60.4614" y="-219.579">capabilities</tspan><tspan font-size="13" x="77.8313" y="-326.402">id</tspan><tspan font-size="13" x="67.1392" y="-275.364">roleid</tspan><tspan font-size="7" x="-1185.64" y="-40.3551">lti</tspan><tspan font-size="7" x="-1179.64" y="-40.3551">_</tspan><tspan font-size="7" x="-1175.64" y="-40.3551">types</tspan><tspan font-size="7" x="-1195.32" y="109.196">lti</tspan><tspan font-size="7" x="-1189.32" y="109.196">_</tspan><tspan font-size="7" x="-1185.32" y="109.196">tool</tspan><tspan font-size="7" x="-1173.32" y="109.196">_</tspan><tspan font-size="7" x="-1169.32" y="109.196">proxies</tspan><tspan font-size="6" x="-1185.43" y="20.1776">toolproxyid</tspan><tspan font-size="6" x="-1174.08" y="67.6542">id</tspan><tspan font-size="15" x="-56.7956" y="-354.888">capabilities</tspan><tspan font-size="15" x="-47.2473" y="-221.953">capability</tspan><tspan font-size="15" x="-36.7392" y="-288.421">name</tspan><tspan font-size="15" x="58.2997" y="-144.804">contextid</tspan><tspan font-size="14" x="-523.493" y="-141.243">userid</tspan><tspan font-size="13" x="-452.166" y="-16.6168">assignment</tspan><tspan font-size="13" x="-453.39" y="43.9159">assignment</tspan><tspan font-size="9" x="-395.612" y="-306.224">userid</tspan><tspan font-size="9" x="-1305.73" y="-103.262">competency</tspan><tspan font-size="9" x="-1257.41" y="-208.897">competency</tspan><tspan font-size="9" x="-1205.41" y="-208.897">_</tspan><tspan font-size="9" x="-1200.41" y="-208.897">coursecomp</tspan><tspan font-size="8" x="-1272.98" y="-182.785">competencyid</tspan><tspan font-size="8" x="-1333.17" y="-131.748">id</tspan><tspan font-size="8" x="-1228.85" y="-123.439">competency</tspan><tspan font-size="8" x="-1187.85" y="-123.439">_</tspan><tspan font-size="8" x="-1183.85" y="-123.439">usercompcourse</tspan><tspan font-size="8" x="-1256.6" y="-118.692">competencyid</tspan><tspan font-size="7" x="-1201.83" y="-280.112">customfield</tspan><tspan font-size="7" x="-1163.83" y="-280.112">_</tspan><tspan font-size="7" x="-1159.83" y="-280.112">category</tspan><tspan font-size="7" x="-1195.38" y="-96.1402">customfield</tspan><tspan font-size="7" x="-1157.38" y="-96.1402">_</tspan><tspan font-size="7" x="-1153.38" y="-96.1402">field</tspan><tspan font-size="6" x="-1169.56" y="-221.953">id</tspan><tspan font-size="6" x="-1180.37" y="-167.355">categoryid</tspan><tspan font-size="9" x="-164.618" y="210.084">event</tspan><tspan font-size="8" x="-172.225" y="145.991">modulename</tspan><tspan font-size="7" x="-102.772" y="145.991">eventtype</tspan><tspan font-size="7" x="-216.424" y="207.71">name</tspan><tspan font-size="7" x="-261.751" y="-297.916">id</tspan><tspan font-size="7" x="-374.943" y="-294.355">assign</tspan><tspan font-size="7" x="-352.943" y="-294.355">_</tspan><tspan font-size="7" x="-348.943" y="-294.355">user</tspan><tspan font-size="7" x="-334.943" y="-294.355">_</tspan><tspan font-size="7" x="-330.943" y="-294.355">mapping</tspan><tspan font-size="6" x="-363.596" y="-272.991">userid</tspan><tspan font-size="6" x="-218.251" y="-220.766">forum</tspan><tspan font-size="8" x="-300.821" y="-207.71">workshop</tspan><tspan font-size="8" x="-267.821" y="-207.71">_</tspan><tspan font-size="8" x="-263.821" y="-207.71">assessments</tspan><tspan font-size="8" x="-421.873" y="-138.869">workshop</tspan><tspan font-size="8" x="-388.873" y="-138.869">_</tspan><tspan font-size="8" x="-384.873" y="-138.869">submissions</tspan><tspan font-size="8" x="-299.337" y="-102.075">workshop</tspan><tspan font-size="7" x="-323.044" y="-58.1589">id</tspan><tspan font-size="6" x="-395.984" y="-97.3271">workshopid</tspan><tspan font-size="6" x="-392.647" y="-181.598">authorid</tspan><tspan font-size="6" x="-308.384" y="-180.411">submissionid</tspan><tspan font-size="6" x="-332.721" y="-162.607">id</tspan><tspan font-size="6" x="-320.77" y="-229.075">reviewerid</tspan></text></g></g></g><rect x="245.5" y="85.5001" width="301" height="202" stroke="#98DF8A" stroke-width="1.33333" stroke-miterlimit="8" stroke-dasharray="5.33333 4" fill="none"/><text fill="#98DF8A" font-family="DengXian,DengXian_MSFontService,sans-serif" font-weight="400" font-size="24" transform="translate(514.737 111)"></text><rect x="469.5" y="399.5" width="110" height="125" stroke="#17BECF" stroke-width="1.33333" stroke-miterlimit="8" stroke-dasharray="5.33333 4" fill="none"/><text fill="#17BECF" font-family="DengXian,DengXian_MSFontService,sans-serif" font-weight="400" font-size="24" transform="translate(551.495 512)"></text><rect x="644.5" y="352.5" width="157" height="102" stroke="#1F77B4" stroke-width="1.33333" stroke-miterlimit="8" stroke-dasharray="5.33333 4" fill="none"/><text fill="#1F77B4" font-family="DengXian,DengXian_MSFontService,sans-serif" font-weight="400" font-size="24" transform="translate(767.494 442)"></text><rect x="221.5" y="297.5" width="157" height="238" stroke="#FF7F0E" stroke-width="1.33333" stroke-miterlimit="8" stroke-dasharray="5.33333 4" fill="none"/><text fill="#FF7F0E" font-family="DengXian,DengXian_MSFontService,sans-serif" font-weight="400" font-size="24" transform="translate(326.232 322)"></text></g></svg>