<!-- Generated by IcoMoon.io -->
<svg version="1.1" xmlns="http://www.w3.org/2000/svg" width="32" height="32" viewBox="0 0 32 32">
<title>alarm-clock</title>
<path d="M16 26q4.25-0.094 7.078-2.922t2.922-7.078q-0.094-4.25-2.922-7.078t-7.078-2.922q-4.25 0.094-7.078 2.922t-2.922 7.078q0.094 4.25 2.922 7.078t7.078 2.922zM16 28q-5.094-0.125-8.484-3.516t-3.516-8.484q0.125-5.094 3.516-8.484t8.484-3.516q5.094 0.125 8.484 3.516t3.516 8.484q-0.125 5.094-3.516 8.484t-8.484 3.516zM9.125 25.781l1.75 1-1.5 2.594q-0.313 0.469-0.875 0.469t-0.844-0.484-0.031-0.984zM22.875 25.781l-1.75 1 1.5 2.594q0.313 0.469 0.875 0.469t0.844-0.484 0.031-0.984zM16 16h5q0.438 0 0.719 0.281t0.281 0.719-0.281 0.719-0.719 0.281h-6q-0.438 0-0.719-0.281t-0.281-0.719v-7q0-0.438 0.281-0.719t0.719-0.281 0.719 0.281 0.281 0.719v6zM2.813 9.75q-0.969-1.531-0.797-3.25t1.469-3.016 3.016-1.469 3.25 0.797l-1.469 1.469q-0.875-0.406-1.797-0.25t-1.594 0.844-0.844 1.609 0.234 1.797l-1.438 1.469h-0.031zM28.938 9.75q0.969-1.531 0.797-3.25t-1.453-3.016-3.016-1.469-3.266 0.797l1.469 1.469q0.875-0.406 1.797-0.25t1.609 0.844 0.844 1.609-0.25 1.797z"></path>
</svg>
