<!-- Generated by IcoMoon.io -->
<svg version="1.1" xmlns="http://www.w3.org/2000/svg" width="32" height="32" viewBox="0 0 32 32">
<title>apple</title>
<path d="M18.75 6.375q1-0.25 2-0.156h0.094q0.719 0.031 1.281 0.141t1.188 0.391q1.781 0.719 3.5 2.781 2.25 2.938 1.953 7.75t-3.047 8.563l-0.969 1.25q-0.438 0.563-0.938 1.094-0.719 0.781-1.547 1.172t-1.891 0.391q-0.719 0.031-1.328-0.109t-1.297-0.453l-0.219-0.094q-0.469-0.219-0.781-0.297t-0.703-0.078-0.734 0.078-0.844 0.328l-0.188 0.063q-0.656 0.281-1.203 0.438t-1.203 0.188q-1.688 0.063-2.938-0.938t-2.688-3.219q-2.313-3.438-2.906-7.641t1.188-7.547q1.094-1.938 2.906-3.047t3.969-1.172q0.75-0.031 1.484 0.156t1.641 0.563l0.875 0.344 0.281 0.094q0.781-0.938 1.094-1.563 0.625-1.25 1.281-3.156 0.125-0.406 0.484-0.578t0.766-0.047 0.578 0.484 0.047 0.766q-0.563 1.781-1.188 3.063zM17.125 8.813q-0.656 0.844-1.625 1.844-0.281 0.281-0.688 0.297t-0.703-0.266-0.313-0.688 0.266-0.719l0.375-0.406q-0.656-0.281-1.422-0.547t-1.578-0.266q-1.656 0.031-3.063 0.906t-2.281 2.375q-1.625 3.188-0.891 6.953t2.516 6.359q0.813 1.281 1.813 2.297t2.281 1.047q1.156-0.125 2-0.578t2.25-0.516q1.406 0.063 2.234 0.531t2.047 0.531q1.25-0.031 2.047-0.875t1.922-2.375q2.5-3.438 2.672-7.609t-1.547-6.422q-1.719-1.938-2.922-2.328t-1.828-0.328q-0.969-0.094-1.875 0.188t-1.688 0.594z"></path>
</svg>
