<!-- Generated by IcoMoon.io -->
<svg version="1.1" xmlns="http://www.w3.org/2000/svg" width="32" height="32" viewBox="0 0 32 32">
<title>attract</title>
<path d="M26 10v-4h-4v10q-0.063 2.563-1.75 4.25t-4.25 1.75q-2.563-0.063-4.25-1.75t-1.75-4.25v-10h-4v4h4v2h-4v4q0.094 4.25 2.922 7.078t7.078 2.922q4.25-0.094 7.078-2.922t2.922-7.078v-4h-4v-2h4zM20 16v-12h8v12q-0.125 5.094-3.516 8.484t-8.484 3.516q-5.094-0.125-8.484-3.516t-3.516-8.484v-12h8v12q0.031 1.688 1.172 2.828t2.828 1.172q1.688-0.031 2.828-1.172t1.172-2.828z"></path>
</svg>
