<!-- Generated by IcoMoon.io -->
<svg version="1.1" xmlns="http://www.w3.org/2000/svg" width="32" height="32" viewBox="0 0 32 32">
<title>bangzhu</title>
<path d="M16 28q5.094-0.125 8.484-3.516t3.516-8.484q-0.125-5.094-3.516-8.484t-8.484-3.516q-5.094 0.125-8.484 3.516t-3.516 8.484q0.125 5.094 3.516 8.484t8.484 3.516zM16 30q-5.938-0.156-9.891-4.109t-4.109-9.891q0.156-5.938 4.109-9.891t9.891-4.109q5.938 0.156 9.891 4.109t4.109 9.891q-0.156 5.938-4.109 9.891t-9.891 4.109zM16 22q2.563-0.063 4.25-1.75t1.75-4.25q-0.063-2.563-1.75-4.25t-4.25-1.75q-2.563 0.063-4.25 1.75t-1.75 4.25q0.063 2.563 1.75 4.25t4.25 1.75zM16 24q-3.406-0.094-5.656-2.344t-2.344-5.656q0.094-3.406 2.344-5.656t5.656-2.344q3.406 0.094 5.656 2.344t2.344 5.656q-0.094 3.406-2.344 5.656t-5.656 2.344zM19.469 11.094l5.031-5 1.406 1.406-5 5.031q-0.594-0.844-1.438-1.438zM20.906 19.469l5 5.031-1.406 1.406-5.031-5q0.844-0.594 1.438-1.438zM12.531 20.906l-5.031 5-1.406-1.406 5-5.031q0.594 0.844 1.438 1.438zM11.094 12.531l-5-5.031 1.406-1.406 5.031 5q-0.844 0.594-1.438 1.438z"></path>
</svg>
