<!-- Generated by IcoMoon.io -->
<svg version="1.1" xmlns="http://www.w3.org/2000/svg" width="32" height="32" viewBox="0 0 32 32">
<title>bank-card</title>
<path d="M28 10.125q0-0.969-0.063-1.406t-0.25-0.719q-0.219-0.469-0.688-0.688-0.281-0.188-0.719-0.25t-1.406-0.063h-17.75q-0.969 0-1.406 0.063t-0.719 0.25q-0.469 0.219-0.688 0.688-0.188 0.281-0.25 0.719t-0.063 1.406v11.75q0 0.969 0.063 1.406t0.25 0.719q0.219 0.469 0.688 0.688 0.281 0.188 0.719 0.25t1.406 0.063h17.75q0.969 0 1.406-0.063t0.719-0.25q0.469-0.219 0.688-0.688 0.188-0.281 0.25-0.719t0.063-1.406v-11.75zM30 10.125v11.75q0 1.313-0.141 1.969t-0.391 1.094q-0.531 1-1.5 1.531-0.469 0.25-1.125 0.391t-1.969 0.141h-17.75q-1.313 0-1.969-0.141t-1.125-0.391q-0.969-0.531-1.5-1.5-0.25-0.469-0.391-1.125t-0.141-1.969v-11.75q0-1.313 0.141-1.969t0.391-1.125q0.531-0.969 1.5-1.5 0.469-0.25 1.125-0.391t1.969-0.141h17.75q1.313 0 1.969 0.141t1.094 0.391q1 0.531 1.531 1.5 0.25 0.469 0.391 1.125t0.141 1.969zM2 10h28v2h-28v-2zM2 14h28v2h-28v-2zM6 20h8v2h-8v-2z"></path>
</svg>
