<!-- Generated by IcoMoon.io -->
<svg version="1.1" xmlns="http://www.w3.org/2000/svg" width="32" height="32" viewBox="0 0 32 32">
<title>baseball</title>
<path d="M6.094 25.906q-4.094-4.313-4.094-9.906t4.094-9.906q4.313-4.094 9.906-4.094t9.906 4.094q4.094 4.313 4.094 9.906t-4.094 9.906q-4.313 4.094-9.906 4.094t-9.906-4.094zM7.5 24.5q3.719 3.5 8.5 3.5t8.5-3.5q3.5-3.719 3.5-8.5t-3.5-8.5q-3.719-3.5-8.5-3.5t-8.5 3.5q-3.5 3.719-3.5 8.5t3.5 8.5zM15.531 3.031q1.094 0.219 2.031 0.438-1.344 2.438-1 5.063t2.281 4.625q2 1.938 4.625 2.281t5.063-1q0.219 0.938 0.438 2.031-2.969 1.406-6.078 0.906t-5.484-2.781q-2.281-2.375-2.781-5.484t0.906-6.078zM3.375 15.375q2.938-1.281 5.938-0.734t5.281 2.766q2.219 2.281 2.766 5.281t-0.734 5.938q-1.063-0.188-2.063-0.375 1.25-2.406 0.859-4.953t-2.266-4.453q-1.906-1.875-4.453-2.266t-4.953 0.859z"></path>
</svg>
