<!-- Generated by IcoMoon.io -->
<svg version="1.1" xmlns="http://www.w3.org/2000/svg" width="32" height="32" viewBox="0 0 32 32">
<title>basketball</title>
<path d="M24.344 24.625q1.594-1.531 2.516-3.5t1.109-4.156q-1.75-1.063-3.734-1.172t-3.828 0.734q2.75 3.656 3.938 8.094zM22.625 26q-0.531-2.281-1.516-4.406t-2.391-4q-2.344 2-2.828 4.859t1.078 5.516q1.5-0.125 2.938-0.625t2.719-1.344zM14.688 27.938q-1.406-3.188-0.656-6.422t3.406-5.453q-0.719-0.813-1.5-1.531-2.25 2.656-5.469 3.406t-6.406-0.625q0.25 2.031 1.125 3.875t2.328 3.297 3.281 2.328 3.891 1.125zM4.031 15.031q2.656 1.531 5.516 1.047t4.828-2.797q-1.875-1.438-3.984-2.406t-4.391-1.5q-0.844 1.281-1.344 2.703t-0.625 2.953zM7.375 7.656q4.406 1.188 8.094 3.906 0.813-1.844 0.703-3.813t-1.141-3.719q-2.188 0.188-4.156 1.109t-3.5 2.516zM17.313 4.063q0.938 2.125 0.875 4.422t-1.156 4.391q1.125 0.969 2.094 2.063 2.063-1.094 4.359-1.156t4.453 0.906q-0.25-2.063-1.125-3.891t-2.328-3.281-3.281-2.328-3.891-1.125zM25.906 25.906q-4.313 4.094-9.906 4.094t-9.906-4.094q-4.094-4.313-4.094-9.906t4.094-9.906q4.313-4.094 9.906-4.094t9.906 4.094q4.094 4.313 4.094 9.906t-4.094 9.906z"></path>
</svg>
