<!-- Generated by IcoMoon.io -->
<svg version="1.1" xmlns="http://www.w3.org/2000/svg" width="32" height="32" viewBox="0 0 32 32">
<title>bell</title>
<path d="M16 2q0.844 0.031 1.406 0.594t0.594 1.406v2h-4v-2q0.031-0.844 0.594-1.406t1.406-0.594zM8 24h16v-10q-0.094-3.406-2.344-5.656t-5.656-2.344q-3.406 0.094-5.656 2.344t-2.344 5.656v10zM16 4q4.25 0.094 7.078 2.922t2.922 7.078v12h-20v-12q0.094-4.25 2.922-7.078t7.078-2.922zM3 24h26q1 0 1 1v0q0 1-1 1h-26q-1 0-1-1v0q0-1 1-1zM14 28h4q-0.031 0.844-0.594 1.406t-1.406 0.563-1.406-0.563-0.594-1.406z"></path>
</svg>
