<!-- Generated by IcoMoon.io -->
<svg version="1.1" xmlns="http://www.w3.org/2000/svg" width="32" height="32" viewBox="0 0 32 32">
<title>bicycle</title>
<path d="M8 26q1.688-0.031 2.828-1.172t1.172-2.828q-0.031-1.688-1.172-2.828t-2.828-1.172q-1.688 0.031-2.828 1.172t-1.172 2.828q0.031 1.688 1.172 2.828t2.828 1.172zM8 28q-2.563-0.063-4.25-1.75t-1.75-4.25q0.063-2.563 1.75-4.25t4.25-1.75q2.563 0.063 4.25 1.75t1.75 4.25q-0.063 2.563-1.75 4.25t-4.25 1.75zM9 21h10q1 0 1 1v0q0 1-1 1h-10q-1 0-1-1v0q0-1 1-1zM24 26q1.688-0.031 2.828-1.172t1.172-2.828q-0.031-1.688-1.172-2.828t-2.828-1.172q-1.688 0.031-2.828 1.172t-1.172 2.828q0.031 1.688 1.172 2.828t2.828 1.172zM24 28q-2.563-0.063-4.25-1.75t-1.75-4.25q0.063-2.563 1.75-4.25t4.25-1.75q2.563 0.063 4.25 1.75t1.75 4.25q-0.063 2.563-1.75 4.25t-4.25 1.75zM15 6q-0.438 0-0.719-0.281t-0.281-0.719 0.281-0.719 0.719-0.281h5q0.344 0 0.609 0.203t0.359 0.547l3 12q0.094 0.406-0.125 0.75t-0.609 0.438-0.734-0.094-0.469-0.594l-2.813-11.25h-4.219zM3 12q-0.438 0-0.719-0.281t-0.281-0.719 0.281-0.719 0.719-0.281h4q0.344 0 0.594 0.188t0.344 0.5l2 6q0.188 0.563-0.188 1t-0.953 0.313-0.734-0.688l-1.781-5.313h-3.281zM11.656 18.75l-1.313-1.5 10-9 1.313 1.5z"></path>
</svg>
