<!-- Generated by IcoMoon.io -->
<svg version="1.1" xmlns="http://www.w3.org/2000/svg" width="32" height="32" viewBox="0 0 32 32">
<title>box</title>
<path d="M9.906 4l-5.906 6.75v17.25h24v-17.25l-5.906-6.75h-12.188zM9.469 2h13.063q0.469 0 0.781 0.344l6.438 7.375q0.25 0.281 0.25 0.656v18.625q0 0.438-0.281 0.719t-0.719 0.281h-26q-0.438 0-0.719-0.281t-0.281-0.719v-18.625q0-0.375 0.25-0.656l6.438-7.375q0.313-0.344 0.781-0.344zM2 10h28v2h-28v-2zM14 10.25v9.75h4v-9.75l-1.563-6.25h-0.875zM14 2h4l2 8v11q0 0.438-0.281 0.719t-0.719 0.281h-6q-0.438 0-0.719-0.281t-0.281-0.719v-11z"></path>
</svg>
