<!-- Generated by IcoMoon.io -->
<svg version="1.1" xmlns="http://www.w3.org/2000/svg" width="32" height="32" viewBox="0 0 32 32">
<title>brush</title>
<path d="M28 14h-24v6q0.031 0.844 0.594 1.406t1.406 0.594h6v6h8v-6h6q0.844-0.031 1.406-0.594t0.594-1.406v-6zM3.906 12q0-2.219 0.5-4 0.688-2.531 2.594-5h13.031l-0.469 2.188 3.438-2.188h6.594q-1.156 2-1.594 5-0.281 2-0.188 4h2.188v8q-0.031 1.688-1.172 2.828t-2.828 1.172h-4v5q0 0.438-0.281 0.719t-0.719 0.281h-10q-0.438 0-0.719-0.281t-0.281-0.719v-5h-4q-1.688-0.031-2.828-1.172t-1.172-2.828v-8h1.906zM5.906 12h19.906q-0.094-2.156 0.219-4.281 0.188-1.438 0.563-2.719h-3l-6.906 4.406 0.875-4.406h-9.531q-1.219 1.781-1.688 3.531-0.438 1.5-0.438 3.469z"></path>
</svg>
