<!-- Generated by IcoMoon.io -->
<svg version="1.1" xmlns="http://www.w3.org/2000/svg" width="32" height="32" viewBox="0 0 32 32">
<title>burger</title>
<path d="M5 16q-0.438 0-0.719 0.281t-0.281 0.719v2q0 0.406 0.266 0.688t0.672 0.313h22.063q0.438 0 0.719-0.281t0.281-0.719v-2q0-0.438-0.281-0.719t-0.719-0.281h-22zM28 14.156q0.906 0.344 1.453 1.109t0.547 1.734v2q0 0.844-0.438 1.563t-1.188 1.094l-1.656 4.406q-0.344 0.875-1.094 1.391t-1.688 0.547h-15.875q-0.938-0.031-1.688-0.547t-1.094-1.391l-1.656-4.406q-0.75-0.375-1.188-1.094t-0.438-1.563v-2q0-0.969 0.547-1.734t1.453-1.109v-0.156q0.156-5.094 3.578-8.453t8.516-3.453q5.094 0.156 8.453 3.563t3.453 8.5zM26 14q-0.094-4.25-2.922-7.078t-7.078-2.922q-4.25 0.094-7.078 2.922t-2.922 7.078h20zM16 22h-10.125l1.281 3.344q0.094 0.313 0.344 0.484t0.563 0.172h15.875q0.313 0 0.563-0.172t0.344-0.484l1.281-3.344h-10.125z"></path>
</svg>
