<!-- Generated by IcoMoon.io -->
<svg version="1.1" xmlns="http://www.w3.org/2000/svg" width="32" height="32" viewBox="0 0 32 32">
<title>c-scale-to-original</title>
<path d="M25.406 5.656q0.813 0 1.344 0.531t0.531 1.344v15.063q0 0.781-0.547 1.328t-1.328 0.547h-18.813q-0.781 0-1.328-0.547t-0.547-1.328v-15.063q0-0.813 0.531-1.344t1.344-0.531h18.813zM25.406 3.75h-18.813q-0.75 0.031-1.438 0.313t-1.219 0.813-0.828 1.219-0.297 1.438v15.063q0 0.75 0.297 1.438t0.828 1.219 1.219 0.813 1.438 0.281h18.813q0.75 0 1.438-0.281t1.219-0.813 0.828-1.219 0.297-1.438v-15.063q0-0.75-0.297-1.438t-0.828-1.219-1.219-0.813-1.438-0.313zM21.656 9.406q-0.406 0-0.672 0.281t-0.266 0.656v9.406q0 0.406 0.266 0.672t0.672 0.266 0.672-0.266 0.266-0.672v-9.406q0-0.406-0.266-0.672t-0.672-0.266zM10.344 9.406q-0.375 0-0.656 0.281t-0.281 0.656v9.406q0 0.406 0.266 0.672t0.672 0.266 0.672-0.266 0.266-0.672v-9.406q0-0.375-0.266-0.656t-0.672-0.281zM16 11.281q-0.406 0.031-0.672 0.297t-0.266 0.672v0.938q0 0.375 0.266 0.641t0.672 0.266 0.672-0.266 0.266-0.641v-0.938q0-0.406-0.281-0.672t-0.656-0.297zM16 16q-0.406 0-0.672 0.266t-0.266 0.672v0.938q0 0.406 0.266 0.672t0.672 0.266 0.672-0.266 0.266-0.672v-0.938q0-0.375-0.281-0.656t-0.656-0.281z"></path>
</svg>
