<!-- Generated by IcoMoon.io -->
<svg version="1.1" xmlns="http://www.w3.org/2000/svg" width="32" height="32" viewBox="0 0 32 32">
<title>camera-solid</title>
<path d="M5 7q-0.844 0.031-1.406 0.594t-0.594 1.406v16q0.031 0.844 0.594 1.406t1.406 0.594h22q0.844-0.031 1.406-0.594t0.594-1.406v-16q-0.031-0.844-0.594-1.406t-1.406-0.594h-3.625l-1.438-2.906q-0.25-0.5-0.734-0.797t-1.047-0.297h-8.313q-0.563 0-1.031 0.297t-0.75 0.797l-1.438 2.906h-3.625zM16 20.594q0.969 0 1.797-0.469t1.313-1.328 0.484-1.797-0.484-1.797-1.313-1.328-1.797-0.469q-1.531 0.031-2.547 1.047t-1.047 2.547q0.031 1.531 1.047 2.547t2.547 1.047zM16 25q-3.406-0.094-5.656-2.344t-2.344-5.656q0.094-3.406 2.344-5.656t5.656-2.344q3.406 0.094 5.656 2.344t2.344 5.656q-0.094 3.406-2.344 5.656t-5.656 2.344z"></path>
</svg>
