<!-- Generated by IcoMoon.io -->
<svg version="1.1" xmlns="http://www.w3.org/2000/svg" width="32" height="32" viewBox="0 0 32 32">
<title>camera</title>
<path d="M28 8h-24v18h24v-18zM21.781 6l-1-2h-9.531l-1 2h11.531zM3 6h5l1.438-2.906q0.281-0.5 0.75-0.797t1.063-0.297h9.531q0.563 0 1.031 0.297t0.75 0.797l1.438 2.906h5q0.438 0 0.719 0.281t0.281 0.719v20q0 0.438-0.281 0.719t-0.719 0.281h-26q-0.438 0-0.719-0.281t-0.281-0.719v-20q0-0.438 0.281-0.719t0.719-0.281zM16 22q2.125-0.063 3.531-1.469t1.469-3.531q-0.063-2.125-1.469-3.531t-3.531-1.469q-2.125 0.063-3.531 1.469t-1.469 3.531q0.063 2.125 1.469 3.531t3.531 1.469zM16 24q-2.969-0.063-4.953-2.047t-2.047-4.953q0.063-2.969 2.047-4.953t4.953-2.047q2.969 0.063 4.953 2.047t2.047 4.953q-0.063 2.969-2.047 4.953t-4.953 2.047z"></path>
</svg>
