<!-- Generated by IcoMoon.io -->
<svg version="1.1" xmlns="http://www.w3.org/2000/svg" width="32" height="32" viewBox="0 0 32 32">
<title>chat-line-round</title>
<path d="M5.469 26.75l4.219-1.406 0.75 0.344q2.563 1.313 5.563 1.313 5.094-0.156 8.484-3.328t3.516-7.672q-0.125-4.5-3.516-7.672t-8.484-3.328q-5.094 0.156-8.484 3.328t-3.516 7.672q0 1.625 0.563 3.219t1.656 3l0.688 0.906zM4.031 29.313q-0.594 0.188-1.016-0.266t-0.203-1.047l1.813-4.563q-1.25-1.656-1.938-3.547t-0.688-3.891q0.125-5.156 4-8.984t10-4.016q6.125 0.188 10 4.016t4 8.984q-0.125 5.156-4 8.984t-10 4.016q-3.406 0-6.469-1.5zM11 18h10q1 0 1 1v0q0 1-1 1h-10q-1 0-1-1v0q0-1 1-1zM12 12h8q1 0 1 1v0q0 1-1 1h-8q-1 0-1-1v0q0-1 1-1z"></path>
</svg>
