<!-- Generated by IcoMoon.io -->
<svg version="1.1" xmlns="http://www.w3.org/2000/svg" width="32" height="32" viewBox="0 0 32 32">
<title>chat-line-square</title>
<path d="M5 25.844l3.563-2.844h16.438q0.844-0.031 1.406-0.594t0.594-1.406v-13q-0.031-0.844-0.594-1.406t-1.406-0.594h-18q-0.844 0.031-1.406 0.594t-0.594 1.406v17.844zM9.25 25l-4.625 3.688q-0.5 0.375-1.047 0.109t-0.578-0.891v-19.906q0.031-1.688 1.172-2.828t2.828-1.172h18q1.688 0.031 2.828 1.172t1.172 2.828v13q-0.031 1.688-1.172 2.828t-2.828 1.172h-15.75zM11 16h10q1 0 1 1v0q0 1-1 1h-10q-1 0-1-1v0q0-1 1-1zM11 10h10q1 0 1 1v0q0 1-1 1h-10q-1 0-1-1v0q0-1 1-1z"></path>
</svg>
