<!-- Generated by IcoMoon.io -->
<svg version="1.1" xmlns="http://www.w3.org/2000/svg" width="32" height="32" viewBox="0 0 32 32">
<title>chat-round</title>
<path d="M5.469 26.75l4.063-1.375 0.719 0.375q2.563 1.25 5.75 1.25 5.344-0.125 8.625-3.25t3.375-7.75q-0.094-4.656-3.359-7.766t-8.641-3.234q-5.375 0.125-8.641 3.234t-3.359 7.766q0 1.75 0.563 3.375t1.594 3l0.688 0.906zM4.031 29.313q-0.594 0.188-1.016-0.266t-0.203-1.047l1.75-4.406q-1.25-1.656-1.906-3.594t-0.656-4q0.063-5.156 3.766-8.984t10.234-4.016q6.531 0.188 10.234 4.016t3.766 8.984q-0.063 5.156-3.781 8.984t-10.219 4.016q-3.75-0.031-6.625-1.469z"></path>
</svg>
