<!-- Generated by IcoMoon.io -->
<svg version="1.1" xmlns="http://www.w3.org/2000/svg" width="32" height="32" viewBox="0 0 32 32">
<title>chat-dot-square</title>
<path d="M8.563 23h16.438q0.844-0.031 1.406-0.594t0.594-1.406v-13q-0.031-0.844-0.594-1.406t-1.406-0.594h-18q-0.844 0.031-1.406 0.594t-0.594 1.406v17.844zM9.25 25l-4.625 3.688q-0.5 0.375-1.047 0.109t-0.578-0.891v-19.906q0.031-1.688 1.172-2.828t2.828-1.172h18q1.688 0.031 2.828 1.172t1.172 2.828v13q-0.031 1.688-1.172 2.828t-2.828 1.172h-15.75zM16 15.594q-0.688 0-1.141-0.453t-0.453-1.141 0.453-1.141 1.141-0.453 1.141 0.453 0.453 1.141-0.453 1.141-1.141 0.453zM22 15.594q-0.688 0-1.141-0.453t-0.453-1.141 0.453-1.141 1.141-0.453 1.141 0.453 0.453 1.141-0.453 1.141-1.141 0.453zM10 15.594q-0.688 0-1.141-0.453t-0.453-1.141 0.453-1.141 1.141-0.453 1.141 0.453 0.453 1.141-0.453 1.141-1.141 0.453z"></path>
</svg>
