<!-- Generated by IcoMoon.io -->
<svg version="1.1" xmlns="http://www.w3.org/2000/svg" width="32" height="32" viewBox="0 0 32 32">
<title>cherry</title>
<path d="M8.156 14.063q0.656-3.281 1.969-5.563 1.125-1.906 3.531-4.5h-3.656q-0.438 0-0.719-0.281t-0.281-0.719 0.281-0.719 0.719-0.281h12q0.438 0 0.719 0.281t0.281 0.719-0.281 0.719-0.719 0.281h-4.656q0.688 1.844 2.469 4.438 1.125 1.594 1.969 2.484t1.375 1.078q2.75 0.125 4.656 1.922t2.156 4.547q0.156 2.781-1.453 4.844t-4.328 2.594q-2.719 0.406-4.938-1t-3-4.031q-0.688-2.688 0.5-5.031t3.75-3.375q-1.063-1.094-2.313-2.906-1.844-2.625-2.656-4.656-2.594 2.719-3.672 4.594t-1.672 4.594q2.781 0.531 4.391 2.656t1.391 4.938q-0.344 2.781-2.328 4.547t-4.797 1.766q-2.844-0.125-4.734-1.984t-2.109-4.672q-0.063-2.813 1.656-4.859t4.5-2.422zM9 26q2.125-0.063 3.531-1.469t1.469-3.531q-0.063-2.125-1.469-3.531t-3.531-1.469q-2.125 0.063-3.531 1.469t-1.469 3.531q0.063 2.125 1.469 3.531t3.531 1.469zM23 24q2.125-0.063 3.531-1.469t1.469-3.531q-0.063-2.125-1.469-3.531t-3.531-1.469q-2.125 0.063-3.531 1.469t-1.469 3.531q0.063 2.125 1.469 3.531t3.531 1.469z"></path>
</svg>
