<!-- Generated by IcoMoon.io -->
<svg version="1.1" xmlns="http://www.w3.org/2000/svg" width="32" height="32" viewBox="0 0 32 32">
<title>chicken</title>
<path d="M10.938 22.406l4.031-4.031q-0.469-0.219-0.828-0.594t-0.609-0.813l-4 4.031 0.063 0.281 0.063 1 1 0.063zM12.719 23.438q0.938 0.938 1.141 2.188t-0.391 2.422-1.703 1.766-2.406 0.406-2.219-1.047-1.172-2.141l-0.063-1-1-0.063q-1.281-0.281-2.141-1.188t-1.047-2.203 0.406-2.406 1.766-1.703 2.406-0.391 2.172 1.109l4.563-4.531q-0.031-2.438 1.219-5.266t3.438-5.047q2.563-2.438 5.203-2.25t4.703 2.25 2.25 4.703-2.281 5.203q-2.188 2.156-5.016 3.422t-5.297 1.234zM15.563 16.375q1.375 1.094 4.641 0.047t5.953-3.578q1.781-1.875 1.656-3.719t-1.641-3.359-3.375-1.656-3.703 1.641q-2.531 2.719-3.594 5.984t0.063 4.641zM7.656 22.156q0.031-0.625-0.281-1.156t-0.891-0.797-1.188-0.156-1.047 0.563-0.547 1.063 0.141 1.188 0.781 0.891 1.156 0.281l1.75-0.125zM7.906 26.156q-0.031 0.625 0.281 1.141t0.891 0.781 1.188 0.156 1.047-0.563 0.547-1.047-0.141-1.172-0.781-0.891-1.156-0.281l-1.781 0.094z"></path>
</svg>
