<!-- Generated by IcoMoon.io -->
<svg version="1.1" xmlns="http://www.w3.org/2000/svg" width="32" height="32" viewBox="0 0 32 32">
<title>circle-plus</title>
<path d="M16 2q5.938 0.156 9.891 4.109t4.109 9.891q-0.156 5.938-4.109 9.891t-9.891 4.109q-5.938-0.156-9.891-4.109t-4.109-9.891q0.156-5.938 4.109-9.891t9.891-4.109zM14.813 14.813h-4.625q-0.5 0-0.844 0.344t-0.344 0.844 0.344 0.844 0.844 0.344h4.625v4.625q0 0.5 0.344 0.844t0.844 0.344 0.844-0.344 0.344-0.844v-4.625h4.625q0.5 0 0.844-0.344t0.344-0.844-0.344-0.844-0.844-0.344h-4.625v-4.625q0-0.5-0.344-0.844t-0.844-0.344-0.844 0.344-0.344 0.844v4.625z"></path>
</svg>
