<!-- Generated by IcoMoon.io -->
<svg version="1.1" xmlns="http://www.w3.org/2000/svg" width="32" height="32" viewBox="0 0 32 32">
<title>close-notification</title>
<path d="M7.531 26l2-2h14.469v-10q-0.031-2-0.875-3.688l1.438-1.469q0.688 1.156 1.063 2.453t0.375 2.703v10h3q0.438 0 0.719 0.281t0.281 0.719-0.281 0.719-0.719 0.281h-21.469zM4.719 26h-1.719q-0.438 0-0.719-0.281t-0.281-0.719 0.281-0.719 0.719-0.281h3v-10q0.063-3.656 2.25-6.328t5.75-3.484v-0.188q0.031-0.844 0.594-1.406t1.406-0.563 1.406 0.563 0.594 1.406v0.188q1.563 0.344 2.922 1.109t2.453 1.922l-1.438 1.438q-1.688-1.875-4.063-2.438t-4.734 0.344-3.734 2.906-1.406 4.531v8.688zM14 28h4q-0.031 0.844-0.594 1.406t-1.406 0.563-1.406-0.563-0.594-1.406zM4.719 26.844q-0.313 0.281-0.703 0.281t-0.688-0.297-0.313-0.688 0.266-0.703l22-22.156q0.313-0.281 0.703-0.281t0.688 0.297 0.313 0.703-0.266 0.719z"></path>
</svg>
