<!-- Generated by IcoMoon.io -->
<svg version="1.1" xmlns="http://www.w3.org/2000/svg" width="32" height="32" viewBox="0 0 32 32">
<title>cloudy</title>
<path d="M23.031 11.188l-1.031-0.25-0.375-1q-0.719-1.906-2.344-2.969t-3.656-0.938-3.516 1.391-1.953 3.234l-0.281 1.219-1.219 0.281q-2.281 0.563-3.547 2.375t-1.078 4.156q0.313 2.313 1.969 3.781t4 1.531h11.5q1.313 0 2.484-0.5t2.094-1.422 1.422-2.094 0.5-2.484q-0.031-2.281-1.391-4t-3.578-2.313zM23.5 9.25q2.906 0.75 4.672 3t1.828 5.25q-0.094 3.594-2.484 6t-6.016 2.5h-11.5q-3.125-0.063-5.328-2.031t-2.641-5.063q-0.281-3.125 1.422-5.531t4.734-3.188q0.656-2.625 2.641-4.297t4.672-1.859q2.719-0.156 4.875 1.266t3.125 3.953z"></path>
</svg>
