<!-- Generated by IcoMoon.io -->
<svg version="1.1" xmlns="http://www.w3.org/2000/svg" width="32" height="32" viewBox="0 0 32 32">
<title>cloudy-and-sunny</title>
<path d="M18.688 28h-8.438q-3.313 0.031-5.625-2.063t-2.625-5.406q-0.125-3.313 1.875-5.688t5.313-2.813q1.938-3.688 5.609-5.203t7.672-0.266q3.938 1.406 5.969 4.813t1.406 7.531q-0.813 4.094-3.891 6.609t-7.266 2.484zM10.219 26h8.5q3.438 0.031 5.953-2.016t3.172-5.422q0.563-3.375-1.109-6.172t-4.891-3.922q-3.281-1.031-6.281 0.203t-4.594 4.266l-0.5 0.969-1.094 0.125q-2.469 0.313-3.969 2.109t-1.406 4.266q0.25 2.5 1.984 4.063t4.234 1.531zM4.375 15.688q-1.75-1.781-2.219-4.109t0.484-4.625 2.938-3.609 4.469-1.297 4.453 1.344 2.938 3.641q-0.844 0.094-1.938 0.594-0.75-1.719-2.266-2.688t-3.375-0.922-3.313 1.078-2.125 2.781-0.266 3.484 1.75 3.016z"></path>
</svg>
