<!-- Generated by IcoMoon.io -->
<svg version="1.1" xmlns="http://www.w3.org/2000/svg" width="32" height="32" viewBox="0 0 32 32">
<title>coffee-cup</title>
<path d="M24 6q1.656 0 3.047 0.813t2.203 2.266 0.766 3.047-0.906 3.016-2.281 2.172-3.078 0.688q-0.75 2.688-2.859 4.328t-4.891 1.672h-6q-3.406-0.094-5.656-2.344t-2.344-5.656v-11q0-0.438 0.281-0.719t0.719-0.281h20q0.438 0 0.719 0.281t0.281 0.719v1zM24 8v8q1.688-0.031 2.828-1.172t1.172-2.828q-0.031-1.688-1.172-2.828t-2.828-1.172zM3 26h20q0.438 0 0.719 0.281t0.281 0.719-0.281 0.719-0.719 0.281h-20q-0.438 0-0.719-0.281t-0.281-0.719 0.281-0.719 0.719-0.281zM4 6v10q0.063 2.563 1.75 4.25t4.25 1.75h6q2.563-0.063 4.25-1.75t1.75-4.25v-10h-18z"></path>
</svg>
