<!-- Generated by IcoMoon.io -->
<svg version="1.1" xmlns="http://www.w3.org/2000/svg" width="32" height="32" viewBox="0 0 32 32">
<title>coffee</title>
<path d="M25.719 6h0.438q0.375 0 0.641 0.234t0.328 0.609l0.688 4q0.063 0.438-0.234 0.797t-0.766 0.359h-1.531l-1.219 17.063q-0.031 0.406-0.313 0.672t-0.688 0.266h-14.125q-0.406 0-0.688-0.266t-0.313-0.672l-1.219-17.063h-1.531q-0.469 0-0.766-0.359t-0.234-0.797l0.688-4q0.063-0.375 0.328-0.609t0.641-0.234h0.438l-0.219-2.938q0-0.438 0.297-0.75t0.703-0.313h17.844q0.438 0 0.734 0.313t0.266 0.75zM23.688 6l0.156-2h-15.688l0.125 2h15.406zM6.563 10h19.063l-0.313-2h-18.625l-0.313 2h0.188zM8.719 12l1.156 16h12.25l1.156-16h-14.563z"></path>
</svg>
