<!-- Generated by IcoMoon.io -->
<svg version="1.1" xmlns="http://www.w3.org/2000/svg" width="32" height="32" viewBox="0 0 32 32">
<title>coin</title>
<path d="M5.063 18.156l0.938 1.844q-0.969 0.938-1 2 0.125 2 3.203 3.469t7.797 1.531q4.719-0.063 7.797-1.531t3.203-3.469q-0.031-1.063-1-2l0.969-1.844q0.969 0.813 1.5 1.781t0.531 2.063q-0.156 3.094-3.844 5.016t-9.156 1.984q-5.469-0.063-9.156-1.984t-3.844-5.016q0-1.094 0.547-2.063t1.516-1.781zM5.063 12.156l0.938 1.844q-0.969 0.938-1 2 0.125 2 3.203 3.469t7.797 1.531q4.719-0.063 7.797-1.531t3.203-3.469q-0.031-1.063-1-2l0.969-1.844q0.969 0.813 1.5 1.781t0.531 2.063q-0.156 3.094-3.844 5.016t-9.156 1.984q-5.469-0.063-9.156-1.984t-3.844-5.016q0-1.094 0.547-2.063t1.516-1.781zM16 17q-5.469-0.063-9.156-1.984t-3.844-5.016q0.156-3.094 3.844-5.016t9.156-1.984q5.469 0.063 9.156 1.984t3.844 5.016q-0.156 3.094-3.844 5.016t-9.156 1.984zM16 15q4.719-0.063 7.797-1.531t3.203-3.469q-0.125-2-3.203-3.469t-7.797-1.531q-4.719 0.063-7.797 1.531t-3.203 3.469q0.125 2 3.203 3.469t7.797 1.531z"></path>
</svg>
