<!-- Generated by IcoMoon.io -->
<svg version="1.1" xmlns="http://www.w3.org/2000/svg" width="32" height="32" viewBox="0 0 32 32">
<title>cold-drink</title>
<path d="M24 2q1.844 0.031 3.313 1t2.188 2.672 0.391 3.438-1.609 3.063-3.016 1.703-3.453-0.281l-6.813 9.063v5.344h3q0.438 0 0.719 0.281t0.281 0.719-0.281 0.719-0.719 0.281h-8q-0.438 0-0.719-0.281t-0.281-0.719 0.281-0.719 0.719-0.281h3v-5.344l-10.594-14.094q-0.406-0.563-0.406-1.219v-0.344q0-0.406 0.281-0.688t0.719-0.313h2.25l-2.063-2.594q-0.25-0.344-0.203-0.75t0.391-0.656 0.734-0.203 0.672 0.359l3 3.844h10.563q0.656-1.813 2.188-2.891t3.469-1.109zM20.531 6h4.469q0.438 0.031 0.719 0.313t0.281 0.688v0.344q0 0.656-0.406 1.188l-2.5 3.375q1.531 0.313 2.844-0.406t1.813-2.219-0.094-2.875-2.031-2.016-2.859-0.188-2.234 1.828v-0.031zM9.344 8l4.031 5.188q0.25 0.344 0.203 0.734t-0.375 0.641-0.719 0.219-0.672-0.344l-5-6.438h-2.313l9.5 12.656 9.5-12.656h-14.156z"></path>
</svg>
