<!-- Generated by IcoMoon.io -->
<svg version="1.1" xmlns="http://www.w3.org/2000/svg" width="32" height="32" viewBox="0 0 32 32">
<title>collection</title>
<path d="M6 23h20v-19h-18q-0.844 0.031-1.406 0.594t-0.594 1.406v17zM8 2h19q0.438 0 0.719 0.281t0.281 0.719v21q0 0.438-0.281 0.719t-0.719 0.281h-22l-1 1.813v-20.813q0.031-1.688 1.172-2.828t2.828-1.172zM7.5 25q-0.625 0.031-1.047 0.453t-0.422 1.047 0.422 1.047 1.047 0.453h18.5v-3h-18.5zM7.5 23h20.5v5q-0.031 0.844-0.594 1.406t-1.406 0.594h-18.5q-1.5-0.031-2.484-1.016t-1.016-2.484q0.031-1.5 1.016-2.484t2.484-1.016zM12 4v7.844l3-2.406 3 2.406v-7.844h-6zM10 2h10v11.906q-0.031 0.625-0.578 0.891t-1.047-0.109l-3.375-2.688-3.375 2.688q-0.5 0.375-1.047 0.109t-0.578-0.891v-11.906z"></path>
</svg>
