<!-- Generated by IcoMoon.io -->
<svg version="1.1" xmlns="http://www.w3.org/2000/svg" width="32" height="32" viewBox="0 0 32 32">
<title>connection</title>
<path d="M20 12v2h-6q-1.688 0.031-2.828 1.172t-1.172 2.828v4q0.031 1.688 1.172 2.828t2.828 1.172h10q1.688-0.031 2.828-1.172t1.172-2.828v-4q0-1.094-0.531-2t-1.469-1.469v-2.188q1.781 0.656 2.875 2.156t1.125 3.5v4q-0.063 2.563-1.75 4.25t-4.25 1.75h-10q-2.563-0.063-4.25-1.75t-1.75-4.25v-4q0.063-2.563 1.75-4.25t4.25-1.75h6zM12 20v-2h6q1.688-0.031 2.828-1.172t1.172-2.828v-4q-0.031-1.688-1.172-2.828t-2.828-1.172h-10q-1.688 0.031-2.828 1.172t-1.172 2.828v4q0 1.094 0.531 2t1.469 1.469v2.188q-1.813-0.656-2.891-2.188t-1.109-3.469v-4q0.063-2.563 1.75-4.25t4.25-1.75h10q2.563 0.063 4.25 1.75t1.75 4.25v4q-0.063 2.563-1.75 4.25t-4.25 1.75h-6z"></path>
</svg>
