<!-- Generated by IcoMoon.io -->
<svg version="1.1" xmlns="http://www.w3.org/2000/svg" width="32" height="32" viewBox="0 0 32 32">
<title>coordinate</title>
<path d="M15 16h2v10h-2v-10zM6 28h20q-0.031-0.844-0.594-1.406t-1.406-0.594h-16q-0.844 0.031-1.406 0.594t-0.594 1.406zM8 24h16q1.688 0.031 2.828 1.172t1.172 2.828v2h-24v-2q0.031-1.688 1.172-2.828t2.828-1.172zM16 16q2.563-0.063 4.25-1.75t1.75-4.25q-0.063-2.563-1.75-4.25t-4.25-1.75q-2.563 0.063-4.25 1.75t-1.75 4.25q0.063 2.563 1.75 4.25t4.25 1.75zM16 18q-3.406-0.094-5.656-2.344t-2.344-5.656q0.094-3.406 2.344-5.656t5.656-2.344q3.406 0.094 5.656 2.344t2.344 5.656q-0.094 3.406-2.344 5.656t-5.656 2.344z"></path>
</svg>
