<!-- Generated by IcoMoon.io -->
<svg version="1.1" xmlns="http://www.w3.org/2000/svg" width="32" height="32" viewBox="0 0 32 32">
<title>copy-document</title>
<path d="M24 26q-0.031 1.688-1.172 2.828t-2.828 1.172h-14q-1.688-0.031-2.828-1.172t-1.172-2.828v-14q0.031-1.688 1.172-2.828t2.828-1.172v2q-0.844 0.031-1.406 0.594t-0.594 1.406v14q0.031 0.844 0.594 1.406t1.406 0.594h14q0.844-0.031 1.406-0.594t0.594-1.406h2zM12 4q-0.844 0.031-1.406 0.594t-0.594 1.406v14q0.031 0.844 0.594 1.406t1.406 0.594h14q0.844-0.031 1.406-0.594t0.594-1.406v-14q-0.031-0.844-0.594-1.406t-1.406-0.594h-14zM12 2h14q1.688 0.031 2.828 1.172t1.172 2.828v14q-0.031 1.688-1.172 2.828t-2.828 1.172h-14q-1.688-0.031-2.828-1.172t-1.172-2.828v-14q0.031-1.688 1.172-2.828t2.828-1.172z"></path>
</svg>
