<!-- Generated by IcoMoon.io -->
<svg version="1.1" xmlns="http://www.w3.org/2000/svg" width="32" height="32" viewBox="0 0 32 32">
<title>cpu</title>
<path d="M10 8q-0.844 0.031-1.406 0.594t-0.594 1.406v12q0.031 0.844 0.594 1.406t1.406 0.594h12q0.844-0.031 1.406-0.594t0.594-1.406v-12q-0.031-0.844-0.594-1.406t-1.406-0.594h-12zM10 6h12q1.688 0.031 2.828 1.172t1.172 2.828v12q-0.031 1.688-1.172 2.828t-2.828 1.172h-12q-1.688-0.031-2.828-1.172t-1.172-2.828v-12q0.031-1.688 1.172-2.828t2.828-1.172zM16 2q0.438 0 0.719 0.281t0.281 0.719v4h-2v-4q0-0.438 0.281-0.719t0.719-0.281zM21 2q0.438 0 0.719 0.281t0.281 0.719v4h-2v-4q0-0.438 0.281-0.719t0.719-0.281zM11 2q0.438 0 0.719 0.281t0.281 0.719v4h-2v-4q0-0.438 0.281-0.719t0.719-0.281zM16 30q-0.438 0-0.719-0.281t-0.281-0.719v-4h2v4q0 0.438-0.281 0.719t-0.719 0.281zM21 30q-0.438 0-0.719-0.281t-0.281-0.719v-4h2v4q0 0.438-0.281 0.719t-0.719 0.281zM11 30q-0.438 0-0.719-0.281t-0.281-0.719v-4h2v4q0 0.438-0.281 0.719t-0.719 0.281zM2 16q0-0.438 0.281-0.719t0.719-0.281h4v2h-4q-0.438 0-0.719-0.281t-0.281-0.719zM2 11q0-0.438 0.281-0.719t0.719-0.281h4v2h-4q-0.438 0-0.719-0.281t-0.281-0.719zM2 21q0-0.438 0.281-0.719t0.719-0.281h4v2h-4q-0.438 0-0.719-0.281t-0.281-0.719zM30 16q0 0.438-0.281 0.719t-0.719 0.281h-4v-2h4q0.438 0 0.719 0.281t0.281 0.719zM30 11q0 0.438-0.281 0.719t-0.719 0.281h-4v-2h4q0.438 0 0.719 0.281t0.281 0.719zM30 21q0 0.438-0.281 0.719t-0.719 0.281h-4v-2h4q0.438 0 0.719 0.281t0.281 0.719z"></path>
</svg>
