<!-- Generated by IcoMoon.io -->
<svg version="1.1" xmlns="http://www.w3.org/2000/svg" width="32" height="32" viewBox="0 0 32 32">
<title>crop</title>
<path d="M8 24h21q0.438 0 0.719 0.281t0.281 0.719-0.281 0.719-0.719 0.281h-22q-0.438 0-0.719-0.281t-0.281-0.719v-22q0-0.438 0.281-0.719t0.719-0.281 0.719 0.281 0.281 0.719v21zM26 7v22q0 0.438-0.281 0.719t-0.719 0.281-0.719-0.281-0.281-0.719v-21h-21q-0.438 0-0.719-0.281t-0.281-0.719 0.281-0.719 0.719-0.281h22q0.438 0 0.719 0.281t0.281 0.719z"></path>
</svg>
