<!-- Generated by IcoMoon.io -->
<svg version="1.1" xmlns="http://www.w3.org/2000/svg" width="32" height="32" viewBox="0 0 32 32">
<title>d-arrow-left</title>
<path d="M16.531 4.656q0.281-0.25 0.656-0.25t0.656 0.281 0.281 0.656-0.281 0.656l-9.75 10 9.75 10q0.281 0.281 0.281 0.672t-0.281 0.656-0.656 0.266-0.656-0.25l-10.344-10.656q-0.281-0.313-0.281-0.703t0.281-0.672zM24.531 4.656q0.281-0.25 0.656-0.25t0.656 0.281 0.281 0.656-0.281 0.656l-9.75 10 9.75 10q0.281 0.281 0.281 0.672t-0.281 0.656-0.656 0.266-0.656-0.25l-10.344-10.656q-0.281-0.313-0.281-0.703t0.281-0.672z"></path>
</svg>
