<!-- Generated by IcoMoon.io -->
<svg version="1.1" xmlns="http://www.w3.org/2000/svg" width="32" height="32" viewBox="0 0 32 32">
<title>data-analysis</title>
<path d="M20.781 24l3.469 6h-2.313l-3.469-6h-4.938l-3.469 6h-2.313l3.469-6h-6.219q-0.438 0-0.719-0.281t-0.281-0.719v-17h-2q-0.438 0-0.719-0.281t-0.281-0.719 0.281-0.719 0.719-0.281h28q0.438 0 0.719 0.281t0.281 0.719-0.281 0.719-0.719 0.281h-2v17q0 0.438-0.281 0.719t-0.719 0.281h-6.219zM26 6h-20v16h20v-16zM11 14q0.438 0 0.719 0.281t0.281 0.719v2q0 0.438-0.281 0.719t-0.719 0.281-0.719-0.281-0.281-0.719v-2q0-0.438 0.281-0.719t0.719-0.281zM16 12q0.438 0 0.719 0.281t0.281 0.719v4q0 0.438-0.281 0.719t-0.719 0.281-0.719-0.281-0.281-0.719v-4q0-0.438 0.281-0.719t0.719-0.281zM21 10q0.438 0 0.719 0.281t0.281 0.719v6q0 0.438-0.281 0.719t-0.719 0.281-0.719-0.281-0.281-0.719v-6q0-0.438 0.281-0.719t0.719-0.281z"></path>
</svg>
