<!-- Generated by IcoMoon.io -->
<svg version="1.1" xmlns="http://www.w3.org/2000/svg" width="32" height="32" viewBox="0 0 32 32">
<title>data-line</title>
<path d="M11.219 24h-6.219q-0.438 0-0.719-0.281t-0.281-0.719v-17h-2q-0.438 0-0.719-0.281t-0.281-0.719 0.281-0.719 0.719-0.281h28q0.438 0 0.719 0.281t0.281 0.719-0.281 0.719-0.719 0.281h-2v17q0 0.438-0.281 0.719t-0.719 0.281h-6.219l3.469 6h-2.313l-3.469-6h-4.938l-3.469 6h-2.313zM26 6h-20v16h20v-16zM10.719 16.719q-0.313 0.281-0.719 0.281t-0.703-0.297-0.297-0.703 0.281-0.719l4.625-4.594 3.906 2.938 3.406-4.25q0.375-0.469 0.953-0.391t0.781 0.625-0.172 1.016l-4.594 5.75-4.094-3.063z"></path>
</svg>
