<!-- Generated by IcoMoon.io -->
<svg version="1.1" xmlns="http://www.w3.org/2000/svg" width="32" height="32" viewBox="0 0 32 32">
<title>date</title>
<path d="M4 12v16h24v-22h-4v1q0 0.438-0.281 0.719t-0.719 0.281-0.719-0.281-0.281-0.719v-1h-12v1q0 0.438-0.281 0.719t-0.719 0.281-0.719-0.281-0.281-0.719v-1h-4v4h24v2h-24zM10 4h12v-1q0-0.438 0.281-0.719t0.719-0.281 0.719 0.281 0.281 0.719v1h5q0.438 0 0.719 0.281t0.281 0.719v24q0 0.438-0.281 0.719t-0.719 0.281h-26q-0.438 0-0.719-0.281t-0.281-0.719v-24q0-0.438 0.281-0.719t0.719-0.281h5v-1q0-0.438 0.281-0.719t0.719-0.281 0.719 0.281 0.281 0.719v1zM9 16h2q0.438 0 0.719 0.281t0.281 0.719-0.281 0.719-0.719 0.281h-2q-0.438 0-0.719-0.281t-0.281-0.719 0.281-0.719 0.719-0.281zM9 22h2q0.438 0 0.719 0.281t0.281 0.719-0.281 0.719-0.719 0.281h-2q-0.438 0-0.719-0.281t-0.281-0.719 0.281-0.719 0.719-0.281zM15 16h2q0.438 0 0.719 0.281t0.281 0.719-0.281 0.719-0.719 0.281h-2q-0.438 0-0.719-0.281t-0.281-0.719 0.281-0.719 0.719-0.281zM15 22h2q0.438 0 0.719 0.281t0.281 0.719-0.281 0.719-0.719 0.281h-2q-0.438 0-0.719-0.281t-0.281-0.719 0.281-0.719 0.719-0.281zM21 16h2q0.438 0 0.719 0.281t0.281 0.719-0.281 0.719-0.719 0.281h-2q-0.438 0-0.719-0.281t-0.281-0.719 0.281-0.719 0.719-0.281zM21 22h2q0.438 0 0.719 0.281t0.281 0.719-0.281 0.719-0.719 0.281h-2q-0.438 0-0.719-0.281t-0.281-0.719 0.281-0.719 0.719-0.281z"></path>
</svg>
