<!-- Generated by IcoMoon.io -->
<svg version="1.1" xmlns="http://www.w3.org/2000/svg" width="32" height="32" viewBox="0 0 32 32">
<title>delete</title>
<path d="M5 8h-2q-0.438 0-0.719-0.281t-0.281-0.719 0.281-0.719 0.719-0.281h8v-3q0-0.438 0.281-0.719t0.719-0.281h8q0.438 0 0.719 0.281t0.281 0.719v3h8q0.438 0 0.719 0.281t0.281 0.719-0.281 0.719-0.719 0.281h-2v21q0 0.438-0.281 0.719t-0.719 0.281h-20q-0.438 0-0.719-0.281t-0.281-0.719v-21zM19 6v-2h-6v2h6zM7 28h18v-20h-18v20zM13 24q-0.438 0-0.719-0.281t-0.281-0.719v-10q0-0.438 0.281-0.719t0.719-0.281 0.719 0.281 0.281 0.719v10q0 0.438-0.281 0.719t-0.719 0.281zM19 24q-0.438 0-0.719-0.281t-0.281-0.719v-10q0-0.438 0.281-0.719t0.719-0.281 0.719 0.281 0.281 0.719v10q0 0.438-0.281 0.719t-0.719 0.281z"></path>
</svg>
