<!-- Generated by IcoMoon.io -->
<svg version="1.1" xmlns="http://www.w3.org/2000/svg" width="32" height="32" viewBox="0 0 32 32">
<title>delete-location</title>
<path d="M9 28h14q1 0 1 1v0q0 1-1 1h-14q-1 0-1-1v0q0-1 1-1zM25 13q-0.094-3.813-2.641-6.359t-6.359-2.641q-3.813 0.094-6.359 2.641t-2.641 6.359q0 2.781 2.234 6.359t6.766 7.922q4.531-4.344 6.766-7.922t2.234-6.359zM16 30q-11-10-11-17 0.125-4.688 3.219-7.781t7.781-3.219q4.688 0.125 7.781 3.219t3.219 7.781q0 7-11 17zM12 12h8q1 0 1 1v0q0 1-1 1h-8q-1 0-1-1v0q0-1 1-1z"></path>
</svg>
