<!-- Generated by IcoMoon.io -->
<svg version="1.1" xmlns="http://www.w3.org/2000/svg" width="32" height="32" viewBox="0 0 32 32">
<title>delete-solid</title>
<path d="M11 6v-3q0-0.438 0.281-0.719t0.719-0.281h8q0.438 0 0.719 0.281t0.281 0.719v3h8q0.438 0 0.719 0.281t0.281 0.719-0.281 0.719-0.719 0.281h-26q-0.438 0-0.719-0.281t-0.281-0.719 0.281-0.719 0.719-0.281h8zM13 6h6v-2h-6v2zM6 30q-0.438 0-0.719-0.281t-0.281-0.719v-21h22v21q0 0.438-0.281 0.719t-0.719 0.281h-20zM13 24q0.438 0 0.719-0.281t0.281-0.719v-10q0-0.438-0.281-0.719t-0.719-0.281-0.719 0.281-0.281 0.719v10q0 0.438 0.281 0.719t0.719 0.281zM19 24q0.438 0 0.719-0.281t0.281-0.719v-10q0-0.438-0.281-0.719t-0.719-0.281-0.719 0.281-0.281 0.719v10q0 0.438 0.281 0.719t0.719 0.281z"></path>
</svg>
