<!-- Generated by IcoMoon.io -->
<svg version="1.1" xmlns="http://www.w3.org/2000/svg" width="32" height="32" viewBox="0 0 32 32">
<title>dessert</title>
<path d="M4 13v-1.5q0-1 0.422-1.891t1.188-1.547 1.719-0.906 1.953-0.094q0.688-2.281 2.516-3.656t4.203-1.406q2.375 0.031 4.203 1.406t2.516 3.656q1-0.156 1.953 0.094t1.719 0.906 1.188 1.547 0.422 1.891v1.5q-0.094 4.781-3.156 8.125t-7.844 3.844v3.031h-2v-3.031q-4.781-0.5-7.844-3.844t-3.156-8.125zM12.969 12h6.063q-0.125-1.219 0.359-2.313t1.484-1.844q-0.438-1.719-1.766-2.766t-3.109-1.047-3.109 1.047-1.766 2.766q1 0.75 1.484 1.844t0.359 2.313zM10.688 12q0.156-0.688-0.094-1.313t-0.828-1.031-1.266-0.406-1.266 0.406-0.828 1.031-0.094 1.313h4.375zM21.313 12h4.375q0.156-0.688-0.094-1.313t-0.828-1.031-1.266-0.406-1.266 0.406-0.828 1.031-0.094 1.313zM16 23q3.938-0.094 6.703-2.594t3.234-6.406h-19.875q0.469 3.906 3.234 6.406t6.703 2.594zM12 28h8q0.438 0 0.719 0.281t0.281 0.719-0.281 0.719-0.719 0.281h-8q-0.438 0-0.719-0.281t-0.281-0.719 0.281-0.719 0.719-0.281z"></path>
</svg>
