<!-- Generated by IcoMoon.io -->
<svg version="1.1" xmlns="http://www.w3.org/2000/svg" width="32" height="32" viewBox="0 0 32 32">
<title>discover</title>
<path d="M16 28q5.094-0.125 8.484-3.516t3.516-8.484q-0.125-5.094-3.516-8.484t-8.484-3.516q-5.094 0.125-8.484 3.516t-3.516 8.484q0.125 5.094 3.516 8.484t8.484 3.516zM16 30q-5.938-0.156-9.891-4.109t-4.109-9.891q0.156-5.938 4.109-9.891t9.891-4.109q5.938 0.156 9.891 4.109t4.109 9.891q-0.156 5.938-4.109 9.891t-9.891 4.109zM22.688 9.844q-2.313 5.344-4.922 7.938t-7.922 4.906q-0.25 0.094-0.438-0.094t-0.094-0.438q2.313-5.313 4.906-7.906t7.938-4.938q0.25-0.094 0.438 0.094t0.094 0.438z"></path>
</svg>
