<!-- Generated by IcoMoon.io -->
<svg version="1.1" xmlns="http://www.w3.org/2000/svg" width="32" height="32" viewBox="0 0 32 32">
<title>discount</title>
<path d="M7 22h18v-12.063l-7.719-6.313q-0.594-0.469-1.281-0.469t-1.281 0.469l-7.719 6.313v12.063zM7 24v4h18v-4h-18zM18.531 2.063l8.094 6.625q0.375 0.313 0.375 0.781v19.531q0 0.438-0.281 0.719t-0.719 0.281h-20q-0.438 0-0.719-0.281t-0.281-0.719v-19.531q0-0.469 0.375-0.781l8.094-6.625q1.156-0.906 2.531-0.906t2.531 0.906zM16 14q0.844-0.031 1.406-0.594t0.563-1.406-0.563-1.406-1.406-0.563-1.406 0.563-0.563 1.406 0.563 1.406 1.406 0.594zM16 16q-1.688-0.031-2.828-1.172t-1.172-2.828q0.031-1.688 1.172-2.828t2.828-1.172q1.688 0.031 2.828 1.172t1.172 2.828q-0.031 1.688-1.172 2.828t-2.828 1.172z"></path>
</svg>
