<!-- Generated by IcoMoon.io -->
<svg version="1.1" xmlns="http://www.w3.org/2000/svg" width="32" height="32" viewBox="0 0 32 32">
<title>dish-1</title>
<path d="M12 8.594v-1.594q0.063-1.688 1.188-2.828t2.813-1.172q1.688 0.031 2.813 1.156t1.188 2.844v1.563q5.063 1.625 7.781 5.891t2.063 9.547h-27.688q-0.688-5.281 2.047-9.547t7.797-5.859zM3 26h26q0.438 0 0.719 0.281t0.281 0.719-0.281 0.719-0.719 0.281h-26q-0.438 0-0.719-0.281t-0.281-0.719 0.281-0.719 0.719-0.281zM4 22h24q-0.125-5.094-3.516-8.484t-8.484-3.516q-5.094 0.125-8.484 3.516t-3.516 8.484zM18 8v-1q-0.031-0.844-0.594-1.406t-1.406-0.563-1.406 0.563-0.594 1.406v1h4z"></path>
</svg>
