<!-- Generated by IcoMoon.io -->
<svg version="1.1" xmlns="http://www.w3.org/2000/svg" width="32" height="32" viewBox="0 0 32 32">
<title>dish</title>
<path d="M15 8.031v-2.031h-3q-0.438 0-0.719-0.281t-0.281-0.719 0.281-0.719 0.719-0.281h8q0.438 0 0.719 0.281t0.281 0.719-0.281 0.719-0.719 0.281h-3v2.031q2.938 0.219 5.5 1.563t4.406 3.641 2.609 5.078 0.359 5.688h-27.75q-0.406-2.906 0.359-5.688t2.609-5.078 4.406-3.641 5.5-1.563zM4 22h24q-0.125-5.094-3.516-8.484t-8.484-3.516q-5.094 0.125-8.484 3.516t-3.516 8.484zM3 26h26q0.438 0 0.719 0.281t0.281 0.719-0.281 0.719-0.719 0.281h-26q-0.438 0-0.719-0.281t-0.281-0.719 0.281-0.719 0.719-0.281z"></path>
</svg>
