<!-- Generated by IcoMoon.io -->
<svg version="1.1" xmlns="http://www.w3.org/2000/svg" width="32" height="32" viewBox="0 0 32 32">
<title>document-delete</title>
<path d="M25.188 10l-5.188-5.188v5.188h5.188zM26 12h-8v-8h-12v24h20v-16zM5 2h15l8 8v19q0 0.438-0.281 0.719t-0.719 0.281h-22q-0.438 0-0.719-0.281t-0.281-0.719v-26q0-0.438 0.281-0.719t0.719-0.281zM14.656 19.063l-2.844-2.813 1.438-1.438 2.813 2.844 2.844-2.844 1.406 1.438-2.813 2.813 2.813 2.844-1.406 1.406-2.844-2.813-2.813 2.813-1.438-1.406z"></path>
</svg>
