<!-- Generated by IcoMoon.io -->
<svg version="1.1" xmlns="http://www.w3.org/2000/svg" width="32" height="32" viewBox="0 0 32 32">
<title>document-copy</title>
<path d="M4 10v18h18v-18h-18zM3 8h20q0.438 0 0.719 0.281t0.281 0.719v20q0 0.438-0.281 0.719t-0.719 0.281h-20q-0.438 0-0.719-0.281t-0.281-0.719v-20q0-0.438 0.281-0.719t0.719-0.281zM30 3v22q0 0.438-0.281 0.719t-0.719 0.281h-3v-2h2v-20h-16v2h-2v-3q0-0.438 0.281-0.719t0.719-0.281h18q0.438 0 0.719 0.281t0.281 0.719zM8 21h10v2h-10v-2zM8 15h10v2h-10v-2z"></path>
</svg>
