<!-- Generated by IcoMoon.io -->
<svg version="1.1" xmlns="http://www.w3.org/2000/svg" width="32" height="32" viewBox="0 0 32 32">
<title>edit-outline</title>
<path d="M26 16q0-0.438 0.281-0.719t0.719-0.281 0.719 0.281 0.281 0.719v11q0 0.438-0.281 0.719t-0.719 0.281h-22q-0.438 0-0.719-0.281t-0.281-0.719v-22q0-0.438 0.281-0.719t0.719-0.281h11q0.438 0 0.719 0.281t0.281 0.719-0.281 0.719-0.719 0.281h-10v20h20v-10zM14.688 17.313l1.656-0.219 10.125-10.156q0.406-0.406 0.266-0.953t-0.703-0.703-0.969 0.25l-10.156 10.125zM27.875 4.125q0.875 0.875 0.875 2.109t-0.875 2.141l-10.344 10.344q-0.25 0.25-0.594 0.313l-3.281 0.469q-0.5 0.063-0.844-0.297t-0.281-0.859l0.469-3.281q0.031-0.344 0.281-0.563l10.375-10.375q0.906-0.875 2.109-0.875t2.109 0.875z"></path>
</svg>
