<!-- Generated by IcoMoon.io -->
<svg version="1.1" xmlns="http://www.w3.org/2000/svg" width="32" height="32" viewBox="0 0 32 32">
<title>eleme</title>
<path d="M9.375 5.906q4.281-2.625 8.875-1.656t7.438 5.063l0.563 0.969v0.031q0.094 0.219 0.016 0.453t-0.266 0.391l-11 7.125q-0.25 0.156-0.5 0.109t-0.406-0.266l-0.563-0.875q-0.375-0.625-0.234-1.281t0.734-1.063l7.031-4.594q0.25-0.156 0.297-0.406t-0.109-0.5q-0.031-0.094-0.125-0.156-2.156-1.719-4.828-1.875t-5.016 1.344q-2.938 2.031-3.641 5.313t1.172 6.313q2 2.906 5.266 3.609t6.297-1.172q0.625-0.375 1.281-0.219t1.063 0.75l0.563 0.813q0.125 0.25 0.078 0.484t-0.234 0.391q-0.406 0.375-0.906 0.656-4.281 2.625-8.875 1.656t-7.438-5.094q-2.625-4.281-1.641-8.875t5.109-7.438zM25.813 15.438q0.25-0.125 0.5-0.078t0.406 0.266l0.719 1.094q0.438 0.719 0.281 1.484t-0.844 1.266l-1.125 0.719q-0.219 0.156-0.469 0.094t-0.438-0.281l-1.438-2.219q-0.156-0.25-0.094-0.5t0.281-0.406z"></path>
</svg>
