<!-- Generated by IcoMoon.io -->
<svg version="1.1" xmlns="http://www.w3.org/2000/svg" width="32" height="32" viewBox="0 0 32 32">
<title>error</title>
<path d="M16 2q5.938 0.156 9.891 4.109t4.109 9.891q-0.156 5.938-4.109 9.891t-9.891 4.109q-5.938-0.156-9.891-4.109t-4.109-9.891q0.156-5.938 4.109-9.891t9.891-4.109zM16 14.313l-3.25-3.25q-0.375-0.375-0.859-0.375t-0.844 0.359-0.359 0.844 0.375 0.859l3.25 3.25-3.25 3.25q-0.375 0.375-0.375 0.859t0.359 0.844 0.844 0.359 0.859-0.375l3.25-3.25 3.25 3.25q0.5 0.469 1.156 0.297t0.828-0.828-0.297-1.156l-3.25-3.25 3.25-3.25q0.375-0.375 0.375-0.859t-0.359-0.844-0.844-0.359-0.859 0.375z"></path>
</svg>
