<!-- Generated by IcoMoon.io -->
<svg version="1.1" xmlns="http://www.w3.org/2000/svg" width="32" height="32" viewBox="0 0 32 32">
<title>female</title>
<path d="M16 20q3.406-0.094 5.656-2.344t2.344-5.656q-0.094-3.406-2.344-5.656t-5.656-2.344q-3.406 0.094-5.656 2.344t-2.344 5.656q0.094 3.406 2.344 5.656t5.656 2.344zM16 22q-4.25-0.094-7.078-2.922t-2.922-7.078q0.094-4.25 2.922-7.078t7.078-2.922q4.25 0.094 7.078 2.922t2.922 7.078q-0.094 4.25-2.922 7.078t-7.078 2.922zM16 20v0q1 0 1 1v8q0 1-1 1v0q-1 0-1-1v-8q0-1 1-1zM11 25h10q1 0 1 1v0q0 1-1 1h-10q-1 0-1-1v0q0-1 1-1z"></path>
</svg>
