<!-- Generated by IcoMoon.io -->
<svg version="1.1" xmlns="http://www.w3.org/2000/svg" width="32" height="32" viewBox="0 0 32 32">
<title>finished</title>
<path d="M8.781 23.563l12.813-18.344q0.344-0.469 0.922-0.422t0.813 0.563-0.078 1.016l-13.438 19.156q-0.25 0.344-0.656 0.422t-0.75-0.172l-7.219-5.406q-0.313-0.25-0.375-0.656t0.188-0.75 0.656-0.391 0.75 0.203zM23 14q-0.438 0-0.719-0.281t-0.281-0.719 0.281-0.719 0.719-0.281h6q0.438 0 0.719 0.281t0.281 0.719-0.281 0.719-0.719 0.281h-6zM19 20q-0.438 0-0.719-0.281t-0.281-0.719 0.281-0.719 0.719-0.281h10q0.438 0 0.719 0.281t0.281 0.719-0.281 0.719-0.719 0.281h-10zM15 26q-0.438 0-0.719-0.281t-0.281-0.719 0.281-0.719 0.719-0.281h14q0.438 0 0.719 0.281t0.281 0.719-0.281 0.719-0.719 0.281h-14z"></path>
</svg>
