<!-- Generated by IcoMoon.io -->
<svg version="1.1" xmlns="http://www.w3.org/2000/svg" width="32" height="32" viewBox="0 0 32 32">
<title>first-aid-kit</title>
<path d="M6 8q-0.844 0.031-1.406 0.594t-0.594 1.406v14q0.031 0.844 0.594 1.406t1.406 0.594h20q0.844-0.031 1.406-0.594t0.594-1.406v-14q-0.031-0.844-0.594-1.406t-1.406-0.594h-20zM6 6h20q1.688 0.031 2.828 1.172t1.172 2.828v14q-0.031 1.688-1.172 2.828t-2.828 1.172h-20q-1.688-0.031-2.828-1.172t-1.172-2.828v-14q0.031-1.688 1.172-2.828t2.828-1.172zM17 16h3q0.438 0 0.719 0.281t0.281 0.719-0.281 0.719-0.719 0.281h-3v3q0 0.438-0.281 0.719t-0.719 0.281-0.719-0.281-0.281-0.719v-3h-3q-0.438 0-0.719-0.281t-0.281-0.719 0.281-0.719 0.719-0.281h3v-3q0-0.438 0.281-0.719t0.719-0.281 0.719 0.281 0.281 0.719v3zM11 4v2h10v-2h-10zM10 2h12q0.438 0 0.719 0.281t0.281 0.719v4q0 0.438-0.281 0.719t-0.719 0.281h-12q-0.438 0-0.719-0.281t-0.281-0.719v-4q0-0.438 0.281-0.719t0.719-0.281z"></path>
</svg>
