<!-- Generated by IcoMoon.io -->
<svg version="1.1" xmlns="http://www.w3.org/2000/svg" width="32" height="32" viewBox="0 0 32 32">
<title>folder-opened</title>
<path d="M27.438 14h-19.875l-3 12h19.875zM26 12v-2h-10.813l-4-4h-7.188v14l1.813-7.25q0.094-0.344 0.359-0.547t0.609-0.203h19.219zM25.219 28h-22.219q-0.438 0-0.719-0.281t-0.281-0.719v-22q0-0.438 0.281-0.719t0.719-0.281h9l4 4h11q0.438 0 0.719 0.281t0.281 0.719v3h0.719q0.469 0 0.766 0.391t0.203 0.859l-3.5 14q-0.094 0.344-0.359 0.547t-0.609 0.203z"></path>
</svg>
