<!-- Generated by IcoMoon.io -->
<svg version="1.1" xmlns="http://www.w3.org/2000/svg" width="32" height="32" viewBox="0 0 32 32">
<title>food</title>
<path d="M4 11.031v-0.031q0.031-2.781 1.516-5t4.047-3.281 5.172-0.547 4.609 2.453q1.563-0.75 3.203-0.594t3.031 1.172 2 2.563 0.328 3.234q0.875 0.094 1.406 0.781t0.406 1.531q-1.375 8.188-6.719 10.344v1.344q-0.031 1.281-0.875 2.125t-2.125 0.875h-8q-1.281-0.031-2.125-0.875t-0.875-2.125v-1.344q-5.344-2.156-6.719-10.344-0.125-0.813 0.375-1.484t1.344-0.797zM6 11h2q0.063-2.125 1.469-3.531t3.531-1.469q2.125 0.063 3.531 1.469t1.469 3.531h2q-0.063-2.969-2.047-4.953t-4.953-2.047q-2.969 0.063-4.953 2.047t-2.047 4.953zM10 11h6q-0.031-1.281-0.875-2.125t-2.125-0.844-2.125 0.844-0.875 2.125zM23.719 11h2.156q0.219-0.906 0.031-1.797t-0.75-1.641-1.391-1.156-1.766-0.406q-0.719 0-1.375 0.25 0.563 0.844 0.875 1.813 0.594-0.156 1.156 0.047t0.938 0.688 0.406 1.078-0.281 1.125zM21 24h-10v1q0 0.438 0.281 0.719t0.719 0.281h8q0.438 0 0.719-0.281t0.281-0.719v-1zM10.281 22h11.438q2.375-0.75 3.875-2.969t2.125-6.031h-23.438q0.625 3.813 2.125 6.031t3.875 2.969z"></path>
</svg>
