<!-- Generated by IcoMoon.io -->
<svg version="1.1" xmlns="http://www.w3.org/2000/svg" width="32" height="32" viewBox="0 0 32 32">
<title>fork-spoon</title>
<path d="M8 12.813v-9.813q0-0.438 0.281-0.719t0.719-0.281 0.719 0.281 0.281 0.719v9.813q0.906-0.313 1.453-1.078t0.547-1.734v-7q0-0.438 0.281-0.719t0.719-0.281 0.719 0.281 0.281 0.719v7q-0.031 1.813-1.125 3.156t-2.875 1.75v14.094q0 0.438-0.281 0.719t-0.719 0.281-0.719-0.281-0.281-0.719v-14.094q-1.781-0.406-2.875-1.75t-1.125-3.156v-7q0-0.438 0.281-0.719t0.719-0.281 0.719 0.281 0.281 0.719v7q0 0.969 0.547 1.734t1.453 1.078zM21 17.875q-2.188-0.531-3.578-2.688t-1.422-5.188q0.063-3.406 1.75-5.656t4.25-2.344q2.563 0.094 4.25 2.344t1.75 5.656q-0.031 3.031-1.422 5.188t-3.578 2.688v11.125q0 0.438-0.281 0.719t-0.719 0.281-0.719-0.281-0.281-0.719v-11.125zM22 16q1.594-0.063 2.766-1.719t1.234-4.281q-0.063-2.625-1.234-4.281t-2.766-1.719q-1.594 0.063-2.766 1.719t-1.234 4.281q0.063 2.625 1.234 4.281t2.766 1.719z"></path>
</svg>
