<!-- Generated by IcoMoon.io -->
<svg version="1.1" xmlns="http://www.w3.org/2000/svg" width="32" height="32" viewBox="0 0 32 32">
<title>full-screen</title>
<path d="M5 3h6q0.438 0.031 0.719 0.313t0.281 0.703-0.281 0.703-0.719 0.281h-6v6q0 0.438-0.281 0.719t-0.719 0.281-0.719-0.281-0.281-0.719v-8h2zM5 29v0h-2v-8q0-0.438 0.281-0.719t0.719-0.281 0.719 0.281 0.281 0.719v6h6q0.438 0 0.719 0.281t0.281 0.703-0.281 0.703-0.719 0.313h-6zM27 3v0h2v8q0 0.438-0.281 0.719t-0.719 0.281-0.719-0.281-0.281-0.719v-6h-6q-0.438 0-0.719-0.281t-0.281-0.703 0.281-0.703 0.719-0.313h6zM27 29h-6q-0.438-0.031-0.719-0.313t-0.281-0.703 0.281-0.703 0.719-0.281h6v-6q0-0.438 0.281-0.719t0.719-0.281 0.719 0.281 0.281 0.719v8h-2z"></path>
</svg>
