<!-- Generated by IcoMoon.io -->
<svg version="1.1" xmlns="http://www.w3.org/2000/svg" width="32" height="32" viewBox="0 0 32 32">
<title>goblet-square</title>
<path d="M17 19.969v8.031h3q0.438 0 0.719 0.281t0.281 0.719-0.281 0.719-0.719 0.281h-8q-0.438 0-0.719-0.281t-0.281-0.719 0.281-0.719 0.719-0.281h3v-8.031q-5.281-0.594-7.203-3.734t-1.797-6.234v-7q0-0.438 0.281-0.719t0.719-0.281h18q0.438 0 0.719 0.281t0.281 0.719v7q0.125 3.094-1.797 6.234t-7.203 3.734zM8 10q0 3.563 1.953 5.75t6.047 2.25q4.125-0.063 6.078-2.25t1.922-5.75v-6h-16v6z"></path>
</svg>
