<!-- Generated by IcoMoon.io -->
<svg version="1.1" xmlns="http://www.w3.org/2000/svg" width="32" height="32" viewBox="0 0 32 32">
<title>goblet</title>
<path d="M17 19.938v8.063h3q0.438 0 0.719 0.281t0.281 0.719-0.281 0.719-0.719 0.281h-8q-0.438 0-0.719-0.281t-0.281-0.719 0.281-0.719 0.719-0.281h3v-8.063q-3.906-0.469-6.406-3.234t-2.594-6.703q0-4 2-8h16q2 3 2 8-0.094 3.938-2.594 6.703t-6.406 3.234zM8 10q0.094 3.406 2.344 5.656t5.656 2.344q3.406-0.094 5.656-2.344t2.344-5.656q0-3.688-1.156-6h-13.563q-1.281 3-1.281 6z"></path>
</svg>
