<!-- Generated by IcoMoon.io -->
<svg version="1.1" xmlns="http://www.w3.org/2000/svg" width="32" height="32" viewBox="0 0 32 32">
<title>goblet-square-full</title>
<path d="M8 8.469l0.5 0.313 0.406 0.281q1.656 0.969 3.594 0.938 0.688 0.031 1.297-0.266t1.547-1.016v0q1.219-0.938 2.125-1.344t2.031-0.375q1.281 0 2.359 0.469t2.078 1.313l0.063 0.063v-4.844h-16v4.469zM8.031 10.844q0.219 3.219 2.172 5.156t5.797 2q3.688-0.031 5.625-1.813t2.281-4.75q-0.625-0.531-1.25-1.125-0.75-0.656-1.516-0.984t-1.672-0.328q-0.688-0.031-1.313 0.266t-1.594 1.047h-0.031q-1.156 0.906-2.047 1.313t-1.984 0.375q-1.281 0-2.391-0.297t-2.078-0.859zM15 19.969q-5.281-0.594-7.203-3.734t-1.797-6.234v-7q0-0.438 0.281-0.719t0.719-0.281h18q0.438 0 0.719 0.281t0.281 0.719v7q0.125 3.094-1.797 6.234t-7.203 3.734v8.031h3q0.438 0 0.719 0.281t0.281 0.719-0.281 0.719-0.719 0.281h-8q-0.438 0-0.719-0.281t-0.281-0.719 0.281-0.719 0.719-0.281h3v-8.031z"></path>
</svg>
