<!-- Generated by IcoMoon.io -->
<svg version="1.1" xmlns="http://www.w3.org/2000/svg" width="32" height="32" viewBox="0 0 32 32">
<title>goblet-full</title>
<path d="M8 10h16q0-3.688-1.156-6h-13.563q-1.281 3-1.281 6zM23.75 12h-15.5q0.75 2.688 2.859 4.313t4.891 1.688q2.781-0.063 4.891-1.688t2.859-4.313zM17 19.938v8.063h3q0.438 0 0.719 0.281t0.281 0.719-0.281 0.719-0.719 0.281h-8q-0.438 0-0.719-0.281t-0.281-0.719 0.281-0.719 0.719-0.281h3v-8.063q-3.906-0.469-6.406-3.234t-2.594-6.703q0-4 2-8h16q2 3 2 8-0.094 3.938-2.594 6.703t-6.406 3.234z"></path>
</svg>
