<!-- Generated by IcoMoon.io -->
<svg version="1.1" xmlns="http://www.w3.org/2000/svg" width="32" height="32" viewBox="0 0 32 32">
<title>goods</title>
<path d="M10 9v-0.688q0.063-2.688 1.75-4.469t4.25-1.844q2.563 0.063 4.25 1.844t1.75 4.469v0.688h4.094q0.406 0 0.672 0.25t0.328 0.656l1.781 18q0.063 0.438-0.234 0.766t-0.734 0.328h-23.813q-0.438 0-0.734-0.328t-0.234-0.766l1.781-18q0.063-0.406 0.328-0.656t0.672-0.25h4.094zM12 9h8v-0.688q-0.031-1.844-1.172-3.063t-2.828-1.25q-1.688 0.031-2.828 1.25t-1.172 3.063v0.688zM10 11h-3.188l-1.594 16h21.563l-1.594-16h-3.188v3q0 0.438-0.281 0.719t-0.719 0.281-0.719-0.281-0.281-0.719v-3h-8v3q0 0.438-0.281 0.719t-0.719 0.281-0.719-0.281-0.281-0.719v-3z"></path>
</svg>
