<!-- Generated by IcoMoon.io -->
<svg version="1.1" xmlns="http://www.w3.org/2000/svg" width="32" height="32" viewBox="0 0 32 32">
<title>grape</title>
<path d="M17 6.094q0.906 0.188 1.672 0.672t1.328 1.234q1.063-1.375 2.672-1.813t3.219 0.219 2.438 2.109 0.594 3.172-1.422 2.891-2.938 1.391q0.5 1.094 0.438 2.281t-0.656 2.234-1.578 1.688-2.203 0.797q0.688 1.625 0.281 3.25t-1.781 2.703-3.063 1.078-3.063-1.078-1.781-2.703 0.281-3.25q-1.219-0.156-2.203-0.797t-1.578-1.688-0.656-2.234 0.438-2.281q-1.75-0.219-2.938-1.391t-1.422-2.891 0.594-3.172 2.438-2.109 3.219-0.219 2.672 1.813q0.563-0.75 1.328-1.234t1.672-0.672v-2.094h-2q-0.438 0-0.719-0.281t-0.281-0.719 0.281-0.719 0.719-0.281h6q0.438 0 0.719 0.281t0.281 0.719-0.281 0.719-0.719 0.281h-2v2.094zM16 14q1.281-0.031 2.125-0.875t0.844-2.125-0.844-2.125-2.125-0.844-2.125 0.844-0.844 2.125 0.844 2.125 2.125 0.875zM8 14q1.281-0.031 2.125-0.875t0.844-2.125-0.844-2.125-2.125-0.844-2.125 0.844-0.844 2.125 0.844 2.125 2.125 0.875zM12 21q1.281-0.031 2.125-0.875t0.844-2.125-0.844-2.125-2.125-0.844-2.125 0.844-0.844 2.125 0.844 2.125 2.125 0.875zM16 28q1.281-0.031 2.125-0.875t0.844-2.125-0.844-2.125-2.125-0.844-2.125 0.844-0.844 2.125 0.844 2.125 2.125 0.875zM20 21q1.281-0.031 2.125-0.875t0.844-2.125-0.844-2.125-2.125-0.844-2.125 0.844-0.844 2.125 0.844 2.125 2.125 0.875zM24 14q1.281-0.031 2.125-0.875t0.844-2.125-0.844-2.125-2.125-0.844-2.125 0.844-0.844 2.125 0.844 2.125 2.125 0.875z"></path>
</svg>
