<!-- Generated by IcoMoon.io -->
<svg version="1.1" xmlns="http://www.w3.org/2000/svg" width="32" height="32" viewBox="0 0 32 32">
<title>guide</title>
<path d="M20 19h-2v-6h2v6zM20 24v5q0 0.438-0.281 0.719t-0.719 0.281h-6q-0.438 0-0.719-0.281t-0.281-0.719v-5h2v4h4v-4h2zM12 19v-6h2v6h-2zM20 8h-2v-4h-4v4h-2v-5q0-0.438 0.281-0.719t0.719-0.281h6q0.438 0 0.719 0.281t0.281 0.719v5zM6.906 8l-2.219 2.5 2.219 2.5h17.094v-5h-17.094zM6.438 6h18.563q0.438 0 0.719 0.281t0.281 0.719v7q0 0.438-0.281 0.719t-0.719 0.281h-18.563q-0.438 0-0.75-0.344l-3.094-3.5q-0.25-0.281-0.25-0.656t0.25-0.656l3.094-3.5q0.313-0.344 0.75-0.344zM27.656 21.5l-2.219 2.5h-17.094v-5h17.094zM25.875 17h-18.531q-0.438 0-0.719 0.281t-0.281 0.719v7q0 0.438 0.281 0.719t0.719 0.281h18.531q0.469 0 0.75-0.344l3.125-3.5q0.25-0.281 0.25-0.656t-0.25-0.656l-3.125-3.5q-0.281-0.344-0.75-0.344z"></path>
</svg>
