<!-- Generated by IcoMoon.io -->
<svg version="1.1" xmlns="http://www.w3.org/2000/svg" width="32" height="32" viewBox="0 0 32 32">
<title>headset</title>
<path d="M28 16.531v-0.531q-0.125-5.094-3.516-8.484t-8.484-3.516q-5.094 0.125-8.484 3.516t-3.516 8.484v0.531q0.938-0.531 2-0.531t2 0.547 1.469 1.453 0.531 2v4q-0.031 1.688-1.172 2.828t-2.828 1.172q-1.688-0.031-2.828-1.172t-1.172-2.828v-8q0.156-5.938 4.109-9.891t9.891-4.109q5.938 0.156 9.891 4.109t4.109 9.891v8q-0.031 1.688-1.172 2.828t-2.828 1.172q-1.688-0.031-2.828-1.172t-1.172-2.828v-4q0-1.094 0.531-2t1.469-1.453 2-0.547 2 0.531zM28 20q-0.031-0.844-0.594-1.406t-1.406-0.563-1.406 0.563-0.594 1.406v4q0.031 0.844 0.594 1.406t1.406 0.563 1.406-0.563 0.594-1.406v-4zM4 20v4q0.031 0.844 0.594 1.406t1.406 0.563 1.406-0.563 0.594-1.406v-4q-0.031-0.844-0.594-1.406t-1.406-0.563-1.406 0.563-0.594 1.406z"></path>
</svg>
