<!-- Generated by IcoMoon.io -->
<svg version="1.1" xmlns="http://www.w3.org/2000/svg" width="32" height="32" viewBox="0 0 32 32">
<title>help</title>
<path d="M23.75 25.156l-2.844-2.844q-1.063 0.844-2.313 1.266t-2.594 0.422-2.594-0.422-2.313-1.266l-2.844 2.844q1.625 1.375 3.609 2.109t4.141 0.734q2.219 0 4.188-0.75t3.563-2.094zM25.156 23.75q1.375-1.625 2.109-3.609t0.734-4.141q0-2.219-0.75-4.188t-2.094-3.563l-2.844 2.844q0.813 1.031 1.25 2.266t0.438 2.641-0.438 2.641-1.25 2.266zM23.75 6.844q-1.625-1.375-3.609-2.109t-4.141-0.734q-2.219 0-4.188 0.75t-3.563 2.094l2.844 2.844q1.063-0.844 2.313-1.266t2.625-0.422 2.609 0.438 2.266 1.25zM6.844 8.25q-1.375 1.625-2.109 3.609t-0.734 4.141q0 2.219 0.75 4.188t2.094 3.563l2.844-2.844q-0.844-1.063-1.266-2.313t-0.422-2.625 0.438-2.609 1.25-2.266zM19.875 20.594q0.375-0.344 0.719-0.719 0.656-0.781 1.031-1.766t0.375-2.109q0-1.344-0.547-2.531t-1.578-2.063q-0.813-0.688-1.813-1.047t-2.063-0.359q-1.344 0-2.531 0.547t-2.063 1.578q-0.656 0.781-1.031 1.766t-0.375 2.109q0 1.344 0.547 2.531t1.578 2.063q0.781 0.656 1.766 1.031t2.109 0.375 2.109-0.375 1.766-1.031zM16 30q-5.938-0.156-9.891-4.109t-4.109-9.891q0.156-5.938 4.109-9.891t9.891-4.109q5.938 0.156 9.891 4.109t4.109 9.891q-0.156 5.938-4.109 9.891t-9.891 4.109z"></path>
</svg>
