<!-- Generated by IcoMoon.io -->
<svg version="1.1" xmlns="http://www.w3.org/2000/svg" width="32" height="32" viewBox="0 0 32 32">
<title>hot-water</title>
<path d="M8.531 14.938h14.938v-2.125h-14.938v2.125zM8.531 17.063v1.594q0 1.188 0.453 2.25t1.281 1.906 1.891 1.281 2.25 0.438h3.188q1.188 0 2.25-0.438t1.891-1.281 1.281-1.906 0.453-2.25v-1.594h-14.938zM7.469 10.656h17.063q0.438 0.031 0.75 0.328t0.313 0.734v6.938q-0.094 3.406-2.344 5.672t-5.656 2.328h-3.188q-1.625 0-3.078-0.594t-2.578-1.734-1.734-2.594-0.609-3.078v-6.938q0-0.438 0.313-0.734t0.75-0.328zM16 1.063q0.438 0 0.75 0.313t0.313 0.75v5.344q0 0.438-0.297 0.75t-0.766 0.313-0.766-0.313-0.297-0.75v-5.344q0-0.438 0.313-0.75t0.75-0.313zM11.719 3.188q0.469 0.031 0.766 0.328t0.328 0.766v3.188q-0.031 0.438-0.328 0.75t-0.75 0.313-0.75-0.313-0.328-0.75v-3.188q0.031-0.469 0.328-0.766t0.734-0.328zM20.281 3.188q0.438 0.031 0.734 0.328t0.328 0.766v3.188q-0.031 0.438-0.328 0.75t-0.75 0.313-0.75-0.313-0.328-0.75v-3.188q0.031-0.469 0.328-0.766t0.766-0.328zM5.344 28.813h21.313q0.469 0 0.766 0.297t0.297 0.75-0.297 0.766-0.766 0.313h-21.313q-0.469 0-0.766-0.313t-0.297-0.766 0.297-0.75 0.766-0.297z"></path>
</svg>
