<!-- Generated by IcoMoon.io -->
<svg version="1.1" xmlns="http://www.w3.org/2000/svg" width="32" height="32" viewBox="0 0 32 32">
<title>ice-cream</title>
<path d="M4.031 14q0.219-2.469 1.891-4.125t4.141-1.875q0.438-2.688 2.438-4.359t4.75-1.641q2.75 0.156 4.609 1.953t2.109 4.547q1.719 0.719 2.781 2.188t1.219 3.313h0.031l-10.844 16.75q-0.313 0.438-0.844 0.438t-0.813-0.438l-11.5-16.75h0.031zM6.031 14h8.938q-0.219-1.75-1.469-2.859t-3-1.141q-1.75 0.031-3 1.141t-1.469 2.859zM17 14h8.969q-0.25-1.75-1.484-2.859t-3.016-1.141q-1.75 0.031-2.984 1.141t-1.484 2.859zM7.781 16l8.5 12.406 8.031-12.406h-16.531zM16 11.031q0.969-1.531 2.531-2.328t3.375-0.703q-0.406-1.781-1.781-2.891t-3.219-1.078-3.172 1.188-1.672 2.969q1.25 0.313 2.25 1.047t1.688 1.797z"></path>
</svg>
