<!-- Generated by IcoMoon.io -->
<svg version="1.1" xmlns="http://www.w3.org/2000/svg" width="32" height="32" viewBox="0 0 32 32">
<title>ice-drink</title>
<path d="M16 14v4h7.5l0.5-4h-8zM14 14h-6l0.5 4h5.5v-4zM16 6.031v5.969h7.75q-0.75-2.688-2.859-4.313t-4.891-1.656zM14 6.281q-2.125 0.563-3.641 2.078t-2.109 3.641h5.75v-5.719zM16 4.031q3.625 0.063 6.313 2.234t3.469 5.734h2.219q0.438 0 0.719 0.281t0.281 0.719-0.281 0.719-0.719 0.281h-2l-1.781 14.25q-0.125 0.75-0.672 1.234t-1.297 0.516h-12.5q-0.75-0.031-1.297-0.516t-0.672-1.234l-1.781-14.25h-2q-0.438 0-0.719-0.281t-0.281-0.719 0.281-0.719 0.719-0.281h2.219q0.625-2.969 2.719-5.047t5.063-2.734v-1.219q0.031-1.281 0.875-2.125t2.125-0.875h4q0.438 0 0.719 0.281t0.281 0.719-0.281 0.719-0.719 0.281h-4q-0.438 0-0.719 0.281t-0.281 0.719v1.031zM23.25 20h-14.5l1 8h12.5z"></path>
</svg>
