<!-- Generated by IcoMoon.io -->
<svg version="1.1" xmlns="http://www.w3.org/2000/svg" width="32" height="32" viewBox="0 0 32 32">
<title>ice-tea</title>
<path d="M6.188 8.125q0.75-3.594 3.438-5.828t6.375-2.297q3.688 0.063 6.375 2.297t3.438 5.828q1 0.281 1.594 1.063t0.594 1.813v2q-0.031 1.031-0.625 1.828t-1.625 1.078l-1.531 12.344q-0.125 0.75-0.672 1.234t-1.328 0.516h-12.438q-0.781-0.031-1.328-0.516t-0.672-1.234l-1.531-12.344q-1.031-0.281-1.625-1.078t-0.625-1.828v-2q0-1.031 0.594-1.813t1.594-1.063zM8.25 8h15.5q-0.75-2.688-2.859-4.313t-4.891-1.688q-2.781 0.063-4.891 1.688t-2.859 4.313zM23.719 16h-15.438l1.5 12h12.438zM7 14h18q0.438 0 0.719-0.281t0.281-0.719v-2q0-0.438-0.281-0.719t-0.719-0.281h-18q-0.438 0-0.719 0.281t-0.281 0.719v2q0 0.438 0.281 0.719t0.719 0.281zM12 20h2v2h-2v-2zM18 22h2v2h-2v-2zM14 24h2v2h-2v-2zM16 18h2v2h-2v-2z"></path>
</svg>
