<!-- Generated by IcoMoon.io -->
<svg version="1.1" xmlns="http://www.w3.org/2000/svg" width="32" height="32" viewBox="0 0 32 32">
<title>ice-cream-round</title>
<path d="M9.625 15.281l7.094 7.094q0.313 0.281 0.703 0.281t0.703-0.281l6.375-6.375q1.75-1.844 1.75-4.234t-1.75-4.266q-1.875-1.75-4.266-1.75t-4.234 1.75l-6.375 6.375q-0.281 0.313-0.281 0.719t0.281 0.688zM13.875 22.375l-4.25 4.219q-0.906 0.875-2.094 0.859t-2.078-0.906-0.906-2.078 0.859-2.094l4.219-4.25-1.406-1.406q-0.844-0.906-0.844-2.141t0.844-2.109l6.375-6.375q2.469-2.344 5.656-2.344t5.656 2.344q2.344 2.469 2.344 5.656t-2.344 5.656l-6.375 6.375q-0.875 0.875-2.109 0.875t-2.141-0.875zM12.469 20.938l-1.406-1.406-4.25 4.25q-0.281 0.313-0.281 0.703t0.297 0.688 0.688 0.297 0.703-0.281zM20.25 8.938q0.281 0.313 0.281 0.703t-0.281 0.703l-5.656 5.656q-0.438 0.406-1 0.266t-0.703-0.703 0.266-0.969l5.656-5.656q0.313-0.313 0.719-0.313t0.719 0.313zM23.063 11.75q0.313 0.313 0.313 0.719t-0.313 0.719l-5.656 5.625q-0.406 0.406-0.953 0.266t-0.703-0.703 0.25-0.969l5.656-5.656q0.281-0.281 0.703-0.281t0.703 0.281z"></path>
</svg>
