<!-- Generated by IcoMoon.io -->
<svg version="1.1" xmlns="http://www.w3.org/2000/svg" width="32" height="32" viewBox="0 0 32 32">
<title>ice-cream-square</title>
<path d="M13 20h8q0.438 0 0.719-0.281t0.281-0.719v-14q0-0.438-0.281-0.719t-0.719-0.281h-10q-0.438 0-0.719 0.281t-0.281 0.719v14q0 0.438 0.281 0.719t0.719 0.281h2zM19 22v5q-0.031 1.281-0.875 2.125t-2.125 0.844-2.125-0.844-0.875-2.125v-5h-2q-1.281-0.031-2.125-0.875t-0.875-2.125v-14q0.031-1.281 0.875-2.125t2.125-0.875h10q1.281 0.031 2.125 0.875t0.875 2.125v14q-0.031 1.281-0.875 2.125t-2.125 0.875h-2zM17 22h-2v5q0 0.438 0.281 0.719t0.719 0.281 0.719-0.281 0.281-0.719v-5z"></path>
</svg>
