<!-- Generated by IcoMoon.io -->
<svg version="1.1" xmlns="http://www.w3.org/2000/svg" width="32" height="32" viewBox="0 0 32 32">
<title>key</title>
<path d="M14 14.25v-11.25q0-0.406 0.297-0.703t0.703-0.297h6q0.438 0 0.719 0.281t0.281 0.719-0.281 0.719-0.719 0.281h-5v4h5q0.438 0 0.719 0.281t0.281 0.719-0.281 0.719-0.719 0.281h-5v4q3.25 0.063 5.469 2.172t2.5 5.328q0.125 3.25-1.828 5.609t-5.141 2.828q-3.25 0.344-5.719-1.453t-3.156-4.984q-0.531-3.188 1.109-5.781t4.766-3.469zM16 28q2.563-0.063 4.25-1.75t1.75-4.25q-0.063-2.563-1.75-4.25t-4.25-1.75q-2.563 0.063-4.25 1.75t-1.75 4.25q0.063 2.563 1.75 4.25t4.25 1.75z"></path>
</svg>
