<!-- Generated by IcoMoon.io -->
<svg version="1.1" xmlns="http://www.w3.org/2000/svg" width="32" height="32" viewBox="0 0 32 32">
<title>knife-fork</title>
<path d="M8 12.844v-9.844q0-0.438 0.281-0.719t0.719-0.281 0.719 0.281 0.281 0.719v9.844q0.906-0.344 1.453-1.109t0.547-1.734v-7q0-0.438 0.281-0.719t0.719-0.281 0.719 0.281 0.281 0.719v7q-0.031 1.813-1.125 3.156t-2.875 1.75v14.094q0 0.438-0.281 0.719t-0.719 0.281-0.719-0.281-0.281-0.719v-14.094q-1.781-0.406-2.875-1.75t-1.125-3.156v-7q0-0.438 0.281-0.719t0.719-0.281 0.719 0.281 0.281 0.719v7q0 0.969 0.547 1.734t1.453 1.109zM20 5v12h3.969q-0.156-3.688-0.906-6.5-0.656-2.563-3.063-5.5zM20 19v10q0 0.438-0.281 0.719t-0.719 0.281-0.719-0.281-0.281-0.719v-27h2q4 4.188 5 8t1 9h-6z"></path>
</svg>
