<!-- Generated by IcoMoon.io -->
<svg version="1.1" xmlns="http://www.w3.org/2000/svg" width="32" height="32" viewBox="0 0 32 32">
<title>lightning</title>
<path d="M9 20.969v2q-3.031-0.25-4.984-2.344t-2.016-5.125q0.031-2.813 1.75-4.844t4.469-2.563q0.688-2.563 2.641-4.219t4.641-1.844q2.656-0.156 4.813 1.234t3.156 3.859q2.969 0.625 4.766 2.859t1.734 5.266q-0.125 3-2.047 5.125t-4.922 2.563v-2.031q2.188-0.406 3.563-2.016t1.438-3.828q-0.031-2.25-1.375-3.875t-3.531-2.094l-1.094-0.188-0.406-1.063q-0.75-1.844-2.359-2.891t-3.609-0.922-3.484 1.359-1.984 3.203l-0.313 1.25-1.281 0.219q-2.031 0.406-3.281 1.891t-1.281 3.547q0.031 2.219 1.438 3.734t3.563 1.734zM13 23q-0.563-0.031-0.844-0.516t-0.031-0.984l4-7q0.313-0.5 0.875-0.5t0.859 0.5 0.016 1l-3.156 5.5h4.281q0.563 0.031 0.844 0.516t0.031 0.984l-4 7q-0.219 0.375-0.609 0.469t-0.766-0.109-0.469-0.594 0.094-0.766l3.156-5.5h-4.281z"></path>
</svg>
