<!-- Generated by IcoMoon.io -->
<svg version="1.1" xmlns="http://www.w3.org/2000/svg" width="32" height="32" viewBox="0 0 32 32">
<title>light-rain</title>
<path d="M23.094 9.094l-1.094-0.188-0.406-1.063q-0.75-1.844-2.359-2.891t-3.609-0.922-3.484 1.359-1.984 3.203l-0.313 1.25-1.281 0.219q-2.031 0.406-3.281 1.891t-1.281 3.547q0.063 2.344 1.609 3.891t3.891 1.609h12.5q2.375-0.063 4.031-1.563t1.938-3.875q0.156-2.375-1.188-4.172t-3.688-2.297zM30 15q-0.094 3.406-2.359 5.656t-5.641 2.344h-12.5q-1.531 0-2.891-0.563t-2.422-1.625-1.625-2.438-0.563-2.875q0.031-2.813 1.75-4.844t4.469-2.563q0.688-2.563 2.641-4.219t4.641-1.844q2.656-0.156 4.813 1.234t3.156 3.859q2.875 0.625 4.672 2.781t1.859 5.094zM9 25h2v2h-2v-2zM15 25h2v2h-2v-2zM12 28h2v2h-2v-2zM18 28h2v2h-2v-2zM21 25h2v2h-2v-2z"></path>
</svg>
