<!-- Generated by IcoMoon.io -->
<svg version="1.1" xmlns="http://www.w3.org/2000/svg" width="32" height="32" viewBox="0 0 32 32">
<title>link</title>
<path d="M22.375 19.531l-1.438-1.406 2.844-2.844q1.75-1.844 1.953-4.031t-1.234-3.75q-1.563-1.438-3.75-1.234t-4.031 1.953l-2.844 2.844-1.406-1.438 2.813-2.813q2.469-2.344 5.469-2.547t5.156 1.828q2.031 2.156 1.828 5.156t-2.547 5.469zM19.531 22.375l-2.813 2.813q-2.469 2.344-5.469 2.547t-5.156-1.828q-2.031-2.156-1.828-5.156t2.547-5.469l2.813-2.813 1.438 1.406-2.844 2.844q-1.75 1.844-1.953 4.031t1.234 3.75q1.563 1.438 3.75 1.234t4.031-1.953l2.844-2.844zM19.531 11.063l1.406 1.406-8.469 8.469-1.406-1.406z"></path>
</svg>
