<!-- Generated by IcoMoon.io -->
<svg version="1.1" xmlns="http://www.w3.org/2000/svg" width="32" height="32" viewBox="0 0 32 32">
<title>loading</title>
<path d="M16 2q0.438 0 0.719 0.281t0.281 0.719v6q0 0.438-0.281 0.719t-0.719 0.281-0.719-0.281-0.281-0.719v-6q0-0.438 0.281-0.719t0.719-0.281zM16 22q0.438 0 0.719 0.281t0.281 0.719v6q0 0.438-0.281 0.719t-0.719 0.281-0.719-0.281-0.281-0.719v-6q0-0.438 0.281-0.719t0.719-0.281zM30 16q0 0.438-0.281 0.719t-0.719 0.281h-6q-0.438 0-0.719-0.281t-0.281-0.719 0.281-0.719 0.719-0.281h6q0.438 0 0.719 0.281t0.281 0.719zM10 16q0 0.438-0.281 0.719t-0.719 0.281h-6q-0.438 0-0.719-0.281t-0.281-0.719 0.281-0.719 0.719-0.281h6q0.438 0 0.719 0.281t0.281 0.719zM6.094 6.094q0.313-0.281 0.719-0.281t0.688 0.281l4.25 4.25q0.281 0.313 0.281 0.703t-0.297 0.688-0.688 0.297-0.703-0.281l-4.25-4.25q-0.281-0.281-0.281-0.688t0.281-0.719zM20.25 20.25q0.313-0.313 0.703-0.313t0.703 0.313l4.25 4.25q0.281 0.281 0.281 0.688t-0.297 0.703-0.703 0.297-0.688-0.281l-4.25-4.25q-0.313-0.313-0.313-0.703t0.313-0.703zM25.906 6.094q0.281 0.313 0.281 0.719t-0.281 0.688l-4.25 4.25q-0.313 0.281-0.703 0.281t-0.688-0.297-0.297-0.688 0.281-0.703l4.25-4.25q0.281-0.281 0.688-0.281t0.719 0.281zM11.75 20.25q0.313 0.313 0.313 0.703t-0.313 0.703l-4.25 4.25q-0.281 0.281-0.688 0.281t-0.703-0.297-0.297-0.703 0.281-0.688l4.25-4.25q0.313-0.313 0.703-0.313t0.703 0.313z"></path>
</svg>
