<!-- Generated by IcoMoon.io -->
<svg version="1.1" xmlns="http://www.w3.org/2000/svg" width="32" height="32" viewBox="0 0 32 32">
<title>location</title>
<path d="M16 29q0.656-0.063 2.406-1.406t3.594-3.375q2.344-2.656 3.656-5.531t1.344-5.688q-0.125-4.5-3.203-7.219t-7.797-2.781q-4.719 0.063-7.797 2.781t-3.203 7.219q0.031 2.844 1.344 5.703t3.656 5.516q1.844 2.031 3.594 3.375t2.406 1.406zM16 15.406q0.844-0.031 1.406-0.594t0.563-1.406-0.563-1.422-1.406-0.578-1.406 0.578-0.563 1.422 0.563 1.406 1.406 0.594zM16 19.813q-2.719-0.094-4.531-1.891t-1.875-4.516q0.063-2.719 1.875-4.531t4.531-1.875q2.719 0.063 4.531 1.875t1.875 4.531q-0.063 2.719-1.875 4.516t-4.531 1.891z"></path>
</svg>
