<!-- Generated by IcoMoon.io -->
<svg version="1.1" xmlns="http://www.w3.org/2000/svg" width="32" height="32" viewBox="0 0 32 32">
<title>location-outline</title>
<path d="M25 13q-0.094-3.813-2.641-6.359t-6.359-2.641q-3.813 0.094-6.359 2.641t-2.641 6.359q0 2.781 2.234 6.359t6.766 7.922q4.531-4.344 6.766-7.922t2.234-6.359zM16 30q-11-10-11-17 0.125-4.688 3.219-7.781t7.781-3.219q4.688 0.125 7.781 3.219t3.219 7.781q0 7-11 17zM16 16q1.281-0.031 2.125-0.875t0.844-2.125-0.844-2.125-2.125-0.844-2.125 0.844-0.844 2.125 0.844 2.125 2.125 0.875zM16 18q-2.125-0.063-3.531-1.469t-1.469-3.531q0.063-2.125 1.469-3.531t3.531-1.469q2.125 0.063 3.531 1.469t1.469 3.531q-0.063 2.125-1.469 3.531t-3.531 1.469z"></path>
</svg>
