<!-- Generated by IcoMoon.io -->
<svg version="1.1" xmlns="http://www.w3.org/2000/svg" width="32" height="32" viewBox="0 0 32 32">
<title>lock</title>
<path d="M7 14q-0.438 0-0.719 0.281t-0.281 0.719v12q0 0.438 0.281 0.719t0.719 0.281h18q0.438 0 0.719-0.281t0.281-0.719v-12q0-0.438-0.281-0.719t-0.719-0.281h-18zM7 12h18q1.281 0.031 2.125 0.875t0.875 2.125v12q-0.031 1.281-0.875 2.125t-2.125 0.875h-18q-1.281-0.031-2.125-0.875t-0.875-2.125v-12q0.031-1.281 0.875-2.125t2.125-0.875zM16 17q0.438 0 0.719 0.281t0.281 0.719v6q0 0.438-0.281 0.719t-0.719 0.281-0.719-0.281-0.281-0.719v-6q0-0.438 0.281-0.719t0.719-0.281zM22 12v-2q-0.063-2.563-1.75-4.25t-4.25-1.75q-2.563 0.063-4.25 1.75t-1.75 4.25v2h12zM16 2q3.406 0.094 5.656 2.344t2.344 5.656v4h-16v-4q0.094-3.406 2.344-5.656t5.656-2.344z"></path>
</svg>
