<!-- Generated by IcoMoon.io -->
<svg version="1.1" xmlns="http://www.w3.org/2000/svg" width="32" height="32" viewBox="0 0 32 32">
<title>lollipop</title>
<path d="M16.031 14q-0.125-0.844 0.313-1.5t1.266-0.828 1.484 0.25 0.844 1.25-0.25 1.5-1.25 0.891q0.531 0.875 1.453 1.234t1.906 0.078 1.594-1.063 0.609-1.813h2q-0.063 2.125-1.469 3.531t-3.531 1.469q-2.125-0.063-3.531-1.469t-1.469-3.531h0.031zM12.063 13.063q0.469 2.938 2.531 4.828t5 2.109q2.938 0.094 5.188-1.594t3-4.531q0.625-2.875-0.609-5.391t-3.891-3.797q-2.719-1.156-5.422-0.406t-4.422 3.156q1.875-1.281 4.063-1.422t4.203 0.906 3.141 2.922 1.156 4.156h-2q-0.063-2.406-1.594-4.078t-3.938-1.891q-2.406-0.156-4.188 1.25t-2.219 3.781zM15.375 20.875l-6.438 6.438q-0.938 0.844-2.109 0.828t-2.063-0.906-0.906-2.063 0.828-2.109l6.438-6.438q-1.688-3.406-0.875-6.891t3.844-5.797q3.094-2.188 6.672-1.906t6.297 2.906q2.625 2.719 2.906 6.297t-1.906 6.672q-2.313 3.031-5.797 3.844t-6.891-0.875zM13.688 19.75q-0.781-0.656-1.438-1.438l-6.156 6.188q-0.406 0.406-0.25 0.953t0.703 0.703 0.953-0.25z"></path>
</svg>
