<!-- Generated by IcoMoon.io -->
<svg version="1.1" xmlns="http://www.w3.org/2000/svg" width="32" height="32" viewBox="0 0 32 32">
<title>male</title>
<path d="M12.5 26.531q2.969-0.063 4.953-2.047t2.078-4.984q-0.094-2.969-2.078-4.953t-4.953-2.078q-3 0.094-4.984 2.078t-2.047 4.953q0.063 3 2.047 4.984t4.953 2.047h0.031zM12.5 28.313q-3.75-0.094-6.234-2.578t-2.578-6.203q0.094-3.75 2.578-6.234t6.203-2.578q3.75 0.094 6.234 2.578t2.578 6.203q-0.094 3.75-2.578 6.234t-6.203 2.578zM20.406 3.688h7.031q0.875 0 0.875 0.875v0q0 0.875-0.875 0.875h-7.031q-0.875 0-0.875-0.875v0q0-0.875 0.875-0.875zM27.438 3.688v0q0.875 0 0.875 0.875v7.031q0 0.875-0.875 0.875v0q-0.875 0-0.875-0.875v-7.031q0-0.875 0.875-0.875zM18.906 14.344l-1.25-1.25 9.156-9.156 1.25 1.25z"></path>
</svg>
