<!-- Generated by IcoMoon.io -->
<svg version="1.1" xmlns="http://www.w3.org/2000/svg" width="32" height="32" viewBox="0 0 32 32">
<title>map-location</title>
<path d="M25 13q-0.094-3.813-2.641-6.359t-6.359-2.641q-3.813 0.094-6.359 2.641t-2.641 6.359q0 2.781 2.234 6.359t6.766 7.922q4.531-4.344 6.766-7.922t2.234-6.359zM16 30q-11-10-11-17 0.125-4.688 3.219-7.781t7.781-3.219q4.688 0.125 7.781 3.219t3.219 7.781q0 7-11 17zM16 14q0.844-0.031 1.406-0.594t0.563-1.406-0.563-1.406-1.406-0.563-1.406 0.563-0.563 1.406 0.563 1.406 1.406 0.594zM16 16q-1.688-0.031-2.828-1.172t-1.172-2.828q0.031-1.688 1.172-2.828t2.828-1.172q1.688 0.031 2.828 1.172t1.172 2.828q-0.031 1.688-1.172 2.828t-2.828 1.172zM26.813 22l3.188 8h-9v-2h-10v2h-9l3.188-8h21.625zM24.656 22h-17.313l-2.375 6h22.063z"></path>
</svg>
