<!-- Generated by IcoMoon.io -->
<svg version="1.1" xmlns="http://www.w3.org/2000/svg" width="32" height="32" viewBox="0 0 32 32">
<title>medal</title>
<path d="M16 28q3.406-0.094 5.656-2.344t2.344-5.656q-0.094-3.406-2.344-5.656t-5.656-2.344q-3.406 0.094-5.656 2.344t-2.344 5.656q0.094 3.406 2.344 5.656t5.656 2.344zM16 30q-4.25-0.094-7.078-2.922t-2.922-7.078q0.094-4.25 2.922-7.078t7.078-2.922q4.25 0.094 7.078 2.922t2.922 7.078q-0.094 4.25-2.922 7.078t-7.078 2.922zM18 4h-4v6.25q1-0.25 2-0.25 0.906 0 2 0.25v-6.25zM20 4v6.875q1.156 0.406 2.438 1.063l1.219-7.938h-3.656zM12 4h-3.656l1.219 7.938q1.281-0.656 2.438-1.063v-6.875zM7.156 2h17.688q0.438 0 0.734 0.344t0.234 0.813l-1.813 11.844q-5.344-3-8-3t-8 3l-1.813-11.844q-0.063-0.469 0.234-0.813t0.734-0.344z"></path>
</svg>
