<!-- Generated by IcoMoon.io -->
<svg version="1.1" xmlns="http://www.w3.org/2000/svg" width="32" height="32" viewBox="0 0 32 32">
<title>menu</title>
<path d="M5 14q-0.438 0-0.719-0.281t-0.281-0.719v-8q0-0.438 0.281-0.719t0.719-0.281h8q0.438 0 0.719 0.281t0.281 0.719v8q0 0.438-0.281 0.719t-0.719 0.281h-8zM19 14q-0.438 0-0.719-0.281t-0.281-0.719v-8q0-0.438 0.281-0.719t0.719-0.281h8q0.438 0 0.719 0.281t0.281 0.719v8q0 0.438-0.281 0.719t-0.719 0.281h-8zM5 28q-0.438 0-0.719-0.281t-0.281-0.719v-8q0-0.438 0.281-0.719t0.719-0.281h8q0.438 0 0.719 0.281t0.281 0.719v8q0 0.438-0.281 0.719t-0.719 0.281h-8zM19 28q-0.438 0-0.719-0.281t-0.281-0.719v-8q0-0.438 0.281-0.719t0.719-0.281h8q0.438 0 0.719 0.281t0.281 0.719v8q0 0.438-0.281 0.719t-0.719 0.281h-8z"></path>
</svg>
