<!-- Generated by IcoMoon.io -->
<svg version="1.1" xmlns="http://www.w3.org/2000/svg" width="32" height="32" viewBox="0 0 32 32">
<title>message</title>
<path d="M4 7v16q0.031 0.844 0.594 1.406t1.406 0.594h20q0.844-0.031 1.406-0.594t0.594-1.406v-16h-24zM4 5h24q0.844 0.031 1.406 0.594t0.594 1.406v16q-0.031 1.688-1.172 2.828t-2.828 1.172h-20q-1.688-0.031-2.828-1.172t-1.172-2.828v-16q0.031-0.844 0.594-1.406t1.406-0.594zM28.25 7l-7.719 8.844q-0.875 0.969-2.047 1.5t-2.484 0.531-2.484-0.531-2.047-1.5l-7.719-8.844h24.5zM6.406 7l6.594 7.531q0.563 0.656 1.344 1t1.656 0.344 1.656-0.344 1.344-1l6.594-7.531h-19.188z"></path>
</svg>
