<!-- Generated by IcoMoon.io -->
<svg version="1.1" xmlns="http://www.w3.org/2000/svg" width="32" height="32" viewBox="0 0 32 32">
<title>mic</title>
<path d="M15 22h5q0.844-0.031 1.406-0.594t0.594-1.406v-1h-3q-0.438 0-0.719-0.281t-0.281-0.719 0.281-0.719 0.719-0.281h3v-3h-3q-0.438 0-0.719-0.281t-0.281-0.719 0.281-0.719 0.719-0.281h3v-3h-3q-0.438 0-0.719-0.281t-0.281-0.719 0.281-0.719 0.719-0.281h3v-1q-0.031-0.844-0.594-1.406t-1.406-0.594h-8q-0.844 0.031-1.406 0.594t-0.594 1.406v1h3q0.438 0 0.719 0.281t0.281 0.719-0.281 0.719-0.719 0.281h-3v3h3q0.438 0 0.719 0.281t0.281 0.719-0.281 0.719-0.719 0.281h-3v3h3q0.438 0 0.719 0.281t0.281 0.719-0.281 0.719-0.719 0.281h-3v1q0.031 0.844 0.594 1.406t1.406 0.594h3zM17 24v4h6q0.438 0 0.719 0.281t0.281 0.719-0.281 0.719-0.719 0.281h-14q-0.438 0-0.719-0.281t-0.281-0.719 0.281-0.719 0.719-0.281h6v-4h-3q-1.688-0.031-2.828-1.172t-1.172-2.828v-14q0.031-1.688 1.172-2.828t2.828-1.172h8q1.688 0.031 2.828 1.172t1.172 2.828v14q-0.031 1.688-1.172 2.828t-2.828 1.172h-3z"></path>
</svg>
