<!-- Generated by IcoMoon.io -->
<svg version="1.1" xmlns="http://www.w3.org/2000/svg" width="32" height="32" viewBox="0 0 32 32">
<title>microphone</title>
<path d="M16 4q-1.688 0.031-2.828 1.172t-1.172 2.828v8q0.031 1.688 1.172 2.828t2.828 1.172q1.688-0.031 2.828-1.172t1.172-2.828v-8q-0.031-1.688-1.172-2.828t-2.828-1.172zM16 2q2.563 0.063 4.25 1.75t1.75 4.25v8q-0.063 2.563-1.75 4.25t-4.25 1.75q-2.563-0.063-4.25-1.75t-1.75-4.25v-8q0.063-2.563 1.75-4.25t4.25-1.75zM15 28v-2q-3.813-0.094-6.359-2.641t-2.641-6.359v-1q0-0.438 0.281-0.719t0.719-0.281 0.719 0.281 0.281 0.719v1q0.063 2.969 2.047 4.953t4.953 2.047h2q2.969-0.063 4.953-2.047t2.047-4.953v-1q0-0.438 0.281-0.719t0.719-0.281 0.719 0.281 0.281 0.719v1q-0.094 3.813-2.641 6.359t-6.359 2.641v2h2q0.438 0 0.719 0.281t0.281 0.719-0.281 0.719-0.719 0.281h-6q-0.438 0-0.719-0.281t-0.281-0.719 0.281-0.719 0.719-0.281h2z"></path>
</svg>
