<!-- Generated by IcoMoon.io -->
<svg version="1.1" xmlns="http://www.w3.org/2000/svg" width="32" height="32" viewBox="0 0 32 32">
<title>milk-tea</title>
<path d="M13 4v-1q0.031-1.281 0.875-2.125t2.125-0.875h4q0.438 0 0.719 0.281t0.281 0.719-0.281 0.719-0.719 0.281h-4q-0.438 0-0.719 0.281t-0.281 0.719v1h10q1.219 0.031 2.063 0.813t0.906 2-0.672 2.109-1.922 1.047l-1.25 18.156q-0.063 0.813-0.625 1.328t-1.375 0.547h-12.25q-0.813-0.031-1.375-0.547t-0.625-1.328l-1.25-18.156q-1.188-0.156-1.922-1.047t-0.672-2.109 0.906-2 2.063-0.813h6zM8.625 10l1.25 18h12.25l0.156-2.219q-2.5-0.688-3.938-2.672t-1.313-4.578q0.219-2.594 1.922-4.375t4.266-2.125l0.156-2.031h-14.75zM7 8h18q0.438 0 0.719-0.281t0.281-0.719-0.281-0.719-0.719-0.281h-18q-0.438 0-0.719 0.281t-0.281 0.719 0.281 0.719 0.719 0.281zM22.406 23.75l0.688-9.656q-1.719 0.344-2.828 1.578t-1.234 2.984 0.813 3.125 2.563 1.969z"></path>
</svg>
