<!-- Generated by IcoMoon.io -->
<svg version="1.1" xmlns="http://www.w3.org/2000/svg" width="32" height="32" viewBox="0 0 32 32">
<title>mobile</title>
<path d="M8 4q-0.844 0.031-1.406 0.594t-0.594 1.406v20q0.031 0.844 0.594 1.406t1.406 0.594h16q0.844-0.031 1.406-0.594t0.594-1.406v-20q-0.031-0.844-0.594-1.406t-1.406-0.594h-16zM8 2h16q1.688 0.031 2.828 1.172t1.172 2.828v20q-0.031 1.688-1.172 2.828t-2.828 1.172h-16q-1.688-0.031-2.828-1.172t-1.172-2.828v-20q0.031-1.688 1.172-2.828t2.828-1.172zM12 6h8q0.438 0 0.719 0.281t0.281 0.719-0.281 0.719-0.719 0.281h-8q-0.438 0-0.719-0.281t-0.281-0.719 0.281-0.719 0.719-0.281zM16 26q-0.844-0.031-1.406-0.594t-0.563-1.406 0.563-1.406 1.406-0.563 1.406 0.563 0.563 1.406-0.563 1.406-1.406 0.594z"></path>
</svg>
