<!-- Generated by IcoMoon.io -->
<svg version="1.1" xmlns="http://www.w3.org/2000/svg" width="32" height="32" viewBox="0 0 32 32">
<title>mobile-phone</title>
<path d="M7 24v3q0.031 0.844 0.594 1.406t1.406 0.594h14q0.844-0.031 1.406-0.594t0.594-1.406v-3h-18zM7 22h18v-17q-0.031-0.844-0.594-1.406t-1.406-0.594h-14q-0.844 0.031-1.406 0.594t-0.594 1.406v17zM8 31q-1.281-0.031-2.125-0.875t-0.875-2.125v-24q0.031-1.281 0.875-2.125t2.125-0.875h16q1.281 0.031 2.125 0.875t0.875 2.125v24q-0.031 1.281-0.875 2.125t-2.125 0.875h-16zM17.5 26.5q-0.031 0.625-0.453 1.047t-1.047 0.422-1.047-0.422-0.422-1.047 0.422-1.047 1.047-0.422 1.047 0.422 0.453 1.047z"></path>
</svg>
