<!-- Generated by IcoMoon.io -->
<svg version="1.1" xmlns="http://www.w3.org/2000/svg" width="32" height="32" viewBox="0 0 32 32">
<title>money</title>
<path d="M8 20v6h20v-14h-4v-2h4.719q0.313 0 0.484 0.031t0.297 0.094q0.25 0.156 0.375 0.375 0.063 0.125 0.094 0.297t0.031 0.484v15.438q0 0.313-0.031 0.484t-0.094 0.297q-0.156 0.25-0.375 0.375-0.125 0.063-0.297 0.094t-0.484 0.031h-21.438q-0.313 0-0.484-0.031t-0.297-0.094q-0.25-0.156-0.375-0.375-0.063-0.125-0.094-0.297t-0.031-0.484v-6.719h2zM24 6h-20v14h20v-14zM26 5.281v15.438q0 0.313-0.031 0.484t-0.094 0.297q-0.156 0.25-0.375 0.375-0.125 0.063-0.297 0.094t-0.484 0.031h-21.438q-0.313 0-0.484-0.031t-0.297-0.094q-0.25-0.156-0.375-0.375-0.063-0.125-0.094-0.297t-0.031-0.484v-15.438q0-0.313 0.031-0.484t0.094-0.297q0.156-0.25 0.375-0.375 0.125-0.063 0.297-0.094t0.484-0.031h21.438q0.313 0 0.484 0.031t0.297 0.094q0.219 0.156 0.375 0.375 0.063 0.125 0.094 0.297t0.031 0.484zM14 18q-2.125-0.063-3.531-1.469t-1.469-3.531q0.063-2.125 1.469-3.531t3.531-1.469q2.125 0.063 3.531 1.469t1.469 3.531q-0.063 2.125-1.469 3.531t-3.531 1.469zM14 16q1.281-0.031 2.125-0.875t0.844-2.125-0.844-2.125-2.125-0.844-2.125 0.844-0.844 2.125 0.844 2.125 2.125 0.875z"></path>
</svg>
