<!-- Generated by IcoMoon.io -->
<svg version="1.1" xmlns="http://www.w3.org/2000/svg" width="32" height="32" viewBox="0 0 32 32">
<title>moon</title>
<path d="M7.5 7.5q-2.313 2.406-3.109 5.516t0.125 6.313 3.281 5.406 5.594 2.938 6.313-0.266 5.297-3.469q-3.625 0.875-7.109-0.094t-6.125-3.609-3.609-6.125-0.094-7.109zM13.188 18.813q3.5 3.375 8.094 3.516t8.313-2.984q-1.344 5.094-5.406 8.016t-9.313 2.578q-5.25-0.5-8.781-4.031t-4.031-8.781q-0.344-5.25 2.578-9.313t8.016-5.406q-3.125 3.719-2.984 8.313t3.516 8.094z"></path>
</svg>
