<!-- Generated by IcoMoon.io -->
<svg version="1.1" xmlns="http://www.w3.org/2000/svg" width="32" height="32" viewBox="0 0 32 32">
<title>moon-night</title>
<path d="M12 16q0.031-3.719 1.797-6.875t4.953-5.094q-3.063-0.188-5.766 1.063t-4.547 3.688-2.297 5.375 0.547 5.844h5.906q-0.594-1.969-0.594-4zM5.344 22q-1.969-4.313-1.078-8.75t4.359-7.656q3.531-3.125 8.047-3.547t8.578 1.984q-3.156 0.219-5.734 1.875t-4.078 4.438-1.453 5.844 1.609 5.813h-10.25zM1 20h30q1 0 1 1v0q0 1-1 1h-30q-1 0-1-1v0q0-1 1-1zM5 24h12q0.438 0 0.719 0.281t0.281 0.719-0.281 0.719-0.719 0.281h-12q-0.438 0-0.719-0.281t-0.281-0.719 0.281-0.719 0.719-0.281zM10 28h7q0.438 0 0.719 0.281t0.281 0.719v0q0 0.438-0.281 0.719t-0.719 0.281h-7q-0.438-0.031-0.719-0.313t-0.281-0.688v0q0-0.438 0.281-0.719t0.719-0.281z"></path>
</svg>
