<!-- Generated by IcoMoon.io -->
<svg version="1.1" xmlns="http://www.w3.org/2000/svg" width="32" height="32" viewBox="0 0 32 32">
<title>more</title>
<path d="M5.5 13q1.5 0.031 2.484 1.016t1.016 2.484q-0.031 1.5-1.016 2.484t-2.484 1.016q-1.5-0.031-2.484-1.016t-1.016-2.484q0.031-1.5 1.016-2.484t2.484-1.016zM16 13q1.5 0.031 2.484 1.016t1.016 2.484q-0.031 1.5-1.016 2.484t-2.484 1.016q-1.5-0.031-2.484-1.016t-1.016-2.484q0.031-1.5 1.016-2.484t2.484-1.016zM26.5 13q1.5 0.031 2.484 1.016t1.016 2.484q-0.031 1.5-1.016 2.484t-2.484 1.016q-1.5-0.031-2.484-1.016t-1.016-2.484q0.031-1.5 1.016-2.484t2.484-1.016z"></path>
</svg>
