<!-- Generated by IcoMoon.io -->
<svg version="1.1" xmlns="http://www.w3.org/2000/svg" width="32" height="32" viewBox="0 0 32 32">
<title>mouse</title>
<path d="M13.688 8q-1.563 0-2.344 0.125t-1.344 0.438q-0.938 0.5-1.438 1.438-0.313 0.563-0.438 1.344t-0.125 2.344v8.625q0 1.563 0.125 2.344t0.438 1.344q0.5 0.938 1.438 1.438 0.563 0.313 1.344 0.438t2.344 0.125h4.625q1.563 0 2.344-0.125t1.344-0.438q0.938-0.5 1.438-1.438 0.313-0.563 0.438-1.344t0.125-2.344v-8.625q0-1.563-0.125-2.344t-0.438-1.344q-0.5-0.938-1.438-1.438-0.563-0.313-1.344-0.438t-2.344-0.125h-4.625zM13.688 6h4.625q1.938 0 2.938 0.203t1.688 0.609q1.469 0.781 2.25 2.25 0.406 0.688 0.609 1.688t0.203 2.938v8.625q0 1.938-0.203 2.938t-0.609 1.688q-0.781 1.469-2.25 2.25-0.688 0.406-1.688 0.609t-2.938 0.203h-4.625q-1.938 0-2.938-0.203t-1.688-0.609q-1.469-0.781-2.25-2.25-0.406-0.688-0.609-1.688t-0.203-2.938v-8.625q0-1.938 0.203-2.938t0.609-1.688q0.781-1.469 2.25-2.25 0.688-0.406 1.688-0.609t2.938-0.203zM16 10v0q1 0 1 1v4q0 1-1 1v0q-1 0-1-1v-4q0-1 1-1zM17 7q0 0.438-0.281 0.719t-0.719 0.281-0.719-0.281-0.281-0.719v-2q0-0.438-0.281-0.719t-0.719-0.281h-3q-0.438 0-0.719-0.281t-0.281-0.719 0.281-0.719 0.719-0.281h3q1.281 0.031 2.125 0.875t0.875 2.125v2z"></path>
</svg>
