<!-- Generated by IcoMoon.io -->
<svg version="1.1" xmlns="http://www.w3.org/2000/svg" width="32" height="32" viewBox="0 0 32 32">
<title>news</title>
<path d="M16 4v2h-8q-0.844 0.031-1.406 0.594t-0.594 1.406v16q0.031 0.844 0.594 1.406t1.406 0.594h16q0.844-0.031 1.406-0.594t0.594-1.406v-8h2v8q-0.031 1.688-1.172 2.828t-2.828 1.172h-16q-1.688-0.031-2.828-1.172t-1.172-2.828v-16q0.031-1.688 1.172-2.828t2.828-1.172h8zM24 12q1.688-0.031 2.828-1.172t1.172-2.828q-0.031-1.688-1.172-2.828t-2.828-1.172q-1.688 0.031-2.828 1.172t-1.172 2.828q0.031 1.688 1.172 2.828t2.828 1.172zM24 14q-2.563-0.063-4.25-1.75t-1.75-4.25q0.063-2.563 1.75-4.25t4.25-1.75q2.563 0.063 4.25 1.75t1.75 4.25q-0.063 2.563-1.75 4.25t-4.25 1.75z"></path>
</svg>
