<!-- Generated by IcoMoon.io -->
<svg version="1.1" xmlns="http://www.w3.org/2000/svg" width="32" height="32" viewBox="0 0 32 32">
<title>no-smoking</title>
<path d="M13.75 18h-5.75v4h1.75l-2 2h-0.75q-0.438 0-0.719-0.281t-0.281-0.719v-6q0-0.438 0.281-0.719t0.719-0.281h8.75zM18.25 22h3.75v-3.75l2.25-2.25h4.75q0.438 0 0.719 0.281t0.281 0.719v6q0 0.438-0.281 0.719t-0.719 0.281h-12.75zM24 18v4h4v-4h-4zM23.063 11.5l1.438 1.438-15.563 15.563-1.438-1.438zM8 2h2v10h-2v-10zM4 6h2v6h-2v-6zM2 16h2v8h-2v-8z"></path>
</svg>
