<!-- Generated by IcoMoon.io -->
<svg version="1.1" xmlns="http://www.w3.org/2000/svg" width="32" height="32" viewBox="0 0 32 32">
<title>notebook-1</title>
<path d="M6 4v24h20v-24h-20zM5 2h22q0.438 0 0.719 0.281t0.281 0.719v26q0 0.438-0.281 0.719t-0.719 0.281h-22q-0.438 0-0.719-0.281t-0.281-0.719v-26q0-0.438 0.281-0.719t0.719-0.281zM21 4h2v24h-2v-24zM3 6h4q1 0 1 1v0q0 1-1 1h-4q-1 0-1-1v0q0-1 1-1zM3 12h4q1 0 1 1v0q0 1-1 1h-4q-1 0-1-1v0q0-1 1-1zM3 18h4q1 0 1 1v0q0 1-1 1h-4q-1 0-1-1v0q0-1 1-1zM3 24h4q1 0 1 1v0q0 1-1 1h-4q-1 0-1-1v0q0-1 1-1z"></path>
</svg>
