<!-- Generated by IcoMoon.io -->
<svg version="1.1" xmlns="http://www.w3.org/2000/svg" width="32" height="32" viewBox="0 0 32 32">
<title>notebook-2</title>
<path d="M11 4v24h-2v-24h-3v24h20v-24h-15zM5 2h22q0.438 0 0.719 0.281t0.281 0.719v26q0 0.438-0.281 0.719t-0.719 0.281h-22q-0.438 0-0.719-0.281t-0.281-0.719v-26q0-0.438 0.281-0.719t0.719-0.281zM15 8h6q1 0 1 1v0q0 1-1 1h-6q-1 0-1-1v0q0-1 1-1zM15 14h6q1 0 1 1v0q0 1-1 1h-6q-1 0-1-1v0q0-1 1-1zM15 20h6q1 0 1 1v0q0 1-1 1h-6q-1 0-1-1v0q0-1 1-1z"></path>
</svg>
