<!-- Generated by IcoMoon.io -->
<svg version="1.1" xmlns="http://www.w3.org/2000/svg" width="32" height="32" viewBox="0 0 32 32">
<title>odometer</title>
<path d="M16 28q5.094-0.125 8.484-3.516t3.516-8.484q-0.125-5.094-3.516-8.484t-8.484-3.516q-5.094 0.125-8.484 3.516t-3.516 8.484q0.125 5.094 3.516 8.484t8.484 3.516zM16 30q-5.938-0.156-9.891-4.109t-4.109-9.891q0.156-5.938 4.109-9.891t9.891-4.109q5.938 0.156 9.891 4.109t4.109 9.891q-0.156 5.938-4.109 9.891t-9.891 4.109zM6 16q0.094-4.25 2.922-7.078t7.078-2.922q4.25 0.094 7.078 2.922t2.922 7.078q0 0.438-0.281 0.719t-0.719 0.281-0.719-0.281-0.281-0.719q-0.094-3.406-2.344-5.656t-5.656-2.344q-3.406 0.094-5.656 2.344t-2.344 5.656q0 0.438-0.281 0.719t-0.719 0.281-0.719-0.281-0.281-0.719zM17.813 19.625q0.875 0.688 1.109 1.734t-0.281 2.031-1.516 1.391-2.063 0.047-1.625-1.25-0.391-2 0.969-1.813 1.922-0.766l1.906-5.875q0.188-0.531 0.734-0.656t0.938 0.297 0.203 0.984zM15.688 22.938q0.406 0.125 0.766-0.047t0.484-0.578-0.047-0.766-0.578-0.484-0.766 0.047-0.484 0.578 0.047 0.766 0.578 0.484z"></path>
</svg>
