<!-- Generated by IcoMoon.io -->
<svg version="1.1" xmlns="http://www.w3.org/2000/svg" width="32" height="32" viewBox="0 0 32 32">
<title>office-building</title>
<path d="M6 4v22h12v-22h-12zM5 2h14q0.438 0 0.719 0.281t0.281 0.719v24q0 0.438-0.281 0.719t-0.719 0.281h-14q-0.438 0-0.719-0.281t-0.281-0.719v-24q0-0.438 0.281-0.719t0.719-0.281zM8 8h8v2h-8v-2zM8 14h8v2h-8v-2zM8 20h8v2h-8v-2zM20 16h4v2h-4v-2zM20 20h4v2h-4v-2zM2 26h28v2h-28v-2zM20 12v14h6v-14h-6zM19 10h8q0.438 0 0.719 0.281t0.281 0.719v16q0 0.438-0.281 0.719t-0.719 0.281h-8q-0.438 0-0.719-0.281t-0.281-0.719v-16q0-0.438 0.281-0.719t0.719-0.281z"></path>
</svg>
