<!-- Generated by IcoMoon.io -->
<svg version="1.1" xmlns="http://www.w3.org/2000/svg" width="32" height="32" viewBox="0 0 32 32">
<title>open</title>
<path d="M10.313 8.031q-3.375 0.094-5.625 2.344t-2.344 5.625q0.094 3.375 2.344 5.625t5.625 2.344h11.375q3.375-0.094 5.625-2.344t2.344-5.625q-0.094-3.375-2.344-5.625t-5.625-2.344h-11.375zM10.313 5.75h11.375q4.344 0.125 7.234 3.016t3.016 7.234q-0.125 4.344-3.016 7.234t-7.234 3.016h-11.375q-4.344-0.125-7.234-3.016t-3.016-7.234q0.125-4.344 3.016-7.234t7.234-3.016zM21.688 19.406q0.938 0 1.719-0.453t1.234-1.25 0.453-1.703-0.453-1.703-1.234-1.25-1.719-0.453q-1.438 0.031-2.406 1t-1 2.406q0.031 1.438 1 2.406t2.406 1zM21.688 21.688q-2.406-0.063-4.016-1.672t-1.672-4.016q0.063-2.406 1.672-4.016t4.016-1.672q2.406 0.063 4.016 1.672t1.672 4.016q-0.063 2.406-1.672 4.016t-4.016 1.672z"></path>
</svg>
