<!-- Generated by IcoMoon.io -->
<svg version="1.1" xmlns="http://www.w3.org/2000/svg" width="32" height="32" viewBox="0 0 32 32">
<title>orange</title>
<path d="M17 27.969q1.875-0.156 3.594-0.875t3.156-1.938l-5.719-5.719q-0.469 0.281-1.031 0.438v8.094zM25.156 23.75q1.219-1.438 1.938-3.156t0.875-3.594h-8.094q-0.156 0.563-0.438 1.031zM27.969 15q-0.156-1.875-0.875-3.594t-1.938-3.156l-5.719 5.719q0.281 0.469 0.438 1.031h8.094zM23.75 6.844q-1.438-1.219-3.156-1.938t-3.594-0.875v8.094q0.563 0.156 1.031 0.438zM15 4.031q-1.875 0.156-3.594 0.875t-3.156 1.938l5.719 5.719q0.469-0.281 1.031-0.438v-8.094zM6.844 8.25q-1.219 1.438-1.938 3.156t-0.875 3.594h8.094q0.156-0.563 0.438-1.031zM4.031 17q0.156 1.875 0.875 3.594t1.938 3.156l5.719-5.719q-0.281-0.5-0.438-1.031h-8.094zM8.25 25.156q1.438 1.219 3.156 1.938t3.594 0.875v-8.094q-0.531-0.156-1.031-0.438zM16 30q-5.938-0.156-9.891-4.109t-4.109-9.891q0.156-5.938 4.109-9.891t9.891-4.109q5.938 0.156 9.891 4.109t4.109 9.891q-0.156 5.938-4.109 9.891t-9.891 4.109zM16 18q0.844-0.031 1.406-0.594t0.563-1.406-0.563-1.406-1.406-0.563-1.406 0.563-0.563 1.406 0.563 1.406 1.406 0.594z"></path>
</svg>
