<!-- Generated by IcoMoon.io -->
<svg version="1.1" xmlns="http://www.w3.org/2000/svg" width="32" height="32" viewBox="0 0 32 32">
<title>partly-cloudy</title>
<path d="M18.688 26h-8.438q-3.313 0.031-5.625-2.063t-2.625-5.406q-0.125-3.313 1.875-5.688t5.313-2.813q1.938-3.688 5.609-5.203t7.672-0.266q3.938 1.406 5.969 4.813t1.406 7.531q-0.813 4.094-3.891 6.609t-7.266 2.484zM10.219 24h8.5q3.438 0.031 5.953-2.016t3.172-5.422q0.563-3.375-1.109-6.172t-4.891-3.922q-3.281-1.031-6.281 0.203t-4.594 4.266l-0.5 0.969-1.094 0.125q-2.469 0.313-3.969 2.109t-1.406 4.266q0.25 2.5 1.984 4.063t4.234 1.531z"></path>
</svg>
