<!-- Generated by IcoMoon.io -->
<svg version="1.1" xmlns="http://www.w3.org/2000/svg" width="32" height="32" viewBox="0 0 32 32">
<title>pear</title>
<path d="M16.938 8.094q-0.125 0.375-0.281 0.781-0.188 0.531-0.734 0.641t-0.938-0.313-0.203-0.953l0.031-0.094q-1.531 0.375-2.547 1.469t-1.266 2.625l-0.563 3.219-0.625 0.469q-1.375 1-2.094 2.313t-0.719 2.75q0.094 2.906 2.609 4.906t6.391 2.094q3.875-0.094 6.391-2.094t2.609-4.906q0-1.438-0.719-2.75t-2.094-2.313l-0.625-0.469-0.563-3.219q-0.281-1.594-1.375-2.719t-2.688-1.438zM15.688 6q0.375-0.719 0.813-1.375 1.094-1.594 2.469-2.406 0.375-0.188 0.75-0.094t0.594 0.453 0.125 0.75-0.469 0.609q-0.938 0.594-1.813 1.844l-0.313 0.469q2.031 0.563 3.406 2.078t1.75 3.578l0.375 2.438q1.688 1.25 2.641 2.953t0.984 3.703q-0.125 3.813-3.219 6.359t-7.781 2.641q-4.688-0.094-7.781-2.641t-3.219-6.359q0.031-2 0.984-3.703t2.641-2.953l0.375-2.438q0.469-2.5 2.297-4.125t4.391-1.781z"></path>
</svg>
