<!-- Generated by IcoMoon.io -->
<svg version="1.1" xmlns="http://www.w3.org/2000/svg" width="32" height="32" viewBox="0 0 32 32">
<title>phone-outline</title>
<path d="M2.469 13.5l16.031 16.031q0.219 0.219 0.516 0.266t0.578-0.078l7.906-3.375q0.5-0.219 0.594-0.734t-0.281-0.891l-4.781-4.813q-0.25-0.219-0.563-0.281t-0.594 0.094l-2.188 1.094-8.5-8.5 1.094-2.188q0.156-0.281 0.094-0.594t-0.281-0.563l-4.813-4.781q-0.375-0.375-0.891-0.281t-0.734 0.594l-3.375 7.906q-0.125 0.281-0.078 0.578t0.266 0.516zM4.375 12.563l2.531-5.938 3.281 3.25-1.438 2.844 10.531 10.531 2.844-1.438 3.25 3.281-5.938 2.531zM16 10v-2q3.406 0.094 5.656 2.344t2.344 5.656h-2q-0.063-2.563-1.75-4.25t-4.25-1.75zM16 4v-2q5.938 0.156 9.891 4.109t4.109 9.891h-2q-0.125-5.094-3.516-8.484t-8.484-3.516z"></path>
</svg>
