<!-- Generated by IcoMoon.io -->
<svg version="1.1" xmlns="http://www.w3.org/2000/svg" width="32" height="32" viewBox="0 0 32 32">
<title>picture-outline</title>
<path d="M5 5v22h22v-22h-22zM4 3h24q0.438 0 0.719 0.281t0.281 0.719v24q0 0.438-0.281 0.719t-0.719 0.281h-24q-0.438 0-0.719-0.281t-0.281-0.719v-24q0-0.438 0.281-0.719t0.719-0.281zM12 9v0q2 0 2 2v0q0 2-2 2v0q-2 0-2-2v0q0-2 2-2zM5.781 27.406l-1.563-1.219 6.75-8.813q0.75-0.969 1.984-1.125t2.203 0.563l3.906 3.156q0.344 0.25 0.734 0.203t0.672-0.359l6.75-8.438 1.563 1.25-6.75 8.438q-0.781 0.969-2.016 1.094t-2.203-0.625l-3.875-3.125q-0.344-0.25-0.734-0.203t-0.641 0.391z"></path>
</svg>
