<!-- Generated by IcoMoon.io -->
<svg version="1.1" xmlns="http://www.w3.org/2000/svg" width="32" height="32" viewBox="0 0 32 32">
<title>picture-outline-round</title>
<path d="M16 4q-5.094 0.125-8.484 3.516t-3.516 8.484q0.125 5.094 3.516 8.484t8.484 3.516q5.094-0.125 8.484-3.516t3.516-8.484q-0.125-5.094-3.516-8.484t-8.484-3.516zM16 2q5.938 0.156 9.891 4.109t4.109 9.891q-0.156 5.938-4.109 9.891t-9.891 4.109q-5.938-0.156-9.891-4.109t-4.109-9.891q0.156-5.938 4.109-9.891t9.891-4.109zM20 9v0q2 0 2 2v0q0 2-2 2v0q-2 0-2-2v0q0-2 2-2zM6.719 24.719l-1.438-1.438 5.813-5.781q0.813-0.781 1.875-0.875t2 0.563l4.313 3.063q0.281 0.219 0.625 0.188t0.625-0.25l7.813-7 1.313 1.5-7.781 7q-0.844 0.688-1.859 0.75t-1.891-0.563l-4.344-3.063q-0.281-0.219-0.641-0.188t-0.641 0.281z"></path>
</svg>
