<!-- Generated by IcoMoon.io -->
<svg version="1.1" xmlns="http://www.w3.org/2000/svg" width="32" height="32" viewBox="0 0 32 32">
<title>picture</title>
<path d="M3 28q-0.438 0-0.719-0.281t-0.281-0.719v-22q0-0.438 0.281-0.719t0.719-0.281h26q0.438 0 0.719 0.281t0.281 0.719v22q0 0.438-0.281 0.719t-0.719 0.281h-26zM12.875 20.875l-2.156-2.156q-0.313-0.313-0.719-0.313t-0.719 0.313l-5.281 5.281h24.344l-7.563-9.063q-0.313-0.375-0.781-0.375t-0.781 0.375l-4.875 5.844q-0.281 0.344-0.719 0.359t-0.75-0.266zM8 12q0 0.813 0.406 1.5t1.109 1.094 1.484 0.406 1.5-0.406 1.109-1.094 0.391-1.5q-0.031-1.281-0.875-2.125t-2.125-0.844-2.125 0.844-0.875 2.125z"></path>
</svg>
