<!-- Generated by IcoMoon.io -->
<svg version="1.1" xmlns="http://www.w3.org/2000/svg" width="32" height="32" viewBox="0 0 32 32">
<title>pie-chart</title>
<path d="M14 2.125v2.031q-4.688 0.938-7.453 4.5t-2.484 8.344q0.5 4.75 3.828 7.813t8.109 3.188q4.5-0.094 7.75-2.844t4.094-7.156h2q-0.938 5.563-5.078 8.875t-9.766 3.063q-5.594-0.531-9.219-4.422t-3.781-9.516q0.094-5.344 3.406-9.172t8.594-4.703zM18 3.031v10.969h10.969q-0.469-4.469-3.484-7.484t-7.484-3.484zM16 2v-0.969q3.063-0.188 5.891 0.859t5 3.219 3.219 5 0.859 5.891h-14.969v-14z"></path>
</svg>
