<!-- Generated by IcoMoon.io -->
<svg version="1.1" xmlns="http://www.w3.org/2000/svg" width="32" height="32" viewBox="0 0 32 32">
<title>place</title>
<path d="M16 16q2.563-0.063 4.25-1.75t1.75-4.25q-0.063-2.563-1.75-4.25t-4.25-1.75q-2.563 0.063-4.25 1.75t-1.75 4.25q0.063 2.563 1.75 4.25t4.25 1.75zM16 18q-3.406-0.094-5.656-2.344t-2.344-5.656q0.094-3.406 2.344-5.656t5.656-2.344q3.406 0.094 5.656 2.344t2.344 5.656q-0.094 3.406-2.344 5.656t-5.656 2.344zM16 16q0.438 0 0.719 0.281t0.281 0.719v8q0 0.438-0.281 0.719t-0.719 0.281-0.719-0.281-0.281-0.719v-8q0-0.438 0.281-0.719t0.719-0.281zM12 20.281v2.031q-2.719 0.469-4.344 1.234t-1.656 1.453q0.094 0.969 2.891 1.953t7.109 1.047q4.313-0.063 7.109-1.047t2.891-1.953q-0.031-0.688-1.656-1.453t-4.344-1.234v-2.031q3.563 0.531 5.75 1.797t2.25 2.922q-0.125 2.125-3.516 3.531t-8.484 1.469q-5.094-0.063-8.484-1.469t-3.516-3.531q0.063-1.656 2.25-2.922t5.75-1.797z"></path>
</svg>
