<!-- Generated by IcoMoon.io -->
<svg version="1.1" xmlns="http://www.w3.org/2000/svg" width="32" height="32" viewBox="0 0 32 32">
<title>platform-eleme</title>
<path d="M5.5 2h21q1.5 0.031 2.484 1.016t1.016 2.484v21q-0.031 1.5-1.016 2.484t-2.484 1.016h-21q-1.5-0.031-2.484-1.016t-1.016-2.484v-21q0.031-1.5 1.016-2.484t2.484-1.016zM10.219 7.438q-3.625 2.469-4.484 6.5t1.422 7.781q2.5 3.594 6.531 4.453t7.75-1.453q0.438-0.25 0.781-0.563 0.188-0.156 0.219-0.375t-0.094-0.406l-0.469-0.719q-0.344-0.531-0.922-0.656t-1.109 0.219q-2.656 1.625-5.516 1.016t-4.609-3.172q-1.656-2.656-1.047-5.516t3.172-4.672q2.063-1.281 4.406-1.156t4.25 1.656q0.063 0.031 0.094 0.125 0.156 0.188 0.094 0.406t-0.25 0.375l-6.156 4.031q-0.531 0.344-0.656 0.922t0.188 1.109l0.5 0.75q0.156 0.219 0.375 0.266t0.438-0.078l9.625-6.25q0.375-0.313 0.219-0.75v-0.031l-0.469-0.844q-2.5-3.563-6.531-4.422t-7.75 1.453zM24.594 15.781l-1.938 1.25q-0.219 0.156-0.266 0.375t0.109 0.406l1.25 1.938q0.156 0.219 0.375 0.266t0.406-0.109l0.969-0.625q0.625-0.406 0.766-1.078t-0.266-1.297l-0.625-0.969q-0.156-0.188-0.375-0.234t-0.406 0.078z"></path>
</svg>
