<!-- Generated by IcoMoon.io -->
<svg version="1.1" xmlns="http://www.w3.org/2000/svg" width="32" height="32" viewBox="0 0 32 32">
<title>postcard</title>
<path d="M5 7q-0.438 0-0.719 0.281t-0.281 0.719v16q0 0.438 0.281 0.719t0.719 0.281h22q0.438 0 0.719-0.281t0.281-0.719v-16q0-0.438-0.281-0.719t-0.719-0.281h-22zM5 5h22q1.281 0.031 2.125 0.875t0.875 2.125v16q-0.031 1.281-0.875 2.125t-2.125 0.875h-22q-1.281-0.031-2.125-0.875t-0.875-2.125v-16q0.031-1.281 0.875-2.125t2.125-0.875zM22 10q0.844 0.031 1.406 0.594t0.563 1.406-0.563 1.406-1.406 0.563-1.406-0.563-0.563-1.406 0.563-1.406 1.406-0.594zM9 14h8q1 0 1 1v0q0 1-1 1h-8q-1 0-1-1v0q0-1 1-1zM9 18h8q1 0 1 1v0q0 1-1 1h-8q-1 0-1-1v0q0-1 1-1z"></path>
</svg>
