<!-- Generated by IcoMoon.io -->
<svg version="1.1" xmlns="http://www.w3.org/2000/svg" width="32" height="32" viewBox="0 0 32 32">
<title>potato-strips</title>
<path d="M19 7v-2q0-0.438-0.281-0.719t-0.719-0.281-0.719 0.281-0.281 0.719v10.5h0.844q0.625 0 1.156-0.375v-8.125zM22.156 12q-0.625 0-1.156 0.375v-0.375h2v-5q0-0.438-0.281-0.719t-0.719-0.281-0.719 0.281-0.281 0.719v5h1.156zM24.5 12q0.656 0 1.234 0.281t1 0.781 0.578 1.109 0.031 1.266l-1.875 10.125q-0.219 1.063-1.031 1.734t-1.938 0.703h-13q-1.125-0.031-1.938-0.703t-1.031-1.734l-1.875-10.125q-0.125-0.656 0.031-1.266t0.578-1.109 1-0.781 1.234-0.281h-0.5v-5q0.031-1.156 0.75-1.984t1.859-0.969 2.047 0.453 1.25 1.719q1.031-0.406 2.094-0.063v-1.156q0.031-1.156 0.75-1.984t1.859-0.969 2.047 0.453 1.25 1.719q0.688-0.281 1.422-0.203t1.359 0.5 0.969 1.078 0.344 1.406v5h-0.5zM20.969 16q-0.594 0.719-1.406 1.109t-1.719 0.391h-3.688q-0.906 0-1.719-0.391t-1.406-1.109h-0.031v-0.063q-0.188-0.219-0.313-0.469l-0.844-1.469h-2.344q-0.406 0-0.688 0.328t-0.188 0.734l0.906 4.938h16.938l0.906-4.938q0.094-0.406-0.188-0.734t-0.688-0.328h-2.344l-0.844 1.469q-0.156 0.25-0.313 0.469v0.063h-0.031zM15 9q0-0.438-0.281-0.719t-0.719-0.281-0.719 0.281-0.281 0.719v6.125q0.531 0.375 1.156 0.375h0.844v-6.5zM11 12v-5q0-0.438-0.281-0.719t-0.719-0.281-0.719 0.281-0.281 0.719v5h0.844q0.625 0 1.156 0.375v-0.375zM7.906 22l0.594 3.188q0.094 0.344 0.359 0.578t0.641 0.234h13q0.375 0 0.641-0.234t0.359-0.578l0.594-3.188h-16.188z"></path>
</svg>
