<!-- Generated by IcoMoon.io -->
<svg version="1.1" xmlns="http://www.w3.org/2000/svg" width="32" height="32" viewBox="0 0 32 32">
<title>present</title>
<path d="M15 28v-8h-9v-2h9v-8h-9v18h9zM17 28h9v-18h-9v8h9v2h-9v8zM4 8h24v21q0 0.438-0.281 0.719t-0.719 0.281h-22q-0.438 0-0.719-0.281t-0.281-0.719v-21zM3 8h26q1 0 1 1v0q0 1-1 1h-26q-1 0-1-1v0q0-1 1-1zM13 8q0.844-0.031 1.406-0.594t0.563-1.406-0.563-1.406-1.406-0.563-1.406 0.563-0.563 1.406 0.563 1.406 1.406 0.594zM13 10q-1.688-0.031-2.828-1.172t-1.172-2.828q0.031-1.688 1.172-2.828t2.828-1.172q1.688 0.031 2.828 1.172t1.172 2.828q-0.031 1.688-1.172 2.828t-2.828 1.172zM19 8q0.844-0.031 1.406-0.594t0.563-1.406-0.563-1.406-1.406-0.563-1.406 0.563-0.563 1.406 0.563 1.406 1.406 0.594zM19 10q-1.688-0.031-2.828-1.172t-1.172-2.828q0.031-1.688 1.172-2.828t2.828-1.172q1.688 0.031 2.828 1.172t1.172 2.828q-0.031 1.688-1.172 2.828t-2.828 1.172z"></path>
</svg>
