<!-- Generated by IcoMoon.io -->
<svg version="1.1" xmlns="http://www.w3.org/2000/svg" width="32" height="32" viewBox="0 0 32 32">
<title>printer</title>
<path d="M8 24h-4.719q-0.313 0-0.484-0.031t-0.297-0.094q-0.25-0.156-0.375-0.375-0.063-0.125-0.094-0.297t-0.031-0.484v-10.875q0-0.969 0.109-1.469t0.297-0.844q0.406-0.719 1.125-1.125 0.344-0.188 0.844-0.297t1.469-0.109h2.156v-6h16v6h2.156q0.969 0 1.469 0.109t0.844 0.297q0.719 0.406 1.125 1.125 0.188 0.344 0.297 0.844t0.109 1.469v10.875q0 0.313-0.031 0.484t-0.094 0.297q-0.156 0.25-0.375 0.375-0.125 0.063-0.297 0.094t-0.484 0.031h-4.719v6h-16v-6zM10 18v10h12v-10h-12zM8 22v-6h16v6h4v-10.156q0-0.656-0.031-0.938t-0.141-0.453-0.281-0.281-0.453-0.141-0.938-0.031h-20.313q-0.656 0-0.938 0.031t-0.453 0.141-0.281 0.281-0.141 0.453-0.031 0.938v10.156h4zM10 8h12v-4h-12v4zM8 12h2v2h-2v-2zM12 12h2v2h-2v-2z"></path>
</svg>
