<!-- Generated by IcoMoon.io -->
<svg version="1.1" xmlns="http://www.w3.org/2000/svg" width="32" height="32" viewBox="0 0 32 32">
<title>question</title>
<path d="M16 2q5.938 0.156 9.891 4.109t4.109 9.891q-0.156 5.938-4.109 9.891t-9.891 4.109q-5.938-0.156-9.891-4.109t-4.109-9.891q0.156-5.938 4.109-9.891t9.891-4.109zM16 24q0.688-0.031 1.141-0.469t0.453-1.125-0.453-1.141-1.141-0.453-1.141 0.453-0.453 1.141 0.453 1.125 1.141 0.469zM16 15.594q-0.5 0.031-0.844 0.359t-0.344 0.844 0.344 0.859 0.844 0.344q2.063-0.031 3.563-1.313t1.875-3.313q0.281-2.031-0.734-3.719t-2.984-2.375q-1.969-0.625-3.781 0.109t-2.813 2.547l2.031 1.281q0.531-1.063 1.547-1.531t2.156-0.141 1.75 1.266 0.438 2.109-1.016 1.906-2.031 0.766z"></path>
</svg>
