<!-- Generated by IcoMoon.io -->
<svg version="1.1" xmlns="http://www.w3.org/2000/svg" width="32" height="32" viewBox="0 0 32 32">
<title>rank</title>
<path d="M5.813 17l1.313 1.281q0.375 0.438 0.234 0.984t-0.688 0.688-0.953-0.234l-3-3q-0.313-0.313-0.313-0.719t0.313-0.719l3-3q0.406-0.375 0.953-0.234t0.688 0.688-0.234 0.984l-1.313 1.281h9.094v-9.188l-1.281 1.313q-0.406 0.406-0.984 0.266t-0.719-0.703 0.297-0.969l3-3q0.281-0.313 0.688-0.313t0.719 0.313l3 3q0.281 0.313 0.266 0.688t-0.313 0.672-0.672 0.313-0.688-0.266l-1.313-1.281v9.156h9.094l-1.281-1.281q-0.313-0.313-0.313-0.719t0.297-0.703 0.703-0.297 0.719 0.281l3 3q0.281 0.313 0.281 0.719t-0.281 0.719l-3 3q-0.313 0.281-0.719 0.281t-0.703-0.297-0.297-0.703 0.313-0.719l1.281-1.281h-9.094v9.156l1.313-1.281q0.406-0.406 0.953-0.25t0.703 0.703-0.25 0.953l-3 3q-0.313 0.313-0.719 0.313t-0.688-0.313l-3-3q-0.313-0.281-0.313-0.688t0.297-0.703 0.703-0.297 0.719 0.281l1.281 1.313v-9.188h-9.094z"></path>
</svg>
