<!-- Generated by IcoMoon.io -->
<svg version="1.1" xmlns="http://www.w3.org/2000/svg" width="32" height="32" viewBox="0 0 32 32">
<title>reading</title>
<path d="M16 26.969l12-1.688v-19.969l-11.563 1.656q-0.438 0.063-0.875 0l-11.563-1.656v19.969zM4.281 3.313l11.563 1.656q0.156 0.031 0.313 0l11.563-1.656q0.906-0.094 1.578 0.5t0.703 1.5v19.969q0 0.75-0.484 1.297t-1.234 0.672l-12.125 1.719q-0.156 0.031-0.313 0l-12.125-1.719q-0.75-0.125-1.234-0.672t-0.484-1.297v-19.969q0.031-0.906 0.703-1.5t1.578-0.5zM15 6h2v22h-2v-22z"></path>
</svg>
