<!-- Generated by IcoMoon.io -->
<svg version="1.1" xmlns="http://www.w3.org/2000/svg" width="32" height="32" viewBox="0 0 32 32">
<title>receiving</title>
<path d="M9 12h14v2h-14v-2zM12 8h8v2h-8v-2zM4.094 16h7.906v4h8v-4h7.906l-5.344-10h-13.125zM28 18h-6v4h-12v-4h-6v8h24v-8zM8.625 4h14.75q0.625 0.031 0.906 0.563l5.625 11.219q0.094 0.219 0.094 0.469v10.75q0 0.438-0.281 0.719t-0.719 0.281h-26q-0.438 0-0.719-0.281t-0.281-0.719v-10.75q0-0.25 0.094-0.469l5.625-11.219q0.281-0.531 0.906-0.563z"></path>
</svg>
