<!-- Generated by IcoMoon.io -->
<svg version="1.1" xmlns="http://www.w3.org/2000/svg" width="32" height="32" viewBox="0 0 32 32">
<title>refresh-left</title>
<path d="M9.031 9.281h2.906q0.438 0 0.719 0.281t0.281 0.703-0.281 0.703-0.719 0.313h-4.656q-0.438-0.031-0.719-0.313t-0.281-0.688v-4.656q0-0.438 0.281-0.719t0.719-0.281 0.719 0.281 0.281 0.719v1.563q2.688-2.406 6.141-2.984t6.797 0.828q3.313 1.5 5.234 4.438t1.953 6.563q-0.125 5.094-3.516 8.484t-8.484 3.516q-5.094-0.125-8.484-3.516t-3.516-8.484h2q0.094 4.25 2.922 7.078t7.078 2.922q4.25-0.094 7.063-2.922t2.938-7.078q-0.031-3.156-1.75-5.641t-4.625-3.672q-2.938-1.094-5.891-0.422t-5.109 2.984z"></path>
</svg>
