<!-- Generated by IcoMoon.io -->
<svg version="1.1" xmlns="http://www.w3.org/2000/svg" width="32" height="32" viewBox="0 0 32 32">
<title>refrigerator</title>
<path d="M8 14h16v-9q0-0.438-0.281-0.719t-0.719-0.281h-14q-0.438 0-0.719 0.281t-0.281 0.719v9zM8 16v11q0 0.438 0.281 0.719t0.719 0.281h14q0.438 0 0.719-0.281t0.281-0.719v-11h-16zM9 2h14q1.281 0.031 2.125 0.875t0.875 2.125v22q-0.031 1.281-0.875 2.125t-2.125 0.875h-14q-1.281-0.031-2.125-0.875t-0.875-2.125v-22q0.031-1.281 0.875-2.125t2.125-0.875zM10 9h2v3h-2v-3zM10 18h2v3h-2v-3z"></path>
</svg>
