<!-- Generated by IcoMoon.io -->
<svg version="1.1" xmlns="http://www.w3.org/2000/svg" width="32" height="32" viewBox="0 0 32 32">
<title>refresh</title>
<path d="M24.125 24.844q-2.719 2.438-6.172 3t-6.766-0.844q-3.313-1.5-5.234-4.438t-1.953-6.563h2q0.031 3.156 1.734 5.656t4.641 3.656q2.938 1.125 5.891 0.438t5.109-3h-2.906q-0.438 0-0.719-0.281t-0.281-0.703 0.281-0.703 0.719-0.313h4.656q0.406 0.031 0.688 0.313t0.313 0.688v4.656q-0.031 0.438-0.313 0.719t-0.703 0.281-0.703-0.281-0.281-0.719v-1.563zM8.625 9.25h2.906q0.438 0 0.719 0.281t0.281 0.703-0.281 0.703-0.719 0.313h-4.656q-0.406-0.031-0.688-0.313t-0.313-0.688v-4.656q0.031-0.438 0.313-0.719t0.703-0.281 0.703 0.281 0.281 0.719v1.563q2.719-2.438 6.172-3t6.797 0.844q3.313 1.5 5.219 4.438t1.938 6.563h-2q-0.031-3.156-1.734-5.656t-4.641-3.656q-2.938-1.125-5.891-0.438t-5.109 3z"></path>
</svg>
