<!-- Generated by IcoMoon.io -->
<svg version="1.1" xmlns="http://www.w3.org/2000/svg" width="32" height="32" viewBox="0 0 32 32">
<title>refresh-right</title>
<path d="M24.531 7.188v-1.563q0-0.438 0.281-0.719t0.703-0.281 0.703 0.281 0.313 0.719v4.656q-0.031 0.406-0.313 0.688t-0.688 0.313h-4.656q-0.438-0.031-0.719-0.313t-0.281-0.703 0.281-0.703 0.719-0.281h2.906q-2.438-2.563-5.734-3.109t-6.391 1.078q-3.063 1.688-4.406 4.75t-0.531 6.5q0.906 3.375 3.547 5.422t6.141 2.109q4.25-0.094 7.063-2.922t2.938-7.078h2q-0.125 5.094-3.516 8.484t-8.484 3.516q-5.094-0.125-8.484-3.516t-3.516-8.484q0.031-3.625 1.938-6.563t5.219-4.406q3.344-1.438 6.797-0.859t6.172 2.984z"></path>
</svg>
