<!-- Generated by IcoMoon.io -->
<svg version="1.1" xmlns="http://www.w3.org/2000/svg" width="32" height="32" viewBox="0 0 32 32">
<title>s-comment</title>
<path d="M23 15.75q-0.75-0.031-1.234-0.516t-0.484-1.234 0.484-1.234 1.234-0.484 1.234 0.484 0.484 1.234-0.484 1.234-1.234 0.516zM16 15.75q-0.75-0.031-1.234-0.516t-0.484-1.234 0.484-1.234 1.234-0.484 1.234 0.484 0.484 1.234-0.484 1.234-1.234 0.516zM9 15.75q-0.75-0.031-1.234-0.516t-0.484-1.234 0.484-1.234 1.234-0.484 1.234 0.484 0.484 1.234-0.484 1.234-1.234 0.516zM4 4v20h6v5l7-5h11v-20h-24z"></path>
</svg>
