<!-- Generated by IcoMoon.io -->
<svg version="1.1" xmlns="http://www.w3.org/2000/svg" width="32" height="32" viewBox="0 0 32 32">
<title>s-help</title>
<path d="M28.969 15h-7.063q-0.344-1.906-1.672-3.234t-3.234-1.672v-7.063q4.906 0.469 8.203 3.766t3.766 8.203zM28.969 17q-0.469 4.906-3.766 8.203t-8.203 3.766v-7.063q1.906-0.344 3.234-1.672t1.672-3.234h7.063zM3.031 17h7.063q0.344 1.906 1.672 3.234t3.234 1.672v7.063q-4.906-0.469-8.203-3.766t-3.766-8.203zM3.031 15q0.469-4.906 3.766-8.203t8.203-3.766v7.063q-1.906 0.344-3.234 1.672t-1.672 3.234h-7.063z"></path>
</svg>
