<!-- Generated by IcoMoon.io -->
<svg version="1.1" xmlns="http://www.w3.org/2000/svg" width="32" height="32" viewBox="0 0 32 32">
<title>s-opportunity</title>
<path d="M12 30v-2h6v2h-6zM26 13q0 2.5-1.047 4.703t-2.953 3.766q-0.906 0.75-1.453 1.766t-0.547 2.203v0.563h-10v-0.438q0-1.156-0.453-2.188t-1.328-1.719q-2.469-1.969-3.531-4.828t-0.5-5.953q0.656-3.25 2.922-5.578t5.516-3.047q2.469-0.531 4.875 0.031t4.375 2.156 3.047 3.813 1.078 4.75zM9 14q0.031-3.156 1.641-5.047t4.359-1.953v-2q-3.656 0.094-5.797 2.578t-2.203 6.422h2z"></path>
</svg>
