<!-- Generated by IcoMoon.io -->
<svg version="1.1" xmlns="http://www.w3.org/2000/svg" width="32" height="32" viewBox="0 0 32 32">
<title>s-shop</title>
<path d="M22 22h2v6h-16v-6h2v2h12v-2zM27.906 17.25q0.094 0.344 0.094 0.75-0.031 1.281-0.875 2.125t-2.125 0.844-2.125-0.844-0.875-2.125q-0.031 1.281-0.875 2.125t-2.125 0.844-2.125-0.844-0.875-2.125q-0.031 1.281-0.875 2.125t-2.125 0.844-2.125-0.844-0.875-2.125q-0.031 1.281-0.875 2.125t-2.125 0.844-2.125-0.844-0.875-2.125q0-0.406 0.094-0.75l1.906-13.25h20z"></path>
</svg>
