<!-- Generated by IcoMoon.io -->
<svg version="1.1" xmlns="http://www.w3.org/2000/svg" width="32" height="32" viewBox="0 0 32 32">
<title>s-tools</title>
<path d="M23.875 7.969q1.938 2 2.719 4.656h3.406v6h-3.406q-0.781 2.656-2.719 4.656l1.719 2.969-5.188 3-1.719-2.969q-2.688 0.688-5.375 0l-1.719 2.969-5.188-3 1.719-2.969q-1.938-2-2.719-4.656h-3.406v-6h3.406q0.781-2.656 2.719-4.656l-1.719-2.969 5.188-3 1.719 2.969q2.688-0.688 5.375 0l1.719-2.969 5.188 3zM22 15.625q-0.063-2.563-1.75-4.25t-4.25-1.75q-2.563 0.063-4.25 1.75t-1.75 4.25q0.063 2.563 1.75 4.25t4.25 1.75q2.563-0.063 4.25-1.75t1.75-4.25z"></path>
</svg>
