<!-- Generated by IcoMoon.io -->
<svg version="1.1" xmlns="http://www.w3.org/2000/svg" width="32" height="32" viewBox="0 0 32 32">
<title>school</title>
<path d="M7 4v22h18v-22h-18zM6 2h20q0.438 0 0.719 0.281t0.281 0.719v24q0 0.438-0.281 0.719t-0.719 0.281h-20q-0.438 0-0.719-0.281t-0.281-0.719v-24q0-0.438 0.281-0.719t0.719-0.281zM2 26h28v2h-28v-2zM10 6h4v3h-4v-3zM12 26h8v-2q-0.031-1.688-1.172-2.828t-2.828-1.172q-1.688 0.031-2.828 1.172t-1.172 2.828v2zM16 18q2.563 0.063 4.25 1.75t1.75 4.25v4h-12v-4q0.063-2.563 1.75-4.25t4.25-1.75zM10 12h4v3h-4v-3zM18 6h4v3h-4v-3zM18 12h4v3h-4v-3z"></path>
</svg>
