<!-- Generated by IcoMoon.io -->
<svg version="1.1" xmlns="http://www.w3.org/2000/svg" width="32" height="32" viewBox="0 0 32 32">
<title>scissors</title>
<path d="M16 18.063l-3.344 4.781q0.031 1.938-1.125 3.344t-3.063 1.75q-1.906 0.281-3.453-0.688t-2.141-2.813q-0.531-1.844 0.234-3.516t2.516-2.484q1.781-0.75 3.531-0.203t2.781 2.172l2.844-4.063-8.625-12.344q-0.25-0.344-0.172-0.734t0.422-0.641 0.734-0.172 0.641 0.422l12.281 17.531q1.063-1.625 2.797-2.172t3.516 0.203q1.75 0.813 2.516 2.484t0.234 3.516q-0.594 1.844-2.141 2.813t-3.453 0.688q-1.875-0.344-3.047-1.75t-1.141-3.344zM17.688 12.156l6.531-9.281q0.25-0.344 0.641-0.422t0.734 0.172 0.422 0.641-0.172 0.734l-6.906 9.906-1.219-1.75h-0.031zM5.938 25.469q0.688 0.469 1.469 0.547t1.531-0.266 1.203-1 0.531-1.469-0.266-1.531-1.031-1.188q-1.063-0.688-2.219-0.469t-1.875 1.25-0.531 2.188 1.188 1.938zM26.063 25.469q0.688-0.469 1.031-1.188t0.281-1.547-0.516-1.484-1.219-1-1.563-0.266-1.453 0.578q-1 0.75-1.188 1.922t0.531 2.188 1.875 1.234 2.219-0.438z"></path>
</svg>
