<!-- Generated by IcoMoon.io -->
<svg version="1.1" xmlns="http://www.w3.org/2000/svg" width="32" height="32" viewBox="0 0 32 32">
<title>search</title>
<path d="M24.875 23.469l3.906 3.906q0.281 0.313 0.281 0.703t-0.297 0.688-0.688 0.297-0.703-0.281l-3.906-3.906q-4.156 3.406-9.219 3.109t-8.781-4.141q-3.563-4.031-3.469-9.094t3.813-8.938q3.875-3.719 8.938-3.813t9.094 3.469q3.844 3.719 4.141 8.781t-3.109 9.219zM15 26q4.688-0.125 7.781-3.219t3.219-7.781q-0.125-4.688-3.219-7.781t-7.781-3.219q-4.688 0.125-7.781 3.219t-3.219 7.781q0.125 4.688 3.219 7.781t7.781 3.219z"></path>
</svg>
