<!-- Generated by IcoMoon.io -->
<svg version="1.1" xmlns="http://www.w3.org/2000/svg" width="32" height="32" viewBox="0 0 32 32">
<title>service</title>
<path d="M27 12.813q1.563 0.906 2.359 2.469t0.594 3.359-1.313 3.156-2.828 1.922q-0.656 2.813-2.797 4.516t-5.016 1.766h-3q-0.438 0-0.719-0.281t-0.281-0.719 0.281-0.719 0.719-0.281h3q1.938-0.031 3.469-1.109t2.188-2.891h-0.656q-0.438 0-0.719-0.281t-0.281-0.719v-10q0-0.438 0.281-0.719t0.719-0.281h1q0.5 0 0.969 0.063-0.438-3.5-2.922-5.75t-6.047-2.313q-3.563 0.063-6.047 2.313t-2.922 5.75q0.469-0.063 0.969-0.063h1q0.438 0 0.719 0.281t0.281 0.719v10q0 0.438-0.281 0.719t-0.719 0.281h-1q-2.094-0.031-3.656-1.234t-2.109-3.219 0.219-3.844 2.547-2.891q0.125-4.688 3.219-7.797t7.781-3.203q4.688 0.094 7.781 3.203t3.219 7.797zM8 14q-1.688 0.031-2.828 1.172t-1.172 2.828q0.031 1.688 1.172 2.828t2.828 1.172v-8zM28 18q-0.031-1.688-1.172-2.828t-2.828-1.172v8q1.688-0.031 2.828-1.172t1.172-2.828z"></path>
</svg>
