<!-- Generated by IcoMoon.io -->
<svg version="1.1" xmlns="http://www.w3.org/2000/svg" width="32" height="32" viewBox="0 0 32 32">
<title>set-up</title>
<path d="M7 5q-0.844 0.031-1.406 0.594t-0.594 1.406v18q0.031 0.844 0.594 1.406t1.406 0.594h18q0.844-0.031 1.406-0.594t0.594-1.406v-18q-0.031-0.844-0.594-1.406t-1.406-0.594h-18zM7 3h18q1.688 0.031 2.828 1.172t1.172 2.828v18q-0.031 1.688-1.172 2.828t-2.828 1.172h-18q-1.688-0.031-2.828-1.172t-1.172-2.828v-18q0.031-1.688 1.172-2.828t2.828-1.172zM12 13q0.844-0.031 1.406-0.594t0.563-1.406-0.563-1.406-1.406-0.563-1.406 0.563-0.563 1.406 0.563 1.406 1.406 0.594zM12 15q-1.688-0.031-2.828-1.172t-1.172-2.828q0.031-1.688 1.172-2.828t2.828-1.172q1.688 0.031 2.828 1.172t1.172 2.828q-0.031 1.688-1.172 2.828t-2.828 1.172zM15 10h8q1 0 1 1v0q0 1-1 1h-8q-1 0-1-1v0q0-1 1-1zM20 23q0.844-0.031 1.406-0.594t0.563-1.406-0.563-1.406-1.406-0.563-1.406 0.563-0.563 1.406 0.563 1.406 1.406 0.594zM20 25q-1.688-0.031-2.828-1.172t-1.172-2.828q0.031-1.688 1.172-2.828t2.828-1.172q1.688 0.031 2.828 1.172t1.172 2.828q-0.031 1.688-1.172 2.828t-2.828 1.172zM9 20h8q1 0 1 1v0q0 1-1 1h-8q-1 0-1-1v0q0-1 1-1z"></path>
</svg>
