<!-- Generated by IcoMoon.io -->
<svg version="1.1" xmlns="http://www.w3.org/2000/svg" width="32" height="32" viewBox="0 0 32 32">
<title>setting</title>
<path d="M19.531 2l6.938 4-1.344 2.344q0.688 0.813 1.25 1.781t0.938 2h2.688v8h-2.688q-0.75 2.094-2.188 3.781l1.344 2.344-6.938 4-1.344-2.344q-2.188 0.406-4.375 0l-1.344 2.344-6.938-4 1.344-2.344q-0.719-0.844-1.266-1.797t-0.922-1.984h-2.688v-8h2.688q0.75-2.094 2.188-3.781l-1.344-2.344 6.938-4 1.344 2.344q2.188-0.406 4.375 0zM20.281 4.719l-0.375 0.625-0.688 1.219-1.406-0.25q-1.813-0.344-3.625 0l-1.406 0.25-1.063-1.844-3.438 2 1.031 1.844-0.906 1.063q-1.188 1.406-1.813 3.156l-0.469 1.344h-2.125v4h2.094l0.5 1.344q0.313 0.906 0.75 1.656t1.063 1.5l0.906 1.063-1.031 1.844 3.438 2 1.063-1.844 1.406 0.25q1.813 0.344 3.625 0l1.406-0.25 1.063 1.844 3.438-2-1.031-1.844 0.906-1.063q1.188-1.438 1.813-3.156l0.469-1.344h2.125v-4h-2.094l-0.5-1.344q-0.281-0.844-0.75-1.641t-1.063-1.516l-0.906-1.063 1.031-1.844zM16 9.125q2.969 0.063 4.953 2.047t2.047 4.953q-0.063 2.969-2.047 4.953t-4.953 2.047q-2.969-0.063-4.953-2.047t-2.047-4.953q0.063-2.969 2.047-4.953t4.953-2.047zM16 11.125q-2.125 0.063-3.531 1.469t-1.469 3.531q0.063 2.125 1.469 3.531t3.531 1.469q2.125-0.063 3.531-1.469t1.469-3.531q-0.063-2.125-1.469-3.531t-3.531-1.469z"></path>
</svg>
