<!-- Generated by IcoMoon.io -->
<svg version="1.1" xmlns="http://www.w3.org/2000/svg" width="32" height="32" viewBox="0 0 32 32">
<title>share</title>
<path d="M21.25 10.906l-9.438 5.875q0.25 0.813 0.156 1.656l8.75 3.281q0.906-1.25 2.328-1.594t2.797 0.375 1.891 2.078-0.016 2.813-1.828 2.141-2.797 0.328-2.359-1.547-0.703-2.75l-8.75-3.281q-0.75 1.063-1.906 1.484t-2.391 0.094-2.031-1.266-0.922-2.203 0.469-2.344 1.75-1.625 2.359-0.375 2.141 1.047l9.438-5.875q-0.438-1.5 0.156-2.844t2-1.984 2.797-0.219 2.219 1.734 0.594 2.75-1.438 2.422-2.672 0.922-2.594-1.094z"></path>
</svg>
