<!-- Generated by IcoMoon.io -->
<svg version="1.1" xmlns="http://www.w3.org/2000/svg" width="32" height="32" viewBox="0 0 32 32">
<title>ship</title>
<path d="M16 12.094v1.906h12.688q0.469 0 0.766 0.406t0.172 0.875l-2.375 8.375q-0.594 1.969-2.156 3.141t-3.625 1.203h-10.938q-2.063-0.031-3.625-1.203t-2.156-3.141l-2.375-8.375q-0.125-0.469 0.172-0.875t0.766-0.406h10.688v-10.313q0.031-0.563 0.5-0.844t0.969-0.031l0.438 0.219 0.094-0.031v0.094l7.25 3.938q0.5 0.313 0.484 0.922t-0.547 0.859zM16 9.906l4.531-2.063-4.531-2.469v4.531zM16 16h-11.344l0.563 2h21.563l0.563-2h-11.344zM5.781 20l0.906 3.094q0.375 1.313 1.422 2.094t2.422 0.813h10.938q1.375-0.031 2.422-0.813t1.422-2.094l0.906-3.094h-20.438z"></path>
</svg>
