<!-- Generated by IcoMoon.io -->
<svg version="1.1" xmlns="http://www.w3.org/2000/svg" width="32" height="32" viewBox="0 0 32 32">
<title>shopping-cart-1</title>
<path d="M3 4h25.719q0.469 0 0.766 0.391t0.203 0.859l-3.5 14q-0.094 0.344-0.359 0.547t-0.609 0.203h-17.219v2h19q0.438 0 0.719 0.281t0.281 0.719-0.281 0.719-0.719 0.281h-21v-18h-3q-0.438 0-0.719-0.281t-0.281-0.719 0.281-0.719 0.719-0.281zM8 6v12h16.438l3-12h-19.438zM11.5 29q-0.625-0.031-1.047-0.453t-0.422-1.047 0.422-1.047 1.047-0.422 1.047 0.422 0.422 1.047-0.422 1.047-1.047 0.453zM21.5 29q-0.625-0.031-1.047-0.453t-0.422-1.047 0.422-1.047 1.047-0.422 1.047 0.422 0.422 1.047-0.422 1.047-1.047 0.453z"></path>
</svg>
