<!-- Generated by IcoMoon.io -->
<svg version="1.1" xmlns="http://www.w3.org/2000/svg" width="32" height="32" viewBox="0 0 32 32">
<title>shopping-bag-2</title>
<path d="M6 10v18h20v-18h-20zM5 8h22q0.438 0 0.719 0.281t0.281 0.719v20q0 0.438-0.281 0.719t-0.719 0.281h-22q-0.438 0-0.719-0.281t-0.281-0.719v-20q0-0.438 0.281-0.719t0.719-0.281zM20 14v-6q-0.031-1.688-1.172-2.828t-2.828-1.172q-1.688 0.031-2.828 1.172t-1.172 2.828v6h-2v-6q0.063-2.563 1.75-4.25t4.25-1.75q2.563 0.063 4.25 1.75t1.75 4.25v6h-2z"></path>
</svg>
