<!-- Generated by IcoMoon.io -->
<svg version="1.1" xmlns="http://www.w3.org/2000/svg" width="32" height="32" viewBox="0 0 32 32">
<title>shopping-bag-1</title>
<path d="M22 10v3q0 0.438-0.281 0.719t-0.719 0.281h-1v-4h-8v4h-1q-0.438 0-0.719-0.281t-0.281-0.719v-3h-4v18h20v-18h-4zM10 8q0.063-2.563 1.75-4.25t4.25-1.75q2.563 0.063 4.25 1.75t1.75 4.25h5q0.438 0 0.719 0.281t0.281 0.719v20q0 0.438-0.281 0.719t-0.719 0.281h-22q-0.438 0-0.719-0.281t-0.281-0.719v-20q0-0.438 0.281-0.719t0.719-0.281h5zM12 8h8q-0.031-1.688-1.172-2.828t-2.828-1.172q-1.688 0.031-2.828 1.172t-1.172 2.828zM6 22h20v2h-20v-2z"></path>
</svg>
