<!-- Generated by IcoMoon.io -->
<svg version="1.1" xmlns="http://www.w3.org/2000/svg" width="32" height="32" viewBox="0 0 32 32">
<title>shopping-cart-full</title>
<path d="M13.5 29q-0.625-0.031-1.047-0.453t-0.422-1.047 0.422-1.047 1.047-0.422 1.047 0.422 0.422 1.047-0.422 1.047-1.047 0.453zM23.5 29q-0.625-0.031-1.047-0.453t-0.422-1.047 0.422-1.047 1.047-0.422 1.047 0.422 0.422 1.047-0.422 1.047-1.047 0.453zM3 4q-0.438 0-0.719-0.281t-0.281-0.719 0.281-0.719 0.719-0.281h5q0.375 0 0.641 0.219t0.328 0.594l1.063 5.188h18.969q0.469 0 0.766 0.375t0.203 0.844l-3 14q-0.063 0.344-0.328 0.563t-0.641 0.219h-14q-0.375 0-0.641-0.219t-0.328-0.594l-3.844-19.188h-4.188zM12.813 22h12.375l2.563-12h-17.344zM21.875 8l-2.875-3.438-2.875 3.438h5.75zM17.469 3.281q0.594-0.688 1.531-0.688t1.531 0.688l5.594 6.719h-14.25z"></path>
</svg>
