<!-- Generated by IcoMoon.io -->
<svg version="1.1" xmlns="http://www.w3.org/2000/svg" width="32" height="32" viewBox="0 0 32 32">
<title>soccer</title>
<path d="M13.063 27.219l-8.313-8.313q-0.375 2.219-0.047 4.063t1.406 2.906 2.906 1.391 4.047-0.047zM15.344 26.656q1.969-0.656 3.75-1.734t3.266-2.563 2.563-3.266 1.734-3.75l-9.969-9.969q-2 0.656-3.797 1.75t-3.281 2.563-2.563 3.234-1.734 3.703zM27.219 13.063q0.375-2.219 0.047-4.047t-1.391-2.891-2.875-1.391-4.063 0.078zM4.688 27.313q-2.688-2.906-1.938-8.484t5.406-10.547q4.969-4.656 10.594-5.469t8.563 1.875q2.688 2.938 1.906 8.531t-5.438 10.563q-4.969 4.656-10.563 5.438t-8.531-1.906zM18.813 11.75l0.719-0.688q0.313-0.281 0.703-0.281t0.688 0.297 0.297 0.688-0.281 0.703l-0.688 0.719 1.406 1.406q0.406 0.406 0.25 0.953t-0.703 0.703-0.953-0.25l-1.438-1.406-1.406 1.406 1.406 1.406q0.406 0.406 0.266 0.969t-0.703 0.703-0.969-0.266l-1.406-1.406-1.406 1.406 1.406 1.438q0.406 0.406 0.25 0.953t-0.703 0.703-0.953-0.25l-1.406-1.406-0.719 0.688q-0.406 0.406-0.969 0.266t-0.703-0.703 0.266-0.969l0.688-0.719-1.406-1.406q-0.406-0.406-0.25-0.953t0.703-0.703 0.953 0.25l1.438 1.406 1.406-1.406-1.406-1.406q-0.406-0.406-0.266-0.969t0.703-0.703 0.969 0.266l1.406 1.406 1.406-1.406-1.406-1.438q-0.281-0.313-0.281-0.703t0.297-0.688 0.688-0.297 0.703 0.281z"></path>
</svg>
