<!-- Generated by IcoMoon.io -->
<svg version="1.1" xmlns="http://www.w3.org/2000/svg" width="32" height="32" viewBox="0 0 32 32">
<title>sold-out</title>
<path d="M22 9h4.094q0.406 0 0.672 0.25t0.328 0.656l0.594 6.094h-2l-0.5-5h-3.188v3q0 0.438-0.281 0.719t-0.719 0.281-0.719-0.281-0.281-0.719v-3h-8v3q0 0.438-0.281 0.719t-0.719 0.281-0.719-0.281-0.281-0.719v-3h-3.188l-1.594 16h10.781v2h-11.906q-0.438 0-0.734-0.328t-0.234-0.766l1.781-18q0.063-0.406 0.328-0.656t0.672-0.25h4.094v-0.688q0.063-2.688 1.75-4.469t4.25-1.844q2.563 0.063 4.25 1.844t1.75 4.469v0.688zM20 9v-0.688q-0.031-1.844-1.172-3.063t-2.828-1.25q-1.688 0.031-2.828 1.25t-1.172 3.063v0.688h8zM26.281 23.875q0.438-0.406 1-0.266t0.703 0.703-0.266 0.969l-4 4q-0.313 0.313-0.719 0.313t-0.719-0.313l-4-4q-0.375-0.406-0.234-0.953t0.688-0.703 0.984 0.25l2.281 2.313v-7.188q0-0.438 0.281-0.719t0.719-0.281 0.719 0.281 0.281 0.719v7.188z"></path>
</svg>
