<!-- Generated by IcoMoon.io -->
<svg version="1.1" xmlns="http://www.w3.org/2000/svg" width="32" height="32" viewBox="0 0 32 32">
<title>sort</title>
<path d="M12 3q0-0.438 0.281-0.719t0.719-0.281 0.719 0.281 0.281 0.719v24.594q0 0.313-0.172 0.547t-0.453 0.359-0.578 0.063-0.516-0.281l-9.281-9.281q-0.281-0.281-0.281-0.703t0.281-0.703v0q0.313-0.313 0.703-0.313t0.703 0.313l7.594 7.594v-22.188zM18 4.406q0-0.313 0.172-0.547t0.453-0.359 0.578-0.063 0.516 0.281l9.281 9.281q0.281 0.281 0.281 0.703t-0.281 0.703v0q-0.313 0.313-0.703 0.313t-0.703-0.313l-7.594-7.594v22.188q0 0.438-0.281 0.719t-0.719 0.281-0.719-0.281-0.281-0.719v-24.594z"></path>
</svg>
