<!-- Generated by IcoMoon.io -->
<svg version="1.1" xmlns="http://www.w3.org/2000/svg" width="32" height="32" viewBox="0 0 32 32">
<title>star-off</title>
<path d="M16 23.375l7.125 3.75q0.125 0.031 0.219-0.031t0.063-0.188l-1.344-7.938 5.75-5.625q0.094-0.094 0.063-0.203t-0.156-0.141l-7.969-1.156-3.563-7.219q-0.063-0.125-0.188-0.125t-0.188 0.125l-3.563 7.219-7.969 1.156q-0.125 0.031-0.156 0.141t0.063 0.203l5.75 5.625-1.375 7.938q0 0.125 0.094 0.188t0.219 0.031zM9.813 28.875q-0.594 0.313-1.203 0.266t-1.125-0.422-0.75-0.953-0.141-1.203l1.188-6.906-5-4.875q-0.469-0.438-0.609-1.047t0.063-1.219 0.672-1 1.094-0.484l6.938-1 3.094-6.281q0.281-0.594 0.813-0.906t1.156-0.313 1.156 0.313 0.813 0.906l3.094 6.281 6.938 1q0.625 0.094 1.109 0.484t0.672 1 0.047 1.219-0.609 1.047l-5 4.875 1.188 6.906q0.094 0.625-0.141 1.203t-0.75 0.953-1.125 0.422-1.203-0.234l-6.188-3.281z"></path>
</svg>
