<!-- Generated by IcoMoon.io -->
<svg version="1.1" xmlns="http://www.w3.org/2000/svg" width="32" height="32" viewBox="0 0 32 32">
<title>success</title>
<path d="M16 2q5.938 0.156 9.891 4.109t4.109 9.891q-0.156 5.938-4.109 9.891t-9.891 4.109q-5.938-0.156-9.891-4.109t-4.109-9.891q0.156-5.938 4.109-9.891t9.891-4.109zM14.25 18.75l-3.094-3.094q-0.375-0.344-0.859-0.344t-0.844 0.359-0.359 0.828 0.344 0.844l3.969 3.969q0.344 0.344 0.844 0.344t0.844-0.344l8.219-8.219q0.469-0.469 0.297-1.141t-0.844-0.844-1.141 0.297z"></path>
</svg>
