<!-- Generated by IcoMoon.io -->
<svg version="1.1" xmlns="http://www.w3.org/2000/svg" width="32" height="32" viewBox="0 0 32 32">
<title>sugar</title>
<path d="M25.063 10.906l0.125 0.156q1.188 1.219 1.188 2.813t-1.188 2.844l-8.469 8.469q-0.594 0.563-1.313 0.875t-1.531 0.313-1.531-0.313-1.281-0.875l-0.156-0.125-0.594 3.406q-0.125 0.563-0.484 0.984t-0.891 0.594-1.078 0.031-0.953-0.516l-4.469-4.469q-0.375-0.406-0.516-0.953t0.031-1.078 0.594-0.891 0.984-0.484l3.406-0.594-0.125-0.156q-0.563-0.563-0.875-1.281t-0.313-1.531 0.313-1.531 0.875-1.313l8.469-8.469q0.594-0.563 1.313-0.875t1.531-0.313 1.531 0.313 1.281 0.875l0.156 0.125 0.594-3.406q0.125-0.563 0.484-0.969t0.906-0.578 1.078-0.047 0.938 0.531l4.438 4.469q0.406 0.406 0.531 0.938t-0.047 1.078-0.578 0.906-0.969 0.453zM7.906 17.125h13.969v0.063l1.906-1.906q0.563-0.563 0.594-1.375h-13.344l-2.813 2.813q-0.188 0.188-0.313 0.406zM7.906 19.125q0.125 0.219 0.313 0.406l4.25 4.25q0.625 0.594 1.422 0.594t1.391-0.594l4.656-4.656h-12.031zM23.219 11.906l-3.688-3.688q-0.625-0.594-1.422-0.594t-1.391 0.594l-3.688 3.688h10.188zM3.875 23.656l4.469 4.469 0.75-4.281q0.063-0.406-0.234-0.703t-0.703-0.234zM23.656 3.875l-0.75 4.281q-0.063 0.406 0.234 0.703t0.703 0.234l4.281-0.75z"></path>
</svg>
