<!-- Generated by IcoMoon.io -->
<svg version="1.1" xmlns="http://www.w3.org/2000/svg" width="32" height="32" viewBox="0 0 32 32">
<title>suitcase</title>
<path d="M4 12h24v-2q-0.031-0.844-0.594-1.406t-1.406-0.594h-20q-0.844 0.031-1.406 0.594t-0.594 1.406v2zM4 14v10q0.031 0.844 0.594 1.406t1.406 0.594h20q0.844-0.031 1.406-0.594t0.594-1.406v-10h-24zM6 6h20q1.688 0.031 2.828 1.172t1.172 2.828v14q-0.031 1.688-1.172 2.828t-2.828 1.172h-20q-1.688-0.031-2.828-1.172t-1.172-2.828v-14q0.031-1.688 1.172-2.828t2.828-1.172zM12 4v2h8v-2h-8zM12 2h8q0.844 0.031 1.406 0.594t0.594 1.406v2q-0.031 0.844-0.594 1.406t-1.406 0.594h-8q-0.844-0.031-1.406-0.594t-0.594-1.406v-2q0.031-0.844 0.594-1.406t1.406-0.594z"></path>
</svg>
