<!-- Generated by IcoMoon.io -->
<svg version="1.1" xmlns="http://www.w3.org/2000/svg" width="32" height="32" viewBox="0 0 32 32">
<title>sunny</title>
<path d="M16 22q2.563-0.063 4.25-1.75t1.75-4.25q-0.063-2.563-1.75-4.25t-4.25-1.75q-2.563 0.063-4.25 1.75t-1.75 4.25q0.063 2.563 1.75 4.25t4.25 1.75zM16 24q-3.406-0.094-5.656-2.344t-2.344-5.656q0.094-3.406 2.344-5.656t5.656-2.344q3.406 0.094 5.656 2.344t2.344 5.656q-0.094 3.406-2.344 5.656t-5.656 2.344zM16 2q0.438 0 0.719 0.281t0.281 0.719v2q0 0.438-0.281 0.719t-0.719 0.281-0.719-0.281-0.281-0.719v-2q0-0.438 0.281-0.719t0.719-0.281zM16 26q0.438 0 0.719 0.281t0.281 0.719v2q0 0.438-0.281 0.719t-0.719 0.281-0.719-0.281-0.281-0.719v-2q0-0.438 0.281-0.719t0.719-0.281zM6.094 6.094q0.313-0.281 0.719-0.281t0.688 0.281l1.438 1.406q0.375 0.438 0.234 0.984t-0.688 0.688-0.984-0.234l-1.406-1.438q-0.281-0.281-0.281-0.688t0.281-0.719zM23.063 23.063q0.313-0.281 0.719-0.281t0.719 0.281l1.406 1.438q0.281 0.281 0.281 0.688t-0.297 0.703-0.703 0.297-0.688-0.281l-1.438-1.406q-0.281-0.313-0.281-0.719t0.281-0.719zM2 16q0-0.438 0.281-0.719t0.719-0.281h2q0.438 0 0.719 0.281t0.281 0.719-0.281 0.719-0.719 0.281h-2q-0.438 0-0.719-0.281t-0.281-0.719zM26 16q0-0.438 0.281-0.719t0.719-0.281h2q0.438 0 0.719 0.281t0.281 0.719-0.281 0.719-0.719 0.281h-2q-0.438 0-0.719-0.281t-0.281-0.719zM6.094 25.906q-0.281-0.313-0.281-0.719t0.281-0.688l1.406-1.438q0.313-0.281 0.719-0.281t0.703 0.297 0.297 0.703-0.281 0.719l-1.438 1.406q-0.281 0.281-0.688 0.281t-0.719-0.281zM23.063 8.938q-0.281-0.313-0.281-0.719t0.281-0.719l1.438-1.406q0.281-0.281 0.688-0.281t0.703 0.297 0.297 0.703-0.281 0.688l-1.406 1.438q-0.313 0.281-0.719 0.281t-0.719-0.281z"></path>
</svg>
