<!-- Generated by IcoMoon.io -->
<svg version="1.1" xmlns="http://www.w3.org/2000/svg" width="32" height="32" viewBox="0 0 32 32">
<title>sunrise</title>
<path d="M1 24h30q0.438 0 0.719 0.281t0.281 0.719-0.281 0.719-0.719 0.281h-30q-0.438 0-0.719-0.281t-0.281-0.719 0.281-0.719 0.719-0.281zM5.031 21q0.5-4.344 3.547-7.141t7.422-2.891q4.375 0.094 7.422 2.891t3.547 7.141h-2.031q-0.438-3.5-2.922-5.719t-6.016-2.281q-3.531 0.063-6.016 2.281t-2.922 5.719h-2.031zM16 4q0.438 0 0.719 0.281t0.281 0.719v3q0 0.438-0.281 0.719t-0.719 0.281-0.719-0.281-0.281-0.719v-3q0-0.438 0.281-0.719t0.719-0.281zM28.719 9.281q0.313 0.313 0.313 0.703t-0.313 0.703l-2.125 2.125q-0.406 0.406-0.953 0.25t-0.703-0.703 0.25-0.953l2.125-2.125q0.313-0.313 0.703-0.313t0.703 0.313zM3.281 9.281q0.313-0.313 0.703-0.313t0.703 0.313l2.125 2.125q0.406 0.406 0.25 0.953t-0.703 0.703-0.953-0.25l-2.125-2.125q-0.313-0.313-0.313-0.703t0.313-0.703z"></path>
</svg>
