<!-- Generated by IcoMoon.io -->
<svg version="1.1" xmlns="http://www.w3.org/2000/svg" width="32" height="32" viewBox="0 0 32 32">
<title>sunrise-1</title>
<path d="M1 22h30q0.438 0 0.719 0.281t0.281 0.719-0.281 0.719-0.719 0.281h-30q-0.438 0-0.719-0.281t-0.281-0.719 0.281-0.719 0.719-0.281zM9 26h14q1 0 1 1v0q0 1-1 1h-14q-1 0-1-1v0q0-1 1-1zM5 20q0.125-4.688 3.219-7.781t7.781-3.219q4.688 0.125 7.781 3.219t3.219 7.781h-2q-0.094-3.813-2.641-6.359t-6.359-2.641q-3.813 0.094-6.359 2.641t-2.641 6.359h-2zM16 2q0.438 0 0.719 0.281t0.281 0.719v3q0 0.438-0.281 0.719t-0.719 0.281-0.719-0.281-0.281-0.719v-3q0-0.438 0.281-0.719t0.719-0.281zM28.719 7.281q0.313 0.313 0.313 0.703t-0.313 0.703l-2.125 2.125q-0.406 0.406-0.953 0.25t-0.703-0.703 0.25-0.953l2.125-2.125q0.313-0.313 0.703-0.313t0.703 0.313zM3.281 7.281q0.313-0.313 0.703-0.313t0.703 0.313l2.125 2.125q0.406 0.406 0.25 0.953t-0.703 0.703-0.953-0.25l-2.125-2.125q-0.313-0.313-0.313-0.703t0.313-0.703z"></path>
</svg>
