<!-- Generated by IcoMoon.io -->
<svg version="1.1" xmlns="http://www.w3.org/2000/svg" width="32" height="32" viewBox="0 0 32 32">
<title>sunset</title>
<path d="M2.594 20q-1.25-4.406 0.172-8.547t5.109-6.828q3.75-2.625 8.125-2.625t8.125 2.625q3.688 2.688 5.109 6.828t0.172 8.547h-2.094q1.281-3.813 0.156-7.5t-4.344-6.125q-3.25-2.375-7.109-2.375t-7.141 2.375q-3.219 2.438-4.344 6.125t0.156 7.5h-2.094zM1 22h30q1 0 1 1v0q0 1-1 1h-30q-1 0-1-1v0q0-1 1-1zM9 26h14q1 0 1 1v0q0 1-1 1h-14q-1 0-1-1v0q0-1 1-1z"></path>
</svg>
