<!-- Generated by IcoMoon.io -->
<svg version="1.1" xmlns="http://www.w3.org/2000/svg" width="32" height="32" viewBox="0 0 32 32">
<title>switch-button</title>
<path d="M11 5v2.188q-3.438 1.844-4.984 5.219t-0.703 7.156q0.969 3.781 3.875 6.078t6.813 2.359q3.906-0.063 6.813-2.359t3.875-6.078q0.844-3.781-0.703-7.156t-4.984-5.219v-2.188q4.344 1.906 6.469 5.891t1.281 8.641q-1.031 4.656-4.516 7.516t-8.234 2.953q-4.75-0.094-8.25-2.953t-4.5-7.484q-0.844-4.688 1.281-8.672t6.469-5.891zM16 2v0q1 0 1 1v10q0 1-1 1v0q-1 0-1-1v-10q0-1 1-1z"></path>
</svg>
