<!-- Generated by IcoMoon.io -->
<svg version="1.1" xmlns="http://www.w3.org/2000/svg" width="32" height="32" viewBox="0 0 32 32">
<title>tableware</title>
<path d="M22.313 22q2-1.406 3.203-3.484t1.453-4.516h-21.938q0.25 2.438 1.453 4.516t3.203 3.484h12.625zM9 23.969q-2.844-1.844-4.406-4.719t-1.594-6.25q0-0.438 0.281-0.719t0.719-0.281h24q0.438 0 0.719 0.281t0.281 0.719q-0.031 3.375-1.594 6.25t-4.406 4.719v2.031q-0.031 0.844-0.594 1.406t-1.406 0.594h-10q-0.844-0.031-1.406-0.594t-0.594-1.406v-2.031zM15.406 10h-2.813l7.938-7.938q0.406-0.406 0.969-0.266t0.703 0.703-0.266 0.969zM21.281 10h-4l8.406-4.875q0.375-0.188 0.766-0.078t0.594 0.469 0.109 0.75-0.469 0.609zM11 24v2h10v-2h-10z"></path>
</svg>
