<!-- Generated by IcoMoon.io -->
<svg version="1.1" xmlns="http://www.w3.org/2000/svg" width="32" height="32" viewBox="0 0 32 32">
<title>table-lamp</title>
<path d="M11 28h10q1 0 1 1v0q0 1-1 1h-10q-1 0-1-1v0q0-1 1-1zM9.594 4l-3.094 14h19l-3.094-14h-12.813zM8.813 2h14.375q0.375 0 0.641 0.219t0.359 0.563l3.531 16q0.094 0.469-0.203 0.844t-0.766 0.375h-21.5q-0.469 0-0.766-0.375t-0.203-0.844l3.531-16q0.094-0.344 0.359-0.563t0.641-0.219zM21 18v0q1 0 1 1v4q0 1-1 1v0q-1 0-1-1v-4q0-1 1-1zM15 18h2v12h-2v-12z"></path>
</svg>
