<!-- Generated by IcoMoon.io -->
<svg version="1.1" xmlns="http://www.w3.org/2000/svg" width="32" height="32" viewBox="0 0 32 32">
<title>thumb</title>
<path d="M16 4q-0.875 0.031-1.438 0.594t-0.594 1.406v16.156l-5.406-4.313q-0.781-0.625-1.734-0.656t-1.797 0.531q-0.438 0.375-0.531 0.938t0.25 1.031l5.656 7.5q0.281 0.406 0.703 0.609t0.891 0.203h16v-10.031q0-0.656-0.391-1.188t-1.047-0.719l-6.438-1.938q-0.969-0.313-1.547-1.078t-0.578-1.797v-5.25q-0.031-0.844-0.594-1.406t-1.406-0.594zM11.219 17.406l0.75 0.594v-12q0-1.094 0.516-2.031t1.469-1.5 2.031-0.563 2.031 0.563 1.469 1.5 0.516 2.031v5.25q0 0.344 0.188 0.609t0.531 0.359l6.438 1.938q1.281 0.406 2.047 1.438t0.797 2.375v10.031q-0.031 0.844-0.594 1.406t-1.406 0.594h-16q-0.969 0-1.797-0.422t-1.391-1.172l-5.656-7.531q-0.406-0.563-0.578-1.234t-0.047-1.375 0.5-1.281 0.969-0.953q1.375-0.906 2.953-0.828t2.859 1.078z"></path>
</svg>
