<!-- Generated by IcoMoon.io -->
<svg version="1.1" xmlns="http://www.w3.org/2000/svg" width="32" height="32" viewBox="0 0 32 32">
<title>timer</title>
<path d="M16 28q4.25-0.094 7.078-2.922t2.922-7.078q-0.094-4.25-2.922-7.078t-7.078-2.922q-4.25 0.094-7.078 2.922t-2.922 7.078q0.094 4.25 2.922 7.078t7.078 2.922zM16 30q-5.094-0.125-8.484-3.516t-3.516-8.484q0.125-5.094 3.516-8.484t8.484-3.516q5.094 0.125 8.484 3.516t3.516 8.484q-0.125 5.094-3.516 8.484t-8.484 3.516zM16 10q0.438 0 0.719 0.281t0.281 0.719l-0.031 7q0 0.438-0.281 0.719t-0.703 0.281-0.703-0.281-0.313-0.719l0.031-7q0-0.438 0.281-0.719t0.719-0.281zM14 18q0.031 0.844 0.594 1.406t1.406 0.563 1.406-0.563 0.563-1.406-0.563-1.406-1.406-0.563-1.406 0.563-0.594 1.406zM17 4v4h-2v-4h-3q-0.438 0-0.719-0.281t-0.281-0.719 0.281-0.719 0.719-0.281h8q0.438 0 0.719 0.281t0.281 0.719-0.281 0.719-0.719 0.281h-3z"></path>
</svg>
