<!-- Generated by IcoMoon.io -->
<svg version="1.1" xmlns="http://www.w3.org/2000/svg" width="32" height="32" viewBox="0 0 32 32">
<title>toilet-paper</title>
<path d="M18.594 4h-8.594q-2.563 0.063-4.25 1.75t-1.75 4.25v18h12v-17q0-2.125 0.703-3.938t1.891-3.063zM23 2q2.969 0.094 4.953 2.641t2.047 6.359q-0.063 3.813-2.047 6.359t-4.953 2.641h-5v10h-16v-20q0.094-3.406 2.344-5.656t5.656-2.344h13zM18 11v7h5q2.031-0.063 3.484-2.016t1.516-4.984q-0.063-3.031-1.516-4.984t-3.484-2.016q-2.031 0.063-3.484 2.016t-1.516 4.984zM23 14q-0.844-0.031-1.406-0.875t-0.563-2.125 0.563-2.125 1.406-0.844 1.406 0.844 0.563 2.125-0.563 2.125-1.406 0.875z"></path>
</svg>
