<!-- Generated by IcoMoon.io -->
<svg version="1.1" xmlns="http://www.w3.org/2000/svg" width="32" height="32" viewBox="0 0 32 32">
<title>truck</title>
<path d="M4.031 23h-1.031q-0.438 0-0.719-0.281t-0.281-0.719v-15q0-0.438 0.281-0.719t0.719-0.281h18q0.438 0 0.719 0.281t0.281 0.719v3h5.156q0.375 0 0.641 0.234t0.328 0.609l1.688 11q0.063 0.469-0.234 0.813t-0.734 0.344h-2.875q0.125 1.313-0.422 2.453t-1.656 1.844-2.391 0.703-2.391-0.703-1.656-1.844-0.422-2.453h-4.063q0.125 1.313-0.422 2.453t-1.656 1.844-2.391 0.703-2.391-0.703-1.656-1.844-0.422-2.453zM4.75 21q0.656-0.938 1.625-1.469t2.125-0.531 2.125 0.531 1.625 1.469h5.5q0.844-1.219 2.25-1.75v-11.25h-16v13h0.75zM25.25 21h2.406l-0.594-4h-5.063v2.031q1 0.125 1.844 0.625t1.406 1.344zM26.75 15l-0.469-3h-4.281v3h4.75zM21.5 26q1.063-0.031 1.766-0.734t0.703-1.766-0.703-1.766-1.766-0.703-1.766 0.703-0.703 1.766 0.703 1.766 1.766 0.734zM8.5 26q1.063-0.031 1.766-0.734t0.703-1.766-0.703-1.766-1.766-0.703-1.766 0.703-0.703 1.766 0.703 1.766 1.766 0.734z"></path>
</svg>
