<!-- Generated by IcoMoon.io -->
<svg version="1.1" xmlns="http://www.w3.org/2000/svg" width="32" height="32" viewBox="0 0 32 32">
<title>turn-off-microphone</title>
<path d="M12.875 18.5l-1.406 1.438q-0.719-0.844-1.094-1.844t-0.375-2.094v-8q0.063-2.563 1.75-4.25t4.25-1.75q2.563 0.063 4.25 1.75t1.75 4.25v1.375l-2 2v-3.375q-0.031-1.688-1.172-2.828t-2.828-1.172q-1.688 0.031-2.828 1.172t-1.172 2.828v8q0.031 1.438 0.875 2.5zM14.5 19.719q0.938 0.375 1.922 0.266t1.813-0.672 1.297-1.438 0.469-1.875v-1.781l2-2v3.781q0 1.625-0.797 3t-2.203 2.188-2.984 0.813-3.016-0.781zM9.844 24.375l1.438-1.438q1.719 1.063 3.719 1.063h2q2.969-0.063 4.953-2.047t2.047-4.953v-1q0-0.438 0.281-0.719t0.719-0.281 0.719 0.281 0.281 0.719v1q-0.094 3.813-2.641 6.359t-6.359 2.641v2h2q0.438 0 0.719 0.281t0.281 0.719-0.281 0.719-0.719 0.281h-6q-0.438 0-0.719-0.281t-0.281-0.719 0.281-0.719 0.719-0.281h2v-2q-1.438 0-2.75-0.422t-2.406-1.203zM8.344 23.063q-1.156-1.281-1.75-2.828t-0.594-3.234v-1q0-0.438 0.281-0.719t0.719-0.281 0.719 0.281 0.281 0.719v1q0 1.344 0.469 2.516t1.281 2.109zM4.719 26.844q-0.313 0.281-0.703 0.281t-0.688-0.297-0.313-0.688 0.266-0.703l22-22.156q0.313-0.281 0.703-0.281t0.688 0.297 0.313 0.703-0.266 0.719z"></path>
</svg>
