<!-- Generated by IcoMoon.io -->
<svg version="1.1" xmlns="http://www.w3.org/2000/svg" width="32" height="32" viewBox="0 0 32 32">
<title>umbrella</title>
<path d="M10 24q0-0.438 0.281-0.719t0.719-0.281 0.719 0.281 0.281 0.719q0.031 0.844 0.594 1.406t1.406 0.563 1.406-0.563 0.594-1.406v-8h-14q0.156-5.938 4.109-9.891t9.891-4.109q5.938 0.156 9.891 4.109t4.109 9.891h-12v8q-0.031 1.688-1.172 2.828t-2.828 1.172q-1.688-0.031-2.828-1.172t-1.172-2.828zM27.844 14q-0.844-4.406-4.094-7.156t-7.75-2.844q-4.5 0.094-7.75 2.844t-4.094 7.156h23.688z"></path>
</svg>
