<!-- Generated by IcoMoon.io -->
<svg version="1.1" xmlns="http://www.w3.org/2000/svg" width="32" height="32" viewBox="0 0 32 32">
<title>unlock</title>
<path d="M7 14q-0.438 0-0.719 0.281t-0.281 0.719v12q0 0.438 0.281 0.719t0.719 0.281h18q0.438 0 0.719-0.281t0.281-0.719v-12q0-0.438-0.281-0.719t-0.719-0.281h-18zM7 12h18q1.281 0.031 2.125 0.875t0.875 2.125v12q-0.031 1.281-0.875 2.125t-2.125 0.875h-18q-1.281-0.031-2.125-0.875t-0.875-2.125v-12q0.031-1.281 0.875-2.125t2.125-0.875zM16 17q0.438 0 0.719 0.281t0.281 0.719v6q0 0.438-0.281 0.719t-0.719 0.281-0.719-0.281-0.281-0.719v-6q0-0.438 0.281-0.719t0.719-0.281zM21.563 7.781q-0.844-2.031-2.688-3.031t-4-0.625q-2.156 0.438-3.5 2.047t-1.375 3.828v2h11l3 1.188v0.813h-16v-4q0.063-2.938 1.828-5.094t4.672-2.781q2.875-0.5 5.328 0.844t3.609 4.063z"></path>
</svg>
