<!-- Generated by IcoMoon.io -->
<svg version="1.1" xmlns="http://www.w3.org/2000/svg" width="32" height="32" viewBox="0 0 32 32">
<title>user</title>
<path d="M16 16q2.563-0.063 4.25-1.75t1.75-4.25q-0.063-2.563-1.75-4.25t-4.25-1.75q-2.563 0.063-4.25 1.75t-1.75 4.25q0.063 2.563 1.75 4.25t4.25 1.75zM16 18q-3.406-0.094-5.656-2.344t-2.344-5.656q0.094-3.406 2.344-5.656t5.656-2.344q3.406 0.094 5.656 2.344t2.344 5.656q-0.094 3.406-2.344 5.656t-5.656 2.344zM26 28v-3q-0.031-1.281-0.875-2.125t-2.125-0.875h-14q-1.281 0.031-2.125 0.875t-0.875 2.125v3q0 0.438-0.281 0.719t-0.719 0.281-0.719-0.281-0.281-0.719v-3q0.063-2.125 1.469-3.531t3.531-1.469h14q2.125 0.063 3.531 1.469t1.469 3.531v3q0 0.438-0.281 0.719t-0.719 0.281-0.719-0.281-0.281-0.719z"></path>
</svg>
