<!-- Generated by IcoMoon.io -->
<svg version="1.1" xmlns="http://www.w3.org/2000/svg" width="32" height="32" viewBox="0 0 32 32">
<title>video-pause</title>
<path d="M16 2q5.938 0.156 9.891 4.109t4.109 9.891q-0.156 5.938-4.109 9.891t-9.891 4.109q-5.938-0.156-9.891-4.109t-4.109-9.891q0.156-5.938 4.109-9.891t9.891-4.109zM16 28q5.094-0.125 8.484-3.516t3.516-8.484q-0.125-5.094-3.516-8.484t-8.484-3.516q-5.094 0.125-8.484 3.516t-3.516 8.484q0.125 5.094 3.516 8.484t8.484 3.516zM13 11v0q1 0 1 1v8q0 1-1 1v0q-1 0-1-1v-8q0-1 1-1zM19 11v0q1 0 1 1v8q0 1-1 1v0q-1 0-1-1v-8q0-1 1-1z"></path>
</svg>
