<!-- Generated by IcoMoon.io -->
<svg version="1.1" xmlns="http://www.w3.org/2000/svg" width="32" height="32" viewBox="0 0 32 32">
<title>video-play</title>
<path d="M16 2q5.938 0.156 9.891 4.109t4.109 9.891q-0.156 5.938-4.109 9.891t-9.891 4.109q-5.938-0.156-9.891-4.109t-4.109-9.891q0.156-5.938 4.109-9.891t9.891-4.109zM16 28q5.094-0.125 8.484-3.516t3.516-8.484q-0.125-5.094-3.516-8.484t-8.484-3.516q-5.094 0.125-8.484 3.516t-3.516 8.484q0.125 5.094 3.516 8.484t8.484 3.516zM14.5 20.25l6.406-4.25-6.406-4.25v8.5zM14.844 9.563l7.781 5.188q0.656 0.469 0.656 1.25t-0.656 1.25l-7.781 5.188q-0.375 0.25-0.781 0.266t-0.766-0.188-0.578-0.547-0.219-0.781v-10.375q0-0.438 0.219-0.781t0.578-0.547 0.766-0.188 0.781 0.266z"></path>
</svg>
