<!-- Generated by IcoMoon.io -->
<svg version="1.1" xmlns="http://www.w3.org/2000/svg" width="32" height="32" viewBox="0 0 32 32">
<title>video-camera-solid</title>
<path d="M24 18l6-2v10l-6-2v3q0 0.438-0.281 0.719t-0.719 0.281h-20q-0.438 0-0.719-0.281t-0.281-0.719v-12q0-0.438 0.281-0.719t0.719-0.281h20q0.438 0 0.719 0.281t0.281 0.719v3zM6 24v2h12v-2h-12zM12 9q0.063-2.125 1.469-3.531t3.531-1.469q2.125 0.063 3.531 1.469t1.469 3.531q-0.063 2.125-1.469 3.531t-3.531 1.469q-2.125-0.063-3.531-1.469t-1.469-3.531zM14 9q0 0.813 0.406 1.5t1.109 1.094 1.484 0.406 1.5-0.406 1.109-1.094 0.391-1.5q-0.031-1.281-0.875-2.125t-2.125-0.844-2.125 0.844-0.875 2.125zM4 10q0-1.094 0.531-2t1.469-1.453 2-0.547 2 0.547 1.469 1.453 0.531 2q-0.031 1.688-1.172 2.828t-2.828 1.172q-1.688-0.031-2.828-1.172t-1.172-2.828zM6 10q0.031 0.844 0.594 1.406t1.406 0.563 1.406-0.563 0.563-1.406-0.563-1.406-1.406-0.563-1.406 0.563-0.594 1.406z"></path>
</svg>
