<!-- Generated by IcoMoon.io -->
<svg version="1.1" xmlns="http://www.w3.org/2000/svg" width="32" height="32" viewBox="0 0 32 32">
<title>view</title>
<path d="M16 5q7.563 0.688 11.75 5.5t4.25 5.5q-0.063 0.688-4.25 5.5t-11.75 5.5q-7.563-0.688-11.75-5.5t-4.25-5.5q0.063-0.688 4.25-5.5t11.75-5.5zM16 7q-5.313 0.344-8.844 3.578t-4.813 5.422q1.281 2.188 4.813 5.422t8.844 3.578q5.313-0.344 8.844-3.578t4.813-5.422q-1.281-2.188-4.813-5.422t-8.844-3.578zM16 9q2.969 0.063 4.953 2.047t2.047 4.953q-0.063 2.969-2.047 4.953t-4.953 2.047q-2.969-0.063-4.953-2.047t-2.047-4.953q0.063-2.969 2.047-4.953t4.953-2.047zM16 11q-2.125 0.063-3.531 1.469t-1.469 3.531q0.063 2.125 1.469 3.531t3.531 1.469q2.125-0.063 3.531-1.469t1.469-3.531q-0.063-2.125-1.469-3.531t-3.531-1.469z"></path>
</svg>
