<!-- Generated by IcoMoon.io -->
<svg version="1.1" xmlns="http://www.w3.org/2000/svg" width="32" height="32" viewBox="0 0 32 32">
<title>wallet</title>
<path d="M20 9h-2v-5h-14v22h12v1q0 0.438 0.281 0.719t0.719 0.281h-14q-0.438 0-0.719-0.281t-0.281-0.719v-24q0-0.438 0.281-0.719t0.719-0.281h16q0.438 0 0.719 0.281t0.281 0.719v6zM4 10v16h24v-16h-24zM3 8h26q0.438 0 0.719 0.281t0.281 0.719v18q0 0.438-0.281 0.719t-0.719 0.281h-26q-0.438 0-0.719-0.281t-0.281-0.719v-18q0-0.438 0.281-0.719t0.719-0.281zM22 20q-0.844-0.031-1.406-0.594t-0.563-1.406 0.563-1.406 1.406-0.563 1.406 0.563 0.563 1.406-0.563 1.406-1.406 0.594z"></path>
</svg>
