<!-- Generated by IcoMoon.io -->
<svg version="1.1" xmlns="http://www.w3.org/2000/svg" width="32" height="32" viewBox="0 0 32 32">
<title>warning</title>
<path d="M16 2q5.938 0.156 9.891 4.109t4.109 9.891q-0.156 5.938-4.109 9.891t-9.891 4.109q-5.938-0.156-9.891-4.109t-4.109-9.891q0.156-5.938 4.109-9.891t9.891-4.109zM16 8q-0.813 0-1.344 0.594t-0.469 1.406l0.719 8q0.063 0.438 0.359 0.703t0.734 0.266 0.734-0.266 0.359-0.703l0.719-8q0.063-0.813-0.469-1.406t-1.344-0.594zM16 24q0.688-0.031 1.141-0.469t0.453-1.125-0.453-1.141-1.141-0.453-1.141 0.453-0.453 1.141 0.453 1.125 1.141 0.469z"></path>
</svg>
