<!-- Generated by IcoMoon.io -->
<svg version="1.1" xmlns="http://www.w3.org/2000/svg" width="32" height="32" viewBox="0 0 32 32">
<title>watch</title>
<path d="M16 24q3.406-0.094 5.656-2.344t2.344-5.656q-0.094-3.406-2.344-5.656t-5.656-2.344q-3.406 0.094-5.656 2.344t-2.344 5.656q0.094 3.406 2.344 5.656t5.656 2.344zM16 26q-4.25-0.094-7.078-2.922t-2.922-7.078q0.094-4.25 2.922-7.078t7.078-2.922q4.25 0.094 7.078 2.922t2.922 7.078q-0.094 4.25-2.922 7.078t-7.078 2.922zM15 11q0.438 0 0.719 0.281t0.281 0.719v5q0 0.438-0.281 0.719t-0.719 0.281-0.719-0.281-0.281-0.719v-5q0-0.438 0.281-0.719t0.719-0.281zM15 16h4q1 0 1 1v0q0 1-1 1h-4q-1 0-1-1v0q0-1 1-1zM19 8v-4h-6v4h-2v-6h10v6h-2zM13 24v4h6v-4h2v6h-10v-6h2z"></path>
</svg>
