<!-- Generated by IcoMoon.io -->
<svg version="1.1" xmlns="http://www.w3.org/2000/svg" width="32" height="32" viewBox="0 0 32 32">
<title>watch-1</title>
<path d="M16 24q3.406-0.094 5.656-2.344t2.344-5.656q-0.094-3.406-2.344-5.656t-5.656-2.344q-3.406 0.094-5.656 2.344t-2.344 5.656q0.094 3.406 2.344 5.656t5.656 2.344zM16 26q-4.25-0.094-7.078-2.922t-2.922-7.078q0.094-4.25 2.922-7.078t7.078-2.922q4.25 0.094 7.078 2.922t2.922 7.078q-0.094 4.25-2.922 7.078t-7.078 2.922zM19 8v-4h-6v4h-2v-6h10v6h-2zM13 24v4h6v-4h2v6h-10v-6h2zM16 12q-0.438 0-0.719-0.281t-0.281-0.719 0.281-0.719 0.719-0.281 0.719 0.281 0.281 0.719-0.281 0.719-0.719 0.281zM16 22q-0.438 0-0.719-0.281t-0.281-0.719 0.281-0.719 0.719-0.281 0.719 0.281 0.281 0.719-0.281 0.719-0.719 0.281zM12 16q0 0.438-0.281 0.719t-0.719 0.281-0.719-0.281-0.281-0.719 0.281-0.719 0.719-0.281 0.719 0.281 0.281 0.719zM22 16q0 0.438-0.281 0.719t-0.719 0.281-0.719-0.281-0.281-0.719 0.281-0.719 0.719-0.281 0.719 0.281 0.281 0.719zM13.188 13.188q-0.438 0.375-0.984 0.234t-0.703-0.703 0.25-0.969q0.313-0.281 0.703-0.281t0.688 0.297 0.313 0.703-0.266 0.719zM20.25 20.25q-0.406 0.406-0.969 0.25t-0.703-0.703 0.234-0.984q0.313-0.281 0.719-0.266t0.703 0.313 0.297 0.688-0.281 0.703zM13.188 18.813q0.375 0.438 0.234 0.984t-0.703 0.703-0.969-0.25q-0.281-0.313-0.281-0.703t0.297-0.688 0.703-0.313 0.719 0.266zM20.25 11.75q0.375 0.438 0.234 0.984t-0.688 0.688-0.984-0.234q-0.281-0.313-0.266-0.719t0.313-0.703 0.688-0.297 0.703 0.281z"></path>
</svg>
