<!-- Generated by IcoMoon.io -->
<svg version="1.1" xmlns="http://www.w3.org/2000/svg" width="32" height="32" viewBox="0 0 32 32">
<title>watermelon</title>
<path d="M21.344 18.75l-1.375 5.094-1.906-0.5 1.656-6.219-1.719-1.719-4.938 4.969-1.438-1.438 4.969-4.938-1.75-1.75-6.188 1.688-0.531-1.938 5.094-1.375-4.375-4.375q-3.031 3.719-2.844 8.25t3.5 8q3.469 3.313 8 3.5t8.25-2.844zM28.594 23.156q-2.656 3-6.328 4.172t-7.547 0.266q-3.875-0.969-6.609-3.703t-3.703-6.609q-0.906-3.875 0.266-7.547t4.172-6.328z"></path>
</svg>
