<!-- Generated by IcoMoon.io -->
<svg version="1.1" xmlns="http://www.w3.org/2000/svg" width="32" height="32" viewBox="0 0 32 32">
<title>water-cup</title>
<path d="M23 25v-20h-18v20q0.031 0.844 0.594 1.406t1.406 0.594h14q0.844-0.031 1.406-0.594t0.594-1.406zM25 8h2q1.25 0.031 2.109 0.875t0.891 2.125v7q-0.031 1.281-0.891 2.125t-2.109 0.875h-2v4q-0.031 1.688-1.172 2.828t-2.828 1.172h-14q-1.688-0.031-2.828-1.172t-1.172-2.828v-21q0-0.438 0.281-0.719t0.719-0.281h20q0.438 0 0.719 0.281t0.281 0.719v4zM25 10v9h2q0.406 0 0.688-0.281t0.313-0.719v-7q-0.031-0.438-0.313-0.719t-0.688-0.281h-2z"></path>
</svg>
