<!-- Generated by IcoMoon.io -->
<svg version="1.1" xmlns="http://www.w3.org/2000/svg" width="32" height="32" viewBox="0 0 32 32">
<title>wind-power</title>
<path d="M5 2v0q1 0 1 1v26q0 1-1 1v0q-1 0-1-1v-26q0-1 1-1zM18 13.094l4-0.375v-7.438l-4-0.375v8.188zM16 13.25v-8.5l-6-0.563v0.813h-2v-3l19.281 1.75q1.188 0.125 1.938 0.969t0.781 2.031v4.5q-0.031 1.188-0.781 2.031t-1.938 0.969l-19.281 1.75v-9h2v6.813zM24 12.531l3.094-0.281q0.406-0.031 0.656-0.313t0.25-0.688v-4.5q0-0.406-0.25-0.688t-0.656-0.313l-3.094-0.281v7.063z"></path>
</svg>
